<?xml version="1.0" standalone="no"?>
<!DOCTYPE svg PUBLIC "-//W3C//DTD SVG 1.1//EN" "http://www.w3.org/Graphics/SVG/1.1/DTD/svg11.dtd" >
<svg xmlns="http://www.w3.org/2000/svg" xmlns:xlink="http://www.w3.org/1999/xlink" version="1.1">
<metadata></metadata>
<defs>
<font id="platformermedium" horiz-adv-x="901" >
<font-face units-per-em="2048" ascent="1638" descent="-410" />
<missing-glyph horiz-adv-x="500" />
<glyph />
<glyph />
<glyph unicode="&#xd;" />
<glyph />
<glyph />
<glyph />
<glyph />
<glyph />
<glyph />
<glyph />
<glyph />
<glyph unicode="&#x9;" />
<glyph unicode="&#xa;" />
<glyph />
<glyph />
<glyph />
<glyph />
<glyph />
<glyph />
<glyph />
<glyph />
<glyph />
<glyph />
<glyph />
<glyph />
<glyph />
<glyph />
<glyph />
<glyph />
<glyph />
<glyph />
<glyph />
<glyph />
<glyph unicode=" " />
<glyph unicode="!" d="M350 121v198h201v-198h-201zM360 1413h181q0 -147 -11.5 -457.5t-29.5 -453.5h-99q-18 143 -29.5 453.5t-11.5 457.5z" />
<glyph unicode="&#x22;" d="M252 1425h160q0 -268 -31 -489h-98q-31 221 -31 489zM489 1425h158q0 -268 -29 -489h-98q-31 221 -31 489z" />
<glyph unicode="#" d="M92 344v121h139v604h-139v121h139v412h121v-412h197v412h121v-412h139v-121h-139v-604h139v-121h-139v-412h-121v412h-197v-412h-121v412h-139zM352 465h197v604h-197v-604z" />
<glyph unicode="$" horiz-adv-x="819" d="M129 1118q2 27 4 51v2q20 127 135 201q57 37 123 47v94h119v-92q66 -12 127 -49q111 -68 133 -194h-129q-14 53 -70 88q-27 16 -61 26v-499q37 -29 53 -41q98 -76 148 -152q53 -82 53 -180q0 -27 -4 -55v-3q-20 -127 -133 -200q-53 -35 -117 -47v-95h-119v95 q-63 10 -123 47q-47 31 -133 200q-2 4 -2 21h125v-2q12 -74 76 -115q23 -14 57 -22v491q-43 33 -59 47h-2q-102 80 -148 152q-53 84 -53 184zM254 1114q2 -63 35 -115h2q37 -49 100 -106v397q-33 -10 -57 -24q-61 -37 -76 -113q-4 -20 -4 -39zM510 246q37 12 51 20 q59 37 76 115q4 20 4 41q-4 68 -37 113q-35 49 -94 102v-391z" />
<glyph unicode="%" d="M156 1049v376h180v-376h-180zM170 121l430 1292h131l-430 -1292h-131zM565 109v376h180v-376h-180z" />
<glyph unicode="&#x26;" d="M90 459v4q8 111 80 217q51 74 98 121q-31 41 -63 92q-23 35 -47.5 100.5t-24.5 126.5q0 127 60 209q68 96 172 96h2h8q94 0 164 -92q63 -86 63 -211q0 -88 -49 -176q-51 -92 -127 -164l246 -420q16 43 16 99v155h123v-155q0 -129 -70 -219l72 -121h-143l-23 39 q-92 -51 -196 -51q-139 0 -240 81q-121 98 -121 269zM213 459q0 -113 74 -172q70 -55 164 -56q70 0 135 35l-250 428q-37 -41 -64 -82q-59 -90 -59 -151v-2zM256 1120q0 -51 25.5 -102t76.5 -129q51 57 86 124.5t35 108.5q0 86 -39 138q-31 43 -73 43q-43 0 -74 -43 q-37 -53 -37 -140z" />
<glyph unicode="'" d="M371 1425h157q0 -268 -28 -489h-99q-30 221 -30 489z" />
<glyph unicode="(" d="M238 768q0 246 51 436q51 195 145 299q99 111 230 111v-123q-92 0 -162 -104.5t-103 -268.5q-33 -162 -32 -350q0 -190 32.5 -352t102.5 -269q68 -104 162 -104v-123q-131 0 -230 111q-96 109 -147 299q-49 182 -49 438z" />
<glyph unicode=")" d="M238 43q94 0 161 104q70 106 103 268.5t33 352.5q0 188 -33 350q-33 164 -102.5 268.5t-161.5 104.5v123q131 0 229 -111q94 -104 145 -299q51 -190 52 -436q0 -256 -50 -438q-51 -190 -147 -299q-98 -111 -229 -111v123z" />
<glyph unicode="*" d="M84 799l39 116l266 -90v283h123v-283l266 90l39 -116l-266 -90l166 -226l-99 -73l-167 227l-168 -227l-99 73l166 226z" />
<glyph unicode="+" d="M92 707v120h297v297h123v-297h297v-120h-297v-297h-123v297h-297z" />
<glyph unicode="," d="M350 -70q27 12 42.5 33t22.5 50.5t9 51t2 56.5h-76v198h201v-198q0 -47 -3 -79t-14.5 -71t-32 -64.5t-58 -48t-93.5 -32.5v104z" />
<glyph unicode="-" d="M231 707v120h439v-120h-439z" />
<glyph unicode="." d="M350 121v198h201v-198h-201z" />
<glyph unicode="/" d="M109 -68l555 1670h129l-553 -1670h-131z" />
<glyph unicode="0" d="M127 768q0 72 2 113q0 41 6 120q6 82 19 129q18 68 34 111q25 61 58 98q35 35 87 60.5t118 25.5q70 0 118 -24q57 -29 86 -62q35 -39 58 -98q16 -43 35 -113q12 -47 18 -127q2 -16 6 -118q2 -43 2 -117v-113q-2 -37 -8 -121q-6 -68 -18 -129q-10 -51 -35 -110 q-27 -66 -58 -98q-27 -29 -86 -60q-51 -27 -118 -26q-72 0 -119 24q-59 31 -86 62q-37 43 -58 98q-20 57 -34 113q-12 47 -19 126q-2 16 -6 119q-2 43 -2 117zM252 766q0 -66 2 -119l379 404q-43 252 -182 252q-199 0 -199 -537zM270 483q43 -252 181 -252q201 0 200 535v25 q0 53 -4 96z" />
<glyph unicode="1" d="M195 1135v147l194 131h123v-1292h-123v1145z" />
<glyph unicode="2" d="M137 121q0 33 4 131q4 80 4 90q12 174 52 254q23 45 39 72q20 31 59 69q41 41 53 51q35 29 70 56q45 37 57 47q82 59 125 121q41 57 41 116v9v6q0 92 -53 129q-43 31 -131 31q-176 0 -193 -117h-123q10 111 101 176q88 63 215 63q131 0 202 -53q104 -76 105 -244v-6v-6 q0 -88 -55 -164q-80 -106 -156 -157q-16 -10 -37 -29q-25 -20 -39 -33q-10 -8 -35 -31q-33 -25 -36 -30q-8 -10 -29 -29q-27 -29 -29 -33q-8 -12 -20 -28q-14 -27 -19 -35q-25 -55 -41 -215q-4 -41 -6 -88h502v-123h-627z" />
<glyph unicode="3" d="M129 500h121q0 -123 46 -196t142 -73h25q96 0 142 73t46 196q0 115 -16 166q-14 43 -46 70.5t-71 29.5h-141v123h112q68 0 101 66.5t33 140.5q0 115 -42 161t-143 46q-90 -2 -130 -47.5t-42 -147.5h-121q4 313 293 317h6q301 0 301 -329q0 -172 -73 -256q39 -29 61 -72 q27 -55 34 -104.5t7 -163.5q0 -76 -14.5 -140.5t-46 -124t-93 -93t-147.5 -33.5h-10h-25h-10q-86 0 -147.5 33.5t-93 93t-45 124t-13.5 140.5z" />
<glyph unicode="4" d="M156 557v123l374 733h129v-735h86v-121h-86v-436h-122v436h-381zM291 678h246v481z" />
<glyph unicode="5" d="M129 500h121q0 -121 47 -197q45 -72 141 -72h25q96 0 141 72q47 74 47 197q0 117 -16 166q-14 43 -45 69q-33 29 -72 31h-389v647h619v-121h-498v-403h268q55 0 121 -29q61 -27 94 -92q25 -51 33 -104q8 -63 8 -136v-28q-2 -78 -14 -142q-12 -70 -45 -122 q-33 -55 -94 -93q-59 -35 -148 -34h-10h-25h-10q-82 0 -147 34q-63 35 -95 93q-35 68 -45 122q-12 66 -12 142z" />
<glyph unicode="6" d="M121 500q0 147 26.5 318t67.5 263q66 154 182.5 249t286.5 95h10h25v-122h-25q-121 0 -212 -82t-148 -211q-29 -68 -51 -170q76 49 178 49h8h2h8h17q133 -8 208.5 -125t75.5 -264.5t-75.5 -265t-208.5 -125.5h-17h-8h-10q-86 0 -153.5 34.5t-107.5 92t-59.5 124 t-19.5 140.5zM244 498.5q0 -115.5 63.5 -191.5t163.5 -76q82 0 134 76t52 191.5t-52 191.5t-134 76q-100 0 -163.5 -76t-63.5 -191.5z" />
<glyph unicode="7" d="M156 1292v121h589v-168l-426 -1124h-131l445 1171h-477z" />
<glyph unicode="8" d="M117 500v4q0 238 121 336q-90 84 -93 256q0 329 301 329h11q299 0 299 -329q0 -172 -90 -256q119 -98 118 -336v-4q0 -78 -14 -142q-12 -63 -44 -122.5t-93.5 -93t-181 -33.5t-182 33.5t-93.5 93t-45 124t-14 140.5zM240 500q0 -123 46 -196t142 -73h23h24q96 0 141.5 73 t45.5 196q0 39 -6.5 78.5t-20.5 85t-45 74t-74 28.5h-129q-43 0 -74.5 -28.5t-46 -74t-20.5 -85t-6 -78.5zM268 1096q0 -35 7.5 -67t25.5 -65.5t57 -54t93.5 -20.5t92.5 20.5t56 54t25.5 65.5t7.5 67q0 113 -42 160t-140 47t-140.5 -47.5t-42.5 -159.5z" />
<glyph unicode="9" d="M121 1034.5q0 147.5 76 265t209 125.5h24h10q86 0 154 -34.5t106.5 -92t59 -124t20.5 -140.5q0 -88 -6 -171t-21.5 -178t-41 -175t-69.5 -155.5t-101.5 -129t-140.5 -85t-185 -31.5h-8h-27v122h27q86 0 156.5 37t121 102.5t83 146.5t55.5 179q-78 -51 -183 -51h-10h-8 h-16q-133 8 -209 125t-76 264.5zM244 1035.5q0 -115.5 52 -192.5t134 -77q100 0 163.5 77t63.5 192.5t-63.5 191.5t-163.5 76q-82 0 -134 -76t-52 -191.5z" />
<glyph unicode=":" d="M350 121v198h201v-198h-201zM350 909v199h201v-199h-201z" />
<glyph unicode=";" d="M350 -70q27 12 42.5 33t22.5 50.5t9 51t2 56.5h-76v198h201v-198q0 -47 -3 -79t-14.5 -71t-32 -64.5t-58 -48t-93.5 -32.5v104zM350 909v199h201v-199h-201z" />
<glyph unicode="&#x3c;" d="M104 700v134l693 391v-133l-576 -324l576 -326v-133z" />
<glyph unicode="=" d="M92 492v122h717v-122h-717zM92 920v122h717v-122h-717z" />
<glyph unicode="&#x3e;" d="M104 309v133l576 326l-576 324v133l693 -391v-134z" />
<glyph unicode="?" d="M131 1178q23 127 133 194q85 53 185 53q96 0 184 -53q115 -70 135 -201v-2q4 -33 4 -53q-4 -106 -53 -182q-31 -47 -150 -152q-16 -14 -59 -47q-43 -35 -74 -59v-260h-125v137v176q20 16 27 23q2 2 59 47q150 119 215 200q33 53 33 119l-2 35q-4 66 -76 113 q-53 35 -118 34q-68 0 -119 -32q-55 -35 -70 -90h-129zM311 121v125h125v-125h-125z" />
<glyph unicode="@" d="M115 702v12.5v12.5q0 170 6 258q10 166 43 244q43 104 125 150t161.5 46t161.5 -46t125 -150q33 -78 43 -244q6 -88 6 -258v-29q0 -84 -4 -125q-4 -78 -26 -118q-27 -55 -77 -79t-98.5 -24t-97.5 23.5t-77 79.5q-20 41 -27 118q-2 41 -2 124t2 124q6 80 27 121 q29 53 77.5 76.5t98.5 23.5q37 0 71 -12q-10 106 -30 152q-49 121 -172 121t-172 -121q-27 -59 -35 -205q-4 -84 -4 -250v-12v-13q0 -186 4 -274q8 -145 35 -205q49 -119 170 -119h118q150 0 219 93v-150q-59 -68 -219 -67h-118q-80 2 -161 47t-124 149q-33 78 -43 244 q-6 92 -6 282zM500 698.5q0 -77.5 2 -114.5q4 -55 14 -74q16 -33 64.5 -33t66.5 33q8 18 12 74q2 37 2.5 114.5t-2.5 114.5q-4 53 -12 72q-18 35 -66.5 35t-64.5 -35q-10 -18 -14 -72q-2 -37 -2 -114.5z" />
<glyph unicode="A" d="M113 121l247 1292h185l246 -1292h-123l-101 524h-229l-100 -524h-125zM360 766h183l-90 483z" />
<glyph unicode="B" d="M156 121v1292h290q295 0 299 -317q0 -172 -71 -256q39 -29 61 -72q27 -55 34 -104.5t7 -163.5q-2 -76 -16.5 -138.5t-46 -120t-93 -89t-145.5 -31.5h-319zM279 242h186q94 0 140 69.5t48 188.5q0 113 -16 166q-14 43 -46 70.5t-71 29.5h-28h-213v-524zM279 889h213 q66 0 98.5 66.5t34.5 140.5q-2 109 -45 152.5t-144 43.5h-157v-403z" />
<glyph unicode="C" d="M109 767q0 384 59 501q43 84 121.5 120.5t156.5 36.5q332 0 340 -290h-124v13v13q-18 141 -201 142q-76 0 -127 -38t-72 -104q-31 -94 -31 -394t31 -394q20 -66 71.5 -104t127.5 -38q182 0 201 142v13v13h124q-8 -290 -338 -290h-2q-78 0 -156.5 36.5t-121.5 120.5 q-59 117 -59 501z" />
<glyph unicode="D" d="M156 121v1292h288q111 0 185 -82q55 -61 84 -164q33 -123 33 -392v-8q0 -275 -33 -400q-29 -102 -84 -164q-74 -82 -185 -82h-288zM281 242h163q37 0 54.5 9t40.5 34q35 39 55 112q29 109 29 370t-29 370q-20 74 -55 112q-23 25 -40.5 34t-54.5 9h-163v-1050z" />
<glyph unicode="E" d="M180 121l2 1292h594v-121h-469l-2 -403h404v-123h-404v-524h471v-121h-594h-2z" />
<glyph unicode="F" d="M182 121l2 1292h594v-121h-471v-526h404v-121h-404v-524h-125z" />
<glyph unicode="G" d="M113 767q0 384 59 501q43 84 121 120.5t158 36.5q332 0 337 -290h-122v13v13q-20 141 -201 142q-76 0 -127 -38t-72 -104q-30 -91 -30 -376v-19q0 -311 28 -393q25 -66 73 -104t113.5 -38t113.5 38t71 104q20 53 25.5 103t5.5 167h-166v125h288v-125q0 -145 -11 -224 t-48 -153q-43 -84 -121 -120.5t-157.5 -36.5t-157.5 36.5t-121 120.5q-59 117 -59 501z" />
<glyph unicode="H" d="M156 121v1292h123v-524h370v524h125v-1292h-125v645h-370v-645h-123z" />
<glyph unicode="I" d="M195 121v121h194v1050h-194v121h512v-121h-195v-1050h195v-121h-512z" />
<glyph unicode="J" d="M113 1292v121h675v-121h-167l2 -893q0 -47 -2.5 -71.5t-10.5 -61.5t-29.5 -64.5t-58.5 -49.5q-68 -43 -153 -43q-80 0 -146 41q-90 55 -106 161q-2 10 -2 21h123v-2q8 -49 49 -76q37 -23 81 -23t81 23q23 14 35 41t14 48.5t2 55.5l-2 893h-385z" />
<glyph unicode="K" d="M158 121v1292h123v-489h22l313 489h142l-344 -541l420 -751h-140l-381 680h-32v-680h-123z" />
<glyph unicode="L" d="M197 121v1292h125v-1171h471v-121h-596z" />
<glyph unicode="M" d="M119 121v1292h145l187 -688l186 688h145v-1292h-125v1024l-159 -590h-95l-159 594v-1028h-125z" />
<glyph unicode="N" d="M139 121v1292h162l336 -1005v1005h125v-1292h-160l-338 1014v-1014h-125z" />
<glyph unicode="O" d="M127 767q0 384 57 501q41 84 116 120.5t150.5 36.5t150.5 -36.5t116 -120.5q57 -117 57 -501t-57 -501q-41 -84 -116 -120.5t-150.5 -36.5t-150.5 36.5t-116 120.5q-57 117 -57 501zM252 767q0 -312 27 -394q23 -66 66.5 -104t105 -38t105.5 38t67 104q29 83 29 384v10 q0 310 -29 394q-23 66 -67 104t-105.5 38t-105.5 -38t-66 -104q-27 -82 -27 -394z" />
<glyph unicode="P" d="M150 121v1292h319q86 0 147.5 -32.5t93 -91t46 -122t14.5 -137.5t-14.5 -138.5t-46 -121.5t-93 -91t-147.5 -34h-195v-524h-124zM274 766h187q92 0 138 72.5t48 191.5q-2 117 -48 189.5t-138 72.5h-187v-526z" />
<glyph unicode="Q" d="M127 767q0 384 57 501q41 84 116 120.5t150.5 36.5t150.5 -36.5t116 -120.5q57 -117 57 -501t-57 -501q-25 -51 -66 -88q4 -10 6 -20q14 -47 45 -75t72 -28v-123q-61 0 -121.5 29t-93.5 92q-12 27 -20 68q-43 -12 -88 -12q-76 0 -151 36.5t-116 120.5q-57 117 -57 501z M252 767q0 -312 27 -394q23 -66 66.5 -104t105 -38t105.5 38t67 104q29 83 29 384v10q-1 310 -29 394q-23 66 -67 104t-105.5 38t-105.5 -38t-66 -104q-27 -82 -27 -394z" />
<glyph unicode="R" d="M135 121v1292h291q295 0 299 -317q0 -172 -72 -256q39 -29 62 -72q27 -55 34 -104.5t7 -163.5v-379h-125v379q0 119 -15 166q-14 43 -45.5 70.5t-70.5 29.5h-29h-213v-645h-123zM258 889h213q66 0 98.5 66.5t34.5 140.5q-2 109 -45 152.5t-143 43.5h-158v-403z" />
<glyph unicode="S" d="M111 381h4h121q12 -70 65 -110t131 -40q84 0 141.5 43t63.5 117v23q0 38 -5 60q-7 28 -36 69q-27 39 -107 110l-77 66q-37 31 -82 69q-92 82 -127 134q-62 92 -62 207v20v2q10 123 106.5 198.5t221.5 75.5q117 0 207 -68.5t110 -178.5h-127q-18 57 -69 91t-121 34 q-84 0 -141.5 -43t-63.5 -119v-23q0 -38 5 -59q7 -27 36 -68q27 -39 107 -110l77 -66q37 -31 82 -70q92 -82 127 -133q62 -92 62 -207v-20v-2q-10 -125 -106.5 -199.5t-221.5 -74.5q-123 0 -216 75.5t-105 196.5z" />
<glyph unicode="T" d="M80 1292l2 121h739v-121h-309v-1171h-123v1171h-309z" />
<glyph unicode="U" d="M127 766v647h125v-647q0 -311 27 -393q23 -66 66.5 -104t105 -38t105.5 38t67 104q28 81 28 373v20l-14 647h137v-647q0 -383 -57 -500q-41 -84 -116 -120.5t-150.5 -36.5t-150.5 36.5t-116 120.5q-57 117 -57 500z" />
<glyph unicode="V" d="M113 1413h123l215 -1128l215 1128h125l-248 -1292h-185z" />
<glyph unicode="W" d="M57 1413h123l109 -1116l114 555h95l114 -553l109 1114h123l-152 -1292h-133l-108 510l-107 -510h-135z" />
<glyph unicode="X" d="M141 121l244 670l-227 622h129l164 -444l161 444h131l-227 -622l244 -670h-129l-180 491l-181 -491h-129z" />
<glyph unicode="Y" d="M100 1413h136l215 -471l215 471h135l-287 -629h-2v-663h-123v663z" />
<glyph unicode="Z" d="M119 117v123l526 1048h-526v123h663v-123l-526 -1048h522v-123h-659z" />
<glyph unicode="[" d="M217 -68v1670h467v-123l-344 2v-1426h344v-123h-467z" />
<glyph unicode="\" d="M109 1602l553 -1670h131l-555 1670h-129z" />
<glyph unicode="]" d="M217 55h344v1426l-344 -2v123h467v-1670h-467v123z" />
<glyph unicode="^" d="M94 625l301 788h113l299 -788h-111l-245 641l-246 -641h-111z" />
<glyph unicode="_" d="M92 121v121h717v-121h-717z" />
<glyph unicode="`" d="M285 1475h2h176l203 -488h-99z" />
<glyph unicode="a" d="M184 614.5q0 303.5 41 384.5q35 70 92 95q59 26 119 26h4q72 0 131 -35l13 23h110v-987h-114l-9 22q-57 -34 -129 -34h-4q-57 0 -121 28q-59 27 -92 92q-41 82 -41 385.5zM307 508q0 -123 17 -176q14 -47 44.5 -74t69.5 -27q41 0 72 27t45 74q16 51 16 221v123 q0 170 -16 221q-14 45 -45 72.5t-72 27.5q-45 0 -71 -26q-29 -31 -43 -74q-16 -49 -17 -283v-43v-34v-29z" />
<glyph unicode="b" d="M195 121v1292h122v-328q59 35 134 35q55 0 120 -28q61 -27 95 -93q41 -84 41 -333v-24.5v-27.5q0 -307 -41 -385q-35 -68 -94.5 -94t-120.5 -26q-74 0 -134 34l-10 -22h-112zM317 553q2 -176 17 -221q14 -47 45 -74t72 -27h6q39 0 65 27q31 31 45 74q16 49 17 282 q0 236 -16.5 283t-45.5 74q-30 26 -71 26q-43 0 -72 -26q-31 -29 -45 -74q-16 -51 -17 -221v-123z" />
<glyph unicode="c" d="M197 614.5q0 305.5 39 384.5q35 66 94.5 93.5t120.5 27.5q78 0 131 -19.5t77.5 -55t34.5 -70.5t13 -78h-127q-8 55 -35 77.5t-84 22.5q-43 0 -78 -27.5t-49 -72.5q-16 -53 -16 -283q0 -7 -1 -12q0 -218 17 -270q14 -45 49 -73t78 -28q57 0 83.5 22.5t35.5 78.5h127 q-2 -43 -12.5 -78t-35 -71t-78 -55t-130.5 -19q-61 0 -121 27.5t-94 92.5q-39 80 -39 385.5z" />
<glyph unicode="d" d="M195 614v26.5v25.5q0 250 41 333q33 66 94 93q64 28 117 28h4q74 0 133 -35v328h123v-1292h-113l-10 22q-57 -34 -129 -34h-4q-61 0 -121 26.5t-94 93.5q-41 78 -41 385zM317 614q0 -233 17 -282q14 -43 45 -74q27 -27 65 -27h7q41 0 71.5 27t44.5 74q14 45 17 221v123 q0 170 -17 221q-14 45 -45 74q-28 26 -71 26q-41 0 -72 -26q-29 -27 -45.5 -74t-16.5 -283z" />
<glyph unicode="e" d="M176 614.5q0 305.5 41 384.5q33 66 93.5 93.5t121 27.5t120.5 -27.5t93 -93.5q41 -80 41 -385h-123h-264q0 -229 16 -282q14 -45 49 -73t76 -28q59 0 86 24t35 77h125q-2 -43 -11 -78t-35 -71t-79 -55t-131 -19q-59 0 -119.5 27.5t-93.5 92.5q-41 80 -41 385.5zM299 737 h264q-2 115 -16 160t-45 72.5t-72 27.5t-70.5 -27.5t-44.5 -72.5q-14 -45 -16 -160z" />
<glyph unicode="f" d="M207 997v123h153q6 119 39 185t93.5 93t121.5 27h62v-122h-62q-41 0 -71.5 -28t-44.5 -73q-10 -29 -13 -82h228v-123h-232v-77v-799h-123v799v77h-151z" />
<glyph unicode="g" d="M195 614.5q0 305.5 41 384.5q33 66 93.5 93.5t121.5 27.5q74 0 135 -35l10 23h111v-903q0 -92 -2.5 -143.5t-11.5 -121t-27 -106.5q-33 -66 -93.5 -93.5t-122 -27.5t-122 28t-92.5 93q-20 41 -31 125h123q4 -12 6 -22q14 -45 45 -73t72 -28t71.5 27.5t44.5 73.5 q14 51 17 206q-57 -34 -129 -34h-4q-61 0 -122 27.5t-93 92.5q-41 80 -41 385.5zM318 614q-1 -6 -1 -12q0 -219 17 -270q14 -45 45 -73t72 -28t71.5 28t44.5 73q16 53 17 282v13q0 219 -17 270q-14 45 -44.5 72.5t-71.5 27.5t-72 -27.5t-45 -72.5q-16 -53 -16 -283z" />
<glyph unicode="h" d="M195 121v1292h122v-328q59 35 134 35q61 0 121.5 -27.5t93.5 -93.5q41 -80 41 -385v-493h-123v493q0 229 -17 283q-14 45 -44.5 72.5t-71.5 27.5t-72 -27.5t-45 -72.5q-14 -51 -17 -221v-555h-122z" />
<glyph unicode="i" d="M195 987v121h317v-494q0 -229 16 -282q14 -45 45 -73t72 -28h62v-122h-62q-61 0 -121.5 27.5t-93.5 92.5q-29 55 -35 126t-6 259v373h-194zM377 1315q0 31 21.5 52.5t52 21.5t52 -21.5t21.5 -52.5t-21.5 -52.5t-51.5 -21.5q-31 0 -52.5 21.5t-21.5 52.5z" />
<glyph unicode="j" d="M78 -41h123q2 -12 6 -22q14 -45 45 -73t72 -28v-123q-61 0 -122 28t-93 93q-20 41 -31 125zM324 -164q41 0 70.5 27.5t45.5 73.5q16 53 17 282v889h121v-889q0 -305 -41 -385q-33 -66 -93.5 -93.5t-119.5 -27.5v123zM442 1315q0 31 21.5 52.5t52.5 21.5t52.5 -21.5 t21.5 -52.5t-21.5 -52.5t-52.5 -21.5t-52.5 21.5t-21.5 52.5z" />
<glyph unicode="k" d="M227 121v1292h123v-676h35l145 371h123l-168 -432l250 -555h-125l-223 493h-37v-493h-123z" />
<glyph unicode="l" d="M330 614v799h121v-799q0 -229 16 -282q14 -45 45 -73t72 -28h61v-122h-61q-59 0 -120 27.5t-93 92.5q-29 55 -35 126t-6 259z" />
<glyph unicode="m" d="M113 121v987h110l8 -18q37 30 86 30q88 0 134 -88q47 88 133 88q47 0 82.5 -19.5t57 -57t36 -80.5t20.5 -107.5t8.5 -116t2.5 -125.5v-493h-123v493q-2 201 -19.5 283t-64.5 82q-33 0 -51.5 -28.5t-27.5 -108.5t-9 -228v-200h-90v200q0 147 -9.5 227.5t-28 109 t-51.5 28.5q-45 0 -63 -79t-21 -271v-508h-120z" />
<glyph unicode="n" d="M195 121v999h122v-35q59 35 134 35q61 0 121.5 -27.5t93.5 -93.5q41 -80 41 -385v-493h-123v493q0 229 -17 283q-14 45 -44.5 72.5t-71.5 27.5t-72 -27.5t-45 -72.5q-14 -51 -17 -221v-555h-122z" />
<glyph unicode="o" d="M195 588v26q2 307 41 385q33 66 93.5 93.5t121.5 27.5q57 0 120 -28q57 -27 93 -93q39 -76 41 -385v-26q0 -276 -41 -359q-35 -68 -93 -94q-57 -26 -116 -26h-4q-55 0 -121 28q-61 27 -94 92q-41 84 -41 359zM317 614q0 -236 17 -282q16 -49 45 -74q31 -27 72 -27 t71.5 28t44.5 73q17 52 17 282v13q0 218 -17 270q-14 45 -44.5 72.5t-71.5 27.5q-43 0 -72 -26q-31 -29 -45 -74q-16 -53 -17 -283z" />
<glyph unicode="p" d="M203 -274v1382h110l13 -23q59 35 131 35q61 0 121.5 -27.5t93.5 -93.5q41 -80 41 -385t-41 -385q-33 -66 -93.5 -93t-121.5 -27q-72 0 -131 34v-417h-123zM326 553q0 -170 16 -221q14 -45 44 -73t71 -28t71.5 28t44.5 73q16 53 17 282v13q0 219 -17 270 q-14 45 -44.5 72.5t-71.5 27.5t-71 -26.5t-44 -73.5q-16 -51 -16 -221v-123z" />
<glyph unicode="q" d="M203 614q0 305 41 385q33 66 93.5 93.5t119.5 27.5q74 0 133 -35l12 23h111v-1382h-123v417q-57 -34 -129 -34h-4q-57 0 -121 28q-59 27 -92 92q-41 82 -41 385zM326 571q0 -186 16 -239q14 -47 45 -74t70 -27q41 0 71.5 27t44.5 74q16 51 17 221v123q0 170 -17 221 q-14 45 -44.5 72.5t-71.5 27.5q-45 0 -72 -26q-29 -29 -43 -74q-14 -43 -16 -283v-43z" />
<glyph unicode="r" d="M227 121v987h115l8 -23q59 35 131 35q78 0 131.5 -19.5t79 -55t34.5 -70.5t11 -78h-125q-8 55 -34.5 77.5t-85.5 22.5q-41 0 -76 -27.5t-49 -72.5q-16 -51 -17 -221v-555h-123z" />
<glyph unicode="s" d="M197 874q0 23 2 44q16 104 108 161q66 41 146 41q82 0 145 -41q82 -53 109 -182h-123q-2 0 -2 2q-6 49 -50 76q-35 22 -76 22h-3h-7h-6q-36 0 -69 -22q-31 -20 -49 -76q-2 -6 -3 -22v-12q0 -29 23 -68q10 -18 49 -56q37 -35 47 -45q4 -2 56 -43q47 -37 49 -39 q111 -111 114 -116q41 -61 41 -144q0 -20 -2 -43q-16 -104 -108 -161q-63 -41 -135 -41q-80 0 -146 41q-108 67 -108 159v23h120q2 -2 3 -2q6 -49 49 -76q35 -20 75 -23q43 2 78 23q43 27 49 76q2 12 2 22q0 45 -22 80q-20 29 -49 56.5t-48.5 43t-54 43t-49.5 39.5 q-78 59 -114 117q-41 66 -41 143z" />
<glyph unicode="t" d="M188 997v123h152v305h123v-305h231v-123h-231v-383q0 -229 16 -282q14 -45 45 -73t72 -28h61v-122h-61q-61 0 -121.5 27.5t-93.5 92.5q-29 55 -35 126t-6 259v383h-152z" />
<glyph unicode="u" d="M197 614v506h122v-506q0 -229 17 -282q14 -45 44 -73t71 -28t71.5 28t44.5 73q16 51 17 221v567h123v-1011h-123v34q-57 -34 -129 -34h-4q-59 0 -120 27.5t-93 92.5q-41 80 -41 385z" />
<glyph unicode="v" d="M193 1108h124l134 -803l133 803h125l-166 -987h-185z" />
<glyph unicode="w" d="M92 1108h125l74 -848l100 369h117l102 -369l74 848h125l-98 -987h-154l-106 418l-107 -418h-156z" />
<glyph unicode="x" d="M195 121l194 506l-184 481h123l123 -320l122 320h123l-184 -481l193 -506h-123l-131 344l-132 -344h-124z" />
<glyph unicode="y" d="M195 614v494h122v-494q0 -229 17 -282q14 -45 45 -73t72 -28t71.5 28t44.5 73q16 53 17 282l2 494h121v-903q0 -92 -2.5 -143.5t-11.5 -121t-27 -106.5q-33 -66 -93.5 -93.5t-122 -27.5t-122 28t-92.5 93q-20 41 -31 125h123q4 -12 6 -22q14 -45 45 -73t72 -28t71.5 27.5 t44.5 73.5q14 51 17 206q-57 -34 -129 -34h-4q-61 0 -122 27.5t-93 92.5q-41 80 -41 385z" />
<glyph unicode="z" d="M195 121v121l374 745h-374v121h512v-121l-375 -745h375v-121h-512z" />
<glyph unicode="{" d="M229 725v94q61 12 127 49q61 35 62 74h2v166q0 201 6 260q8 80 33 125q33 66 92 92q62 29 121 29v-123q-43 0 -72 -27q-37 -35 -45 -75q-4 -20 -4 -21q-8 -29 -8 -260v-166h-2q0 -63 -31 -125q-12 -25 -31 -45q16 -18 31 -47q31 -61 31 -125h2v-174q0 -219 8 -260 q4 -20 4 -21q10 -47 45 -75q31 -27 72 -27v-123q-61 0 -121 29q-57 27 -92 92q-25 47 -33 125q-6 66 -6 260v174h-2q0 43 -62 76q-63 35 -127 49z" />
<glyph unicode="|" d="M391 -68v1670h119v-1670h-119z" />
<glyph unicode="}" d="M229 43q41 0 72 27.5t45 74.5q2 8 4 21q8 39 8 260v174h2q0 63 31 125q12 27 31 47q-18 20 -31 45q-31 61 -31 125h-2v166q0 221 -8 260q-2 12 -4 21q-14 47 -45 74.5t-72 27.5v123q61 0 121 -29t92 -92q23 -43 33 -125q6 -63 6 -260v-166h2q0 -39 62.5 -75t126.5 -48 v-94q-63 -14 -126 -50t-63 -75h-2v-174q0 -197 -6 -260q-10 -82 -33 -125q-33 -63 -92 -92t-121 -29v123z" />
<glyph unicode="~" d="M70 606v111v24v23.5v17.5q0 14 2 19q0 4 2 16t2 17q0 2 6 14q2 8 6 18q33 97 164 97q90 0 154 -64l88 -88l86 -86q31 -31 69 -31q23 0 43 21q16 16 17 57v45v111h122v-111v-24v-23.5v-17.5q0 -14 -2 -19q0 -6 -2 -16q0 -12 -2 -17l-5 -15t-7 -17q-39 -96 -164 -97 q-90 0 -153 64l-88 88l-86 86q-31 31 -70 31q-23 0 -43 -21q-16 -16 -16 -57v-45v-111h-123z" />
<glyph />
<glyph />
<glyph />
<glyph />
<glyph />
<glyph />
<glyph unicode="&#x85;" />
<glyph />
<glyph />
<glyph />
<glyph />
<glyph />
<glyph />
<glyph />
<glyph />
<glyph />
<glyph />
<glyph />
<glyph />
<glyph />
<glyph />
<glyph />
<glyph />
<glyph />
<glyph />
<glyph />
<glyph />
<glyph />
<glyph />
<glyph />
<glyph />
<glyph />
<glyph />
<glyph unicode="&#xa0;" />
<glyph unicode="&#xa1;" d="M360 121q0 201 11 459q12 309 30 452h99q20 -143 30 -452q10 -311 11 -459h-181zM360 1235v178h181v-178h-181z" />
<glyph unicode="&#xa2;" d="M195 614.5q0 305.5 41 384.5q47 90 153 115v178h123v-176q113 -18 153 -105t40 -243h-125q0 121 -27 175t-92 54q-94 0 -127 -100q-16 -53 -16.5 -282.5t16.5 -282.5q33 -100 127 -101q66 0 92.5 54.5t26.5 175.5h125q0 -156 -40 -243t-153 -105v-144h-123v146 q-106 25 -153 114q-41 80 -41 385.5z" />
<glyph unicode="&#xa3;" />
<glyph unicode="&#xa4;" d="M133 537l98 98q-37 61 -36.5 132t36.5 132l-98 98l86 86l98 -98q61 37 132 37t133 -37l98 100l88 -88l-100 -98q37 -61 37 -132t-37 -132l100 -100l-86 -86l-100 100q-61 -37 -132 -37t-133 37l-98 -98zM317 767q0 -56 38 -94t94.5 -38t94.5 38t38 94t-38 94t-94.5 38 t-94.5 -38t-38 -94z" />
<glyph unicode="&#xa5;" />
<glyph unicode="&#xa6;" horiz-adv-x="307" d="M965 -289v783h118v-783h-118zM965 735v678h118v-678h-118z" />
<glyph unicode="&#xa7;" />
<glyph unicode="&#xa8;" d="M207 1672q0 30 21.5 50.5t51 20.5t50 -20.5t20.5 -50.5t-20.5 -51.5t-50 -21.5t-51 21.5t-21.5 51.5zM549 1672q0 30 21.5 50.5t51 20.5t50 -20.5t20.5 -50.5t-20.5 -51.5t-50 -21.5t-51 21.5t-21.5 51.5z" />
<glyph unicode="&#xa9;" />
<glyph unicode="&#xaa;" horiz-adv-x="716" d="M180 1049.5q0 162.5 37 230.5q51 94 143 129q44 16 91 16t90 -16q29 -12 55 -31l18 35h107v-364v-363h-107l-18 35q-27 -20 -55 -31q-43 -16 -90 -16t-91 16q-92 35 -143 129q-37 68 -37 230.5zM211 532v82h479v-82h-479zM305 1049q2 -135 23 -172q43 -80 122.5 -80 t122.5 80q20 37 23 172v2q-2 135 -23 172q-43 80 -122.5 80t-122.5 -80q-20 -37 -23 -174z" />
<glyph unicode="&#xab;" d="M86 641v74l383 358v-141l-272 -254l272 -254v-139zM432 641v74l383 358v-141l-274 -254l274 -254v-139z" />
<glyph unicode="&#xac;" d="M231 707v120h439v-376h-123v256h-316z" />
<glyph unicode="&#xad;" d="M231 707v120h439v-120h-439z" />
<glyph unicode="&#xae;" />
<glyph unicode="&#xaf;" d="M231 1180v123h439v-123h-439z" />
<glyph unicode="&#xb0;" d="M180 1156q0 112 79 190.5t191.5 78.5t191.5 -78.5t79 -190.5t-79 -190.5t-191.5 -78.5t-191.5 78.5t-79 190.5zM305 1156.5q0 -60.5 42 -103.5t103.5 -43t103.5 43t42 103.5t-42 103.5t-103.5 43t-103.5 -43t-42 -103.5z" />
<glyph unicode="&#xb1;" d="M92 121v123h717v-123h-717zM92 702v121h297v297h123v-297h297v-121h-297v-296h-123v296h-297z" />
<glyph unicode="&#xb2;" d="M193 614l2 64q2 37 6 80q10 90 28 135q27 61 60 108.5t98 110.5q86 84 113 121q37 45 37 74q0 55 -29 75q-27 20 -78 21q-57 0 -84 -21q-20 -16 -33 -57l-116 37q25 76 73 115q60 49 160 49q90 0 152 -45q78 -59 75 -174q0 -70 -61 -150q-33 -41 -123 -131 q-61 -61 -84.5 -93t-44.5 -87q-12 -29 -22 -103v-4v-2h323v-123h-452z" />
<glyph unicode="&#xb3;" d="M215 889h121q0 -70 33 -115q29 -43 82 -43q57 0 86 41q29 43 28 117q0 92 -35 129q-27 29 -79 29h-52v122h41q53 0 76 25q27 29 27 92t-29 92q-25 25 -74 25q-39 0 -63 -23q-29 -29 -29 -86h-123q0 111 68 174q59 58 147 58q102 0 162 -64q63 -63 64 -176 q0 -111 -58 -174q6 -6 13 -10q66 -74 65 -213q0 -111 -49 -184q-63 -96 -186 -97q-117 0 -185 97q-51 78 -51 184z" />
<glyph unicode="&#xb4;" d="M260 926h84l295 487h-176z" />
<glyph unicode="&#xb5;" d="M131 -274v1382h123v-533q0 -113 4 -165q4 -84 21 -115q31 -61 107.5 -61.5t107.5 61.5q14 31 20 115q4 53 4 165v533h123v-533v-69q0 -160 43 -227q16 -29 34.5 -38.5t51.5 -9.5v-122q-121 0 -186 98q-70 -96 -199 -96q-72 0 -131 36v-421h-123z" />
<glyph unicode="&#xb6;" horiz-adv-x="921" d="M139 1034q0 190 78 289q72 90 197 90h327v-1292h-123v1169h-81v-1169h-123v561q-127 0 -197 80q-78 88 -78 272z" />
<glyph unicode="&#xb7;" d="M360 678v178h181v-178h-181z" />
<glyph unicode="&#xb8;" d="M276 -281l9 107q63 -6 92 -6q66 0 100 16q25 12 35 31q10 16 4 39q-8 29 -43 41q-25 8 -51 8h-57l14 168v12l106 -4v-14l-6 -62q14 -4 27 -8q90 -31 112 -113q18 -66 -14 -120q-27 -47 -80 -74q-57 -27 -147 -27z" />
<glyph unicode="&#xb9;" d="M336 1300v150l104 70h125v-891h-125v741z" />
<glyph unicode="&#xba;" horiz-adv-x="716" d="M180 1049.5q0 162.5 37 230.5q51 94 143 129q44 16 91 16t90 -16q92 -35 143 -129q37 -68 37 -230.5t-37 -230.5q-51 -94 -143 -129q-43 -16 -90 -16t-91 16q-92 35 -143 129q-37 68 -37 230.5zM211 500v82h479v-82h-479zM305 1049q2 -135 23 -172q43 -80 122.5 -80 t122.5 80q20 37 23 172q-2 137 -23 174q-43 80 -122.5 80t-122.5 -80q-20 -37 -23 -174z" />
<glyph unicode="&#xbb;" d="M86 285v139l274 254l-274 254v141l383 -358v-74zM432 285v139l273 254l-273 254v141l383 -358v-74z" />
<glyph unicode="&#xbc;" d="M211 717v82h479v-82h-479zM229 147v76l230 453h8h123v-406h49v-123h-49v-229h-123v229h-238zM311 1288v148l115 77h123v-671h-123v524zM391 270h76v150z" />
<glyph unicode="&#xbd;" d="M211 717v82h479v-82h-479zM252 -82q0 82 2 129q0 55 14 111q16 63 45 92q162 158 183 184q41 53 18 90q-12 20 -35 27q-10 2 -22 2q-66 -2 -86 -55h-115q2 18 4 34q2 33 19 60q50 84 165 84h7q53 -6 75 -12q49 -14 78 -52q33 -41 39 -86q12 -86 -39 -153 q-139 -145 -139 -146q-39 -39 -53 -59q-16 -25 -27 -51q-10 -29 -10 -76h248v-123h-371zM274 1288v148l115 77h123v-671h-123v524z" />
<glyph unicode="&#xbe;" />
<glyph unicode="&#xbf;" d="M131 375v2q-18 131 49 235q49 76 148 152q18 14 59 47q41 31 74 59v260h127v-137v-178q-20 -16 -29 -20q-16 -16 -57 -47q-150 -117 -215 -201v-2q-43 -66 -33 -152q12 -76 76 -114q55 -33 121 -33q63 0 117.5 33.5t70.5 89.5h129q-23 -129 -133 -197q-86 -51 -186 -51 q-102 0 -185 51q-113 70 -133 203zM461 1300v125h127v-125h-127z" />
<glyph unicode="&#xc0;" d="M113 121l245 1292h185l245 -1292h-122l-101 524h-229l-100 -524h-123zM229 1819h160l199 -293h-101zM358 766h185l-92 483z" />
<glyph unicode="&#xc1;" d="M113 121l245 1292h185l245 -1292h-122l-101 524h-229l-100 -524h-123zM229 1526l199 293h160l-258 -293h-101zM358 766h185l-92 483z" />
<glyph unicode="&#xc2;" d="M113 121l245 1292h185l248 -1292h-125l-101 524h-229l-100 -524h-123zM190 1526l183 270l14 23h127l14 -23l185 -270h-113l-149 178l-150 -178h-111zM358 766h185l-92 483z" />
<glyph unicode="&#xc3;" d="M113 121l245 1292h185l248 -1292h-125l-101 524h-229l-100 -524h-123zM190 1616v35q0 76 31 118q35 50 98 50q61 0 130 -70l40 -39l39 -41q37 -37 56 -37q4 0 7 2t5 6.5t4 8.5t3 11t1 11t1 11.5t1 11.5v32h107v-32q0 -78 -33 -121q-35 -47 -96 -47q-63 0 -131 69l-39 39 l-41 41q-37 37 -54 37q-6 0 -9 -2t-5 -7t-4 -9t-2 -10.5t-1 -11.5t-1 -12v-9v-35h-107zM358 766h185l-92 483z" />
<glyph unicode="&#xc4;" d="M113 121l245 1292h185l248 -1292h-125l-101 524h-229l-100 -524h-123zM209 1672q0 30 20.5 50.5t50 20.5t51 -20.5t21.5 -50.5t-21.5 -51.5t-51 -21.5t-50 21.5t-20.5 51.5zM358 766h185l-92 483zM551 1672q0 30 20.5 50.5t50 20.5t51 -20.5t21.5 -50.5t-21.5 -51.5 t-51 -21.5t-50 21.5t-20.5 51.5z" />
<glyph unicode="&#xc5;" d="M113 121l245 1292h185l248 -1292h-125l-101 524h-229l-100 -524h-123zM299 1672.5q0 62.5 45 107.5t107.5 45t107.5 -45t45 -107.5t-45 -107.5t-107.5 -45t-107.5 45t-45 107.5zM358 766h185l-92 483zM401 1672.5q0 -21.5 14.5 -36t36 -14.5t36 14.5t14.5 36t-14.5 35.5 t-36 14t-36 -14t-14.5 -35.5z" />
<glyph unicode="&#xc6;" d="M63 121l332 1292h443v-121h-256v-403h256v-123h-256v-524h256v-121h-379h-2v371h-172l-95 -371h-127zM317 614h142v551z" />
<glyph unicode="&#xc7;" d="M117 766.5q0 228.5 14 327.5q25 160 102 239q93 92 226 92h10q119 -2 209 -71q49 -39 83 -100.5t34 -133.5h-125q0 37 -22.5 77t-45.5 58q-33 27 -60.5 36t-74.5 12q-86 0 -145 -58q-51 -51 -68 -168q-14 -90 -14 -310t14 -310q16 -117 68 -168q59 -57 145 -58 q47 2 74.5 11.5t60.5 36.5q23 18 45.5 58t22.5 77h125q0 -72 -34 -133.5t-83 -100.5q-74 -57 -164 -67l-6 -58q14 -4 29 -8q90 -31 110 -113q18 -66 -12 -120q-27 -47 -82 -74t-147 -27l-101 6l8 107q63 -6 93 -6q68 0 100 16q25 12 37 31q8 16 2 39q-6 29 -43 41 q-25 8 -51 8h-58l13 158q-100 16 -173 88q-78 80 -102 239q-14 98 -14 326.5z" />
<glyph unicode="&#xc8;" d="M154 121v1292h594v-121h-469v-403h401v-123h-404v-524h472v-121h-594zM229 1819h160l199 -293h-101z" />
<glyph unicode="&#xc9;" d="M154 121v1292h594v-121h-469v-403h401v-123h-404v-524h472v-121h-594zM229 1526l199 293h160l-258 -293h-101z" />
<glyph unicode="&#xca;" d="M154 121v1292h125h469v-121h-469v-403h401v-123h-404v-524h472v-121h-594zM190 1526l197 293h127l197 -293h-111l-149 178l-150 -178h-111z" />
<glyph unicode="&#xcb;" d="M154 121v1292h125h469v-121h-469v-403h401v-123h-404v-524h472v-121h-594zM207 1672q0 30 21.5 50.5t51 20.5t50 -20.5t20.5 -50.5t-20.5 -51.5t-50 -21.5t-51 21.5t-21.5 51.5zM551 1672q0 30 20.5 50.5t50 20.5t51 -20.5t21.5 -50.5t-21.5 -51.5t-51 -21.5t-50 21.5 t-20.5 51.5z" />
<glyph unicode="&#xcc;" d="M195 121v121h194v1050h-194v121h512v-121h-195v-1050h195v-121h-512zM229 1819h160l199 -293h-101z" />
<glyph unicode="&#xcd;" d="M195 121v121h194v1050h-194v121h512v-121h-195v-1050h195v-121h-512zM229 1526l199 293h160l-258 -293h-101z" />
<glyph unicode="&#xce;" d="M190 1526l197 291l127 2l197 -293h-111l-149 178l-150 -178h-111zM195 121v121h194v1050h-194v121h512v-121h-195v-1050h195v-121h-512z" />
<glyph unicode="&#xcf;" d="M195 121v121h194v1050h-194v121h512v-121h-195v-1050h195v-121h-512zM207 1672q0 30 21.5 50.5t51 20.5t50 -20.5t20.5 -50.5t-20.5 -51.5t-50 -21.5t-51 21.5t-21.5 51.5zM551 1672q0 30 20.5 50.5t50 20.5t51 -20.5t21.5 -50.5t-21.5 -51.5t-51 -21.5t-50 21.5 t-20.5 51.5z" />
<glyph unicode="&#xd0;" d="M102 707v120h107v586h289q109 0 184 -82q55 -61 82 -164q33 -125 33 -400t-33 -400q-27 -102 -82 -164q-76 -82 -184 -82h-289v586h-107zM332 242h155h11q35 0 52 9t42 34q35 39 55 112q29 109 29 370t-29 370q-20 74 -55 112q-25 25 -42.5 34t-51.5 9h-166v-465h104 v-120h-104v-465z" />
<glyph unicode="&#xd1;" d="M139 121v1292h125h37l336 -1005v1005h123v-1292h-86h-37h-35l-338 1014v-1014h-125zM190 1616v35q0 76 31 118q35 50 96 50q63 0 132 -70l38 -39l41 -41q37 -37 56 -37q4 0 7 2t5 6.5t4 8.5t3 11t1 11v11.5v11.5v32h107v-32q0 -78 -31 -121q-35 -47 -96 -47 q-63 0 -131 69l-39 39l-41 41q-37 37 -56 37q-4 0 -7 -2t-5 -7t-4 -9t-3 -10.5t-1 -11.5v-12v-9v-35h-107z" />
<glyph unicode="&#xd2;" d="M127 767q0 384 57 501q41 84 116 120.5t150.5 36.5t150.5 -36.5t116 -120.5q57 -117 57 -501t-57 -501q-41 -84 -116 -120.5t-150.5 -36.5t-150.5 36.5t-116 120.5q-57 117 -57 501zM229 1819h160l199 -293h-101zM252 767q0 -312 27 -394q23 -66 66.5 -104t105 -38 t105.5 38t67 104q29 84 28.5 394t-28.5 394q-23 66 -67 104t-105.5 38t-105.5 -38t-66 -104q-27 -82 -27 -394z" />
<glyph unicode="&#xd3;" d="M127 766q0 385 57 502q43 86 117 121q76 36 150 36q78 0 151 -36q72 -35 115 -121q57 -115 57 -502q0 -383 -57 -500q-41 -86 -115 -121q-76 -37 -151 -36q-74 0 -150 36.5t-117 120.5q-57 117 -57 500zM252 767q0 -310 27 -394q23 -66 67.5 -104t105 -38t105.5 38 t66 104q29 82 28.5 394t-28.5 394q-20 66 -65.5 104t-106 38t-105.5 -38t-67 -104q-27 -84 -27 -394zM315 1526l197 293h160l-256 -293h-101z" />
<glyph unicode="&#xd4;" d="M127 767q0 173 6 257q10 150 43 223q43 94 120 136t154.5 42t154.5 -42t120 -136q33 -74 43 -223q6 -84 6 -257t-6 -255q-10 -152 -43 -225q-43 -94 -120 -136t-154.5 -42t-154.5 42t-120 136q-33 74 -43 225q-6 82 -6 255zM190 1526l197 293h127l197 -293h-111l-149 178 l-150 -178h-111zM250 767q0 -169 6 -249q8 -127 31 -180q29 -66 69.5 -86.5t94.5 -20.5q33 0 57 5.5t55 31t51 70.5q23 53 31 180q6 80 6 249t-6 249q-8 129 -31 180q-29 66 -69.5 86.5t-93.5 20.5q-33 0 -57.5 -5.5t-55.5 -31t-51 -70.5q-23 -51 -31 -180q-6 -80 -6 -249z " />
<glyph unicode="&#xd5;" d="M127 767q0 173 6 257q10 150 43 223q43 94 120 136t154.5 42t154.5 -42t120 -136q33 -74 43 -223q6 -84 6 -257t-6 -255q-10 -152 -43 -225q-43 -94 -120 -136t-154.5 -42t-154.5 42t-120 136q-33 74 -43 225q-6 82 -6 255zM190 1616v35q0 76 31 118q35 50 96 50 q63 0 132 -70l38 -39l41 -41q37 -37 56 -37q4 0 7 2t5 6.5t4 8.5t3 11t1 11v11.5v11.5v32h107v-32q0 -78 -31 -121q-35 -47 -96 -47q-63 0 -131 69l-39 39l-41 41q-37 37 -56 37q-4 0 -7 -2t-5 -7t-4 -9t-3 -10.5t-1 -11.5v-12v-9v-35h-107zM250 767q0 -169 6 -249 q8 -127 31 -180q29 -66 69.5 -86.5t94.5 -20.5q33 0 57 5.5t55 31t51 70.5q23 53 31 180q6 80 6 249t-6 249q-8 129 -31 180q-29 66 -69.5 86.5t-93.5 20.5q-33 0 -57.5 -5.5t-55.5 -31t-51 -70.5q-23 -51 -31 -180q-6 -80 -6 -249z" />
<glyph unicode="&#xd6;" d="M127 767q0 384 57 501q41 84 116 120.5t150.5 36.5t150.5 -36.5t116 -120.5q57 -117 57 -501t-57 -501q-41 -84 -116 -120.5t-150.5 -36.5t-150.5 36.5t-116 120.5q-57 117 -57 501zM209 1672q0 30 20.5 50.5t50 20.5t51 -20.5t21.5 -50.5t-21.5 -51.5t-51 -21.5 t-50 21.5t-20.5 51.5zM252 767q0 -312 27 -394q23 -66 66.5 -104t105 -38t105.5 38t67 104q29 84 28.5 394t-28.5 394q-23 66 -67 104t-105.5 38t-105.5 -38t-66 -104q-27 -82 -27 -394zM551 1672q0 30 20.5 50.5t50 20.5t51 -20.5t21.5 -50.5t-21.5 -51.5t-51 -21.5 t-50 21.5t-20.5 51.5z" />
<glyph unicode="&#xd7;" d="M154 557l211 211l-211 209l88 86l209 -209l208 209l89 -86l-211 -211l211 -209l-89 -86l-208 209l-209 -209z" />
<glyph unicode="&#xd8;" d="M127 767q0 384 57 501q41 84 116 120.5t151 36.5q57 0 112 -20l19 70h129l-39 -140q27 -31 45 -67q57 -117 57 -501t-57 -501q-41 -84 -116 -120.5t-150 -36.5q-57 0 -113 20l-19 -72h-129l39 142q-27 31 -45 67q-57 117 -57 501zM252 766q0 -311 27 -391l251 909 q-36 19 -79 19q-61 0 -105.5 -38t-66.5 -104q-27 -82 -27 -395zM373 250q35 -18 78 -19q61 0 105 38t67 104q29 84 28 393q1 309 -28 393z" />
<glyph unicode="&#xd9;" d="M127 766v647h125v-647q0 -311 27 -393q20 -66 65 -104t105.5 -38t105.5 38t68 104q27 84 26 393l-12 647h137v-647q0 -383 -57 -500q-41 -84 -116 -120.5t-150.5 -36.5t-150.5 36.5t-116 120.5q-57 117 -57 500zM229 1819h160l199 -293h-101z" />
<glyph unicode="&#xda;" d="M127 766v647h125v-647q0 -311 27 -393q20 -66 65 -104t105.5 -38t105.5 38t68 104q27 84 26 393l-12 647h137v-647q0 -383 -57 -500q-41 -84 -116 -120.5t-150.5 -36.5t-150.5 36.5t-116 120.5q-57 117 -57 500zM229 1526l199 293h160l-258 -293h-101z" />
<glyph unicode="&#xdb;" d="M127 766v647h125v-647q0 -311 27 -393q20 -66 65 -104t105.5 -38t105.5 38t68 104q27 84 26 393l-12 647h137v-647q0 -383 -57 -500q-41 -84 -116 -120.5t-150.5 -36.5t-150.5 36.5t-116 120.5q-57 117 -57 500zM190 1526l197 293h127l197 -293h-111l-149 178l-150 -178 h-111z" />
<glyph unicode="&#xdc;" d="M127 766v647h125v-647q0 -311 27 -393q20 -66 65 -104t105.5 -38t105.5 38t68 104q27 84 26 393l-12 647h137v-647q0 -383 -57 -500q-41 -84 -116 -120.5t-150.5 -36.5t-150.5 36.5t-116 120.5q-57 117 -57 500zM207 1672q0 30 21.5 50.5t51 20.5t50 -20.5t20.5 -50.5 t-20.5 -51.5t-50 -21.5t-51 21.5t-21.5 51.5zM551 1672q0 30 20.5 50.5t50 20.5t51 -20.5t21.5 -50.5t-21.5 -51.5t-51 -21.5t-50 21.5t-20.5 51.5z" />
<glyph unicode="&#xdd;" />
<glyph unicode="&#xde;" d="M168 121v1292h125v-293h186q61 0 124 -33.5t95 -109.5q35 -78 35 -210t-35 -210q-33 -76 -95 -109.5t-124 -33.5h-186v-293h-125zM293 537h186q23 0 38 4t34.5 19t34.5 46q23 55 22.5 160.5t-22.5 161.5q-18 43 -45 56t-62 13h-186v-460z" />
<glyph unicode="&#xdf;" />
<glyph unicode="&#xe0;" d="M195 614.5q0 305.5 41 384.5q33 66 93.5 93.5t121.5 27.5q74 0 133 -35l10 23h113v-987h-115l-8 22q-59 -35 -133 -34q-61 0 -122 27.5t-93 92.5q-41 80 -41 385.5zM229 1513h160l199 -290h-101zM317.5 614.5q-0.5 -229.5 16.5 -282.5q14 -45 45 -73t72 -28t71.5 28 t44.5 73q14 51 17 221v123q-2 170 -17 221q-14 45 -44.5 72.5t-71.5 27.5t-72 -27.5t-45 -72.5q-16 -53 -16.5 -282.5z" />
<glyph unicode="&#xe1;" d="M195 614.5q0 305.5 41 384.5q33 66 93.5 93.5t121.5 27.5q74 0 133 -35l10 23h113v-987h-115l-8 22q-59 -35 -133 -34q-61 0 -122 27.5t-93 92.5q-41 80 -41 385.5zM229 1223l199 290h160l-258 -290h-101zM317.5 614.5q-0.5 -229.5 16.5 -282.5q14 -45 45 -73t72 -28 t71.5 28t44.5 73q14 51 17 221v123q-2 170 -17 221q-14 45 -44.5 72.5t-71.5 27.5t-72 -27.5t-45 -72.5q-16 -53 -16.5 -282.5z" />
<glyph unicode="&#xe2;" d="M188 614.5q0 305.5 41 384.5q33 66 93.5 93.5t121.5 27.5q74 0 134 -35l10 23h112v-987h-114l-8 22q-59 -35 -134 -34q-61 0 -121.5 27.5t-93.5 92.5q-41 80 -41 385.5zM190 1223l197 290h127l197 -290h-111l-149 176l-150 -176h-111zM311.5 614.5 q-0.5 -229.5 16.5 -282.5q14 -45 44.5 -73t71.5 -28t72 28t45 73q14 51 17 221v123q-2 170 -17 221q-14 45 -45 72.5t-72 27.5t-71.5 -27.5t-44.5 -72.5q-16 -53 -16.5 -282.5z" />
<glyph unicode="&#xe3;" d="M184 1313v35q0 76 31 118q35 47 96 47q63 0 131 -67l39 -41l41 -39q37 -37 56 -37q4 0 7 2t5 6t4 8.5t3 11.5t1 11v11v10v34h107v-34q0 -76 -31 -119q-35 -47 -96 -47q-63 0 -132 67l-38 41l-41 39q-37 37 -56 37q-4 0 -7 -2t-5 -6t-4 -8.5t-3 -11.5t-1 -11v-11v-9v-35 h-107zM188 614.5q0 305.5 41 384.5q33 66 93.5 93.5t121.5 27.5q74 0 134 -35l10 23h112v-987h-114l-8 22q-59 -35 -134 -34q-61 0 -121.5 27.5t-93.5 92.5q-41 80 -41 385.5zM311.5 614.5q-0.5 -229.5 16.5 -282.5q14 -45 44.5 -73t71.5 -28t72 28t45 73q14 51 17 221v123 q-2 170 -17 221q-14 45 -45 72.5t-72 27.5t-71.5 -27.5t-44.5 -72.5q-16 -53 -16.5 -282.5z" />
<glyph unicode="&#xe4;" d="M188 614.5q0 305.5 41 384.5q33 66 93.5 93.5t121.5 27.5q74 0 134 -35l10 23h112v-987h-114l-8 22q-59 -35 -134 -34q-61 0 -121.5 27.5t-93.5 92.5q-41 80 -41 385.5zM207 1367q0 30 21.5 50.5t51 20.5t50 -20.5t20.5 -50.5t-20.5 -51.5t-50 -21.5t-51 21.5t-21.5 51.5 zM311.5 614.5q-0.5 -229.5 16.5 -282.5q14 -45 44.5 -73t71.5 -28t72 28t45 73q14 51 17 221v123q-2 170 -17 221q-14 45 -45 72.5t-72 27.5t-71.5 -27.5t-44.5 -72.5q-16 -53 -16.5 -282.5zM551 1367q0 30 20.5 50.5t50 20.5t51 -20.5t21.5 -50.5t-21.5 -51.5t-51 -21.5 t-50 21.5t-20.5 51.5z" />
<glyph unicode="&#xe5;" d="M188 614.5q0 305.5 41 384.5q33 66 93.5 93.5t121.5 27.5q74 0 134 -35l10 23h112v-987h-114l-8 22q-59 -35 -134 -34q-61 0 -121.5 27.5t-93.5 92.5q-41 80 -41 385.5zM274 1368q0 72 52.5 124t124 52t124 -52t52.5 -124t-52.5 -124t-124 -52t-124 52t-52.5 124z M311.5 614.5q-0.5 -229.5 16.5 -282.5q14 -45 44.5 -73t71.5 -28t72 28t45 73q14 51 17 221v123q-2 170 -17 221q-14 47 -45 73.5t-72 26.5t-71.5 -27.5t-44.5 -72.5q-16 -53 -16.5 -282.5zM381 1368q0 -29 20.5 -49.5t49 -20.5t49 20.5t20.5 49.5t-20.5 49.5t-49 20.5 t-49 -20.5t-20.5 -49.5z" />
<glyph unicode="&#xe6;" />
<glyph unicode="&#xe7;" d="M195 614.5q0 305.5 41 384.5q33 66 93.5 93.5t121.5 27.5q78 0 131 -19.5t77.5 -55t35 -70.5t12.5 -78h-127q-8 55 -35 77.5t-84 22.5q-43 0 -78 -27.5t-49 -72.5q-16 -53 -16.5 -282.5t16.5 -282.5q14 -45 49 -73t78 -28q57 0 83.5 22.5t35.5 78.5h127 q-6 -188 -183 -217l-4 -60q14 -4 27 -8q90 -31 112 -113q18 -66 -14 -120q-27 -47 -80 -74q-57 -27 -147 -27l-101 6l9 107q63 -6 92 -6q66 0 100 16q25 12 35 31q10 16 4 39q-8 29 -43 41q-25 8 -51 8h-57l12 156q-129 16 -182 118q-41 80 -41 385.5z" />
<glyph unicode="&#xe8;" d="M195 614.5q0 305.5 41 384.5q33 66 93 93.5t121.5 27.5t122 -27.5t93.5 -93.5q41 -80 41 -385h-123h-267q0 -229 17 -282q14 -45 49 -73t78 -28q57 0 83.5 24t35.5 77h127q-2 -43 -12.5 -78t-35 -71t-78 -55t-130.5 -19q-61 0 -122 27.5t-93 92.5q-41 80 -41 385.5z M256 1513h160l219 -305h-100zM317 737h267q-2 115 -17 160q-14 45 -44.5 72.5t-71.5 27.5t-72 -27.5t-45 -72.5t-17 -160z" />
<glyph unicode="&#xe9;" d="M195 614.5q0 305.5 41 384.5q33 66 93 93.5t121.5 27.5t122 -27.5t93.5 -93.5q41 -80 41 -385h-123h-267q0 -229 17 -282q14 -45 49 -73t78 -28q57 0 83.5 24t35.5 77h127q-2 -43 -12.5 -78t-35 -71t-78 -55t-130.5 -19q-61 0 -122 27.5t-93 92.5q-41 80 -41 385.5z M256 1208l219 305h160l-279 -305h-100zM317 737h267q-2 115 -17 160q-14 45 -44.5 72.5t-71.5 27.5t-72 -27.5t-45 -72.5t-17 -160z" />
<glyph unicode="&#xea;" d="M190 1223l197 290h127l197 -290h-111l-149 176l-150 -176h-111zM195 614.5q0 305.5 41 384.5q33 66 93 93.5t121.5 27.5t122 -27.5t93.5 -93.5q41 -80 41 -385h-390q0 -229 17 -282q14 -45 49 -73t78 -28q57 0 83.5 24t35.5 77h127q-2 -43 -12.5 -78t-35 -71t-78 -55 t-130.5 -19q-61 0 -122 27.5t-93 92.5q-41 80 -41 385.5zM317 737h267q-2 115 -17 160q-14 45 -44.5 72.5t-71.5 27.5t-72 -27.5t-45 -72.5t-17 -160z" />
<glyph unicode="&#xeb;" d="M195 614.5q0 305.5 41 384.5q33 66 93 93.5t121.5 27.5t122 -27.5t93.5 -93.5q41 -80 41 -385h-390q0 -229 17 -282q14 -45 49 -73t78 -28q57 0 83.5 24t35.5 77h127q-2 -43 -12.5 -78t-35 -71t-78 -55t-130.5 -19q-61 0 -122 27.5t-93 92.5q-41 80 -41 385.5zM207 1367 q0 30 21.5 50.5t51 20.5t50 -20.5t20.5 -50.5t-20.5 -51.5t-50 -21.5t-51 21.5t-21.5 51.5zM317 737h267q-2 115 -17 160q-14 45 -44.5 72.5t-71.5 27.5t-72 -27.5t-45 -72.5t-17 -160zM551 1367q0 30 20.5 50.5t50 20.5t51 -20.5t21.5 -50.5t-21.5 -51.5t-51 -21.5 t-50 21.5t-20.5 51.5z" />
<glyph unicode="&#xec;" d="M195 987v121h317v-494q0 -229 16 -282q14 -45 45 -73t72 -28h62v-122h-62q-61 0 -121.5 27.5t-93.5 92.5q-29 55 -35 126t-6 259v373h-194zM256 1513h160l219 -305h-100z" />
<glyph unicode="&#xed;" d="M195 987v121h317v-494q0 -229 16 -282q14 -45 45 -73t72 -28h62v-122h-62q-61 0 -121.5 27.5t-93.5 92.5q-29 55 -35 126t-6 259v373h-194zM256 1208l219 305h160l-279 -305h-100z" />
<glyph unicode="&#xee;" d="M190 1223l197 290h127l197 -290h-111l-149 176l-150 -176h-111zM195 987v121h317v-494q0 -229 16 -282q14 -45 45 -73t72 -28h62v-122h-62q-61 0 -121.5 27.5t-93.5 92.5q-29 55 -35 126t-6 259v373h-194z" />
<glyph unicode="&#xef;" d="M195 987v121h317v-494q0 -229 16 -282q14 -45 45 -73t72 -28h62v-122h-62q-61 0 -121.5 27.5t-93.5 92.5q-29 55 -35 126t-6 259v373h-194zM207 1367q0 30 21.5 50.5t51 20.5t50 -20.5t20.5 -50.5t-20.5 -51.5t-50 -21.5t-51 21.5t-21.5 51.5zM551 1367q0 30 20.5 50.5 t50 20.5t51 -20.5t21.5 -50.5t-21.5 -51.5t-51 -21.5t-50 21.5t-20.5 51.5z" />
<glyph unicode="&#xf0;" />
<glyph unicode="&#xf1;" d="M197 1313v35q0 76 30 118q36 47 97 47q63 0 131 -67l39 -41l41 -39q37 -37 55 -37q4 0 7 2t5 6t4 8.5t3 11.5t1 11v11v10v34h107v-34q0 -76 -31 -119q-35 -47 -96 -47q-63 0 -131 67l-39 41l-41 39q-37 37 -55 37q-4 0 -7.5 -2t-5.5 -6t-4 -8.5t-3 -11.5t-1 -11v-11v-9 v-35h-106zM201 121v987h106l12 -25q62 37 138 37q61 0 121.5 -27.5t93.5 -93.5q41 -80 41 -385v-493h-123v493q0 229 -17 283q-14 45 -44.5 72.5t-71.5 27.5t-72 -27.5t-45 -72.5q-14 -51 -16 -221v-555h-123z" />
<glyph unicode="&#xf2;" d="M195 614q0 129 4 191q8 115 32 172q33 76 96.5 109.5t123 33.5t123 -33.5t96.5 -109.5q25 -57 32 -172q4 -61 4.5 -190.5t-4.5 -192.5q-8 -115 -32 -172q-33 -74 -96.5 -107.5t-123 -33.5t-123 33.5t-96.5 107.5q-25 57 -32 172q-4 63 -4 192zM256 1513h160l219 -305 h-100zM317.5 614.5q-0.5 -125.5 4.5 -184.5q6 -94 22 -131q31 -68 106.5 -68t106.5 68q16 37 23 131q4 59 4 184t-4 183q-6 94 -23 131q-31 69 -106.5 69t-106.5 -69q-16 -37 -22 -131q-4 -57 -4.5 -182.5z" />
<glyph unicode="&#xf3;" d="M195 614q0 129 4 191q8 115 32 172q33 76 96.5 109.5t123 33.5t123 -33.5t96.5 -109.5q25 -57 32 -172q4 -61 4.5 -190.5t-4.5 -192.5q-8 -115 -32 -172q-33 -74 -96.5 -107.5t-123 -33.5t-123 33.5t-96.5 107.5q-25 57 -32 172q-4 63 -4 192zM256 1208l219 305h160 l-279 -305h-100zM317.5 614.5q-0.5 -125.5 4.5 -184.5q6 -94 22 -131q31 -68 106.5 -68t106.5 68q16 37 23 131q4 59 4 184t-4 183q-6 94 -23 131q-31 69 -106.5 69t-106.5 -69q-16 -37 -22 -131q-4 -57 -4.5 -182.5z" />
<glyph unicode="&#xf4;" d="M190 1223l197 290h127l197 -290h-111l-149 176l-150 -176h-111zM195 614q0 129 4 193q8 115 32 170q33 76 96.5 109.5t123 33.5t123 -33.5t96.5 -109.5q25 -55 32 -170q4 -63 4.5 -192.5t-4.5 -190.5q-8 -117 -32 -172q-33 -76 -96.5 -109.5t-123 -33.5t-123 33.5 t-96.5 109.5q-25 55 -32 172q-4 61 -4 190zM317.5 614.5q-0.5 -125.5 4.5 -184.5q6 -92 22 -129q31 -70 106.5 -70t106.5 70q16 37 23 129q4 59 4 184t-4 185q-6 92 -23 129q-31 69 -106.5 69t-106.5 -69q-16 -37 -22 -129q-4 -59 -4.5 -184.5z" />
<glyph unicode="&#xf5;" d="M190 1313v35q0 76 31 118q35 47 96 47q63 0 132 -67l38 -41l41 -39q37 -37 56 -37q4 0 7 2t5 6t4 8.5t3 11.5t1 11v11v10v34h107v-34q0 -76 -31 -119q-35 -47 -96 -47q-63 0 -131 67l-39 41l-41 39q-37 37 -56 37q-4 0 -7 -2t-5 -6t-4 -8.5t-3 -11.5t-1 -11v-11v-9v-35 h-107zM195 614q0 129 4 193q8 115 32 170q33 76 96.5 109.5t123 33.5t123 -33.5t96.5 -109.5q25 -55 32 -170q4 -63 4.5 -192.5t-4.5 -190.5q-8 -117 -32 -172q-33 -76 -96.5 -109.5t-123 -33.5t-123 33.5t-96.5 109.5q-25 55 -32 172q-4 61 -4 190zM317.5 614.5 q-0.5 -125.5 4.5 -184.5q6 -92 22 -129q31 -70 106.5 -70t106.5 70q16 37 23 129q4 59 4 184t-4 185q-6 92 -23 129q-31 69 -106.5 69t-106.5 -69q-16 -37 -22 -129q-4 -59 -4.5 -184.5z" />
<glyph unicode="&#xf6;" d="M195 588v26q2 307 41 385q33 66 93.5 93.5t121.5 27.5q57 0 120 -28q57 -27 93 -93q39 -76 41 -385v-26q0 -276 -41 -359q-35 -68 -93 -94q-59 -27 -120 -26q-55 0 -121 28q-61 27 -94 92q-41 84 -41 359zM207 1366q0 31 21.5 51.5t50.5 20.5q31 0 51 -20.5t20 -51.5 q0 -27 -20.5 -49.5t-50.5 -22.5q-29 0 -50 21q-23 23 -22 51zM317 614q0 -236 17 -282q16 -49 45 -74q31 -27 72 -27t71 27q33 27 45 74q16 57 17 282q0 231 -17 283q-16 47 -45 74q-30 26 -71 26q-43 0 -72 -26q-31 -29 -45 -74q-16 -53 -17 -283zM551 1366q0 31 20.5 51.5 t51.5 20.5q27 0 49 -20.5t22 -51.5q0 -29 -20 -49q-23 -23 -51 -23q-33 0 -52 21q-20 23 -20 51z" />
<glyph unicode="&#xf7;" d="M92 614v123h717v-123h-717zM360 402.5q0 37.5 27 63.5t63.5 26t63.5 -26t27 -63.5t-27 -63.5t-63.5 -26t-63.5 26t-27 63.5zM360 949q0 38 27 63.5t63.5 25.5t63.5 -25.5t27 -63.5t-27 -63.5t-63.5 -25.5t-63.5 25.5t-27 63.5z" />
<glyph unicode="&#xf8;" d="M195 614q0 129 4 193q8 115 32 170q33 76 96.5 109.5t123.5 33.5q35 0 71 -12l19 63h127l-37 -133q23 -27 39 -61q25 -55 32 -170q4 -63 4.5 -192.5t-4.5 -190.5q-8 -117 -32 -172q-33 -76 -96.5 -109.5t-122.5 -33.5q-37 0 -74 12l-17 -64h-127l37 133q-25 27 -39 62 q-25 55 -32 172q-4 61 -4 190zM317.5 614.5q-0.5 -125.5 4.5 -184.5q2 -18 4 -37l166 600q-16 4 -41 4q-76 0 -107 -69q-16 -37 -22 -129q-4 -59 -4.5 -184.5zM410 236q14 -4 41 -5q76 0 106 70q16 37 23 129q4 59 4 184t-4 185q-3 21 -5 41z" />
<glyph unicode="&#xf9;" d="M195 614v494h122v-494q0 -229 17 -282q14 -45 45 -73t72 -28t71.5 28t44.5 73q14 51 17 221v555h123v-987h-107l-12 24q-61 -37 -137 -36q-61 0 -122 27.5t-93 92.5q-41 80 -41 385zM256 1513h160l219 -305h-100z" />
<glyph unicode="&#xfa;" d="M195 614v494h122v-494q0 -229 17 -282q14 -45 45 -73t72 -28t71.5 28t44.5 73q14 51 17 221v555h123v-987h-107l-12 24q-61 -37 -137 -36q-61 0 -122 27.5t-93 92.5q-41 80 -41 385zM256 1208l219 305h160l-279 -305h-100z" />
<glyph unicode="&#xfb;" d="M184 1223l197 290h127l197 -290h-111l-150 176l-149 -176h-111zM188 614v494h123v-494q0 -229 17 -282q14 -45 44.5 -73t71.5 -28t72 28t45 73q14 51 17 221v555h122v-987h-106l-12 24q-61 -37 -138 -36q-61 0 -121.5 27.5t-93.5 92.5q-41 80 -41 385z" />
<glyph unicode="&#xfc;" d="M188 614v494h123v-494q0 -229 17 -282q14 -45 44.5 -73t71.5 -28t72 28t45 73q14 51 17 221v555h122v-987h-106l-12 24q-61 -37 -138 -36q-61 0 -121.5 27.5t-93.5 92.5q-41 80 -41 385zM201 1367q0 30 21.5 50.5t51 20.5t50 -20.5t20.5 -50.5t-20.5 -51.5t-50 -21.5 t-51 21.5t-21.5 51.5zM545 1367q0 30 20.5 50.5t50 20.5t51 -20.5t21.5 -50.5t-21.5 -51.5t-51 -21.5t-50 21.5t-20.5 51.5z" />
<glyph unicode="&#xfd;" />
<glyph unicode="&#xfe;" />
<glyph unicode="&#xff;" />
<glyph unicode="&#x152;" />
<glyph unicode="&#x153;" />
<glyph unicode="&#x178;" />
<glyph unicode="&#x2c6;" d="M190 1526l183 270l14 23h127l14 -23l183 -270h-111l-149 178l-150 -178h-111z" />
<glyph unicode="&#x2dc;" d="M190 1616v35q0 76 31 118q35 50 96 50q63 0 132 -70l38 -39l41 -41q37 -37 56 -37q4 0 7 2t5 6.5t4 8.5t3 11t1 11v11.5v11.5v32h107v-32q0 -78 -31 -121q-35 -47 -96 -47q-63 0 -131 69l-39 39l-41 41q-37 37 -56 37q-4 0 -7 -2t-5 -7t-4 -9t-3 -10.5t-1 -11.5v-12v-9 v-35h-107z" />
<glyph unicode="&#x2000;" horiz-adv-x="912" />
<glyph unicode="&#x2001;" horiz-adv-x="1825" />
<glyph unicode="&#x2002;" horiz-adv-x="912" />
<glyph unicode="&#x2003;" horiz-adv-x="1825" />
<glyph unicode="&#x2004;" horiz-adv-x="608" />
<glyph unicode="&#x2005;" horiz-adv-x="456" />
<glyph unicode="&#x2006;" horiz-adv-x="304" />
<glyph unicode="&#x2007;" horiz-adv-x="304" />
<glyph unicode="&#x2008;" horiz-adv-x="228" />
<glyph unicode="&#x2009;" horiz-adv-x="365" />
<glyph unicode="&#x200a;" horiz-adv-x="101" />
<glyph unicode="&#x2010;" d="M231 707v120h439v-120h-439z" />
<glyph unicode="&#x2011;" d="M231 707v120h439v-120h-439z" />
<glyph unicode="&#x2012;" d="M231 707v120h439v-120h-439z" />
<glyph unicode="&#x2013;" d="M117 707v120h667v-120h-667z" />
<glyph unicode="&#x2014;" d="M0 707v120h901v-120h-901z" />
<glyph unicode="&#x2018;" d="M360 961v178q0 47 3.5 76.5t12.5 65.5t27.5 58.5t52 43t83.5 30.5v-104q-23 -12 -36.5 -30.5t-19.5 -43.5t-8 -44.5t-2 -51.5h68v-178h-181z" />
<glyph unicode="&#x2019;" d="M360 1235v178h181v-178q0 -47 -3 -77t-12.5 -64.5t-28 -58t-52 -43t-83.5 -31.5v104q23 12 36.5 30.5t19.5 44t8 45t2 50.5h-68z" />
<glyph unicode="&#x201a;" horiz-adv-x="409" />
<glyph unicode="&#x201c;" d="M197 961v178q0 47 2 76.5t12 65.5t28.5 58.5t52.5 43t83 30.5v-104q-41 -23 -53.5 -64t-14.5 -106h68v-178h-178zM526 961v178q0 47 2 76.5t12.5 65.5t29 58.5t52.5 43t83 30.5v-104q-43 -23 -54.5 -64t-13.5 -106h68v-178h-179z" />
<glyph unicode="&#x201d;" d="M197 961v104q23 12 37 30.5t20 44t8 45t2 50.5h-67v178h178v-178q0 -47 -2 -77t-12.5 -64.5t-29 -58t-52 -43t-82.5 -31.5zM526 961v104q23 12 37.5 30.5t20.5 44t7 45t3 50.5h-68v178h179v-178q0 -47 -2.5 -77t-12.5 -64.5t-28.5 -58t-52.5 -43t-83 -31.5z" />
<glyph unicode="&#x201e;" />
<glyph unicode="&#x2022;" d="M340 767q0 46 33 78t78 32t77.5 -32t32.5 -78t-32.5 -78t-77.5 -32t-78 32t-33 78z" />
<glyph unicode="&#x2026;" horiz-adv-x="921" d="M35 109v180h178v-180h-178zM360 109v180h181v-180h-181zM688 109v180h178v-180h-178z" />
<glyph unicode="&#x202f;" horiz-adv-x="365" />
<glyph unicode="&#x2039;" d="M227 713v53v2v53q137 57 240.5 190t103.5 285h103q0 -166 -92.5 -306t-233.5 -224q141 -82 233.5 -222.5t92.5 -305.5h-103q0 152 -103 284.5t-241 190.5z" />
<glyph unicode="&#x203a;" d="M227 238q0 166 92.5 306t233.5 222q-141 84 -233.5 224t-92.5 306h103q0 -152 103.5 -284.5t240.5 -190.5v-53v-2v-53q-137 -57 -240.5 -190.5t-103.5 -284.5h-103z" />
<glyph unicode="&#x205f;" horiz-adv-x="456" />
<glyph unicode="&#x20ac;" />
<glyph unicode="&#x2122;" />
<glyph unicode="&#x25fc;" horiz-adv-x="1024" d="M0 0z" />
<glyph unicode="&#xfb01;" />
<glyph unicode="&#xfb02;" />
<glyph unicode="&#xfb03;" horiz-adv-x="1126" />
<glyph unicode="&#xfb04;" horiz-adv-x="1126" />
<glyph />
<glyph d="M-1106 674v186l416 281v-150l-240 -164h664q-17 215 -25 586h172q-8 -371 -24 -586h839v-120h-1626l240 -164v-150zM-295 393v180h180v-180h-180z" />
<glyph d="M-1106 717v100l426 289v-115l-256 -174h152l426 289v-115l-256 -174h1310v-100h-1310l256 -174v-115l-426 289h-152l256 -174v-115z" />
<glyph d="M-1106 717v100l426 289v-115l-256 -174h1632v-100h-1632l256 -174v-115z" />
</font>
</defs>
</svg>
