<?xml version="1.0" standalone="no"?>
<!DOCTYPE svg PUBLIC "-//W3C//DTD SVG 1.1//EN" "http://www.w3.org/Graphics/SVG/1.1/DTD/svg11.dtd" >
<svg xmlns="http://www.w3.org/2000/svg">
<metadata></metadata>
<defs>
<font id="universalis_adf_stdcondIt" horiz-adv-x="960" >
<font-face units-per-em="2048" ascent="1536" descent="-512" />
<missing-glyph horiz-adv-x="563" />
<glyph unicode="AE" horiz-adv-x="1484" d="M16 0l803 1456l12 -22h527l22 -150h-526l37 -366h528l23 -150h-522l59 -623h489l21 -145h-653l-41 371h-420l-197 -371h-162zM451 518h329l-47 533z" />
<glyph unicode="ae" horiz-adv-x="1435" d="M133 184q0 41 8 80q68 314 434 314h166l4 14q7 40 7 63q0 73 -43.5 113.5t-124.5 40.5q-124 -5 -215 -88l-45 119q148 98 301 98q60 0 99 -7.5t69 -30t47.5 -45t46.5 -69.5q66 66 143 109t150 43h8h8q134 0 205.5 -85t71.5 -237q0 -52 -9 -110l-10 -51q-2 -2 -2 -4h-590 q-10 -46 -10 -105q0 -105 46 -172.5t124 -67.5h12q137 0 252 127l80 -86q-71 -82 -169 -125t-206 -45q-116 1 -174 59t-82 161q-51 -104 -141.5 -160.5t-216.5 -56.5q-118 0 -181 52.5t-63 151.5zM303 219q0 -57 30 -89t87 -32q100 0 179.5 89.5t111.5 238.5l4 25h-113 q-146 0 -208.5 -38t-84.5 -139q-6 -30 -6 -55zM905 580h416q2 12 2 36q0 97 -45.5 144t-118.5 47q-69 0 -146.5 -74t-107.5 -153z" />
<glyph unicode="OE" horiz-adv-x="1845" d="M209 475q0 110 27 236q72 338 274 541.5t463 203.5q132 0 226 -64t142 -184l48 226h686l-31 -150h-531l-77 -366h530l-33 -150h-530l-131 -623h545l-31 -145h-701l45 213q-94 -115 -215.5 -176.5t-257.5 -61.5q-213 0 -330.5 132.5t-117.5 367.5zM369 502 q0 -187 84 -293.5t231 -106.5q179 0 327 148t214 412l18 88q17 100 17 170q0 187 -84 294t-232 107q-182 0 -336.5 -164.5t-214.5 -445.5q-24 -114 -24 -209z" />
<glyph unicode="oe" horiz-adv-x="1576" d="M176 336q0 56 12 117q44 203 192 344t316 141q102 0 170.5 -58t96.5 -163q72 106 166 163.5t198 57.5h8q135 0 207 -85t72 -237q0 -58 -8 -110l-11 -51q-2 -2 -2 -4h-600q-10 -55 -10 -97q0 -109 48.5 -178.5t129.5 -69.5h13q135 0 253 127l80 -86q-70 -81 -169.5 -124.5 t-207.5 -45.5q-102 0 -174 62.5t-100 169.5q-74 -109 -168 -170.5t-196 -61.5q-141 0 -228.5 100.5t-87.5 258.5zM348 354q0 -109 47.5 -178.5t126.5 -69.5q95 0 185.5 102.5t119.5 244.5q13 60 13 104q0 109 -47 179.5t-123 70.5q-96 0 -188.5 -105.5t-123.5 -248.5 q-10 -58 -10 -99zM1038 580h424q2 12 2 36q0 97 -45.5 144t-118.5 47q-71 0 -152.5 -75t-109.5 -152z" />
<glyph unicode="&#xfb01;" horiz-adv-x="958" d="M186 0l170 801h-120l24 117h121l59 286q33 155 116 243t212 89h141l-26 -125h-135q-61 0 -94.5 -47t-55.5 -141l-63 -305h477l-195 -918h-151l170 801h-326l-170 -801h-154zM915 1257q0 9 3 21q9 42 45 73t73 31q31 0 52.5 -23.5t21.5 -58.5q0 -14 -2 -22q-9 -42 -44 -72 t-71 -30q-33 0 -55.5 23t-22.5 58z" />
<glyph unicode="&#xfb02;" horiz-adv-x="958" d="M186 0l170 801h-120l24 117h121l59 278q33 160 116.5 248.5t219.5 91.5h367l-326 -1536h-151l299 1409h-217q-60 0 -95 -50.5t-57 -146.5l-61 -294h143l-25 -117h-143l-170 -801h-154z" />
<glyph unicode="&#xfb03;" horiz-adv-x="1409" d="M174 0l170 801h-121l25 117h121l59 282q72 330 338 336h133l-27 -127h-135q-60 0 -93.5 -48t-57.5 -144l-64 -299h320l59 286q33 155 116.5 243t213.5 89h143l-26 -127h-138q-61 0 -94 -46t-57 -140l-64 -305h482l-195 -918h-152l170 801h-329l-170 -801h-154l170 801 h-319l-170 -801h-154zM1374 1255q0 15 2 23q9 43 45 73.5t80 30.5q35 0 58.5 -23.5t23.5 -58.5q0 -14 -2 -22q-9 -42 -45 -72t-78 -30q-38 0 -61 22t-23 57z" />
<glyph unicode="&#xfb04;" horiz-adv-x="1431" d="M172 0l170 801h-121l25 117h121l59 282q72 330 340 336h133l-27 -127h-135q-62 0 -95.5 -48t-55.5 -144l-64 -299h324l59 278q33 160 118 248.5t222 91.5h371l-326 -1536h-151l299 1409h-221q-62 0 -96.5 -50.5t-57.5 -146.5l-62 -294h146l-25 -117h-145l-170 -801h-156 l170 801h-323l-170 -801h-156z" />
<glyph horiz-adv-x="0" />
<glyph horiz-adv-x="682" />
<glyph unicode=" "  horiz-adv-x="563" />
<glyph unicode="&#x09;" horiz-adv-x="563" />
<glyph unicode="&#xa0;" horiz-adv-x="563" />
<glyph unicode="!" horiz-adv-x="577" d="M211 51q0 17 2 27q9 43 39.5 73.5t66.5 30.5q32 0 52 -23t20 -57q0 -16 -2 -24q-9 -42 -42.5 -72.5t-70.5 -30.5q-30 0 -47.5 21t-17.5 55zM307 432l60 320l143 682h149l-143 -682l-78 -320h-131z" />
<glyph unicode="&#x22;" horiz-adv-x="673" d="M336 918l108 516h136l-109 -516h-135zM590 918l108 516h138l-109 -516h-137z" />
<glyph unicode="#" horiz-adv-x="1241" d="M106 371l29 137h295l133 301h-268l31 139h301l170 375h133l-168 -375h246l170 375h133l-168 -375h264l-31 -139h-297l-131 -301h266l-28 -137h-299l-164 -371h-137l166 371h-248l-162 -371h-137l166 371h-265zM565 508h248l131 301h-244z" />
<glyph unicode="$" horiz-adv-x="802" d="M86 121l104 115q53 -63 86.5 -82.5t104.5 -20.5l86 397q-116 25 -169.5 80t-53.5 150q0 44 12 102q31 150 119 235t231 97l51 240h91l-50 -236q102 -3 207 -111l-102 -122q-3 4 -11.5 15.5t-12 15.5t-12 13.5t-14 13.5t-15.5 10t-19.5 9t-22.5 5.5t-28 3.5l-80 -369 q124 -26 183.5 -86t59.5 -162q0 -36 -10 -94q-34 -157 -132 -246t-247 -100l-53 -250h-90l53 250q-81 0 -145.5 27.5t-120.5 99.5zM406 811q0 -44 22.5 -71t73.5 -42l76 353q-128 -14 -164 -179q-8 -46 -8 -61zM473 135q71 14 119 62t65 125q7 35 7 53q0 104 -113 133z" />
<glyph unicode="%" horiz-adv-x="1710" d="M256 963q0 21 8 67q29 136 148 234t256 98q120 0 194 -73.5t74 -188.5q0 -38 -8 -74q-29 -134 -147.5 -232t-252.5 -98q-119 0 -195.5 76t-76.5 191zM395 991q0 -67 45.5 -112t116.5 -45q79 0 149 57t87 137q4 14 4 45q0 67 -43.5 110.5t-114.5 43.5q-82 0 -151.5 -57.5 t-88.5 -139.5q-4 -28 -4 -39zM401 -27l1063 1389h129l-1063 -1389h-129zM1055 238q0 21 8 67q29 135 146.5 232.5t252.5 97.5q121 0 197 -74.5t76 -189.5q0 -14 -9 -70q-29 -133 -148 -230.5t-253 -97.5q-119 0 -194.5 75t-75.5 190zM1192 266q0 -68 46 -112.5t116 -44.5 q79 0 149.5 57t87.5 135q4 28 4 41q0 68 -45 113t-116 45q-80 0 -150.5 -58t-87.5 -137q-4 -28 -4 -39z" />
<glyph unicode="&#x26;" horiz-adv-x="1052" d="M160 268q0 59 14 119q27 129 103.5 217.5t181.5 118.5q-137 49 -137 207q0 36 10 88q35 163 151.5 256.5t280.5 93.5q40 0 96 -16.5t101 -44.5l-103 -150q-22 22 -33 31.5t-32 19t-45 9.5q-97 0 -160.5 -58.5t-85.5 -161.5q-8 -46 -8 -63q0 -69 40 -105t117 -36h56 l-33 -152h-49q-107 0 -180.5 -67.5t-98.5 -186.5q-10 -52 -10 -84q0 -178 205 -178q82 0 136.5 7t100.5 32l135 637h-104l25 117h104l49 237h152l-49 -237h104l-25 -117h-104l-170 -801h-152v6q-137 -29 -237 -29q-168 0 -257 75t-89 216z" />
<glyph unicode="'" horiz-adv-x="438" d="M311 1059l246 401l96 -74l-278 -374z" />
<glyph unicode="(" horiz-adv-x="481" d="M176 233q0 175 37 345q83 389 379 823h127q-264 -434 -346 -823q-45 -219 -45 -420t43 -398h-127q-68 250 -68 473z" />
<glyph unicode=")" horiz-adv-x="483" d="M8 -240q255 401 342 818q47 214 47 423q0 195 -41 400h127q64 -253 64 -477q0 -176 -37 -346q-82 -398 -375 -818h-127z" />
<glyph unicode="*" horiz-adv-x="745" d="M283 1014l270 141l-211 139l53 74l193 -147l57 270h80l-57 -270l256 147l24 -74l-274 -139l215 -141l-55 -70l-193 146l-59 -273h-80l59 273l-256 -146z" />
<glyph unicode="+" horiz-adv-x="784" d="M170 500v155h266v349h142v-349h264v-155h-269v-348h-141v348h-262z" />
<glyph unicode="," horiz-adv-x="438" d="M33 -256l246 401l96 -73l-281 -375z" />
<glyph unicode="-" horiz-adv-x="665" d="M223 389l29 135h383l-29 -135h-383z" />
<glyph unicode="." horiz-adv-x="421" d="M131 51q0 17 2 27q9 43 40 73.5t67 30.5q32 0 51.5 -23t19.5 -57q0 -16 -2 -24q-9 -43 -42 -73t-70 -30q-30 0 -48 21t-18 55z" />
<glyph unicode="/" horiz-adv-x="598" d="M-4 -168l778 1704h139l-776 -1704h-141z" />
<glyph unicode="0" horiz-adv-x="972" d="M164 346q0 160 45 365q78 364 212 554.5t314 190.5q126 0 191 -96t65 -283q0 -161 -45 -366q-76 -361 -211 -548.5t-315 -187.5q-126 0 -191 93.5t-65 277.5zM313 336q0 -240 131 -240q218 0 347 615q49 232 49 379q0 235 -133 235q-105 0 -193.5 -154t-153.5 -460 q-47 -219 -47 -375z" />
<glyph unicode="1" horiz-adv-x="616" d="M244 0l268 1272h-162l96 162h252l-303 -1434h-151z" />
<glyph unicode="2" horiz-adv-x="944" d="M119 0l31 147l514 560q91 112 133 185t59 150q10 52 10 86q0 87 -41 140t-114 53h-4q-68 0 -128.5 -53.5t-78.5 -122.5h-144q29 127 141.5 217.5t239.5 95.5q135 0 212 -76.5t77 -212.5q0 -53 -12 -114q-42 -187 -203 -387l-481 -521h493l-30 -147h-674z" />
<glyph unicode="3" horiz-adv-x="983" d="M141 248q0 27 2 41h158q0 -93 41.5 -143t122.5 -50q96 0 169.5 79t102.5 218q13 60 13 105q0 89 -41.5 139.5t-118.5 50.5l28 139q87 0 153 64.5t89 177.5q10 41 10 92q0 79 -36.5 121.5t-106.5 42.5q-76 0 -134 -47.5t-89 -136.5h-156q41 148 150 231.5t258 83.5 q129 0 201.5 -67.5t72.5 -192.5q0 -50 -12 -109q-25 -120 -93.5 -205.5t-166.5 -119.5q72 -25 110.5 -89.5t38.5 -162.5q0 -52 -12 -117q-43 -201 -161.5 -309.5t-293.5 -108.5q-146 0 -222.5 69t-76.5 204z" />
<glyph unicode="4" horiz-adv-x="935" d="M111 311l12 49l813 1098h43l-213 -997h154l-31 -150h-154l-65 -311h-150l66 311h-475zM356 461h260l115 532z" />
<glyph unicode="5" horiz-adv-x="937" d="M121 135l106 115q64 -135 168 -141q118 0 206.5 91.5t121.5 252.5q14 60 14 118q0 108 -51.5 168t-144.5 60q-105 0 -248 -76l311 711h481l-59 -146h-354l-166 -366q45 12 88 16q142 0 221.5 -86t79.5 -242q0 -72 -18 -157q-47 -228 -180.5 -353t-327.5 -125 q-69 0 -135 39.5t-113 120.5z" />
<glyph unicode="6" horiz-adv-x="1034" d="M199 334q0 58 12 119q41 183 141 305l578 700l100 -74l-385 -469q9 5 33 15q16 8 31 8q137 0 220 -99t83 -257q0 -60 -15 -127q-43 -201 -186 -339.5t-307 -138.5q-137 0 -221 99.5t-84 257.5zM367 352q0 -107 46.5 -176.5t121.5 -69.5q95 0 183.5 102t117.5 245 q12 55 12 108q0 106 -45.5 176t-120.5 70q-93 0 -183.5 -105.5t-121.5 -248.5q-10 -44 -10 -101z" />
<glyph unicode="7" horiz-adv-x="854" d="M201 0l622 1282h-481l31 152h686l-703 -1434h-155z" />
<glyph unicode="8" horiz-adv-x="1048" d="M213 254q0 57 16 139q31 142 106.5 239.5t182.5 129.5q-59 21 -89 76t-30 135q0 40 15 121q35 170 142.5 266t266.5 96q129 0 199 -64t70 -186q0 -45 -13 -112q-58 -268 -245 -332q143 -50 143 -244q0 -46 -14 -125q-43 -201 -160.5 -309.5t-294.5 -108.5 q-143 0 -219 70.5t-76 208.5zM375 285q0 -90 40.5 -139.5t116.5 -49.5q98 0 172 79t103 218q12 61 12 111q0 90 -40.5 139t-119.5 49q-98 0 -169 -77t-103 -222q-12 -59 -12 -108zM553 979q0 -76 34 -117t101 -41q85 0 147 67t87 187q12 55 12 99q0 151 -139 151 q-87 0 -146.5 -64t-85.5 -186q-10 -44 -10 -96z" />
<glyph unicode="9" horiz-adv-x="1030" d="M281 45l393 471q-37 -22 -62 -22h-4q-134 0 -218.5 100.5t-84.5 257.5q0 50 14 125q43 200 187.5 339.5t306.5 139.5q137 0 221 -98.5t84 -253.5q0 -50 -14 -125q-41 -187 -139 -305l-582 -701zM467 872q0 -107 46.5 -177t121.5 -70q93 0 182.5 105.5t120.5 248.5 q12 55 12 106q0 105 -46 172.5t-120 67.5q-95 0 -184.5 -101.5t-120.5 -244.5q-12 -55 -12 -107z" />
<glyph unicode=":" horiz-adv-x="423" d="M135 51q0 17 2 27q9 43 40 73.5t67 30.5q32 0 51.5 -23t19.5 -57q0 -16 -2 -24q-9 -43 -42 -73t-70 -30q-30 0 -48 21t-18 55zM279 725q0 17 2 27q8 43 38.5 73.5t67.5 30.5q32 0 52 -23t20 -59q0 -14 -2 -22q-9 -42 -42.5 -72.5t-70.5 -30.5q-30 0 -47.5 21t-17.5 55z " />
<glyph unicode=";" horiz-adv-x="440" d="M27 -256l245 401l97 -73l-281 -375zM297 727q0 17 2 25q7 43 41 73.5t74 30.5q33 0 54 -24t21 -60q0 -14 -2 -20q-9 -43 -43.5 -73t-72.5 -30q-33 0 -53.5 22t-20.5 56z" />
<glyph unicode="&#x3c;" horiz-adv-x="1089" d="M158 455v137l925 381l4 -150l-727 -301l707 -299l-6 -149z" />
<glyph unicode="=" horiz-adv-x="1220" d="M260 287v139h914v-139h-914zM268 621v139h916v-139h-916z" />
<glyph unicode="&#x3e;" horiz-adv-x="1087" d="M219 74v149l723 299l-702 301v150l909 -381v-137z" />
<glyph unicode="?" horiz-adv-x="788" d="M250 1120q19 86 63 152.5t100.5 105.5t117.5 58.5t122 19.5q122 0 191 -58.5t69 -160.5q0 -37 -4 -55q-6 -26 -19.5 -54t-28.5 -51t-40.5 -51t-41.5 -45t-46.5 -43.5t-42 -36t-40 -32.5t-29.5 -23l-49.5 -44t-53.5 -49t-38.5 -39.5t-36.5 -46t-15 -38.5q-8 -24 -8 -49 q0 -70 57 -70h6h17q37 0 64 20t46 74h111q-24 -101 -96.5 -167t-173.5 -66h-9q-76 3 -131 56.5t-55 135.5q0 29 4 45q11 53 38 102t68.5 93t80 77.5t92.5 73.5q181 141 200 215q4 16 4 43q0 93 -135 93q-68 0 -123 -49t-79 -136h-156zM276 53q0 11 3 23q9 43 45 73.5 t79 30.5q37 0 60.5 -23.5t23.5 -58.5q0 -14 -2 -22q-9 -43 -45.5 -73t-79.5 -30q-36 0 -60 23t-24 57z" />
<glyph unicode="@" horiz-adv-x="1624" d="M182 459v4q0 165 61.5 310t165 245t243 157.5t292.5 57.5q142 0 274 -52.5t230 -141.5t157 -214.5t60 -265.5v-4q0 -225 -133 -354t-367 -135v133q-94 -131 -264 -131q-142 0 -234.5 107.5t-93.5 279.5v6q0 165 89.5 273t232.5 108q178 0 272 -131v112h117v-630 q123 20 192 115.5t70 248.5q-1 126 -53 233.5t-136 179t-191 113t-220 43.5q-140 0 -262 -54.5t-205.5 -145.5t-131.5 -211.5t-48 -251.5v-4q1 -139 53 -261.5t138 -208t203 -135t245 -49.5q106 0 211.5 44t196.5 118l75 -94q-203 -168 -481 -174q-134 0 -254 40.5 t-210.5 112.5t-157 167t-101 208t-35.5 232zM707 455q0 -120 59.5 -191t165.5 -71q100 0 160.5 70.5t60.5 191.5q-3 120 -63.5 190t-161.5 70q-100 0 -160.5 -68t-60.5 -192z" />
<glyph unicode="A" horiz-adv-x="1013" d="M18 0l797 1456l180 -1456h-157l-41 371h-422l-199 -371h-158zM451 518h329l-51 533z" />
<glyph unicode="B" horiz-adv-x="987" d="M141 0l303 1434h367q135 0 209 -65.5t74 -186.5q0 -51 -11 -99q-30 -135 -89.5 -211t-155.5 -96q76 -25 116.5 -90.5t40.5 -163.5q0 -64 -14 -127q-41 -192 -160 -293.5t-299 -101.5h-381zM319 137h224q110 0 179 68t99 213q13 67 13 106q0 174 -172 174h-224zM467 836 h207q99 0 160.5 54t87.5 173q10 48 10 80q0 143 -160 149h-207z" />
<glyph unicode="C" horiz-adv-x="976" d="M209 444q0 116 31 265q73 345 256.5 546t423.5 201q184 0 313 -129l-103 -113q-101 107 -231 107q-174 0 -304 -158t-192 -454q-30 -150 -30 -265q0 -167 66.5 -253.5t199.5 -86.5q135 0 266 99l64 -107q-170 -123 -365 -123q-189 0 -292 122.5t-103 348.5z" />
<glyph unicode="D" horiz-adv-x="1134" d="M141 0l305 1440h299q244 0 363 -107.5t119 -333.5q0 -119 -35 -280q-78 -372 -259.5 -545.5t-492.5 -173.5h-299zM324 137h165q214 0 344 141.5t193 440.5q31 146 31 248q0 168 -79.5 249.5t-242.5 81.5h-166z" />
<glyph unicode="E" horiz-adv-x="888" d="M141 0l303 1434h674l-31 -150h-520l-78 -366h521l-33 -150h-520l-131 -623h534l-31 -145h-688z" />
<glyph unicode="F" horiz-adv-x="802" d="M141 0l303 1434h611l-31 -150h-459l-78 -366h459l-33 -148h-458l-162 -770h-152z" />
<glyph unicode="G" horiz-adv-x="1118" d="M211 444q0 116 31 271q74 352 257.5 546.5t434.5 194.5q204 0 344 -125l-109 -121q-105 111 -254 111q-382 0 -509 -606q-31 -152 -31 -260q0 -340 282 -340q154 0 250 69l86 410h-227l31 143h383l-133 -622q-194 -140 -429 -140q-198 0 -302.5 121t-104.5 348z" />
<glyph unicode="H" horiz-adv-x="1097" d="M141 0l303 1434h152l-125 -592h510l125 592h154l-304 -1434h-153l145 692h-510l-145 -692h-152z" />
<glyph unicode="I" horiz-adv-x="434" d="M141 0l303 1434h152l-303 -1434h-152z" />
<glyph unicode="J" horiz-adv-x="516" d="M14 -25l31 142h47q90 0 142.5 76t91.5 268l206 973h154l-207 -973q-53 -251 -149 -368.5t-254 -117.5h-62z" />
<glyph unicode="K" horiz-adv-x="1001" d="M141 0l303 1434h152l-131 -619l598 619h192l-665 -666l399 -768h-194l-355 702l-147 -702h-152z" />
<glyph unicode="L" horiz-adv-x="815" d="M141 0l303 1434h152l-272 -1289h512l-31 -145h-664z" />
<glyph unicode="M" horiz-adv-x="1368" d="M37 0l641 1434h12l88 -988l510 988h10l33 -1434h-164l-12 901l-473 -901l-88 901l-393 -901h-164z" />
<glyph unicode="N" horiz-adv-x="1091" d="M141 0l305 1434h15l436 -983l209 983h147l-305 -1434h-14l-438 975l-207 -975h-148z" />
<glyph unicode="O" horiz-adv-x="1310" d="M209 471q0 111 27 240q72 338 271 541.5t456 203.5q205 0 320.5 -135.5t115.5 -372.5q0 -108 -27 -237q-71 -337 -267 -536.5t-458 -199.5q-209 0 -323.5 131.5t-114.5 364.5zM365 500q0 -187 83 -292.5t226 -105.5q87 0 172 42t157 118.5t128.5 192.5t85.5 256 q24 117 24 213q0 186 -81 291.5t-226 105.5q-179 0 -332 -164.5t-213 -445.5q-24 -114 -24 -211z" />
<glyph unicode="P" horiz-adv-x="888" d="M141 0l303 1434h312q305 0 305 -273q0 -52 -17 -139q-44 -204 -162.5 -306t-299.5 -102h-160l-129 -614h-152zM453 752h159q98 0 169.5 67.5t101.5 202.5q10 44 10 96q0 168 -166 174h-160z" />
<glyph unicode="Q" horiz-adv-x="1323" d="M211 473q0 109 27 238q72 337 272 541t457 204q204 0 319 -135t115 -371q0 -110 -27 -239q-68 -320 -239 -512l90 -199h-160l-43 106q-170 -131 -371 -131q-210 0 -325 131.5t-115 366.5zM369 500q0 -187 83 -292.5t226 -105.5q147 0 276 117l-118 273h159l70 -175 q107 158 156 394q24 117 24 213q0 186 -81 291.5t-226 105.5q-179 0 -332 -164.5t-213 -445.5q-24 -114 -24 -211z" />
<glyph unicode="R" horiz-adv-x="911" d="M141 0l303 1434h314h4q135 0 207.5 -67.5t72.5 -201.5q0 -57 -16 -135q-45 -173 -121 -261.5t-186 -125.5l133 -643h-164l-131 614h-135l-129 -614h-152zM453 758h161q97 0 162.5 70t93.5 202q13 60 13 100q0 156 -154 162h-162z" />
<glyph unicode="S" horiz-adv-x="903" d="M109 131l124 127q81 -134 211 -145q244 0 301 258q13 63 13 100q0 98 -72 142q-32 20 -137 52q-2 0 -4 1q-123 34 -181.5 97t-58.5 169q0 58 14 121q38 185 162.5 294t298.5 109q101 -1 167.5 -45t115.5 -129l-121 -115q-39 81 -75 117.5t-99 36.5q-111 0 -186.5 -64.5 t-102.5 -193.5q-8 -39 -8 -74q0 -43 15 -73.5t44.5 -49.5t61 -31t77.5 -26q10 -2 15 -4q122 -36 182 -107t60 -186q0 -58 -15 -125q-44 -204 -169.5 -308t-325.5 -104q-78 0 -164 42.5t-143 113.5z" />
<glyph unicode="T" horiz-adv-x="915" d="M295 1284l31 150h870l-31 -150h-358l-272 -1284h-152l272 1284h-360z" />
<glyph unicode="U" horiz-adv-x="1081" d="M217 313q0 79 27 217l190 904h158l-186 -879q-31 -146 -31 -236q0 -114 45.5 -166.5t142.5 -52.5q132 0 215.5 108t134.5 347l187 879h153l-190 -904q-120 -555 -526 -555q-320 0 -320 338z" />
<glyph unicode="V" horiz-adv-x="1032" d="M332 1434h160l114 -1014l545 1014h158l-793 -1454h-18z" />
<glyph unicode="W" horiz-adv-x="1382" d="M348 1434h170l19 -893l456 893l84 -897l402 897h163l-647 -1454h-14l-86 985l-508 -985h-14z" />
<glyph unicode="X" horiz-adv-x="974" d="M25 0l536 764l-184 670h162l143 -545l373 545h166l-486 -691l205 -743h-162l-164 618l-426 -618h-163z" />
<glyph unicode="Y" horiz-adv-x="929" d="M319 1434h164l162 -598l412 598h162l-531 -746l-145 -688h-156l145 688z" />
<glyph unicode="Z" horiz-adv-x="946" d="M37 0l878 1282h-587l30 152h838l-881 -1289h621l-31 -145h-868z" />
<glyph unicode="[" horiz-adv-x="505" d="M86 -256l358 1690h306l-27 -129h-160l-305 -1432h160l-27 -129h-305z" />
<glyph unicode="\" horiz-adv-x="569" d="M295 1223h139l64 -1377h-140z" />
<glyph unicode="]" horiz-adv-x="503" d="M4 -256l27 129h159l306 1432h-160l26 129h304l-359 -1690h-303z" />
<glyph unicode="^" horiz-adv-x="1021" d="M223 766l395 457h150l371 -457h-160l-283 334l-315 -334h-158z" />
<glyph unicode="_" horiz-adv-x="745" d="M-94 -393l24 117h762l-24 -117h-762z" />
<glyph unicode="`" horiz-adv-x="464" d="M352 1382l115 76l180 -321l-78 -62z" />
<glyph unicode="a" d="M180 293q0 69 19 162q46 217 166.5 350t269.5 133q162 0 201 -162l30 142h148l-195 -918h-147l26 133q-105 -153 -268 -153q-118 0 -184 83t-66 230zM344 301q0 -97 36 -150t105 -53q96 0 172 96t111 261q16 88 16 147q0 99 -38 154t-109 55q-92 0 -166 -94t-109 -262 q-18 -85 -18 -154z" />
<glyph unicode="b" horiz-adv-x="958" d="M141 0l326 1536h145l-161 -760q58 83 123 122.5t149 39.5q116 0 181 -85t65 -232q0 -73 -19 -166q-46 -213 -164.5 -344t-267.5 -131q-83 0 -131 35t-74 118l-26 -133h-146zM367 307q0 -99 37.5 -154t111.5 -55q91 0 164 96t108 261q17 78 17 151q0 98 -35 151.5 t-102 53.5q-97 0 -173.5 -94t-111.5 -262q-16 -71 -16 -148z" />
<glyph unicode="c" horiz-adv-x="802" d="M178 332q0 60 12 121q44 204 188.5 344.5t307.5 140.5h14q64 0 124.5 -27.5t99.5 -83.5l-123 -114q-51 94 -142 94q-93 0 -182.5 -105.5t-120.5 -248.5q-10 -44 -10 -103q0 -107 45.5 -175.5t120.5 -68.5q92 0 180 91l72 -121q-152 -101 -260 -101q-3 0 -11 1t-12 1 q-136 0 -219.5 99.5t-83.5 255.5z" />
<glyph unicode="d" d="M180 293q0 69 19 162q46 217 166.5 350t269.5 133q162 0 201 -162l161 760h148l-326 -1536h-147l26 133q-105 -153 -268 -153q-118 0 -184 83t-66 230zM344 301q0 -97 36 -150t105 -53q96 0 172 96t111 261q16 88 16 147q0 99 -38 154t-109 55q-92 0 -166 -94t-109 -262 q-18 -85 -18 -154z" />
<glyph unicode="e" horiz-adv-x="919" d="M178 330q0 58 12 123q44 205 184 345t304 140h8q131 0 200.5 -84.5t69.5 -235.5q0 -57 -8 -112l-10 -51q-2 -2 -2 -4h-588q-10 -58 -10 -101q0 -106 48 -175t126 -69h12q133 0 248 127l78 -86q-69 -82 -165.5 -125t-203.5 -45q-137 0 -220 99t-83 254zM391 580h418 q2 14 2 38q0 96 -44.5 142.5t-115.5 46.5q-70 0 -150 -74.5t-110 -152.5z" />
<glyph unicode="f" horiz-adv-x="532" d="M184 0l170 801h-118l24 117h119l59 282q72 330 332 336h129l-27 -127h-131q-59 0 -92 -48t-57 -144l-64 -299h140l-25 -117h-139l-170 -801h-150z" />
<glyph unicode="g" horiz-adv-x="958" d="M66 -322l133 101q18 -54 59 -84.5t100 -30.5q113 0 189 75.5t108 229.5l41 191q-103 -160 -264 -160q-117 0 -183.5 83.5t-66.5 229.5q0 78 17 156q45 208 163.5 338.5t268.5 130.5q157 0 196 -162l31 142h154l-195 -918q-50 -231 -165 -346t-302 -115h-20 q-87 0 -158.5 35.5t-105.5 103.5zM346 315q0 -93 35.5 -142.5t103.5 -49.5q95 0 168.5 91t108.5 255q16 73 16 145q0 197 -145 197q-93 0 -163 -89t-105 -253q-19 -90 -19 -154z" />
<glyph unicode="h" horiz-adv-x="942" d="M141 0l326 1536h149l-161 -764q120 166 272 166q217 0 217 -238q0 -74 -16 -147l-117 -553h-156l115 547q14 63 14 119q0 71 -28 105.5t-86 35.5q-98 0 -169 -77t-102 -214l-108 -516h-150z" />
<glyph unicode="i" horiz-adv-x="432" d="M141 0l195 918h149l-194 -918h-150zM387 1257q0 13 2 21q9 42 45.5 73t73.5 31q31 0 52.5 -23.5t21.5 -58.5q0 -14 -2 -22q-9 -42 -44 -72t-71 -30q-33 0 -55.5 23t-22.5 58z" />
<glyph unicode="j" horiz-adv-x="432" d="M43 -461l293 1379h149l-292 -1379h-150zM387 1257q0 13 2 21q9 42 45.5 73t73.5 31q31 0 52.5 -23.5t21.5 -58.5q0 -14 -2 -22q-9 -42 -44 -72t-71 -30q-33 0 -55.5 23t-22.5 58z" />
<glyph unicode="k" horiz-adv-x="884" d="M141 0l326 1536h147l-217 -1018l449 400h182l-500 -433l324 -485h-188l-281 446l-94 -446h-148z" />
<glyph unicode="l" horiz-adv-x="430" d="M141 0l326 1536h147l-325 -1536h-148z" />
<glyph unicode="m" horiz-adv-x="1439" d="M141 0l195 918h151l-30 -146q62 86 127 126t147 40q85 0 134.5 -51t58.5 -148q134 199 313 199q100 0 153.5 -61.5t53.5 -176.5q0 -60 -19 -147l-116 -553h-158l115 547q16 75 16 123q0 137 -108 137q-93 0 -163 -77t-102 -214l-108 -516h-156l115 547q16 75 16 125 q0 135 -110 135q-93 0 -164.5 -79t-100.5 -212l-108 -516h-152z" />
<glyph unicode="n" horiz-adv-x="942" d="M141 0l195 918h149l-30 -146q120 166 272 166q217 0 217 -238q0 -74 -16 -147l-117 -553h-156l115 547q14 63 14 119q0 71 -28 105.5t-86 35.5q-98 0 -169 -77t-102 -214l-108 -516h-150z" />
<glyph unicode="o" horiz-adv-x="976" d="M176 334q0 58 12 119q44 203 189.5 344t310.5 141q136 0 218.5 -99t82.5 -257q0 -64 -14 -127q-43 -201 -186 -339.5t-306 -138.5q-137 0 -222 99.5t-85 257.5zM344 352q0 -107 46.5 -176.5t123.5 -69.5q94 0 182 102t117 245q12 55 12 108q0 108 -44.5 177t-118.5 69 q-95 0 -186 -105.5t-122 -248.5q-10 -44 -10 -101z" />
<glyph unicode="p" horiz-adv-x="958" d="M43 -461l293 1379h147l-30 -142q58 83 123 122.5t147 39.5q116 0 181 -85t65 -232q0 -73 -19 -166q-46 -213 -164.5 -344t-267.5 -131q-81 0 -129 35t-74 118l-125 -594h-147zM367 305q0 -99 37.5 -153t111.5 -54q91 0 164 96t108 261q17 78 17 151q0 98 -35 151.5 t-102 53.5q-95 0 -171.5 -94t-111.5 -262q-18 -83 -18 -150z" />
<glyph unicode="q" d="M180 293q0 69 19 162q46 217 166.5 350t269.5 133q162 0 201 -162l30 142h148l-293 -1379h-148l125 594q-108 -158 -268 -158q-118 0 -184 85t-66 233zM344 301q0 -97 36 -150t105 -53q96 0 172 96t111 261q16 88 16 147q0 99 -38 154t-109 55q-92 0 -166 -94t-109 -262 q-18 -85 -18 -154z" />
<glyph unicode="r" horiz-adv-x="661" d="M141 0l195 918h147l-30 -146q106 166 278 166q17 0 46 -7.5t50 -21.5l-77 -139h-17q-12 14 -17.5 19t-19 10.5t-30.5 5.5q-100 0 -170.5 -83.5t-106.5 -240.5l-100 -481h-148z" />
<glyph unicode="s" horiz-adv-x="749" d="M117 123l129 96q20 -55 57 -84t84 -29q75 0 118 32t60 102q4 20 4 30q0 31 -20.5 53.5t-44 33.5t-73.5 29q-13 5 -19 7q-166 49 -166 199q0 26 6 61q28 129 120.5 207t221.5 78q63 0 125 -33.5t94 -85.5l-108 -100q-31 46 -62 68t-78 22q-58 0 -104.5 -40t-61.5 -110 q-2 -10 -2 -28q0 -42 33.5 -69t114.5 -54q89 -32 133.5 -78.5t44.5 -118.5q0 -15 -8 -61q-27 -130 -117.5 -201.5t-241.5 -71.5q-74 0 -141 39t-98 107z" />
<glyph unicode="t" horiz-adv-x="497" d="M174 0l170 801h-100l24 117h101l75 362h150l-76 -362h100l-24 -117h-100l-170 -801h-150z" />
<glyph unicode="u" horiz-adv-x="929" d="M195 248q0 50 12 112l119 558h151l-117 -551q-12 -52 -12 -97q0 -80 38 -122t103 -42q94 0 149.5 66.5t90.5 222.5l111 523h153l-119 -558q-38 -178 -147.5 -280.5t-257.5 -102.5h-8q-120 0 -193 70.5t-73 200.5z" />
<glyph unicode="v" horiz-adv-x="864" d="M236 918h159l115 -590l346 590h164l-588 -938h-22z" />
<glyph unicode="w" horiz-adv-x="1239" d="M238 918h163l99 -564l311 564l76 -549l338 549h168l-572 -938h-20l-66 567l-319 -567h-19z" />
<glyph unicode="x" horiz-adv-x="874" d="M47 0l395 479l-174 439h170l127 -330l269 330h167l-372 -449l192 -469h-172l-137 358l-295 -358h-170z" />
<glyph unicode="y" horiz-adv-x="983" d="M90 -322l133 101q15 -53 57.5 -84t102.5 -31q236 0 299 305l33 154q-94 -146 -264 -146q-116 0 -181 89.5t-65 240.5q0 77 18 162l96 449h162l-96 -449q-18 -86 -18 -154q0 -94 36 -144t107 -50q97 0 170 91.5t108 256.5l97 449h151l-196 -920q-95 -459 -465 -459h-21 q-86 0 -158 36t-106 103z" />
<glyph unicode="z" horiz-adv-x="794" d="M76 0l26 133l613 664h-455l27 121h622l-30 -140l-609 -659h469l-24 -119h-639z" />
<glyph unicode="{" horiz-adv-x="645" d="M129 483l27 131h57q86 0 131 51.5t74 186.5l45 217q43 200 117.5 267t257.5 67h55l-27 -129h-59q-85 0 -119 -38t-65 -171l-48 -223q-30 -143 -74.5 -207t-125.5 -86q50 -19 72 -52t22 -94q0 -59 -18 -147l-48 -225q-16 -78 -16 -117q0 -47 25.5 -64.5t87.5 -17.5h59 l-27 -129h-55q-141 0 -198.5 35.5t-57.5 134.5q0 46 21 156l47 217q16 82 16 125q0 60 -27.5 86t-91.5 26h-57z" />
<glyph unicode="|" horiz-adv-x="528" d="M276 -307v1741h136v-1741h-136z" />
<glyph unicode="}" horiz-adv-x="641" d="M-14 -297l26 129h60q86 0 120 37.5t60 161.5l47 225q30 139 74 202.5t125 90.5q-49 14 -72 47t-23 94q0 42 21 152l47 223q18 80 18 125q0 48 -25 66t-85 18h-60l27 129h53q139 0 196.5 -37t57.5 -133q0 -57 -22 -164l-45 -217q-17 -87 -17 -125q0 -62 28.5 -87.5 t92.5 -25.5h51l-26 -131h-51q-89 0 -133.5 -49.5t-73.5 -187.5l-47 -217q-41 -196 -115 -261t-256 -65h-53z" />
<glyph unicode="~" horiz-adv-x="1138" d="M184 381l31 145q91 64 161 92.5t144 28.5q102 0 185 -53q82 -57 167 -57q124 0 289 133l-33 -150q-86 -63 -156.5 -90t-144.5 -29q-93 0 -186 52q-78 59 -166 59q-124 0 -291 -131z" />
<glyph unicode="&#xa1;" horiz-adv-x="575" d="M209 0l139 657l82 338h127l-63 -338l-140 -657h-145zM483 1323q0 17 2 27q9 43 40 73.5t67 30.5q32 0 52 -23t20 -57q0 -16 -2 -24q-9 -42 -42.5 -72.5t-70.5 -30.5q-30 0 -48 21t-18 55z" />
<glyph unicode="&#xa2;" horiz-adv-x="768" d="M147 297q0 68 19 158q45 214 161 339t291 142l50 238h92l-49 -238q109 -7 178 -55l-31 -142q-88 67 -176 70l-150 -709q98 6 205 72l-28 -141q-88 -41 -203 -51l-49 -234h-92l51 238q-130 9 -199.5 90.5t-69.5 222.5zM313 307q0 -87 32.5 -140t94.5 -63l150 703 q-90 -13 -158 -106t-100 -246q-19 -84 -19 -148z" />
<glyph unicode="&#xa3;" horiz-adv-x="837" d="M55 0l31 150h160l90 419h-133l26 131h133l46 213q52 236 150.5 345.5t266.5 109.5q86 -3 149.5 -48.5t86.5 -123.5l-113 -102q-19 36 -24.5 46t-20.5 32.5t-26 29t-29.5 13.5t-42.5 8q-63 0 -104 -28t-74 -99.5t-60 -202.5l-41 -193h262l-26 -131h-262l-90 -419h381 l-31 -150h-705z" />
<glyph unicode="&#xa4;" horiz-adv-x="1175" d="M236 975l94 102l174 -186q91 67 198 67q106 0 201 -65l172 188l99 -104l-177 -184q64 -104 64 -218q0 -115 -64 -213l181 -186l-97 -104l-176 186q-92 -68 -198 -68q-108 0 -203 66l-170 -186l-94 104l170 186q-61 107 -64 215v11q0 107 62 202zM475 578 q2 -103 69 -174.5t163 -71.5q92 0 155.5 70t63.5 171v5v4q0 95 -65 164t-159 69q-91 0 -159 -69t-68 -168z" />
<glyph unicode="&#xa5;" horiz-adv-x="909" d="M174 406l23 110h284l11 47l-21 142h-233l22 108h178l-106 533h155l117 -635l387 635h156l-332 -533h178l-22 -108h-232l-84 -142l-10 -47h285l-23 -110h-284l-86 -406h-164l86 406h-285z" />
<glyph unicode="&#xa6;" horiz-adv-x="503" d="M250 551v623h133v-623h-133zM252 -285v617h133v-617h-133z" />
<glyph unicode="&#xa7;" horiz-adv-x="747" d="M109 -123l30 143q101 -56 191 -63q133 0 159 137q5 25 5 29q0 71 -103 174l-12 14q-100 90 -138 143.5t-38 114.5q0 30 10 78q38 173 174 256q-41 52 -41 133q0 32 6 72q25 114 112.5 187t207.5 73q113 0 205 -53l-31 -146q-110 67 -189 70q-55 0 -96.5 -35.5 t-54.5 -101.5q-2 -6 -2 -21q0 -71 96 -163q57 -57 77.5 -78t52.5 -57t42 -55.5t18.5 -45t8.5 -53.5q0 -34 -8 -70q-36 -157 -179 -256q43 -67 43 -137q0 -28 -6 -66q-26 -123 -116.5 -197.5t-213.5 -74.5q-106 0 -210 49zM354 625q0 -49 39 -104t146 -152q86 86 104 163 q6 24 6 48q0 50 -39.5 107t-144.5 155q-86 -83 -105 -164q-6 -27 -6 -53z" />
<glyph unicode="&#xa8;" horiz-adv-x="684" d="M365 1182q0 16 2 24q9 43 43 74t73 31q33 0 53.5 -23t20.5 -57q0 -17 -2 -25q-9 -43 -43 -73.5t-74 -30.5q-33 0 -53 22.5t-20 57.5zM633 1180q0 18 2 26q9 43 42.5 74t72.5 31q33 0 53 -22.5t20 -57.5q0 -17 -2 -25q-9 -43 -42.5 -73.5t-73.5 -30.5q-33 0 -52.5 22 t-19.5 56z" />
<glyph unicode="&#xa9;" horiz-adv-x="1488" d="M229 666v8q0 141 54 266t143 211t206.5 136t241.5 50q139 0 263 -55.5t210 -148t137 -214.5t52 -253v-4q0 -181 -88 -333.5t-237.5 -240.5t-325.5 -88q-180 0 -331.5 91.5t-238 244.5t-86.5 330zM317 666q1 -159 81 -292.5t210 -208.5t277 -75q159 0 289 79.5t202 211 t72 285.5q-1 130 -50.5 240t-130.5 182t-182 112.5t-208 42.5q-149 0 -278 -76.5t-205.5 -208t-76.5 -284.5v-8zM492 666v4q0 186 110 293.5t299 107.5q132 0 244 -49v-117q-96 53 -232 60q-130 0 -203 -75.5t-73 -217.5v-6q1 -144 76.5 -222.5t210.5 -78.5q119 0 225 57 v-113q-108 -50 -242 -53q-187 0 -301 110t-114 300z" />
<glyph unicode="&#xaa;" horiz-adv-x="739" d="M209 420l24 112h488l-25 -112h-487zM272 788q0 22 7 62q53 246 321 246h111l2 4q6 30 6 57q0 107 -113 107q-91 0 -209 -62l25 115q118 51 217 51q207 0 207 -201q0 -35 -15 -116l-88 -408h-129l23 102q-83 -120 -203 -120q-77 0 -119.5 42.5t-42.5 120.5zM408 825 q0 -41 21.5 -65.5t64.5 -24.5q63 0 115.5 65t74.5 167l6 26h-72q-98 0 -144.5 -29t-61.5 -100q-4 -28 -4 -39z" />
<glyph unicode="&#xab;" horiz-adv-x="817" d="M156 455l14 67l416 344l-33 -157l-244 -220l150 -221l-33 -153zM453 455l14 67l418 344l-33 -157l-248 -220l154 -221l-33 -153z" />
<glyph unicode="&#xac;" horiz-adv-x="1163" d="M205 565v140h915v-472h-143v332h-772z" />
<glyph unicode="&#xad;" horiz-adv-x="665" d="M223 389l29 135h383l-29 -135h-383z" />
<glyph unicode="&#xae;" horiz-adv-x="1138" d="M295 954v9q0 105 39 198.5t104 158t150 101.5t176 37q132 0 243 -71.5t173 -187t63 -245.5v-4q0 -206 -138.5 -350.5t-332.5 -144.5q-131 0 -241.5 68t-173 183t-62.5 248zM358 954q0 -180 123.5 -306t288.5 -126q171 0 288.5 127t117.5 301v4q-1 98 -36.5 180.5 t-93.5 136.5t-131 85t-151 33q-165 0 -285.5 -128t-120.5 -303v-4zM567 680v567h183q229 0 229 -162q0 -120 -129 -147q14 -3 33.5 -27.5t54.5 -79.5l88 -151h-108l-84 145q-37 61 -59.5 78.5t-61.5 20.5h-45v-244h-101zM670 989h80q67 0 97 19.5t30 70.5v4q0 51 -30 71.5 t-97 23.5h-80v-189z" />
<glyph unicode="&#xaf;" horiz-adv-x="708" d="M379 1126l27 123h425l-26 -123h-426z" />
<glyph unicode="&#xb0;" horiz-adv-x="690" d="M334 1067q0 26 6 53q22 101 107 173.5t186 72.5q98 0 145 -57t47 -140q0 -17 -4 -49q-21 -97 -105.5 -169t-185.5 -72q-90 0 -143 52t-53 136zM432 1092q0 -50 33 -82.5t86 -32.5q59 0 109 40t63 103q2 10 2 29q0 50 -30.5 84.5t-82.5 34.5q-60 0 -111.5 -42.5 t-64.5 -105.5q-4 -20 -4 -28z" />
<glyph unicode="&#xb1;" horiz-adv-x="878" d="M184 0v150h670v-150h-670zM203 651v156h264v348h141v-348h269v-156h-269v-348h-141v348h-264z" />
<glyph unicode="&#xb2;" horiz-adv-x="679" d="M215 645l23 98l348 301q54 54 78.5 89t33.5 73q2 10 2 29q0 46 -27.5 73t-78.5 27q-46 0 -84.5 -27t-46.5 -61h-119q17 81 97.5 138.5t174.5 60.5q103 0 163.5 -48t60.5 -132q0 -25 -6 -52q-21 -102 -136 -217l-309 -254h344l-22 -98h-496z" />
<glyph unicode="&#xb3;" horiz-adv-x="706" d="M236 803q0 4 1 12t1 12h129q2 -46 30.5 -71t79.5 -25q63 0 110 37t60 100q4 24 4 35q0 49 -29 77t-85 28l22 102q57 0 97.5 30t50.5 83q4 20 4 30q0 39 -27.5 60.5t-77.5 21.5q-100 0 -135 -90h-127q28 94 104.5 147.5t182.5 53.5q101 0 159 -43.5t58 -120.5 q0 -25 -6 -49q-12 -63 -57.5 -108t-112.5 -64q55 -12 84.5 -51t29.5 -97q0 -13 -4 -45q-25 -113 -109.5 -174t-215.5 -61q-221 0 -221 170z" />
<glyph unicode="&#xb4;" horiz-adv-x="481" d="M342 1112l199 342l129 -72l-242 -338z" />
<glyph unicode="&#xb5;" horiz-adv-x="921" d="M45 -451l291 1369h149l-123 -572q-10 -44 -10 -94q0 -148 135 -148q192 0 252 277l115 537h152l-193 -918h-154l21 102q-45 -63 -94.5 -92.5t-114.5 -29.5q-69 0 -108 28.5t-52 91.5l-116 -551h-150z" />
<glyph unicode="&#xb6;" horiz-adv-x="860" d="M248 852q0 52 12 111q37 169 153.5 276t270.5 107h320l-324 -1520h-121l301 1409h-104l-301 -1409h-123l162 756q-119 12 -182.5 82t-63.5 188z" />
<glyph unicode="&#xb7;" horiz-adv-x="526" d="M225 551q0 13 4 33q13 63 68.5 108t118.5 45q55 0 90 -34.5t35 -86.5q0 -12 -4 -32q-13 -63 -68.5 -108.5t-118.5 -45.5q-55 0 -90 34.5t-35 86.5z" />
<glyph unicode="&#xb8;" horiz-adv-x="428" d="M12 -369l203 287h92l-188 -369z" />
<glyph unicode="&#xb9;" horiz-adv-x="436" d="M307 645l146 676h-113l70 113h188l-168 -789h-123z" />
<glyph unicode="&#xba;" horiz-adv-x="765" d="M227 420l25 112h485l-24 -112h-486zM301 870q0 60 14 123q36 171 130.5 273t226.5 102q100 0 155.5 -64t55.5 -182q0 -58 -15 -129q-37 -169 -132 -268.5t-222 -99.5q-101 0 -157 64.5t-56 180.5zM442 883q0 -70 25 -110t72 -40q62 0 114.5 72t77.5 188q14 63 14 123 q0 70 -24.5 109t-69.5 39q-63 0 -116.5 -73t-79.5 -198q-13 -67 -13 -110z" />
<glyph unicode="&#xbb;" horiz-adv-x="815" d="M135 115l33 153l250 221l-156 220l33 157l276 -344l-14 -67zM432 115l33 153l248 221l-154 220l33 157l276 -344l-14 -67z" />
<glyph unicode="&#xbc;" horiz-adv-x="1222" d="M162 -23l917 1391h131l-917 -1391h-131zM274 580l144 675h-123l74 113h202l-165 -788h-132zM643 164l608 637l-114 -533h110l-20 -104h-111l-35 -164h-125l35 164h-348zM834 268h178l53 252z" />
<glyph unicode="&#xbd;" horiz-adv-x="1284" d="M164 -23l917 1391h131l-917 -1391h-131zM274 580l144 675h-121l72 113h204l-165 -788h-134zM713 0l20 98l354 301q56 53 82 88.5t35 73.5q2 10 2 29q0 45 -28.5 72.5t-81.5 27.5q-48 0 -87 -27t-48 -61h-121q17 80 99.5 138t178.5 61q108 0 170 -48t62 -132q0 -20 -7 -52 q-21 -102 -139 -217l-315 -254h354l-20 -98h-510z" />
<glyph unicode="&#xbe;" horiz-adv-x="1454" d="M182 752v20h135q0 -45 31 -70.5t84 -25.5q65 0 113 36.5t61 100.5q4 24 4 37q0 48 -31.5 75t-89.5 27l23 103q59 0 100.5 29.5t53.5 82.5q2 10 2 27q0 86 -109 86q-104 0 -139 -90h-131q28 94 107 147.5t188 53.5q106 0 167.5 -43.5t61.5 -122.5q0 -23 -6 -47 q-13 -64 -60 -108.5t-118 -63.5q59 -12 90 -51t31 -97q0 -5 -5 -45q-25 -114 -111.5 -174.5t-223.5 -60.5q-228 0 -228 174zM410 -23l921 1391h129l-921 -1391h-129zM874 164l609 637l-115 -533h113l-21 -104h-112l-35 -164h-127l35 164h-347zM1063 268h178l53 252z" />
<glyph unicode="&#xbf;" horiz-adv-x="780" d="M160 184q0 30 6 64q9 40 31 82.5t57 84.5t58 67t62.5 62.5t41.5 39.5q8 9 35 37.5t37 39.5t30 35t29 38t18.5 32.5t12.5 34.5q10 38 10 63q0 56 -31 56h-4h-10q-26 0 -46.5 -20.5t-37.5 -74.5h-113q24 101 89 167.5t151 66.5h6q66 -3 114 -55.5t48 -131.5q0 -24 -6 -51 q-22 -99 -84.5 -179.5t-159.5 -166.5q-149 -139 -168 -215q-6 -30 -6 -51q0 -84 90 -84q49 0 92.5 48.5t69.5 135.5h147q-19 -86 -58 -152.5t-88 -105.5t-101 -58.5t-103 -19.5q-104 0 -161.5 56t-57.5 155zM551 1333q0 15 2 23q9 42 45 72t78 30q35 0 56.5 -22.5 t21.5 -57.5q0 -14 -2 -22q-9 -43 -44.5 -74t-76.5 -31q-35 0 -57.5 23.5t-22.5 58.5z" />
<glyph unicode="&#xc0;" horiz-adv-x="1013" d="M18 0l797 1456l180 -1456h-157l-41 371h-422l-199 -371h-158zM451 518h329l-51 533zM672 1868l114 76l181 -322l-78 -61z" />
<glyph unicode="&#xc1;" horiz-adv-x="1013" d="M18 0l797 1456l180 -1456h-157l-41 371h-422l-199 -371h-158zM451 518h329l-51 533zM719 1626l199 342l129 -72l-242 -337z" />
<glyph unicode="&#xc2;" horiz-adv-x="1013" d="M18 0l797 1456l180 -1456h-157l-41 371h-422l-199 -371h-158zM451 518h329l-51 533zM612 1606l238 262h108l125 -262l-88 -47l-116 188l-197 -188z" />
<glyph unicode="&#xc3;" horiz-adv-x="1013" d="M18 0l797 1456l180 -1456h-157l-41 371h-422l-199 -371h-158zM451 518h329l-51 533zM543 1620q48 67 108 119t119 53q67 0 117 -53q2 -2 17 -19.5t22 -24t20 -14.5t25 -8h4q28 0 62.5 32t66.5 87l80 -61q-34 -66 -105 -119t-127 -53h-2h-8q-60 0 -108 51q-53 61 -84 67 h-2q-59 0 -136 -118z" />
<glyph unicode="&#xc4;" horiz-adv-x="1013" d="M18 0l797 1456l180 -1456h-157l-41 371h-422l-199 -371h-158zM451 518h329l-51 533zM631 1638q0 17 2 25q9 43 43 73.5t74 30.5q33 0 53 -22.5t20 -56.5q0 -17 -2 -25q-9 -43 -42.5 -73.5t-73.5 -30.5q-33 0 -53.5 22.5t-20.5 56.5zM899 1636q0 19 2 27q9 43 42.5 73.5 t72.5 30.5q33 0 53.5 -22.5t20.5 -56.5q0 -13 -3 -25q-9 -43 -42.5 -73.5t-73.5 -30.5q-33 0 -52.5 21.5t-19.5 55.5z" />
<glyph unicode="&#xc5;" horiz-adv-x="1013" d="M18 0l797 1456l180 -1456h-157l-41 371h-422l-199 -371h-158zM459 518h313l-43 533zM686 1671q0 21 6 45q15 78 79.5 135.5t139.5 57.5q63 0 103.5 -44t40.5 -112q0 -13 -4 -37q-17 -79 -82 -134.5t-140 -55.5q-63 0 -103 40.5t-40 104.5zM795 1683q0 -32 14.5 -52.5 t38.5 -20.5q30 0 57.5 30.5t38.5 75.5q2 10 2 29q0 33 -15.5 54.5t-39.5 21.5q-30 0 -56.5 -29.5t-35.5 -75.5q-4 -20 -4 -33z" />
<glyph unicode="&#xc7;" horiz-adv-x="978" d="M209 444q0 116 31 265q73 345 256.5 546t423.5 201q184 0 313 -129l-107 -113q-93 107 -227 107q-174 0 -304 -158t-192 -454q-30 -150 -30 -265q0 -167 66.5 -253.5t199.5 -86.5q138 0 270 101l58 -109q-167 -123 -363 -123q-189 0 -292 122.5t-103 348.5zM328 -369 l213 287h102l-201 -369z" />
<glyph unicode="&#xc8;" horiz-adv-x="888" d="M141 0l303 1434h674l-31 -150h-520l-78 -366h521l-33 -150h-520l-131 -623h534l-31 -145h-688zM705 1866l114 76l180 -322l-77 -61z" />
<glyph unicode="&#xc9;" horiz-adv-x="888" d="M141 0l303 1434h674l-31 -150h-520l-78 -366h521l-33 -150h-520l-131 -623h534l-31 -145h-688zM694 1626l199 342l129 -72l-242 -337z" />
<glyph unicode="&#xca;" horiz-adv-x="888" d="M141 0l303 1434h674l-31 -150h-520l-78 -366h521l-33 -150h-520l-131 -623h534l-31 -145h-688zM588 1606l237 262h109l125 -262l-88 -47l-117 188l-197 -188z" />
<glyph unicode="&#xcb;" horiz-adv-x="888" d="M141 0l303 1434h674l-31 -150h-520l-78 -366h521l-33 -150h-520l-131 -623h534l-31 -145h-688zM606 1638q0 17 2 25q9 43 43 73.5t74 30.5q33 0 53.5 -22.5t20.5 -56.5q0 -17 -2 -25q-9 -43 -43 -73.5t-74 -30.5q-33 0 -53.5 22.5t-20.5 56.5zM874 1636q0 15 3 27 q9 43 42 73.5t72 30.5q33 0 53.5 -22.5t20.5 -56.5q0 -17 -2 -25q-9 -43 -43 -73.5t-74 -30.5q-33 0 -52.5 21.5t-19.5 55.5z" />
<glyph unicode="&#xcc;" horiz-adv-x="434" d="M141 0l303 1434h152l-303 -1434h-152zM436 1866l115 76l180 -322l-78 -61z" />
<glyph unicode="&#xcd;" horiz-adv-x="434" d="M141 0l303 1434h152l-303 -1434h-152zM426 1626l199 342l129 -72l-242 -337z" />
<glyph unicode="&#xce;" horiz-adv-x="434" d="M141 0l303 1434h152l-303 -1434h-152zM319 1606l238 262h109l125 -262l-89 -47l-116 188l-197 -188z" />
<glyph unicode="&#xcf;" horiz-adv-x="434" d="M141 0l303 1434h152l-303 -1434h-152zM338 1638q0 17 2 25q9 43 43 73.5t74 30.5q33 0 53 -22.5t20 -56.5q0 -17 -2 -25q-9 -43 -42.5 -73.5t-73.5 -30.5q-33 0 -53.5 22.5t-20.5 56.5zM606 1636q0 19 2 27q9 43 42.5 73.5t72.5 30.5q33 0 53.5 -22.5t20.5 -56.5 q0 -17 -2 -25q-9 -43 -43 -73.5t-74 -30.5q-33 0 -52.5 21.5t-19.5 55.5z" />
<glyph unicode="&#xd0;" horiz-adv-x="1171" d="M176 0l119 559h-119l29 135h119l137 652h299q248 0 367.5 -103t119.5 -321q0 -109 -30 -250q-74 -348 -252.5 -510t-489.5 -162h-299zM371 145h157q206 0 328.5 127.5t179.5 399.5q27 138 27 217q0 156 -76.5 230.5t-236.5 74.5h-158l-105 -500h113l-29 -135h-112z" />
<glyph unicode="&#xd1;" horiz-adv-x="1091" d="M141 0l305 1434h15l436 -983l209 983h147l-305 -1434h-14l-438 975l-207 -975h-148zM582 1620q48 67 108 119t119 53q67 0 117 -53q2 -2 17 -19.5t22 -24t20 -14.5t25 -8h4q28 0 62.5 32t66.5 87l80 -61q-34 -66 -105 -119t-127 -53h-2h-8q-61 0 -109 51q-53 61 -84 67 h-2q-58 0 -135 -118z" />
<glyph unicode="&#xd2;" horiz-adv-x="1310" d="M209 471q0 111 27 240q72 338 271 541.5t456 203.5q205 0 320.5 -135.5t115.5 -372.5q0 -108 -27 -237q-71 -337 -267 -536.5t-458 -199.5q-209 0 -323.5 131.5t-114.5 364.5zM365 500q0 -187 83 -292.5t226 -105.5q87 0 172 42t157 118.5t128.5 192.5t85.5 256 q24 117 24 213q0 186 -81 291.5t-226 105.5q-179 0 -332 -164.5t-213 -445.5q-24 -114 -24 -211zM877 1866l114 76l180 -322l-77 -61z" />
<glyph unicode="&#xd3;" horiz-adv-x="1310" d="M209 471q0 111 27 240q72 338 271 541.5t456 203.5q205 0 320.5 -135.5t115.5 -372.5q0 -108 -27 -237q-71 -337 -267 -536.5t-458 -199.5q-209 0 -323.5 131.5t-114.5 364.5zM365 500q0 -187 83 -292.5t226 -105.5q87 0 172 42t157 118.5t128.5 192.5t85.5 256 q24 117 24 213q0 186 -81 291.5t-226 105.5q-179 0 -332 -164.5t-213 -445.5q-24 -114 -24 -211zM864 1626l199 342l129 -72l-242 -337z" />
<glyph unicode="&#xd4;" horiz-adv-x="1310" d="M209 471q0 111 27 240q72 338 271 541.5t456 203.5q205 0 320.5 -135.5t115.5 -372.5q0 -108 -27 -237q-71 -337 -267 -536.5t-458 -199.5q-209 0 -323.5 131.5t-114.5 364.5zM365 500q0 -187 83 -292.5t226 -105.5q87 0 172 42t157 118.5t128.5 192.5t85.5 256 q24 117 24 213q0 186 -81 291.5t-226 105.5q-179 0 -332 -164.5t-213 -445.5q-24 -114 -24 -211zM760 1606l237 262h109l125 -262l-88 -47l-117 188l-197 -188z" />
<glyph unicode="&#xd5;" horiz-adv-x="1310" d="M209 471q0 111 27 240q72 338 271 541.5t456 203.5q205 0 320.5 -135.5t115.5 -372.5q0 -108 -27 -237q-71 -337 -267 -536.5t-458 -199.5q-209 0 -323.5 131.5t-114.5 364.5zM365 500q0 -187 83 -292.5t226 -105.5q87 0 172 42t157 118.5t128.5 192.5t85.5 256 q24 117 24 213q0 186 -81 291.5t-226 105.5q-179 0 -332 -164.5t-213 -445.5q-24 -114 -24 -211zM690 1620q48 67 108.5 119t119.5 53q66 0 116 -53q2 -2 17 -19.5t22 -24t20 -14.5t25 -8h4q28 0 62.5 32t66.5 87l80 -61q-34 -66 -104.5 -119t-126.5 -53h-2h-8 q-61 0 -109 51q-53 61 -84 67h-2q-58 0 -135 -118z" />
<glyph unicode="&#xd6;" horiz-adv-x="1310" d="M209 471q0 111 27 240q72 338 271 541.5t456 203.5q205 0 320.5 -135.5t115.5 -372.5q0 -108 -27 -237q-71 -337 -267 -536.5t-458 -199.5q-209 0 -323.5 131.5t-114.5 364.5zM365 500q0 -187 83 -292.5t226 -105.5q87 0 172 42t157 118.5t128.5 192.5t85.5 256 q24 117 24 213q0 186 -81 291.5t-226 105.5q-179 0 -332 -164.5t-213 -445.5q-24 -114 -24 -211zM778 1638q0 17 2 25q9 43 43 73.5t74 30.5q33 0 53.5 -22.5t20.5 -56.5q0 -17 -2 -25q-9 -43 -43 -73.5t-74 -30.5q-33 0 -53.5 22.5t-20.5 56.5zM1047 1636q0 19 2 27 q9 43 42 73.5t72 30.5q33 0 53.5 -22.5t20.5 -56.5q0 -17 -2 -25q-9 -43 -43 -73.5t-74 -30.5q-33 0 -52 21.5t-19 55.5z" />
<glyph unicode="&#xd7;" horiz-adv-x="1036" d="M209 164l328 411l-297 416l100 107l301 -416l332 416l96 -107l-332 -416l301 -411l-102 -111l-299 414l-336 -414z" />
<glyph unicode="&#xd8;" horiz-adv-x="1312" d="M207 465q0 104 29 246q72 338 271 541.5t456 203.5q85 0 139 -22l86 172h143l-108 -222q176 -134 176 -432q0 -112 -27 -241q-71 -337 -267 -536.5t-458 -199.5q-69 0 -131 21l-82 -168h-143l106 213q-93 59 -141.5 167t-48.5 257zM365 492q0 -219 106 -322l561 1133 q-46 18 -98 18q-179 0 -332 -164.5t-213 -445.5q-24 -120 -24 -219zM586 119q41 -17 88 -17q87 0 172 42t157 118.5t128.5 192.5t85.5 256q24 123 24 223q0 210 -98 313z" />
<glyph unicode="&#xd9;" horiz-adv-x="1081" d="M217 313q0 79 27 217l190 904h158l-186 -879q-31 -146 -31 -236q0 -114 45.5 -166.5t142.5 -52.5q132 0 215.5 108t134.5 347l187 879h153l-190 -904q-120 -555 -526 -555q-320 0 -320 338zM760 1866l114 76l181 -322l-78 -61z" />
<glyph unicode="&#xda;" horiz-adv-x="1081" d="M217 313q0 79 27 217l190 904h158l-186 -879q-31 -146 -31 -236q0 -114 45.5 -166.5t142.5 -52.5q132 0 215.5 108t134.5 347l187 879h153l-190 -904q-120 -555 -526 -555q-320 0 -320 338zM748 1626l198 342l129 -72l-241 -337z" />
<glyph unicode="&#xdb;" horiz-adv-x="1081" d="M217 313q0 79 27 217l190 904h158l-186 -879q-31 -146 -31 -236q0 -114 45.5 -166.5t142.5 -52.5q132 0 215.5 108t134.5 347l187 879h153l-190 -904q-120 -555 -526 -555q-320 0 -320 338zM643 1606l238 262h108l125 -262l-88 -47l-117 188l-196 -188z" />
<glyph unicode="&#xdc;" horiz-adv-x="1081" d="M217 313q0 79 27 217l190 904h158l-186 -879q-31 -146 -31 -236q0 -114 45.5 -166.5t142.5 -52.5q132 0 215.5 108t134.5 347l187 879h153l-190 -904q-120 -555 -526 -555q-320 0 -320 338zM662 1638q0 17 2 25q9 43 42.5 73.5t73.5 30.5q33 0 53.5 -22.5t20.5 -56.5 q0 -17 -2 -25q-9 -43 -43 -73.5t-74 -30.5q-33 0 -53 22.5t-20 56.5zM930 1636q0 19 2 27q9 43 42.5 73.5t72.5 30.5q33 0 53 -22.5t20 -56.5q0 -17 -2 -25q-9 -43 -43 -73.5t-74 -30.5q-33 0 -52 21.5t-19 55.5z" />
<glyph unicode="&#xdd;" horiz-adv-x="929" d="M319 1434h164l162 -598l412 598h162l-531 -746l-145 -688h-156l145 688zM674 1626l198 342l129 -72l-241 -337z" />
<glyph unicode="&#xde;" horiz-adv-x="884" d="M141 0l303 1434h156l-59 -283h161q145 0 220 -67.5t75 -200.5q0 -57 -16 -135q-82 -395 -451 -404h-161l-72 -344h-156zM401 494h162q88 0 151 65.5t89 188.5q10 55 10 90q0 77 -36 119t-107 42h-162z" />
<glyph unicode="&#xdf;" horiz-adv-x="950" d="M147 0l170 803h-47l70 110l31 142q39 183 148 292t265 109q100 0 169 -74.5t69 -205.5q0 -59 -14 -119l-37 -174q-232 -16 -258 -144q-4 -20 -4 -30q0 -53 65 -107l29 -35q123 -120 123 -256q0 -33 -11 -90q-25 -106 -116 -175t-213 -69q-26 0 -53.5 6t-58 20t-57.5 41 t-42 65l127 92q17 -36 49.5 -68.5t60.5 -32.5q115 0 146 150q8 19 8 43q0 63 -72 135l-37 51q-98 76 -98 185q0 37 8 73q12 57 34.5 98t59 68t77 44t100.5 32l16 78q8 36 8 76q0 78 -31 130t-81 52q-79 0 -140.5 -71t-87.5 -191l-223 -1053h-152z" />
<glyph unicode="&#xe0;" d="M180 293q0 69 19 162q46 217 166.5 350t269.5 133q162 0 201 -162l30 142h148l-195 -918h-147l26 133q-105 -153 -268 -153q-118 0 -184 83t-66 230zM344 301q0 -97 36 -150t105 -53q96 0 172 96t111 261q16 88 16 147q0 99 -38 154t-109 55q-92 0 -166 -94t-109 -262 q-18 -85 -18 -154zM573 1348l115 75l180 -321l-77 -62z" />
<glyph unicode="&#xe1;" d="M180 293q0 69 19 162q46 217 166.5 350t269.5 133q162 0 201 -162l30 142h148l-195 -918h-147l26 133q-105 -153 -268 -153q-118 0 -184 83t-66 230zM344 301q0 -97 36 -150t105 -53q96 0 172 96t111 261q16 88 16 147q0 99 -38 154t-109 55q-92 0 -166 -94t-109 -262 q-18 -85 -18 -154zM588 1108l198 342l129 -72l-241 -338z" />
<glyph unicode="&#xe2;" d="M180 293q0 69 19 162q46 217 166.5 350t269.5 133q162 0 201 -162l30 142h148l-195 -918h-147l26 133q-105 -153 -268 -153q-118 0 -184 83t-66 230zM344 301q0 -97 36 -150t105 -53q96 0 172 96t111 261q16 88 16 147q0 99 -38 154t-109 55q-92 0 -166 -94t-109 -262 q-18 -85 -18 -154zM457 1087l237 263h109l125 -263l-88 -47l-117 189l-197 -189z" />
<glyph unicode="&#xe3;" d="M180 293q0 69 19 162q46 217 166.5 350t269.5 133q162 0 201 -162l30 142h148l-195 -918h-147l26 133q-105 -153 -268 -153q-118 0 -184 83t-66 230zM344 301q0 -97 36 -150t105 -53q96 0 172 96t111 261q16 88 16 147q0 99 -38 154t-109 55q-92 0 -166 -94t-109 -262 q-18 -85 -18 -154zM387 1102q48 67 108 119t119 53q67 0 117 -53q2 -2 17 -19.5t22 -24t20 -14.5t25 -8h4q28 0 62.5 32t66.5 87l80 -62q-34 -66 -104.5 -119t-126.5 -53h-2h-9q-59 0 -108 52q-53 61 -84 67h-2q-58 0 -135 -119z" />
<glyph unicode="&#xe4;" d="M180 293q0 69 19 162q46 217 166.5 350t269.5 133q162 0 201 -162l30 142h148l-195 -918h-147l26 133q-105 -153 -268 -153q-118 0 -184 83t-66 230zM344 301q0 -97 36 -150t105 -53q96 0 172 96t111 261q16 88 16 147q0 99 -38 154t-109 55q-92 0 -166 -94t-109 -262 q-18 -85 -18 -154zM475 1120q0 17 2 25q9 43 43 73.5t74 30.5q33 0 53.5 -23t20.5 -57q0 -16 -2 -24q-9 -43 -43.5 -74t-73.5 -31q-33 0 -53.5 23t-20.5 57zM743 1118q0 19 2 27q9 43 42.5 73.5t72.5 30.5q33 0 53.5 -23t20.5 -57q0 -16 -2 -24q-9 -43 -43.5 -74t-73.5 -31 q-33 0 -52.5 22t-19.5 56z" />
<glyph unicode="&#xe5;" d="M180 293q0 69 19 162q46 217 166.5 350t269.5 133q162 0 201 -162l30 142h148l-195 -918h-147l26 133q-105 -153 -268 -153q-118 0 -184 83t-66 230zM344 301q0 -97 36 -150t105 -53q96 0 172 96t111 261q16 88 16 147q0 99 -38 154t-109 55q-92 0 -166 -94t-109 -262 q-18 -85 -18 -154zM551 1186q0 29 4 45q18 78 77.5 135t129.5 57q58 0 94.5 -42t36.5 -107q0 -15 -4 -43q-17 -80 -77 -135.5t-130 -55.5q-58 0 -94.5 40.5t-36.5 105.5zM649 1196q0 -32 13 -52t36 -20q29 0 55 31t35 76q5 30 5 33q0 31 -14 51t-36 20q-28 0 -54 -29 t-36 -75q-4 -24 -4 -35z" />
<glyph unicode="&#xe7;" horiz-adv-x="802" d="M178 332q0 60 12 121q44 204 188.5 344.5t307.5 140.5h14q64 0 124.5 -27.5t99.5 -83.5l-123 -114q-51 94 -142 94q-93 0 -182.5 -105.5t-120.5 -248.5q-10 -44 -10 -103q0 -107 45.5 -175.5t120.5 -68.5q92 0 180 91l72 -121q-152 -101 -260 -101q-3 0 -11 1t-12 1 q-136 0 -219.5 99.5t-83.5 255.5zM209 -369l213 287h100l-198 -369z" />
<glyph unicode="&#xe8;" horiz-adv-x="919" d="M178 330q0 58 12 123q44 205 184 345t304 140h8q131 0 200.5 -84.5t69.5 -235.5q0 -57 -8 -112l-10 -51q-2 -2 -2 -4h-588q-10 -58 -10 -101q0 -106 48 -175t126 -69h12q133 0 248 127l78 -86q-69 -82 -165.5 -125t-203.5 -45q-137 0 -220 99t-83 254zM391 580h418 q2 14 2 38q0 96 -44.5 142.5t-115.5 46.5q-70 0 -150 -74.5t-110 -152.5zM582 1348l114 75l181 -321l-78 -62z" />
<glyph unicode="&#xe9;" horiz-adv-x="919" d="M178 330q0 58 12 123q44 205 184 345t304 140h8q131 0 200.5 -84.5t69.5 -235.5q0 -57 -8 -112l-10 -51q-2 -2 -2 -4h-588q-10 -58 -10 -101q0 -106 48 -175t126 -69h12q133 0 248 127l78 -86q-69 -82 -165.5 -125t-203.5 -45q-137 0 -220 99t-83 254zM391 580h418 q2 14 2 38q0 96 -44.5 142.5t-115.5 46.5q-70 0 -150 -74.5t-110 -152.5zM612 1108l199 342l129 -72l-242 -338z" />
<glyph unicode="&#xea;" horiz-adv-x="919" d="M178 330q0 58 12 123q44 205 184 345t304 140h8q131 0 200.5 -84.5t69.5 -235.5q0 -57 -8 -112l-10 -51q-2 -2 -2 -4h-588q-10 -58 -10 -101q0 -106 48 -175t126 -69h12q133 0 248 127l78 -86q-69 -82 -165.5 -125t-203.5 -45q-137 0 -220 99t-83 254zM391 580h418 q2 14 2 38q0 96 -44.5 142.5t-115.5 46.5q-70 0 -150 -74.5t-110 -152.5zM465 1087l237 263h109l125 -263l-88 -47l-117 189l-196 -189z" />
<glyph unicode="&#xeb;" horiz-adv-x="919" d="M178 330q0 58 12 123q44 205 184 345t304 140h8q131 0 200.5 -84.5t69.5 -235.5q0 -57 -8 -112l-10 -51q-2 -2 -2 -4h-588q-10 -58 -10 -101q0 -106 48 -175t126 -69h12q133 0 248 127l78 -86q-69 -82 -165.5 -125t-203.5 -45q-137 0 -220 99t-83 254zM391 580h418 q2 14 2 38q0 96 -44.5 142.5t-115.5 46.5q-70 0 -150 -74.5t-110 -152.5zM481 1120q0 17 2 25q9 43 43 73.5t74 30.5q33 0 53.5 -23t20.5 -57q0 -16 -2 -24q-9 -43 -43.5 -74t-73.5 -31q-33 0 -53.5 23t-20.5 57zM750 1118q0 19 2 27q9 43 42 73.5t72 30.5q33 0 53.5 -23 t20.5 -57q0 -16 -2 -24q-9 -43 -43.5 -74t-73.5 -31q-33 0 -52 21.5t-19 56.5z" />
<glyph unicode="&#xec;" horiz-adv-x="432" d="M141 0l195 918h149l-194 -918h-150zM332 1368l114 76l181 -322l-78 -61z" />
<glyph unicode="&#xed;" horiz-adv-x="432" d="M141 0l195 918h149l-194 -918h-150zM319 1128l199 342l129 -71l-241 -338z" />
<glyph unicode="&#xee;" horiz-adv-x="432" d="M141 0l195 918h149l-194 -918h-150zM215 1108l238 262h108l125 -262l-88 -47l-117 188l-196 -188z" />
<glyph unicode="&#xef;" horiz-adv-x="432" d="M141 0l195 918h149l-194 -918h-150zM231 1141q0 16 2 24q9 43 43.5 74t73.5 31q33 0 53.5 -23t20.5 -57q0 -17 -2 -25q-9 -43 -43 -73.5t-74 -30.5q-33 0 -53.5 23t-20.5 57zM500 1139q0 18 2 26q9 43 42 74t72 31q33 0 53.5 -23t20.5 -57q0 -17 -2 -25q-9 -43 -43 -73.5 t-74 -30.5q-33 0 -52 21.5t-19 56.5z" />
<glyph unicode="&#xf0;" horiz-adv-x="940" d="M174 297q0 61 16 139q43 202 170.5 331.5t286.5 129.5q33 0 62 -8l-136 409l-237 -88l-17 80l207 78l-67 168h168l49 -121l252 90l14 -78l-221 -79l145 -416q82 -174 82 -320q0 -86 -20 -176q-44 -206 -172.5 -331t-294.5 -125q-135 0 -211 84.5t-76 232.5zM344 303 q0 -95 37 -149t106 -54q93 0 169 92.5t108 243.5q16 85 16 142q0 94 -33.5 145t-91.5 51q-105 0 -184.5 -88.5t-112.5 -249.5q-14 -69 -14 -133z" />
<glyph unicode="&#xf1;" horiz-adv-x="942" d="M141 0l195 918h149l-30 -146q120 166 272 166q217 0 217 -238q0 -74 -16 -147l-117 -553h-156l115 547q14 63 14 119q0 71 -28 105.5t-86 35.5q-98 0 -169 -77t-102 -214l-108 -516h-150zM401 1102q48 67 108.5 119t119.5 53q66 0 116 -53q2 -2 17 -19.5t22 -24t20 -14.5 t25 -8h5q28 0 62.5 32t66.5 87l79 -62q-34 -66 -104.5 -119t-126.5 -53h-2h-8q-60 0 -109 52q-53 61 -84 67h-2q-58 0 -135 -119z" />
<glyph unicode="&#xf2;" horiz-adv-x="976" d="M176 334q0 58 12 119q44 203 189.5 344t310.5 141q136 0 218.5 -99t82.5 -257q0 -64 -14 -127q-43 -201 -186 -339.5t-306 -138.5q-137 0 -222 99.5t-85 257.5zM344 352q0 -107 46.5 -176.5t123.5 -69.5q94 0 182 102t117 245q12 55 12 108q0 108 -44.5 177t-118.5 69 q-95 0 -186 -105.5t-122 -248.5q-10 -44 -10 -101zM598 1348l115 75l180 -321l-78 -62z" />
<glyph unicode="&#xf3;" horiz-adv-x="976" d="M176 334q0 58 12 119q44 203 189.5 344t310.5 141q136 0 218.5 -99t82.5 -257q0 -64 -14 -127q-43 -201 -186 -339.5t-306 -138.5q-137 0 -222 99.5t-85 257.5zM344 352q0 -107 46.5 -176.5t123.5 -69.5q94 0 182 102t117 245q12 55 12 108q0 108 -44.5 177t-118.5 69 q-95 0 -186 -105.5t-122 -248.5q-10 -44 -10 -101zM586 1108l198 342l129 -72l-241 -338z" />
<glyph unicode="&#xf4;" horiz-adv-x="976" d="M176 334q0 58 12 119q44 203 189.5 344t310.5 141q136 0 218.5 -99t82.5 -257q0 -64 -14 -127q-43 -201 -186 -339.5t-306 -138.5q-137 0 -222 99.5t-85 257.5zM344 352q0 -107 46.5 -176.5t123.5 -69.5q94 0 182 102t117 245q12 55 12 108q0 108 -44.5 177t-118.5 69 q-95 0 -186 -105.5t-122 -248.5q-10 -44 -10 -101zM481 1087l238 263h108l125 -263l-88 -47l-116 189l-197 -189z" />
<glyph unicode="&#xf5;" horiz-adv-x="976" d="M176 334q0 58 12 119q44 203 189.5 344t310.5 141q136 0 218.5 -99t82.5 -257q0 -64 -14 -127q-43 -201 -186 -339.5t-306 -138.5q-137 0 -222 99.5t-85 257.5zM344 352q0 -107 46.5 -176.5t123.5 -69.5q94 0 182 102t117 245q12 55 12 108q0 108 -44.5 177t-118.5 69 q-95 0 -186 -105.5t-122 -248.5q-10 -44 -10 -101zM412 1102q48 67 108 119t119 53q67 0 117 -53q2 -2 17 -19.5t22 -24t20 -14.5t25 -8h4q28 0 62.5 32t66.5 87l80 -62q-34 -66 -105 -119t-127 -53h-2h-8q-60 0 -109 52q-53 61 -84 67h-2q-58 0 -135 -119z" />
<glyph unicode="&#xf6;" horiz-adv-x="976" d="M176 334q0 58 12 119q44 203 189.5 344t310.5 141q136 0 218.5 -99t82.5 -257q0 -64 -14 -127q-43 -201 -186 -339.5t-306 -138.5q-137 0 -222 99.5t-85 257.5zM344 352q0 -107 46.5 -176.5t123.5 -69.5q94 0 182 102t117 245q12 55 12 108q0 108 -44.5 177t-118.5 69 q-95 0 -186 -105.5t-122 -248.5q-10 -44 -10 -101zM500 1120q0 17 2 25q9 43 42.5 73.5t73.5 30.5q33 0 53.5 -23t20.5 -57q0 -16 -2 -24q-9 -43 -43.5 -74t-73.5 -31q-33 0 -53 22.5t-20 57.5zM768 1118q0 19 2 27q9 43 42.5 73.5t72.5 30.5q33 0 53 -22.5t20 -57.5 q0 -16 -2 -24q-9 -43 -43 -74t-73 -31q-33 0 -52.5 22t-19.5 56z" />
<glyph unicode="&#xf7;" horiz-adv-x="886" d="M162 453l4 141h778l-4 -141h-778zM434 162q0 43 31 73.5t74 30.5q42 0 71 -30.5t29 -73.5q-1 -43 -32.5 -73t-74.5 -30q-41 0 -69.5 30t-28.5 73zM463 831v5v4q0 41 30.5 70.5t73.5 29.5q41 0 70 -30.5t29 -73.5t-31.5 -73t-75.5 -30q-40 0 -68 28.5t-28 69.5z" />
<glyph unicode="&#xf8;" horiz-adv-x="978" d="M178 330q0 58 12 123q44 203 189.5 344t310.5 141q45 0 70 -10l39 96h110l-55 -131q65 -45 101 -125t36 -182q0 -68 -14 -131q-43 -201 -186 -339.5t-306 -138.5q-30 0 -45 5l-45 -107h-112l59 135q-77 40 -120.5 124t-43.5 196zM344 342q0 -132 64 -199l288 658 q-15 6 -32 6q-95 0 -186 -105.5t-122 -248.5q-12 -59 -12 -111zM504 111q5 -5 12 -5q94 0 182 102t117 245q14 63 14 127q0 114 -45 178z" />
<glyph unicode="&#xf9;" horiz-adv-x="929" d="M195 248q0 50 12 112l119 558h151l-117 -551q-12 -52 -12 -97q0 -80 38 -122t103 -42q94 0 149.5 66.5t90.5 222.5l111 523h153l-119 -558q-38 -178 -147.5 -280.5t-257.5 -102.5h-8q-120 0 -193 70.5t-73 200.5zM575 1348l115 75l180 -321l-77 -62z" />
<glyph unicode="&#xfa;" horiz-adv-x="929" d="M195 248q0 50 12 112l119 558h151l-117 -551q-12 -52 -12 -97q0 -80 38 -122t103 -42q94 0 149.5 66.5t90.5 222.5l111 523h153l-119 -558q-38 -178 -147.5 -280.5t-257.5 -102.5h-8q-120 0 -193 70.5t-73 200.5zM563 1108l199 342l129 -72l-242 -338z" />
<glyph unicode="&#xfb;" horiz-adv-x="929" d="M195 248q0 50 12 112l119 558h151l-117 -551q-12 -52 -12 -97q0 -80 38 -122t103 -42q94 0 149.5 66.5t90.5 222.5l111 523h153l-119 -558q-38 -178 -147.5 -280.5t-257.5 -102.5h-8q-120 0 -193 70.5t-73 200.5zM459 1087l237 263h109l125 -263l-88 -47l-117 189 l-197 -189z" />
<glyph unicode="&#xfc;" horiz-adv-x="929" d="M195 248q0 50 12 112l119 558h151l-117 -551q-12 -52 -12 -97q0 -80 38 -122t103 -42q94 0 149.5 66.5t90.5 222.5l111 523h153l-119 -558q-38 -178 -147.5 -280.5t-257.5 -102.5h-8q-120 0 -193 70.5t-73 200.5zM477 1120q0 17 2 25q9 43 43 73.5t74 30.5q33 0 53.5 -23 t20.5 -57q0 -16 -2 -24q-9 -43 -43.5 -74t-73.5 -31q-33 0 -53.5 23t-20.5 57zM745 1118q0 15 3 27q9 43 42 73.5t72 30.5q33 0 53.5 -23t20.5 -57q0 -16 -2 -24q-9 -43 -43.5 -74t-73.5 -31q-33 0 -52.5 22t-19.5 56z" />
<glyph unicode="&#xfd;" horiz-adv-x="983" d="M90 -322l133 101q15 -53 57.5 -84t102.5 -31q236 0 299 305l33 154q-94 -146 -264 -146q-116 0 -181 89.5t-65 240.5q0 77 18 162l96 449h162l-96 -449q-18 -86 -18 -154q0 -94 36 -144t107 -50q97 0 170 91.5t108 256.5l97 449h151l-196 -920q-95 -459 -465 -459h-21 q-86 0 -158 36t-106 103zM582 1108l198 342l129 -72l-241 -338z" />
<glyph unicode="&#xfe;" horiz-adv-x="958" d="M43 -461l424 1997h147l-161 -760q58 83 123 122.5t147 39.5q116 0 181 -85t65 -232q0 -73 -19 -166q-46 -213 -164.5 -344t-267.5 -131q-81 0 -129 35t-74 118l-125 -594h-147zM367 305q0 -99 37.5 -153t111.5 -54q91 0 164 96t108 261q17 78 17 151q0 98 -35 151.5 t-102 53.5q-95 0 -171.5 -94t-111.5 -262q-18 -83 -18 -150z" />
<glyph unicode="&#xff;" horiz-adv-x="983" d="M90 -322l133 101q15 -53 57.5 -84t102.5 -31q236 0 299 305l33 154q-94 -146 -264 -146q-116 0 -181 89.5t-65 240.5q0 77 18 162l96 449h162l-96 -449q-18 -86 -18 -154q0 -94 36 -144t107 -50q97 0 170 91.5t108 256.5l97 449h151l-196 -920q-95 -459 -465 -459h-21 q-86 0 -158 36t-106 103zM496 1120q0 17 2 25q9 43 42.5 73.5t73.5 30.5q33 0 53.5 -23t20.5 -57q0 -16 -2 -24q-9 -43 -43.5 -74t-73.5 -31q-33 0 -53 22.5t-20 57.5zM764 1118q0 19 2 27q9 43 42.5 73.5t72.5 30.5q33 0 53 -22.5t20 -57.5q0 -16 -2 -24q-9 -43 -43 -74 t-73 -31q-33 0 -52.5 22t-19.5 56z" />
<glyph unicode="&#x178;" horiz-adv-x="929" d="M319 1434h164l162 -598l412 598h162l-531 -746l-145 -688h-156l145 688zM586 1638q0 17 2 25q9 43 43 73.5t74 30.5q33 0 53 -22.5t20 -56.5q0 -17 -2 -25q-9 -43 -43 -73.5t-74 -30.5q-33 0 -53 22.5t-20 56.5zM854 1636q0 19 2 27q9 43 42.5 73.5t72.5 30.5 q33 0 53 -22.5t20 -56.5q0 -17 -2 -25q-9 -43 -42.5 -73.5t-73.5 -30.5q-33 0 -52.5 21.5t-19.5 55.5z" />
<glyph unicode="&#x2c6;" horiz-adv-x="649" d="M326 1120l237 262h109l125 -262l-88 -47l-117 189l-197 -189z" />
<glyph unicode="&#x2dc;" horiz-adv-x="821" d="M354 1198q48 67 108.5 119t119.5 53q66 0 116 -53q2 -2 17 -19.5t22 -24t20 -14.5t25 -8h4q28 0 62.5 32t66.5 87l80 -61q-34 -66 -104.5 -119t-126.5 -53h-2h-8q-61 0 -109 51q-53 61 -84 67h-2q-58 0 -135 -118z" />
<glyph unicode="&#x2000;" horiz-adv-x="984" />
<glyph unicode="&#x2001;" horiz-adv-x="1968" />
<glyph unicode="&#x2002;" horiz-adv-x="984" />
<glyph unicode="&#x2003;" horiz-adv-x="1968" />
<glyph unicode="&#x2004;" horiz-adv-x="656" />
<glyph unicode="&#x2005;" horiz-adv-x="492" />
<glyph unicode="&#x2006;" horiz-adv-x="328" />
<glyph unicode="&#x2007;" horiz-adv-x="328" />
<glyph unicode="&#x2008;" horiz-adv-x="246" />
<glyph unicode="&#x2009;" horiz-adv-x="393" />
<glyph unicode="&#x200a;" horiz-adv-x="109" />
<glyph unicode="&#x2010;" horiz-adv-x="665" d="M223 389l29 135h383l-29 -135h-383z" />
<glyph unicode="&#x2011;" horiz-adv-x="665" d="M223 389l29 135h383l-29 -135h-383z" />
<glyph unicode="&#x2012;" horiz-adv-x="665" d="M223 389l29 135h383l-29 -135h-383z" />
<glyph unicode="&#x2013;" horiz-adv-x="1024" d="M223 389v135h770v-135h-770z" />
<glyph unicode="&#x2014;" horiz-adv-x="2048" d="M223 389v135h1794v-135h-1794z" />
<glyph unicode="&#x2018;" horiz-adv-x="436" d="M330 1030l30 141l164 263h101l-107 -263l-31 -141h-157z" />
<glyph unicode="&#x2019;" horiz-adv-x="436" d="M334 1047l106 262l27 125h156l-27 -125l-162 -262h-100z" />
<glyph unicode="&#x201a;" horiz-adv-x="438" d="M70 -193l102 256l31 142h159l-30 -142l-164 -256h-98z" />
<glyph unicode="&#x201c;" horiz-adv-x="724" d="M330 1030l30 141l172 263h109l-111 -263l-30 -141h-170zM604 1030l31 141l174 263h106l-110 -263l-31 -141h-170z" />
<glyph unicode="&#x201d;" horiz-adv-x="727" d="M326 1030l110 262l29 142h170l-29 -142l-172 -262h-108zM602 1030l111 262l28 142h170l-28 -142l-170 -262h-111z" />
<glyph unicode="&#x201e;" horiz-adv-x="729" d="M68 -193l106 256l31 142h170l-31 -142l-170 -256h-106zM344 -193l107 256l30 142h172l-30 -142l-168 -256h-111z" />
<glyph unicode="&#x2022;" horiz-adv-x="716" d="M223 578q0 109 76 187.5t180 78.5t181 -77.5t77 -188.5q0 -110 -78 -190.5t-184 -80.5q-99 0 -175.5 79t-76.5 192z" />
<glyph unicode="&#x2026;" horiz-adv-x="1396" d="M133 55q0 15 2 23q9 43 45 73.5t78 30.5q36 0 60 -24t24 -60q0 -12 -2 -20q-9 -42 -46 -72.5t-79 -30.5q-37 0 -59.5 22.5t-22.5 57.5zM606 55q0 15 2 23q9 43 45 73.5t78 30.5q36 0 60 -24t24 -60q0 -12 -2 -20q-9 -42 -46 -72.5t-79 -30.5q-37 0 -59.5 22.5t-22.5 57.5 zM1079 55q0 15 2 23q9 43 45 73.5t78 30.5q36 0 60 -24t24 -60q0 -12 -2 -20q-9 -42 -46 -72.5t-79 -30.5q-37 0 -59.5 22.5t-22.5 57.5z" />
<glyph unicode="&#x202f;" horiz-adv-x="393" />
<glyph unicode="&#x2039;" horiz-adv-x="507" d="M156 455l14 67l405 344l-32 -157l-238 -220l144 -221l-33 -153z" />
<glyph unicode="&#x203a;" horiz-adv-x="507" d="M137 115l33 153l242 221l-148 220l33 157l262 -344l-14 -67z" />
<glyph unicode="&#x205f;" horiz-adv-x="492" />
<glyph unicode="&#x20ac;" horiz-adv-x="956" d="M141 465l64 113h94q2 5 5 19.5t5 20.5q16 91 31 146h-135l63 108h107q80 232 218.5 364t305.5 132q142 0 240 -127l-39 -190q-44 91 -98 131.5t-128 40.5q-103 0 -187 -89t-144 -262h401l-67 -108h-369q-2 -8 -3 -21.5t-3 -21.5q-3 -14 -17.5 -66.5t-17.5 -76.5h311 l-67 -113h-254q-4 -54 -4 -78q0 -132 47 -202t139 -70q73 0 143.5 41t155.5 135l-41 -191q-146 -123 -293 -123q-153 0 -236 105.5t-83 302.5q0 26 4 80h-148z" />
<glyph unicode="&#x2122;" horiz-adv-x="1349" d="M342 1346v88h432v-88h-170v-435h-94v435h-168zM868 911v523h146l147 -232l137 232h144v-523h-96v435l-160 -271h-47l-172 271v-435h-99z" />
<glyph unicode="&#x25fc;" horiz-adv-x="921" d="M0 0v922h922v-922h-922z" />
</font>
</defs>
</svg>
