<?xml version="1.0" standalone="no"?>
<!DOCTYPE svg PUBLIC "-//W3C//DTD SVG 1.1//EN" "http://www.w3.org/Graphics/SVG/1.1/DTD/svg11.dtd" >
<svg xmlns="http://www.w3.org/2000/svg">
<metadata></metadata>
<defs>
<font id="universalis_adf_stdcond" horiz-adv-x="960" >
<font-face units-per-em="2048" ascent="1536" descent="-512" />
<missing-glyph horiz-adv-x="563" />
<glyph unicode="AE" horiz-adv-x="1484" d="M16 0l494 1456l16 -22h527l55 -150h-526l114 -366h529l53 -150h-522l192 -623h490l51 -145h-653l-119 371h-418l-121 -371h-162zM354 518h316l-160 533z" />
<glyph unicode="ae" horiz-adv-x="1435" d="M86 264q0 156 93.5 235t275.5 79h166v14q0 102 -54.5 159.5t-152.5 57.5q-49 -2 -103.5 -22.5t-93.5 -65.5l-72 119q129 98 281 98q60 0 101 -7.5t75.5 -29.5t57 -45t61.5 -70q50 65 119 108.5t141 43.5h8h8q158 0 253.5 -116t107.5 -316v-51v-4h-590q0 -143 66 -244 t165 -101h13q137 0 225 127l98 -86q-53 -82 -141.5 -125t-196.5 -45q-116 1 -186.5 59t-116.5 161q-28 -104 -106.5 -160.5t-204.5 -56.5q-140 0 -218.5 73.5t-78.5 210.5zM252 274q0 -82 39 -129t108 -47q100 0 161 89.5t61 238.5v25h-113q-146 0 -201 -38t-55 -139z M782 580h416q-14 116 -71.5 171.5t-137.5 55.5q-69 0 -131.5 -74.5t-75.5 -152.5z" />
<glyph unicode="OE" horiz-adv-x="1845" d="M86 711q0 338 158.5 541.5t419.5 203.5q132 0 240 -64.5t181 -183.5v226h687v-150h-531v-366h531v-150h-531v-623h545v-145h-701v213q-69 -115 -177 -176.5t-244 -61.5q-263 0 -420.5 199.5t-157.5 536.5zM244 711q0 -278 117 -443.5t303 -165.5q178 0 294.5 147.5 t126.5 412.5v88q-10 261 -125.5 416t-295.5 155q-182 0 -301 -164.5t-119 -445.5z" />
<glyph unicode="oe" horiz-adv-x="1576" d="M94 453q0 203 118 344t286 141q102 0 182.5 -58t130.5 -163q50 106 131.5 163.5t185.5 57.5h9q159 0 254.5 -116t107.5 -316v-51v-4h-600q0 -141 71 -243t169 -102h12q136 0 227 127l99 -86q-53 -82 -142.5 -125t-197.5 -45q-102 0 -187.5 63t-136.5 169 q-53 -109 -133.5 -170.5t-181.5 -61.5q-168 0 -286 138t-118 338zM264 453q0 -142 69.5 -244.5t166.5 -102.5q95 0 164 102.5t69 244.5q0 143 -69 248.5t-164 105.5q-96 0 -166 -105.5t-70 -248.5zM915 580h424q-14 116 -71.5 171.5t-137.5 55.5q-71 0 -137.5 -75 t-77.5 -152z" />
<glyph unicode="&#xfb01;" horiz-adv-x="954" d="M66 801v117h118v286q0 155 64.5 243t191.5 89h142v-125h-136q-61 0 -83.5 -46.5t-24.5 -141.5v-305h475v-918h-149v801h-326v-801h-154v801h-118zM637 1278q0 43 29.5 73.5t72.5 30.5q41 0 71 -30.5t30 -73.5q0 -42 -30 -72t-71 -30q-43 0 -72.5 29.5t-29.5 72.5z" />
<glyph unicode="&#xfb02;" horiz-adv-x="958" d="M66 801v117h120v278q0 160 65.5 248.5t199.5 91.5h366v-1536h-151v1409h-217q-60 0 -83.5 -50.5t-25.5 -146.5v-294h143v-117h-143v-801h-154v801h-120z" />
<glyph unicode="&#xfb03;" horiz-adv-x="1409" d="M53 801v117h121v282q0 330 266 336h133v-127h-135q-60 0 -83.5 -48t-26.5 -144v-299h319v286q0 156 64 243.5t194 88.5h144v-127h-138q-61 0 -84 -45.5t-26 -140.5v-305h481v-918h-152v801h-329v-801h-154v801h-319v-801h-154v801h-121zM1106 1278q0 43 29 73.5t73 30.5 q42 0 72.5 -31t30.5 -73t-30.5 -72t-72.5 -30q-44 0 -73 29.5t-29 72.5z" />
<glyph unicode="&#xfb04;" horiz-adv-x="1431" d="M51 801v117h121v282q0 330 268 336h133v-127h-135q-62 0 -85 -48.5t-25 -143.5v-299h323v278q0 160 66.5 248.5t202.5 91.5h370v-1536h-151v1409h-221q-62 0 -85.5 -50.5t-25.5 -146.5v-294h145v-117h-145v-801h-156v801h-323v-801h-156v801h-121z" />
<glyph horiz-adv-x="0" />
<glyph horiz-adv-x="682" />
<glyph unicode=" "  horiz-adv-x="563" />
<glyph unicode="&#x09;" horiz-adv-x="563" />
<glyph unicode="&#xa0;" horiz-adv-x="563" />
<glyph unicode="!" horiz-adv-x="575" d="M190 78q0 42 30 73t67 31q38 0 69 -31t31 -73t-31 -72.5t-69 -30.5t-67.5 30.5t-29.5 72.5zM211 752v682h149v-682l-8 -320h-131z" />
<glyph unicode="&#x22;" horiz-adv-x="673" d="M141 918v516h135v-516h-135zM395 918v516h137v-516h-137z" />
<glyph unicode="#" horiz-adv-x="1241" d="M29 371v137h295l69 301h-268v139h301l90 375h133l-88 -375h246l90 375h133l-88 -375h264v-139h-297l-67 -301h266v-137h-299l-86 -371h-137l88 371h-248l-84 -371h-137l88 371h-264zM459 508h248l67 301h-244z" />
<glyph unicode="$" horiz-adv-x="802" d="M61 121l80 115q66 -63 103 -82.5t110 -20.5v397q-128 38 -199 116.5t-71 215.5q5 132 80 230t190 102v240h90v-236q104 -3 232 -111l-78 -122q-3 3 -13 14t-13.5 14t-13 12t-14.5 12.5t-14.5 10t-17.5 9t-19 6.5t-23 5.5t-26 2.5v-369q157 -31 231.5 -113.5t74.5 -228.5 q0 -157 -79 -246t-227 -100v-250h-90v250q-81 0 -151 27.5t-142 99.5zM240 872q0 -72 31 -117.5t83 -56.5v353h-2q-54 0 -83 -49.5t-29 -129.5zM444 135q70 14 108 62t38 125q0 76 -35 121t-111 65v-373z" />
<glyph unicode="%" horiz-adv-x="1710" d="M47 1030q0 136 97.5 234t234.5 98q139 0 235.5 -97.5t96.5 -238.5q0 -134 -97.5 -232t-232.5 -98q-138 0 -236 98.5t-98 235.5zM182 1030q0 -80 58 -138t141 -58q79 0 136.5 57t57.5 137q0 84 -56.5 141.5t-139.5 57.5q-82 0 -139.5 -57.5t-57.5 -139.5zM408 -27 l768 1389h129l-768 -1389h-129zM999 305q0 135 97.5 232.5t232.5 97.5q139 0 236.5 -97.5t97.5 -236.5q0 -133 -99 -230.5t-233 -97.5q-137 0 -234.5 97.5t-97.5 234.5zM1133 305q0 -82 58 -139t140 -57q80 0 138.5 57t58.5 135q0 83 -58 141t-141 58q-80 0 -138 -58 t-58 -137z" />
<glyph unicode="&#x26;" horiz-adv-x="1052" d="M92 387q0 129 57.5 217.5t155.5 118.5q-93 30 -140.5 106.5t-47.5 188.5q0 163 97 256.5t261 93.5q40 0 98.5 -16.5t110.5 -44.5l-72 -150q-26 22 -39 31.5t-36 19t-48 9.5q-97 0 -147.5 -58.5t-50.5 -161.5q0 -99 49.5 -151.5t142.5 -52.5h56v-152h-50 q-107 0 -166 -67.5t-59 -186.5q0 -129 64.5 -195.5t187.5 -66.5q82 0 134.5 7t92.5 32v637h-104v117h104v237h152v-237h104v-117h-104v-801h-152v6q-131 -29 -231 -29q-201 0 -310.5 106t-109.5 304z" />
<glyph unicode="'" horiz-adv-x="438" d="M88 1059l160 401l112 -74l-200 -374z" />
<glyph unicode="(" horiz-adv-x="481" d="M92 578q0 421 203 856h127q-170 -426 -170 -856q0 -429 170 -824h-127q-203 412 -203 824z" />
<glyph unicode=")" horiz-adv-x="483" d="M59 -246q170 397 170 824q0 444 -170 856h127q98 -211 150.5 -431.5t52.5 -424.5q0 -409 -203 -824h-127z" />
<glyph unicode="*" horiz-adv-x="749" d="M72 1014l241 141l-241 139l39 74l223 -147v270h80v-270l225 147l39 -74l-244 -139l244 -141l-39 -70l-225 146v-273h-80v273l-223 -146z" />
<glyph unicode="+" horiz-adv-x="772" d="M51 496v155h262v348h142v-348h268v-155h-268v-349h-142v349h-262z" />
<glyph unicode="," horiz-adv-x="438" d="M88 -256l160 401l112 -73l-200 -375z" />
<glyph unicode="-" horiz-adv-x="665" d="M141 389v135h383v-135h-383z" />
<glyph unicode="." horiz-adv-x="421" d="M117 78q0 43 25 73.5t61 30.5q37 0 63.5 -30.5t26.5 -73.5t-26.5 -73t-63.5 -30t-61.5 30t-24.5 73z" />
<glyph unicode="/" horiz-adv-x="598" d="M33 -168l416 1704h139l-414 -1704h-141z" />
<glyph unicode="0" horiz-adv-x="1079" d="M170 711q0 364 93.5 554.5t273.5 190.5q178 0 274 -190.5t96 -554.5q0 -362 -95 -549t-275 -187q-178 0 -272.5 186t-94.5 550zM322 711q0 -306 55 -460.5t160 -154.5q215 0 215 615q0 614 -215 614q-105 0 -160 -154t-55 -460z" />
<glyph unicode="1" horiz-adv-x="618" d="M90 1272l62 162h251v-1434h-151v1272h-162z" />
<glyph unicode="2" horiz-adv-x="940" d="M115 1145q1 84 45 156.5t116 114.5t152 42q163 0 263 -109t100 -294q0 -87 -37 -201.5t-84 -185.5l-371 -521h494v-147h-674v147l395 560q49 66 85 162t36 173q0 120 -57 199.5t-148 79.5h-4q-68 0 -116.5 -53.5t-51.5 -122.5h-143z" />
<glyph unicode="3" horiz-adv-x="989" d="M94 289h158q19 -93 71.5 -143t133.5 -50q96 0 152.5 78.5t56.5 218.5q0 134 -56.5 214.5t-154.5 80.5v139q86 0 138 64t52 178q0 120 -49.5 188t-138.5 68q-76 0 -124.5 -48t-60.5 -136h-155q11 148 101 231.5t239 83.5q155 0 248.5 -97t93.5 -272q0 -121 -51 -206 t-142 -119q100 -32 157 -128t60 -241q0 -201 -95.5 -309.5t-270.5 -108.5q-157 0 -250 79t-113 235z" />
<glyph unicode="4" horiz-adv-x="931" d="M45 311v54l582 1093h43v-997h153v-150h-153v-311h-150v311h-475zM258 461h262v532z" />
<glyph unicode="5" horiz-adv-x="935" d="M94 135l84 115q89 -135 197 -141q118 0 187 91.5t69 252.5q0 159 -69.5 252.5t-186.5 93.5q-107 0 -234 -76l162 711h481l-28 -146h-355l-88 -366q43 12 84 16q176 0 281.5 -129t105.5 -356q0 -228 -106.5 -353t-300.5 -125q-69 0 -144 39.5t-139 120.5z" />
<glyph unicode="6" horiz-adv-x="1040" d="M127 453q0 181 76 305l428 700l117 -74l-287 -469q15 12 28 17q15 6 31 6q164 0 277.5 -139.5t113.5 -343.5q0 -201 -113.5 -339.5t-277.5 -138.5q-163 0 -278 138t-115 338zM293 453q0 -142 67.5 -244.5t161.5 -102.5q95 0 162.5 102t67.5 245t-67.5 248.5t-162.5 105.5 q-93 0 -161 -105.5t-68 -248.5z" />
<glyph unicode="7" horiz-adv-x="851" d="M74 1282v152h686l-398 -1434h-157l352 1282h-483z" />
<glyph unicode="8" horiz-adv-x="1056" d="M160 393q0 141 54.5 239t154.5 130q-86 29 -130 116.5t-44 215.5q0 170 86.5 266t244.5 96q156 0 245 -93t89 -269q0 -126 -43.5 -212.5t-132.5 -119.5q99 -32 152.5 -127t56.5 -242q0 -201 -95 -309.5t-272 -108.5q-176 0 -271 105t-95 313zM317 393q0 -138 55.5 -217.5 t153.5 -79.5t154.5 78.5t56.5 218.5t-55 219.5t-156 79.5q-98 0 -153.5 -77.5t-55.5 -221.5zM348 1075q0 -121 45.5 -187.5t132.5 -66.5q85 0 133 67t48 187q0 121 -45.5 185.5t-135.5 64.5q-87 0 -132.5 -63.5t-45.5 -186.5z" />
<glyph unicode="9" horiz-adv-x="1040" d="M127 977q0 200 114.5 339.5t276.5 139.5q108 0 198.5 -63t142.5 -172.5t52 -241.5q0 -181 -73 -305l-435 -701l-116 72l293 471q-24 -17 -62 -22q-162 0 -276.5 140t-114.5 343zM287 979q0 -143 68 -248.5t163 -105.5q93 0 160 105.5t67 248.5t-66.5 244.5t-160.5 101.5 q-95 0 -163 -101.5t-68 -244.5z" />
<glyph unicode=":" horiz-adv-x="423" d="M121 78q0 43 25 73.5t61 30.5q37 0 63.5 -30.5t26.5 -73.5t-26.5 -73t-63.5 -30t-61.5 30t-24.5 73zM121 752q0 43 25 73.5t61 30.5q37 0 63.5 -30.5t26.5 -73.5t-26.5 -73t-63.5 -30t-61.5 30t-24.5 73z" />
<glyph unicode=";" horiz-adv-x="440" d="M82 -256l160 401l112 -73l-200 -375zM139 752q0 43 27.5 73.5t66.5 30.5q38 0 66.5 -30.5t28.5 -73.5q0 -42 -28 -72.5t-67 -30.5q-40 0 -67 30t-27 73z" />
<glyph unicode="&#x3c;" horiz-adv-x="1044" d="M43 455v137l918 381v-150l-713 -301l713 -299v-149z" />
<glyph unicode="=" horiz-adv-x="1198" d="M141 287v139h916v-139h-916zM141 621v139h916v-139h-916z" />
<glyph unicode="&#x3e;" horiz-adv-x="1046" d="M84 74v149l713 299l-713 301v150l920 -381v-137z" />
<glyph unicode="?" horiz-adv-x="792" d="M109 1120q1 86 26.5 152.5t66.5 105.5t88.5 58.5t98.5 19.5q119 0 192.5 -74t77.5 -200q0 -26 -6.5 -54t-15 -51t-24 -50.5t-27.5 -46t-31 -43t-28.5 -36.5t-27 -32t-20.5 -23q-37 -52 -56 -81.5t-38.5 -69.5t-19.5 -66v-19q0 -43 12 -71.5t33 -28.5h4h10q26 0 42.5 20 t22.5 74h113q-3 -100 -54 -166.5t-136 -66.5h-6q-78 3 -141.5 71.5t-63.5 165.5q0 100 45.5 180.5t124.5 165.5q119 143 121 215q0 70 -27 103t-86 33q-51 0 -84 -48.5t-37 -136.5h-149zM307 76q0 43 29 73.5t70 30.5t71.5 -30.5t30.5 -73.5q0 -42 -30 -72.5t-72 -30.5 q-41 0 -70 30t-29 73z" />
<glyph unicode="@" horiz-adv-x="1615" d="M70 459q0 166 62 311.5t166.5 246t245 158.5t294.5 58q190 0 353.5 -88t262 -244t98.5 -342q0 -226 -133.5 -356.5t-367.5 -136.5v133q-98 -131 -267 -131q-142 0 -233.5 107.5t-91.5 279.5q0 168 90 277.5t235 109.5q173 0 267 -131v112h118v-630q123 20 192.5 115 t72.5 249q0 126 -50.5 233.5t-134.5 179t-190 113t-219 43.5q-187 0 -338.5 -93.5t-233.5 -245.5t-82 -328q0 -139 51 -261.5t137.5 -208t203.5 -135t245 -49.5q106 0 211.5 44t196.5 118l76 -94q-206 -168 -484 -174q-134 0 -254 40.5t-210 112.5t-155.5 167t-99.5 208 t-34 232zM592 455q0 -120 59.5 -191t165.5 -71q100 0 160.5 70.5t60.5 191.5q0 120 -60.5 190t-162.5 70q-99 0 -159.5 -67.5t-63.5 -192.5z" />
<glyph unicode="A" horiz-adv-x="1013" d="M18 0l488 1456l489 -1456h-157l-119 371h-422l-121 -371h-158zM350 518h314l-158 533z" />
<glyph unicode="B" horiz-adv-x="987" d="M141 0v1434h367q161 0 253.5 -92.5t92.5 -258.5q0 -267 -180 -307q105 -33 164 -131.5t59 -249.5q0 -191 -97 -293t-278 -102h-381zM291 137h223q110 0 164.5 68t54.5 213q0 280 -219 280h-223v-561zM291 836h207q99 0 148.5 54t49.5 173q0 112 -48 169t-150 60h-207 v-456z" />
<glyph unicode="C" horiz-adv-x="976" d="M90 709q0 345 140 546t380 201q185 0 342 -129l-80 -113q-122 107 -254 107q-173 0 -268.5 -157.5t-95.5 -454.5q0 -294 92.5 -449.5t271.5 -155.5q133 0 244 99l88 -107q-146 -123 -340 -123q-241 0 -380.5 195.5t-139.5 540.5z" />
<glyph unicode="D" horiz-adv-x="1134" d="M141 0v1440h299q309 0 454.5 -173t145.5 -548q0 -372 -145 -545.5t-455 -173.5h-299zM295 137h166q213 0 313 141t100 441q0 298 -100 438.5t-313 140.5h-166v-1161z" />
<glyph unicode="E" horiz-adv-x="888" d="M141 0v1434h674v-150h-520v-366h520v-150h-520v-623h534v-145h-688z" />
<glyph unicode="F" horiz-adv-x="802" d="M141 0v1434h611v-150h-459v-366h459v-148h-459v-770h-152z" />
<glyph unicode="G" horiz-adv-x="1118" d="M90 715q0 352 142 546.5t393 194.5q204 0 370 -125l-82 -121q-129 111 -278 111q-381 0 -381 -606q0 -297 96 -448.5t285 -151.5q153 0 233 69v410h-227v143h383v-622q-165 -140 -399 -140q-252 0 -393.5 193.5t-141.5 546.5z" />
<glyph unicode="H" horiz-adv-x="1097" d="M141 0v1434h152v-592h510v592h153v-1434h-153v692h-510v-692h-152z" />
<glyph unicode="I" horiz-adv-x="434" d="M141 0v1434h152v-1434h-152z" />
<glyph unicode="J" horiz-adv-x="516" d="M20 -25v142h48q90 0 125.5 75.5t35.5 268.5v973h154v-973q0 -251 -71.5 -368.5t-229.5 -117.5h-62z" />
<glyph unicode="K" horiz-adv-x="1001" d="M141 0v1434h152v-619l467 619h192l-524 -666l561 -768h-194l-502 702v-702h-152z" />
<glyph unicode="L" horiz-adv-x="815" d="M141 0v1434h152v-1289h512v-145h-664z" />
<glyph unicode="M" horiz-adv-x="1368" d="M37 0l338 1434h10l299 -988l299 988h10l338 -1434h-164l-202 901l-283 -901l-272 885l-209 -885h-164z" />
<glyph unicode="N" horiz-adv-x="1091" d="M141 0v1438h13l649 -987v983h147v-1434h-14l-647 975v-975h-148z" />
<glyph unicode="O" horiz-adv-x="1310" d="M86 711q0 338 155 541.5t412 203.5q255 0 412.5 -203.5t157.5 -541.5q0 -337 -154 -536.5t-416 -199.5q-260 0 -413.5 199t-153.5 537zM240 711q0 -278 115 -443.5t298 -165.5q180 0 297 164.5t117 444.5q0 277 -115 443.5t-299 166.5q-179 0 -296 -164.5t-117 -445.5z " />
<glyph unicode="P" horiz-adv-x="888" d="M141 0v1434h312q374 0 374 -412q0 -204 -96.5 -306t-277.5 -102h-160v-614h-152zM293 752h160q98 0 155.5 67.5t57.5 202.5q0 263 -213 270h-160v-540z" />
<glyph unicode="Q" horiz-adv-x="1323" d="M88 711q0 338 156 541.5t413 203.5q255 0 411.5 -203.5t156.5 -541.5q0 -317 -131 -512l131 -199h-160l-66 106q-140 -131 -342 -131q-260 0 -414.5 199t-154.5 537zM244 711q0 -278 115 -443.5t298 -165.5q147 0 252 117l-178 273h160l108 -175q72 160 72 394 q0 277 -115 443.5t-299 166.5q-179 0 -296 -164.5t-117 -445.5z" />
<glyph unicode="R" horiz-adv-x="911" d="M141 0v1434h314h4q164 0 257 -102t93 -302q-8 -173 -65.5 -261.5t-159.5 -125.5l268 -643h-164l-260 614h-135v-614h-152zM293 758h162q97 0 147.5 70t50.5 202q0 256 -198 262h-162v-534z" />
<glyph unicode="S" horiz-adv-x="903" d="M82 131l98 127q110 -135 242 -145q117 0 181.5 64t64.5 194q0 80 -14.5 131t-56 82t-70.5 42.5t-101 32.5q-15 5 -23 7q-163 43 -235 132t-72 255q0 185 100.5 294t274.5 109q102 -1 177.5 -45t142.5 -129l-97 -115q-54 80 -98.5 117t-108.5 37q-110 0 -171.5 -64.5 t-61.5 -193.5v-4q0 -52 13.5 -91t33 -62.5t54.5 -42.5t64.5 -29t76.5 -24q12 -3 18 -5q160 -43 237.5 -144t77.5 -274q0 -203 -103.5 -307.5t-303.5 -104.5q-78 0 -173.5 42.5t-166.5 113.5z" />
<glyph unicode="T" horiz-adv-x="915" d="M23 1284v150h870v-150h-358v-1284h-152v1284h-360z" />
<glyph unicode="U" horiz-adv-x="1081" d="M131 530v904h158v-879q0 -240 59 -347.5t195 -107.5q132 0 193 108t61 347v879h153v-904q0 -555 -407 -555q-202 0 -307 138.5t-105 416.5z" />
<glyph unicode="V" horiz-adv-x="1032" d="M29 1434h159l330 -1014l330 1014h158l-480 -1454h-16z" />
<glyph unicode="W" horiz-adv-x="1382" d="M45 1434h164l213 -902l268 902l281 -902l205 902h163l-335 -1454h-35l-277 938l-276 -938h-35z" />
<glyph unicode="X" horiz-adv-x="974" d="M25 0l374 764l-325 670h162l258 -545l258 545h166l-340 -691l362 -743h-162l-295 618l-295 -618h-163z" />
<glyph unicode="Y" horiz-adv-x="929" d="M16 1434h164l289 -598l285 598h161l-372 -746v-688h-156v688z" />
<glyph unicode="Z" horiz-adv-x="946" d="M37 0l606 1282h-588v152h838l-608 -1289h620v-145h-868z" />
<glyph unicode="[" horiz-adv-x="505" d="M141 -256v1690h305v-129h-159v-1432h159v-129h-305z" />
<glyph unicode="\" horiz-adv-x="569" d="M37 1223h139l354 -1377h-139z" />
<glyph unicode="]" horiz-adv-x="503" d="M59 -127h160v1432h-160v129h303v-1690h-303v129z" />
<glyph unicode="^" horiz-adv-x="1017" d="M51 766l381 457h150l385 -457h-162l-297 334l-301 -334h-156z" />
<glyph unicode="_" horiz-adv-x="747" d="M-10 -276h762v-117h-762v117z" />
<glyph unicode="`" horiz-adv-x="464" d="M80 1382l115 76l182 -321l-78 -62z" />
<glyph unicode="a" d="M102 455q0 217 92.5 350t241.5 133q163 0 236 -162v142h147v-918h-147v133q-74 -153 -236 -153q-149 0 -241.5 130t-92.5 345zM266 455q0 -165 52.5 -261t146.5 -96q96 0 151.5 96t55.5 261t-55.5 260.5t-151.5 95.5q-92 0 -145.5 -94t-53.5 -262z" />
<glyph unicode="b" horiz-adv-x="958" d="M141 0v1536h146v-760q40 83 96.5 122.5t140.5 39.5q148 0 239 -133t91 -350q0 -213 -90.5 -344t-239.5 -131q-84 0 -139.5 35t-97.5 118v-133h-146zM287 455q0 -163 55 -260t154 -97q91 0 143.5 96t52.5 261q0 164 -52.5 260t-143.5 96q-96 0 -152.5 -94t-56.5 -262z" />
<glyph unicode="c" horiz-adv-x="802" d="M96 453q0 204 114 344.5t277 140.5h15q143 0 248 -111l-99 -114q-71 94 -162 94q-93 0 -160 -105.5t-67 -248.5t66.5 -245t160.5 -102q93 0 162 91l99 -121q-129 -101 -238 -101q-4 0 -12.5 1t-12.5 1q-163 0 -277 138t-114 338z" />
<glyph unicode="d" d="M102 455q0 217 92.5 350t241.5 133q163 0 236 -162v760h147v-1536h-147v133q-74 -153 -236 -153q-149 0 -241.5 130t-92.5 345zM266 455q0 -165 52.5 -261t146.5 -96q96 0 151.5 96t55.5 261t-55.5 260.5t-151.5 95.5q-92 0 -145.5 -94t-53.5 -262z" />
<glyph unicode="e" horiz-adv-x="919" d="M96 453q0 134 49.5 245.5t137.5 175.5t196 64h8q155 0 249 -116t106 -316v-51v-4h-588q0 -142 68.5 -243.5t166.5 -101.5h13q133 0 221 127l96 -86q-51 -82 -138 -125t-194 -45q-164 0 -277.5 137.5t-113.5 338.5zM268 580h418q-14 116 -70.5 171.5t-134.5 55.5 q-70 0 -135 -75t-78 -152z" />
<glyph unicode="f" horiz-adv-x="532" d="M66 801v117h118v282q0 330 260 336h129v-127h-131q-59 0 -82 -48t-26 -144v-299h139v-117h-139v-801h-150v801h-118z" />
<glyph unicode="g" horiz-adv-x="958" d="M100 469q0 208 91 338.5t241 130.5q159 0 232 -162v142h153v-918q0 -231 -90.5 -346t-277.5 -115h-21q-86 0 -166 35.5t-127 103.5l111 101q30 -54 77.5 -84.5t106.5 -30.5q113 0 173.5 75.5t60.5 229.5v191q-69 -160 -232 -160q-147 0 -239.5 128.5t-92.5 340.5z M266 469q0 -164 50.5 -255t144.5 -91q96 0 149.5 91t53.5 255q0 161 -53 251.5t-150 90.5q-93 0 -144 -89t-51 -253z" />
<glyph unicode="h" horiz-adv-x="942" d="M141 0v1536h150v-764q85 166 237 166q137 0 210 -98t73 -287v-553h-156v547q0 257 -155 260q-98 0 -152.5 -77t-56.5 -214v-516h-150z" />
<glyph unicode="i" horiz-adv-x="432" d="M119 1278q0 42 29.5 73t66.5 31q36 0 65 -31t29 -73t-29 -72t-65 -30q-38 0 -67 30t-29 72zM141 0v918h150v-918h-150z" />
<glyph unicode="j" horiz-adv-x="432" d="M119 1278q0 42 29.5 73t66.5 31q36 0 65 -31t29 -73t-29 -72t-65 -30q-38 0 -67 30t-29 72zM141 -461v1379h150v-1379h-150z" />
<glyph unicode="k" horiz-adv-x="884" d="M141 0v1536h148v-1018l362 400h183l-408 -433l426 -485h-188l-375 446v-446h-148z" />
<glyph unicode="l" horiz-adv-x="432" d="M141 0v1536h150v-1536h-150z" />
<glyph unicode="m" horiz-adv-x="1439" d="M141 0v918h152v-146q45 86 101 126t138 40q85 0 145 -51t91 -148q90 199 270 199q129 0 200 -100t71 -285v-553h-158v547q0 260 -147 260q-93 0 -146.5 -77t-56.5 -214v-516h-156v547q0 260 -149 260q-93 0 -147 -79t-56 -212v-516h-152z" />
<glyph unicode="n" horiz-adv-x="942" d="M141 0v918h150v-146q85 166 237 166q137 0 210 -98t73 -287v-553h-156v547q0 257 -155 260q-98 0 -152.5 -77t-56.5 -214v-516h-150z" />
<glyph unicode="o" horiz-adv-x="976" d="M94 453q0 203 115 344t280 141q163 0 276.5 -140t113.5 -343q0 -201 -113.5 -339.5t-276.5 -138.5q-165 0 -280 138t-115 338zM260 453q0 -142 68.5 -244.5t163.5 -102.5q94 0 160.5 102t66.5 245t-67 248.5t-160 105.5q-95 0 -163.5 -105.5t-68.5 -248.5z" />
<glyph unicode="p" horiz-adv-x="958" d="M141 -461v1379h148v-142q40 83 96.5 122.5t138.5 39.5q148 0 239 -133t91 -350q0 -213 -90.5 -344t-239.5 -131q-82 0 -137.5 35t-97.5 118v-594h-148zM289 455q0 -163 54 -260t153 -97q91 0 143.5 96t52.5 261q0 164 -52.5 260t-143.5 96q-95 0 -151 -94t-56 -262z" />
<glyph unicode="q" d="M102 455q0 217 92.5 350t241.5 133q163 0 236 -162v142h147v-1379h-147v594q-76 -158 -236 -158q-148 0 -241 132t-93 348zM266 455q0 -165 52.5 -261t146.5 -96q96 0 151.5 96t55.5 261t-55.5 260.5t-151.5 95.5q-92 0 -145.5 -94t-53.5 -262z" />
<glyph unicode="r" horiz-adv-x="661" d="M141 0v918h148v-146q72 166 243 166q52 0 103 -29l-47 -139h-17q-1 1 -8.5 7t-9 7t-8 5.5t-8.5 5.5l-8 4t-10 3.5t-10.5 1.5t-12.5 1q-100 0 -152.5 -83.5t-54.5 -240.5v-481h-148z" />
<glyph unicode="s" horiz-adv-x="749" d="M92 123l109 96q30 -54 73.5 -83.5t90.5 -29.5q75 0 111.5 32t39.5 102q0 26 -10 47t-23 34.5t-42 28t-49 22t-62 21.5q-207 57 -215 260q0 129 75.5 207t204.5 78q63 0 132.5 -33.5t111.5 -85.5l-86 -100q-41 46 -76 68t-82 22q-58 0 -96.5 -40t-38.5 -110q1 -57 39 -88 t139 -63q114 -39 170 -98.5t56 -159.5q0 -130 -75.5 -201.5t-226.5 -71.5q-74 0 -149 39t-121 107z" />
<glyph unicode="t" horiz-adv-x="497" d="M74 801v117h100v362h150v-362h100v-117h-100v-801h-150v801h-100z" />
<glyph unicode="u" horiz-adv-x="929" d="M131 360v558h152v-551q0 -126 50.5 -193.5t133.5 -67.5q94 0 135.5 66.5t42.5 222.5v523h154v-558q0 -178 -87.5 -280.5t-236.5 -102.5h-8q-145 0 -240.5 100t-95.5 283z" />
<glyph unicode="v" horiz-adv-x="864" d="M41 918h160l235 -599l226 599h163l-374 -938h-29z" />
<glyph unicode="w" horiz-adv-x="1239" d="M43 918h164l211 -568l198 568l205 -568l209 568h168l-358 -938h-27l-197 555l-178 -555h-30z" />
<glyph unicode="x" horiz-adv-x="874" d="M47 0l295 479l-268 439h170l196 -330l199 330h168l-277 -449l291 -469h-172l-213 358l-219 -358h-170z" />
<glyph unicode="y" horiz-adv-x="983" d="M125 469v449h162v-449q0 -165 50.5 -256.5t147.5 -91.5t151 92t54 256v449h152v-920q0 -229 -91 -344t-278 -115h-20q-85 0 -165 36t-128 103l110 101q28 -53 77 -84t108 -31q235 0 235 305v154q-63 -146 -233 -146q-146 0 -239 139t-93 353z" />
<glyph unicode="z" horiz-adv-x="794" d="M76 0v133l471 664h-455v121h623v-140l-469 -659h469v-119h-639z" />
<glyph unicode="{" horiz-adv-x="645" d="M27 483v131h57q87 0 120.5 51.5t33.5 186.5v217q0 103 12.5 164.5t47.5 101t91.5 54t151.5 14.5h55v-129h-59q-86 0 -112.5 -38.5t-27.5 -170.5v-223q0 -143 -30.5 -207t-106.5 -86q77 -26 107 -90t30 -203v-225q0 -122 26 -160.5t114 -38.5h59v-129h-55q-93 0 -149 13.5 t-92 51t-49 98.5t-13 163v217q0 132 -32.5 184.5t-121.5 52.5h-57z" />
<glyph unicode="|" horiz-adv-x="401" d="M141 -307v1741h119v-1741h-119z" />
<glyph unicode="}" horiz-adv-x="641" d="M49 -168h60q86 0 111.5 37.5t25.5 161.5v225q0 139 30.5 202.5t106.5 90.5q-76 22 -106.5 85.5t-30.5 207.5v223q0 129 -26 169t-111 40h-60v129h53q183 0 243.5 -67t60.5 -267v-217q0 -135 33.5 -186.5t121.5 -51.5h51v-131h-51q-89 0 -122 -49.5t-33 -187.5v-217 q0 -81 -8.5 -134.5t-28 -92.5t-55.5 -59.5t-86 -30t-126 -9.5h-53v129z" />
<glyph unicode="~" horiz-adv-x="1138" d="M104 381v145q76 63 140.5 92t138.5 29q102 0 197 -53q95 -57 180 -57q124 0 260 133v-150q-73 -63 -138 -90t-139 -29q-95 0 -196 52q-93 59 -180 59q-123 0 -263 -131z" />
<glyph unicode="&#xa1;" horiz-adv-x="571" d="M190 1350q0 42 30 73t67 31q38 0 69 -31t31 -73t-31 -72.5t-69 -30.5t-67.5 30.5t-29.5 72.5zM211 0v657l10 338h127l8 -338v-657h-145z" />
<glyph unicode="&#xa2;" horiz-adv-x="768" d="M70 455q0 214 90 339t260 142v238h92v-238q110 -7 190 -55v-142q-105 67 -190 70v-709q97 6 190 72v-141q-79 -41 -190 -51v-234h-92v238q-167 12 -258.5 135.5t-91.5 335.5zM236 455q0 -150 47.5 -243t136.5 -108v703q-87 -13 -135.5 -106t-48.5 -246z" />
<glyph unicode="&#xa3;" horiz-adv-x="837" d="M55 0v150h160v419h-133v131h133v213q0 230 80 339.5t242 115.5q86 -3 158.5 -48.5t111.5 -123.5l-90 -102q-57 76 -79 95q-37 33 -91 34h-19q-77 0 -113 -74.5t-36 -255.5v-193h262v-131h-262v-419h381v-150h-705z" />
<glyph unicode="&#xa4;" horiz-adv-x="1083" d="M72 174l172 186q-62 114 -62 215q0 113 64 213l-172 187l96 102l172 -186q91 67 199 67q105 0 200 -65l174 188l97 -104l-176 -184q61 -104 61 -218q0 -112 -66 -213l179 -186l-97 -104l-174 186q-95 -68 -198 -68q-108 0 -203 66l-172 -186zM313 578q0 -103 66 -174.5 t162 -71.5q94 0 158.5 71.5t64.5 174.5q0 97 -64 167t-159 70q-91 0 -159.5 -69t-68.5 -168z" />
<glyph unicode="&#xa5;" horiz-adv-x="909" d="M47 1346h156l252 -635l252 635h155l-219 -533h178v-108h-231l-53 -142v-47h284v-110h-284v-406h-164v406h-285v110h285v47l-51 142h-234v108h178z" />
<glyph unicode="&#xa6;" horiz-adv-x="401" d="M141 -285v617h119v-617h-119zM141 551v623h119v-623h-119z" />
<glyph unicode="&#xa7;" horiz-adv-x="747" d="M76 639v8q0 171 121 256q-75 75 -78 205q0 114 72 187t192 73q112 0 215 -53v-146q-122 67 -203 70q-55 0 -89 -35t-34 -102q0 -74 134 -184q67 -55 96 -79t67.5 -60t51.5 -54.5t28.5 -47.5t19 -55.5t3.5 -62.5q0 -156 -123 -256q41 -47 59 -93t21 -110 q0 -123 -75 -197.5t-198 -74.5q-106 0 -221 49v143q113 -56 205 -63q131 0 131 137q0 86 -141 203l-17 14q-145 107 -191 170.5t-46 157.5zM217 678q0 -50 14 -84t67 -87.5t163 -137.5q69 85 69 163q0 47 -16 83.5t-69 91t-158 135.5q-67 -82 -70 -164z" />
<glyph unicode="&#xa8;" horiz-adv-x="684" d="M111 1206q0 43 27.5 74t66.5 31t66.5 -31t27.5 -74t-27.5 -73.5t-66.5 -30.5t-66.5 30.5t-27.5 73.5zM379 1206q0 43 26.5 74t65.5 31t66.5 -31t27.5 -74t-27.5 -73.5t-66.5 -30.5t-65.5 30.5t-26.5 73.5z" />
<glyph unicode="&#xa9;" horiz-adv-x="1458" d="M74 666q0 189 93 345t241.5 241t316.5 85q139 0 262.5 -55.5t208.5 -148t134.5 -214.5t49.5 -253q0 -182 -88.5 -335.5t-239 -242t-327.5 -88.5q-179 0 -329.5 91.5t-236 244.5t-85.5 330zM162 666q0 -119 46.5 -227t123.5 -184t180 -120.5t213 -44.5q159 0 290 79.5 t204 211t73 285.5q0 130 -48.5 240t-129 182t-181.5 112.5t-208 42.5q-150 0 -280 -78t-206.5 -211t-76.5 -288zM336 666q0 187 111.5 296t302.5 109q132 0 241 -49v-117q-96 53 -231 60q-131 0 -205 -77t-74 -222q0 -144 75.5 -222.5t211.5 -78.5q117 0 223 57v-113 q-108 -50 -241 -53q-187 0 -300.5 110t-113.5 300z" />
<glyph unicode="&#xaa;" horiz-adv-x="739" d="M98 850q0 246 271 246h110v4q0 164 -141 164q-92 0 -195 -62v115q109 51 207 51q258 0 258 -317v-408h-129v102q-57 -120 -176 -120q-91 0 -146.5 60t-58.5 165zM121 420v112h487v-112h-487zM229 864q0 -58 28.5 -93.5t80.5 -35.5q64 0 102.5 65.5t38.5 166.5v26h-71 q-98 0 -138.5 -29t-40.5 -100z" />
<glyph unicode="&#xab;" horiz-adv-x="817" d="M59 455v67l344 344v-157l-196 -220l196 -221v-153zM356 455v67l346 344v-157l-200 -220l200 -221v-153z" />
<glyph unicode="&#xac;" horiz-adv-x="1124" d="M68 565v140h915v-472h-141v332h-774z" />
<glyph unicode="&#xad;" horiz-adv-x="665" d="M141 389v135h383v-135h-383z" />
<glyph unicode="&#xae;" horiz-adv-x="1116" d="M84 954q0 107 39.5 202t104.5 160.5t151 103.5t178 38q132 0 242.5 -71.5t171.5 -187t61 -245.5q0 -208 -139.5 -353.5t-335.5 -145.5q-98 0 -186.5 40t-151 108t-99 159.5t-36.5 191.5zM147 954q0 -180 122.5 -306t287.5 -126q172 0 290 128t118 304q0 98 -35 180.5 t-92.5 136.5t-130 85t-150.5 33q-167 0 -288.5 -129t-121.5 -306zM360 680v567h183q227 0 227 -162q0 -57 -33.5 -95.5t-97.5 -51.5q16 -3 33 -25t55 -82l88 -151h-108l-84 145q-37 60 -59.5 78t-59.5 21h-43v-244h-101zM461 989h80q68 0 97.5 20.5t29.5 73.5 q0 51 -29.5 71.5t-97.5 23.5h-80v-189z" />
<glyph unicode="&#xaf;" horiz-adv-x="708" d="M141 1126v123h426v-123h-426z" />
<glyph unicode="&#xb0;" horiz-adv-x="686" d="M98 1120q0 101 70 173.5t172 72.5q59 0 106 -22t75 -59t42.5 -79t16.5 -86q0 -97 -69.5 -169t-170.5 -72q-104 0 -173 69t-69 172zM195 1120q0 -59 42 -101t103 -42q59 0 100 40t41 103q0 58 -40.5 103t-100.5 45t-102.5 -42.5t-42.5 -105.5z" />
<glyph unicode="&#xb1;" horiz-adv-x="811" d="M70 0v150h671v-150h-671zM70 651v156h262v348h141v-348h268v-156h-268v-348h-141v348h-262z" />
<glyph unicode="&#xb2;" horiz-adv-x="679" d="M80 645v98l285 301q43 54 60 89.5t17 72.5q0 56 -36 92.5t-95 36.5q-46 0 -78 -27t-34 -61h-119q0 80 68.5 138t160.5 61q120 0 193 -63t73 -169q0 -102 -88 -217l-256 -254h344v-98h-495z" />
<glyph unicode="&#xb3;" horiz-adv-x="706" d="M63 827h130q10 -46 45 -71t86 -25q62 0 100.5 36.5t38.5 100.5t-37 102t-102 38v102q57 0 91 30t34 83q0 54 -33 83t-92 29q-48 0 -79 -23t-38 -67h-127q7 94 72.5 147.5t171.5 53.5q117 0 187.5 -56.5t70.5 -156.5q0 -64 -36 -108.5t-100 -63.5q69 -15 110 -66.5 t42 -126.5q0 -113 -71.5 -174t-202.5 -61q-238 0 -261 194z" />
<glyph unicode="&#xb4;" horiz-adv-x="481" d="M82 1112l201 342l127 -72l-242 -338z" />
<glyph unicode="&#xb5;" horiz-adv-x="921" d="M141 -451v1369h150v-572q0 -242 176 -242q192 0 192 277v537h154v-918h-154v102q-33 -63 -75.5 -92.5t-106.5 -29.5q-69 0 -114 28.5t-72 91.5v-551h-150z" />
<glyph unicode="&#xb6;" horiz-adv-x="860" d="M57 963q0 169 94 276t248 107h320v-1520h-121v1409h-104v-1409h-123v756q-148 15 -231 114.5t-83 266.5z" />
<glyph unicode="&#xb7;" horiz-adv-x="524" d="M104 584q0 63 45.5 108t108.5 45t108.5 -45t45.5 -108t-45.5 -108.5t-108.5 -45.5t-108.5 45.5t-45.5 108.5z" />
<glyph unicode="&#xb8;" horiz-adv-x="428" d="M92 -369l141 287h93l-111 -369z" />
<glyph unicode="&#xb9;" horiz-adv-x="436" d="M59 1321l47 113h189v-789h-123v676h-113z" />
<glyph unicode="&#xba;" horiz-adv-x="765" d="M104 993q0 171 73.5 273t205.5 102q126 0 200 -98.5t74 -276.5q0 -169 -73.5 -268.5t-200.5 -99.5t-203 99.5t-76 268.5zM139 420v112h486v-112h-486zM244 993q0 -117 37.5 -188.5t101.5 -71.5q62 0 99.5 72.5t37.5 187.5q0 124 -36.5 197.5t-100.5 73.5q-63 0 -101 -73 t-38 -198z" />
<glyph unicode="&#xbb;" horiz-adv-x="815" d="M113 115v153l202 221l-202 220v157l348 -344v-67zM410 115v153l200 221l-200 220v157l348 -344v-67z" />
<glyph unicode="&#xbc;" horiz-adv-x="1222" d="M29 1255l51 113h203v-788h-131v675h-123zM168 -23l623 1391h131l-623 -1391h-131zM608 164l473 637v-533h111v-104h-111v-164h-125v164h-348zM782 268h174v238z" />
<glyph unicode="&#xbd;" horiz-adv-x="1284" d="M31 1255l49 113h205v-788h-133v675h-121zM170 -23l623 1391h131l-623 -1391h-131zM713 0v98l291 301q45 53 63 88.5t18 73.5q0 56 -37 92.5t-98 36.5q-47 0 -80 -27t-36 -61h-121q0 80 70.5 138t164.5 61q124 0 199.5 -63t75.5 -169q0 -101 -93 -217l-262 -254h355v-98 h-510z" />
<glyph unicode="&#xbe;" horiz-adv-x="1454" d="M18 772h136q10 -45 46 -70.5t89 -25.5q65 0 105 36.5t40 100.5t-38.5 101.5t-106.5 37.5v103q59 0 94 29.5t35 82.5q0 54 -33.5 83.5t-95.5 29.5q-50 0 -82 -23t-39 -67h-131q7 93 75 147t177 54q122 0 195 -56.5t73 -156.5q0 -64 -36.5 -108.5t-104.5 -63.5 q73 -15 114 -66t43 -127q0 -114 -73.5 -174.5t-210.5 -60.5q-245 0 -271 194zM416 -23l626 1391h129l-626 -1391h-129zM840 164l473 637v-533h112v-104h-112v-164h-127v164h-346zM1014 268h172v236z" />
<glyph unicode="&#xbf;" horiz-adv-x="790" d="M131 248q0 34 11 71.5t24.5 66.5t38 65t38.5 53.5t39 47t27 32.5q38 54 56.5 81.5t38.5 68.5t20 67q0 4 1 11t1 11q0 41 -13 69t-34 28h-4h-10q-26 0 -42 -20.5t-22 -74.5h-113q2 100 53 167t138 67h6q76 -3 140.5 -72t64.5 -166q0 -100 -45.5 -180.5t-124.5 -165.5 q-119 -137 -121 -215q0 -70 27 -102.5t86 -32.5q48 0 81 48.5t39 135.5h148q-1 -86 -26 -152.5t-65.5 -105.5t-88.5 -58.5t-99 -19.5q-120 0 -192.5 74.5t-77.5 200.5zM283 1356q0 43 29.5 72.5t70.5 29.5t69.5 -29.5t28.5 -72.5t-28.5 -74t-69.5 -31t-70.5 31t-29.5 74z " />
<glyph unicode="&#xc0;" horiz-adv-x="1013" d="M18 0l488 1456l489 -1456h-157l-119 371h-422l-121 -371h-158zM350 518h314l-158 533zM358 1866l115 76l182 -322l-77 -61z" />
<glyph unicode="&#xc1;" horiz-adv-x="1013" d="M18 0l488 1456l489 -1456h-157l-119 371h-422l-121 -371h-158zM342 1626l201 342l127 -72l-242 -337zM350 518h314l-158 533z" />
<glyph unicode="&#xc2;" horiz-adv-x="1013" d="M18 0l488 1456l489 -1456h-157l-119 371h-422l-121 -371h-158zM272 1606l183 262h108l180 -262l-77 -47l-156 188l-158 -188zM350 518h314l-158 533z" />
<glyph unicode="&#xc3;" horiz-adv-x="1013" d="M18 0l488 1456l489 -1456h-157l-119 371h-422l-121 -371h-158zM199 1620q34 67 83.5 119t106.5 53q67 0 129 -53q3 -3 14 -13.5t16.5 -15t16 -13.5t18 -13t16.5 -7.5t17 -3.5h5q28 0 55 31.5t47 87.5l94 -61q-21 -66 -79.5 -119t-114.5 -53h-2h-9q-60 0 -120 51 q-66 61 -99 67h-2q-56 0 -108 -118zM350 518h314l-158 533z" />
<glyph unicode="&#xc4;" horiz-adv-x="1013" d="M18 0l488 1456l489 -1456h-157l-119 371h-422l-121 -371h-158zM281 1663q0 43 27.5 73.5t66.5 30.5t66.5 -30.5t27.5 -73.5t-27.5 -73.5t-66.5 -30.5t-66.5 30.5t-27.5 73.5zM350 518h314l-158 533zM549 1663q0 43 26.5 73.5t65.5 30.5t66.5 -30.5t27.5 -73.5 t-27.5 -73.5t-66.5 -30.5t-65.5 30.5t-26.5 73.5z" />
<glyph unicode="&#xc5;" horiz-adv-x="1013" d="M18 0l488 1456l489 -1456h-157l-119 371h-422l-121 -371h-158zM328 1716q0 78 51.5 135.5t126.5 57.5q72 0 124.5 -56t55.5 -137q0 -79 -52.5 -134.5t-127.5 -55.5q-74 0 -126 54.5t-52 135.5zM350 518h314l-158 533zM434 1716q0 -43 21 -74.5t51 -31.5q31 0 52.5 31 t21.5 75q0 42 -22.5 73.5t-51.5 31.5q-30 0 -51 -29.5t-21 -75.5z" />
<glyph unicode="&#xc7;" horiz-adv-x="978" d="M90 709q0 345 140 546t380 201q185 0 342 -129l-84 -113q-116 107 -250 107q-173 0 -268.5 -157.5t-95.5 -454.5q0 -294 92.5 -449.5t271.5 -155.5q139 0 248 101l82 -109q-143 -123 -338 -123q-241 0 -380.5 195.5t-139.5 540.5zM408 -369l151 287h103l-123 -369z" />
<glyph unicode="&#xc8;" horiz-adv-x="888" d="M141 0v1434h674v-150h-520v-366h520v-150h-520v-623h534v-145h-688zM338 1866l115 76l182 -322l-78 -61z" />
<glyph unicode="&#xc9;" horiz-adv-x="888" d="M141 0v1434h674v-150h-520v-366h520v-150h-520v-623h534v-145h-688zM322 1626l200 342l127 -72l-241 -337z" />
<glyph unicode="&#xca;" horiz-adv-x="888" d="M141 0v1434h674v-150h-520v-366h520v-150h-520v-623h534v-145h-688zM250 1606l182 262h109l180 -262l-78 -47l-156 188l-157 -188z" />
<glyph unicode="&#xcb;" horiz-adv-x="888" d="M141 0v1434h674v-150h-520v-366h520v-150h-520v-623h534v-145h-688zM258 1663q0 43 27.5 73.5t66.5 30.5t66.5 -30.5t27.5 -73.5t-27.5 -73.5t-66.5 -30.5t-66.5 30.5t-27.5 73.5zM526 1663q0 43 26.5 73.5t65.5 30.5q40 0 67.5 -30.5t27.5 -73.5t-27.5 -73.5 t-67.5 -30.5q-39 0 -65.5 30.5t-26.5 73.5z" />
<glyph unicode="&#xcc;" horiz-adv-x="434" d="M70 1866l114 76l181 -322l-78 -61zM141 0v1434h152v-1434h-152z" />
<glyph unicode="&#xcd;" horiz-adv-x="434" d="M53 1626l201 342l127 -72l-242 -337zM141 0v1434h152v-1434h-152z" />
<glyph unicode="&#xce;" horiz-adv-x="434" d="M-18 1606l182 262h108l181 -262l-78 -47l-156 188l-158 -188zM141 0v1434h152v-1434h-152z" />
<glyph unicode="&#xcf;" horiz-adv-x="434" d="M-10 1663q0 43 27.5 73.5t66.5 30.5t66.5 -30.5t27.5 -73.5t-27.5 -73.5t-66.5 -30.5t-66.5 30.5t-27.5 73.5zM141 0v1434h152v-1434h-152zM258 1663q0 43 26.5 73.5t65.5 30.5t66.5 -30.5t27.5 -73.5t-27.5 -73.5t-66.5 -30.5t-65.5 30.5t-26.5 73.5z" />
<glyph unicode="&#xd0;" horiz-adv-x="1171" d="M57 559v135h119v652h299q309 0 454.5 -162.5t145.5 -511.5q0 -348 -144 -510t-456 -162h-299v559h-119zM340 145h158q206 0 301.5 127.5t95.5 399.5q0 269 -95.5 395.5t-301.5 126.5h-158v-500h113v-135h-113v-414z" />
<glyph unicode="&#xd1;" horiz-adv-x="1091" d="M141 0v1438h13l649 -987v983h147v-1434h-14l-647 975v-975h-148zM236 1620q34 67 83.5 119t106.5 53q67 0 129 -53q3 -3 14 -13.5t16.5 -15t16 -13.5t18 -13t16.5 -7.5t17 -3.5h4q28 0 55.5 32t47.5 87l94 -61q-21 -66 -80 -119t-115 -53h-2h-8q-61 0 -121 51 q-67 61 -98 67h-2q-57 0 -109 -118z" />
<glyph unicode="&#xd2;" horiz-adv-x="1310" d="M86 711q0 338 155 541.5t412 203.5q255 0 412.5 -203.5t157.5 -541.5q0 -337 -154 -536.5t-416 -199.5q-260 0 -413.5 199t-153.5 537zM240 711q0 -278 115 -443.5t298 -165.5q180 0 297 164.5t117 444.5q0 277 -115 443.5t-299 166.5q-179 0 -296 -164.5t-117 -445.5z M506 1866l115 76l182 -322l-78 -61z" />
<glyph unicode="&#xd3;" horiz-adv-x="1310" d="M86 711q0 338 155 541.5t412 203.5q255 0 412.5 -203.5t157.5 -541.5q0 -337 -154 -536.5t-416 -199.5q-260 0 -413.5 199t-153.5 537zM240 711q0 -278 115 -443.5t298 -165.5q180 0 297 164.5t117 444.5q0 277 -115 443.5t-299 166.5q-179 0 -296 -164.5t-117 -445.5z M492 1626l200 342l127 -72l-241 -337z" />
<glyph unicode="&#xd4;" horiz-adv-x="1310" d="M86 711q0 338 155 541.5t412 203.5q255 0 412.5 -203.5t157.5 -541.5q0 -337 -154 -536.5t-416 -199.5q-260 0 -413.5 199t-153.5 537zM240 711q0 -278 115 -443.5t298 -165.5q180 0 297 164.5t117 444.5q0 277 -115 443.5t-299 166.5q-179 0 -296 -164.5t-117 -445.5z M418 1606l182 262h109l180 -262l-78 -47l-156 188l-157 -188z" />
<glyph unicode="&#xd5;" horiz-adv-x="1310" d="M86 711q0 338 155 541.5t412 203.5q255 0 412.5 -203.5t157.5 -541.5q0 -337 -154 -536.5t-416 -199.5q-260 0 -413.5 199t-153.5 537zM240 711q0 -278 115 -443.5t298 -165.5q180 0 297 164.5t117 444.5q0 277 -115 443.5t-299 166.5q-179 0 -296 -164.5t-117 -445.5z M344 1620q15 29 33 56t42.5 54.5t55 44t60.5 17.5q67 0 129 -53q3 -3 14 -13.5t16.5 -15t16 -13.5t18 -13t16.5 -7.5t17 -3.5h4q28 0 55 31.5t47 87.5l95 -61q-21 -66 -80 -119t-115 -53h-2h-8q-61 0 -121 51q-67 61 -98 67h-2q-57 0 -109 -118z" />
<glyph unicode="&#xd6;" horiz-adv-x="1310" d="M86 711q0 338 155 541.5t412 203.5q255 0 412.5 -203.5t157.5 -541.5q0 -337 -154 -536.5t-416 -199.5q-260 0 -413.5 199t-153.5 537zM240 711q0 -278 115 -443.5t298 -165.5q180 0 297 164.5t117 444.5q0 277 -115 443.5t-299 166.5q-179 0 -296 -164.5t-117 -445.5z M426 1663q0 43 27.5 73.5t66.5 30.5t66.5 -30.5t27.5 -73.5t-27.5 -73.5t-66.5 -30.5t-66.5 30.5t-27.5 73.5zM694 1663q0 43 26.5 73.5t65.5 30.5q40 0 67.5 -30.5t27.5 -73.5t-27.5 -73.5t-67.5 -30.5q-39 0 -65.5 30.5t-26.5 73.5z" />
<glyph unicode="&#xd7;" horiz-adv-x="964" d="M70 164l313 411l-313 416l96 107l317 -416l314 416l98 -107l-313 -416l313 -411l-98 -111l-314 414l-317 -414z" />
<glyph unicode="&#xd8;" horiz-adv-x="1312" d="M86 711q0 338 155 541.5t412 203.5q87 0 146 -22l49 172h143l-61 -222q138 -89 215.5 -263.5t77.5 -409.5q0 -337 -154 -536.5t-416 -199.5q-71 0 -135 21l-47 -168h-143l61 213q-145 80 -224 253t-79 417zM240 711q0 -188 52.5 -328.5t143.5 -212.5l320 1133 q-50 18 -103 18q-179 0 -296 -164.5t-117 -445.5zM561 119q44 -17 92 -17q180 0 297 164.5t117 444.5q0 184 -50 322.5t-138 213.5z" />
<glyph unicode="&#xd9;" horiz-adv-x="1081" d="M131 530v904h158v-879q0 -240 59 -347.5t195 -107.5q132 0 193 108t61 347v879h153v-904q0 -555 -407 -555q-202 0 -307 138.5t-105 416.5zM393 1866l115 76l182 -322l-78 -61z" />
<glyph unicode="&#xda;" horiz-adv-x="1081" d="M131 530v904h158v-879q0 -240 59 -347.5t195 -107.5q132 0 193 108t61 347v879h153v-904q0 -555 -407 -555q-202 0 -307 138.5t-105 416.5zM377 1626l201 342l127 -72l-242 -337z" />
<glyph unicode="&#xdb;" horiz-adv-x="1081" d="M131 530v904h158v-879q0 -240 59 -347.5t195 -107.5q132 0 193 108t61 347v879h153v-904q0 -555 -407 -555q-202 0 -307 138.5t-105 416.5zM305 1606l182 262h109l180 -262l-78 -47l-155 188l-158 -188z" />
<glyph unicode="&#xdc;" horiz-adv-x="1081" d="M131 530v904h158v-879q0 -240 59 -347.5t195 -107.5q132 0 193 108t61 347v879h153v-904q0 -555 -407 -555q-202 0 -307 138.5t-105 416.5zM313 1663q0 43 27.5 73.5t67.5 30.5q39 0 66.5 -30.5t27.5 -73.5t-27.5 -73.5t-66.5 -30.5q-40 0 -67.5 30.5t-27.5 73.5z M582 1663q0 43 26.5 73.5t65.5 30.5t66.5 -30.5t27.5 -73.5t-27.5 -73.5t-66.5 -30.5t-65.5 30.5t-26.5 73.5z" />
<glyph unicode="&#xdd;" horiz-adv-x="929" d="M16 1434h164l289 -598l285 598h161l-372 -746v-688h-156v688zM303 1626l201 342l127 -72l-242 -337z" />
<glyph unicode="&#xde;" horiz-adv-x="884" d="M141 0v1434h156v-283h162q178 0 271 -101.5t93 -301.5q0 -395 -364 -404h-162v-344h-156zM297 494h162q87 0 136.5 65.5t49.5 188.5q0 118 -47.5 184.5t-138.5 66.5h-162v-505z" />
<glyph unicode="&#xdf;" horiz-adv-x="950" d="M100 803l47 110v142q0 183 86 292t242 109q58 0 112.5 -26.5t98.5 -75t71 -125t27 -168.5v-4v-174q-227 -16 -227 -142v-2q0 -41 19.5 -71t70.5 -66l37 -35q108 -88 147 -170t39 -176q-3 -106 -79.5 -175t-198.5 -69q-59 0 -127.5 30.5t-112.5 101.5l109 92 q25 -36 64 -68.5t67 -32.5q115 0 115 150q0 3 1 8t1 8q0 73 -105 162l-47 51q-77 53 -111 112.5t-34 145.5q0 110 52.5 161t166.5 81v78q0 101 -48.5 179.5t-111.5 78.5q-79 0 -124.5 -70.5t-47.5 -191.5v-1053h-152v803h-47z" />
<glyph unicode="&#xe0;" d="M102 455q0 217 92.5 350t241.5 133q163 0 236 -162v142h147v-918h-147v133q-74 -153 -236 -153q-149 0 -241.5 130t-92.5 345zM266 455q0 -165 52.5 -261t146.5 -96q96 0 151.5 96t55.5 261t-55.5 260.5t-151.5 95.5q-92 0 -145.5 -94t-53.5 -262zM311 1348l115 75 l182 -321l-78 -62z" />
<glyph unicode="&#xe1;" d="M102 455q0 217 92.5 350t241.5 133q163 0 236 -162v142h147v-918h-147v133q-74 -153 -236 -153q-149 0 -241.5 130t-92.5 345zM266 455q0 -165 52.5 -261t146.5 -96q96 0 151.5 96t55.5 261t-55.5 260.5t-151.5 95.5q-92 0 -145.5 -94t-53.5 -262zM350 1108l201 342 l127 -72l-242 -338z" />
<glyph unicode="&#xe2;" d="M102 455q0 217 92.5 350t241.5 133q163 0 236 -162v142h147v-918h-147v133q-74 -153 -236 -153q-149 0 -241.5 130t-92.5 345zM225 1087l183 263h108l180 -263l-78 -47l-155 189l-158 -189zM266 455q0 -165 52.5 -261t146.5 -96q96 0 151.5 96t55.5 261t-55.5 260.5 t-151.5 95.5q-92 0 -145.5 -94t-53.5 -262z" />
<glyph unicode="&#xe3;" d="M102 455q0 217 92.5 350t241.5 133q163 0 236 -162v142h147v-918h-147v133q-74 -153 -236 -153q-149 0 -241.5 130t-92.5 345zM152 1102q34 67 83.5 119t106.5 53q67 0 129 -53q3 -3 14 -13.5t16.5 -15t16 -13.5t18 -13t16.5 -7.5t17 -3.5h4q28 0 55.5 32t47.5 87l94 -62 q-21 -66 -80 -119t-115 -53h-2h-8q-60 0 -121 52q-67 61 -98 67h-2q-56 0 -108 -119zM266 455q0 -165 52.5 -261t146.5 -96q96 0 151.5 96t55.5 261t-55.5 260.5t-151.5 95.5q-92 0 -145.5 -94t-53.5 -262z" />
<glyph unicode="&#xe4;" d="M102 455q0 217 92.5 350t241.5 133q163 0 236 -162v142h147v-918h-147v133q-74 -153 -236 -153q-149 0 -241.5 130t-92.5 345zM233 1145q0 43 27.5 73.5t67.5 30.5q39 0 66.5 -30.5t27.5 -73.5t-27.5 -74t-66.5 -31q-40 0 -67.5 31t-27.5 74zM266 455q0 -165 52.5 -261 t146.5 -96q96 0 151.5 96t55.5 261t-55.5 260.5t-151.5 95.5q-92 0 -145.5 -94t-53.5 -262zM502 1145q0 43 26.5 73.5t65.5 30.5t66.5 -30.5t27.5 -73.5t-27.5 -74t-66.5 -31t-65.5 31t-26.5 74z" />
<glyph unicode="&#xe5;" d="M102 455q0 217 92.5 350t241.5 133q163 0 236 -162v142h147v-918h-147v133q-74 -153 -236 -153q-149 0 -241.5 130t-92.5 345zM266 455q0 -165 52.5 -261t146.5 -96q96 0 151.5 96t55.5 261t-55.5 260.5t-151.5 95.5q-92 0 -145.5 -94t-53.5 -262zM295 1231 q0 78 47.5 135t118.5 57q68 0 116.5 -55.5t51.5 -136.5q0 -80 -49 -135.5t-119 -55.5q-68 0 -117 55t-49 136zM393 1231q0 -44 19.5 -75.5t48.5 -31.5t48 31t19 76q0 43 -19.5 73.5t-47.5 30.5q-29 0 -48.5 -29t-19.5 -75z" />
<glyph unicode="&#xe7;" horiz-adv-x="802" d="M96 453q0 204 114 344.5t277 140.5h15q143 0 248 -111l-99 -114q-71 94 -162 94q-93 0 -160 -105.5t-67 -248.5t66.5 -245t160.5 -102q93 0 162 91l99 -121q-129 -101 -238 -101q-4 0 -12.5 1t-12.5 1q-163 0 -277 138t-114 338zM289 -369l151 287h101l-121 -369z" />
<glyph unicode="&#xe8;" horiz-adv-x="919" d="M96 453q0 134 49.5 245.5t137.5 175.5t196 64h8q155 0 249 -116t106 -316v-51v-4h-588q0 -142 68.5 -243.5t166.5 -101.5h13q133 0 221 127l96 -86q-51 -82 -138 -125t-194 -45q-164 0 -277.5 137.5t-113.5 338.5zM268 580h418q-14 116 -70.5 171.5t-134.5 55.5 q-70 0 -135 -75t-78 -152zM322 1348l114 75l182 -321l-77 -62z" />
<glyph unicode="&#xe9;" horiz-adv-x="919" d="M96 453q0 134 49.5 245.5t137.5 175.5t196 64h8q155 0 249 -116t106 -316v-51v-4h-588q0 -142 68.5 -243.5t166.5 -101.5h13q133 0 221 127l96 -86q-51 -82 -138 -125t-194 -45q-164 0 -277.5 137.5t-113.5 338.5zM268 580h418q-14 116 -70.5 171.5t-134.5 55.5 q-70 0 -135 -75t-78 -152zM406 1108l200 342l127 -72l-241 -338z" />
<glyph unicode="&#xea;" horiz-adv-x="919" d="M96 453q0 134 49.5 245.5t137.5 175.5t196 64h8q155 0 249 -116t106 -316v-51v-4h-588q0 -142 68.5 -243.5t166.5 -101.5h13q133 0 221 127l96 -86q-51 -82 -138 -125t-194 -45q-164 0 -277.5 137.5t-113.5 338.5zM233 1087l183 263h108l181 -263l-78 -47l-156 189 l-158 -189zM268 580h418q-14 116 -70.5 171.5t-134.5 55.5q-70 0 -135 -75t-78 -152z" />
<glyph unicode="&#xeb;" horiz-adv-x="919" d="M96 453q0 134 49.5 245.5t137.5 175.5t196 64h8q155 0 249 -116t106 -316v-51v-4h-588q0 -142 68.5 -243.5t166.5 -101.5h13q133 0 221 127l96 -86q-51 -82 -138 -125t-194 -45q-164 0 -277.5 137.5t-113.5 338.5zM242 1145q0 43 27.5 73.5t66.5 30.5t66.5 -30.5 t27.5 -73.5t-27.5 -74t-66.5 -31t-66.5 31t-27.5 74zM268 580h418q-14 116 -70.5 171.5t-134.5 55.5q-70 0 -135 -75t-78 -152zM510 1145q0 43 26.5 73.5t65.5 30.5t66.5 -30.5t27.5 -73.5t-27.5 -74t-66.5 -31t-65.5 31t-26.5 74z" />
<glyph unicode="&#xec;" horiz-adv-x="432" d="M68 1368l114 76l183 -322l-78 -61zM141 0v918h150v-918h-150z" />
<glyph unicode="&#xed;" horiz-adv-x="432" d="M53 1128l201 342l127 -71l-242 -338zM141 0v918h150v-918h-150z" />
<glyph unicode="&#xee;" horiz-adv-x="432" d="M-20 1108l184 262h106l181 -262l-78 -47l-156 188l-156 -188zM141 0v918h150v-918h-150z" />
<glyph unicode="&#xef;" horiz-adv-x="432" d="M-12 1165q0 43 27.5 74t66.5 31t66.5 -31t27.5 -74t-27.5 -73.5t-66.5 -30.5t-66.5 30.5t-27.5 73.5zM141 0v918h150v-918h-150zM258 1165q0 44 25.5 74.5t64.5 30.5t66.5 -31t27.5 -74t-27.5 -73.5t-66.5 -30.5t-64.5 30t-25.5 74z" />
<glyph unicode="&#xf0;" horiz-adv-x="940" d="M47 1290l191 78l-105 168h168l76 -121l231 90l31 -78l-203 -79l234 -416q91 -133 128.5 -243t37.5 -253q0 -206 -101.5 -331t-267.5 -125q-165 0 -267 125t-102 331q0 202 100 331.5t259 129.5q32 0 63 -8l-221 409l-219 -88zM266 436q0 -153 54.5 -244.5t146.5 -91.5 q93 0 149 92.5t56 243.5q0 157 -51 247.5t-129 90.5q-105 0 -165.5 -88.5t-60.5 -249.5z" />
<glyph unicode="&#xf1;" horiz-adv-x="942" d="M141 0v918h150v-146q85 166 237 166q137 0 210 -98t73 -287v-553h-156v547q0 257 -155 260q-98 0 -152.5 -77t-56.5 -214v-516h-150zM166 1102q34 67 83.5 119t106.5 53q67 0 129 -53q3 -3 12 -11.5t14 -12.5t14 -12t15 -12t14 -9t15.5 -7t14.5 -2h4q28 0 55 31.5 t47 87.5l94 -62q-21 -66 -79.5 -119t-114.5 -53h-2h-8q-60 0 -121 52q-66 61 -99 67h-2q-56 0 -108 -119z" />
<glyph unicode="&#xf2;" horiz-adv-x="976" d="M94 453q0 203 115 344t280 141q163 0 276.5 -140t113.5 -343q0 -201 -113.5 -339.5t-276.5 -138.5q-165 0 -280 138t-115 338zM260 453q0 -142 68.5 -244.5t163.5 -102.5q94 0 160.5 102t66.5 245t-67 248.5t-160 105.5q-95 0 -163.5 -105.5t-68.5 -248.5zM338 1348 l115 75l182 -321l-78 -62z" />
<glyph unicode="&#xf3;" horiz-adv-x="976" d="M94 453q0 203 115 344t280 141q163 0 276.5 -140t113.5 -343q0 -201 -113.5 -339.5t-276.5 -138.5q-165 0 -280 138t-115 338zM260 453q0 -142 68.5 -244.5t163.5 -102.5q94 0 160.5 102t66.5 245t-67 248.5t-160 105.5q-95 0 -163.5 -105.5t-68.5 -248.5zM324 1108 l200 342l127 -72l-241 -338z" />
<glyph unicode="&#xf4;" horiz-adv-x="976" d="M94 453q0 203 115 344t280 141q163 0 276.5 -140t113.5 -343q0 -201 -113.5 -339.5t-276.5 -138.5q-165 0 -280 138t-115 338zM250 1087l182 263h109l180 -263l-78 -47l-156 189l-157 -189zM260 453q0 -142 68.5 -244.5t163.5 -102.5q94 0 160.5 102t66.5 245t-67 248.5 t-160 105.5q-95 0 -163.5 -105.5t-68.5 -248.5z" />
<glyph unicode="&#xf5;" horiz-adv-x="976" d="M94 453q0 203 115 344t280 141q163 0 276.5 -140t113.5 -343q0 -201 -113.5 -339.5t-276.5 -138.5q-165 0 -280 138t-115 338zM176 1102q15 29 33 56t42.5 54.5t55 44t60.5 17.5q67 0 129 -53q3 -3 14 -13.5t16.5 -15t16 -13.5t18 -13t16.5 -7.5t17 -3.5h4q28 0 55 31.5 t47 87.5l95 -62q-21 -66 -80 -119t-115 -53h-2h-8q-60 0 -121 52q-67 61 -98 67h-2q-57 0 -109 -119zM260 453q0 -142 68.5 -244.5t163.5 -102.5q94 0 160.5 102t66.5 245t-67 248.5t-160 105.5q-95 0 -163.5 -105.5t-68.5 -248.5z" />
<glyph unicode="&#xf6;" horiz-adv-x="976" d="M94 453q0 203 115 344t280 141q163 0 276.5 -140t113.5 -343q0 -201 -113.5 -339.5t-276.5 -138.5q-165 0 -280 138t-115 338zM258 1145q0 43 27.5 73.5t66.5 30.5t66.5 -30.5t27.5 -73.5t-27.5 -74t-66.5 -31t-66.5 31t-27.5 74zM260 453q0 -142 68.5 -244.5 t163.5 -102.5q94 0 160.5 102t66.5 245t-67 248.5t-160 105.5q-95 0 -163.5 -105.5t-68.5 -248.5zM526 1145q0 43 26.5 73.5t65.5 30.5q40 0 67.5 -30.5t27.5 -73.5t-27.5 -74t-67.5 -31q-39 0 -65.5 31t-26.5 74z" />
<glyph unicode="&#xf7;" horiz-adv-x="884" d="M51 453v141h783v-141h-783zM338 162q0 43 29.5 73.5t72.5 30.5q42 0 72.5 -31t30.5 -73t-30.5 -72.5t-72.5 -30.5q-43 0 -72.5 30t-29.5 73zM338 836q0 43 29.5 73.5t72.5 30.5q42 0 72.5 -31t30.5 -73t-30.5 -72.5t-72.5 -30.5q-43 0 -72.5 30t-29.5 73z" />
<glyph unicode="&#xf8;" horiz-adv-x="978" d="M96 453q0 203 115.5 344t280.5 141q42 0 71 -10l19 96h110l-26 -131q98 -59 156.5 -175.5t58.5 -262.5q0 -201 -113 -339.5t-276 -138.5q-30 0 -48 5l-22 -107h-113l31 135q-109 52 -176.5 171t-67.5 272zM262 453q0 -100 32.5 -183t84.5 -127l147 658q-15 6 -32 6 q-95 0 -163.5 -105.5t-68.5 -248.5zM481 111q5 -5 13 -5q94 0 160.5 102t66.5 245q0 94 -26 175.5t-70 129.5z" />
<glyph unicode="&#xf9;" horiz-adv-x="929" d="M131 360v558h152v-551q0 -126 50.5 -193.5t133.5 -67.5q94 0 135.5 66.5t42.5 222.5v523h154v-558q0 -178 -87.5 -280.5t-236.5 -102.5h-8q-145 0 -240.5 100t-95.5 283zM315 1348l115 75l182 -321l-77 -62z" />
<glyph unicode="&#xfa;" horiz-adv-x="929" d="M131 360v558h152v-551q0 -126 50.5 -193.5t133.5 -67.5q94 0 135.5 66.5t42.5 222.5v523h154v-558q0 -178 -87.5 -280.5t-236.5 -102.5h-8q-145 0 -240.5 100t-95.5 283zM301 1108l201 342l127 -72l-242 -338z" />
<glyph unicode="&#xfb;" horiz-adv-x="929" d="M131 360v558h152v-551q0 -126 50.5 -193.5t133.5 -67.5q94 0 135.5 66.5t42.5 222.5v523h154v-558q0 -178 -87.5 -280.5t-236.5 -102.5h-8q-145 0 -240.5 100t-95.5 283zM229 1087l183 263h108l180 -263l-77 -47l-156 189l-158 -189z" />
<glyph unicode="&#xfc;" horiz-adv-x="929" d="M131 360v558h152v-551q0 -126 50.5 -193.5t133.5 -67.5q94 0 135.5 66.5t42.5 222.5v523h154v-558q0 -178 -87.5 -280.5t-236.5 -102.5h-8q-145 0 -240.5 100t-95.5 283zM238 1145q0 43 27.5 73.5t66.5 30.5t66.5 -30.5t27.5 -73.5t-27.5 -74t-66.5 -31t-66.5 31 t-27.5 74zM506 1145q0 43 26.5 73.5t65.5 30.5t66.5 -30.5t27.5 -73.5t-27.5 -74t-66.5 -31t-65.5 31t-26.5 74z" />
<glyph unicode="&#xfd;" horiz-adv-x="983" d="M125 469v449h162v-449q0 -165 50.5 -256.5t147.5 -91.5t151 92t54 256v449h152v-920q0 -229 -91 -344t-278 -115h-20q-85 0 -165 36t-128 103l110 101q28 -53 77 -84t108 -31q235 0 235 305v154q-63 -146 -233 -146q-146 0 -239 139t-93 353zM319 1108l201 342l127 -72 l-241 -338z" />
<glyph unicode="&#xfe;" horiz-adv-x="958" d="M141 -461v1997h148v-760q40 83 96.5 122.5t138.5 39.5q148 0 239 -133t91 -350q0 -213 -90.5 -344t-239.5 -131q-82 0 -137.5 35t-97.5 118v-594h-148zM289 455q0 -163 54 -260t153 -97q91 0 143.5 96t52.5 261q0 164 -52.5 260t-143.5 96q-95 0 -151 -94t-56 -262z" />
<glyph unicode="&#xff;" horiz-adv-x="983" d="M125 469v449h162v-449q0 -165 50.5 -256.5t147.5 -91.5t151 92t54 256v449h152v-920q0 -229 -91 -344t-278 -115h-20q-85 0 -165 36t-128 103l110 101q28 -53 77 -84t108 -31q235 0 235 305v154q-63 -146 -233 -146q-146 0 -239 139t-93 353zM256 1145q0 43 27.5 73.5 t66.5 30.5t66.5 -30.5t27.5 -73.5t-27.5 -74t-66.5 -31t-66.5 31t-27.5 74zM524 1145q0 43 26.5 73.5t65.5 30.5q40 0 67.5 -30.5t27.5 -73.5t-27.5 -74t-67.5 -31q-39 0 -65.5 31t-26.5 74z" />
<glyph unicode="&#x178;" horiz-adv-x="929" d="M16 1434h164l289 -598l285 598h161l-372 -746v-688h-156v688zM238 1663q0 43 27.5 73.5t66.5 30.5t66.5 -30.5t27.5 -73.5t-27.5 -73.5t-66.5 -30.5t-66.5 30.5t-27.5 73.5zM506 1663q0 43 26.5 73.5t65.5 30.5t66.5 -30.5t27.5 -73.5t-27.5 -73.5t-66.5 -30.5 t-65.5 30.5t-26.5 73.5z" />
<glyph unicode="&#x2c6;" horiz-adv-x="649" d="M88 1120l182 262h109l180 -262l-78 -47l-155 189l-158 -189z" />
<glyph unicode="&#x2dc;" horiz-adv-x="821" d="M100 1198q15 29 33 56t42.5 54.5t55 44t60.5 17.5q67 0 129 -53q3 -3 14 -13.5t16.5 -15t16 -13.5t18 -13t16.5 -7.5t17 -3.5h4q28 0 55.5 32t47.5 87l94 -61q-21 -66 -80 -119t-115 -53h-2h-8q-61 0 -121 51q-67 61 -98 67h-2q-57 0 -109 -118z" />
<glyph unicode="&#x2000;" horiz-adv-x="984" />
<glyph unicode="&#x2001;" horiz-adv-x="1968" />
<glyph unicode="&#x2002;" horiz-adv-x="984" />
<glyph unicode="&#x2003;" horiz-adv-x="1968" />
<glyph unicode="&#x2004;" horiz-adv-x="656" />
<glyph unicode="&#x2005;" horiz-adv-x="492" />
<glyph unicode="&#x2006;" horiz-adv-x="328" />
<glyph unicode="&#x2007;" horiz-adv-x="328" />
<glyph unicode="&#x2008;" horiz-adv-x="246" />
<glyph unicode="&#x2009;" horiz-adv-x="393" />
<glyph unicode="&#x200a;" horiz-adv-x="109" />
<glyph unicode="&#x2010;" horiz-adv-x="665" d="M141 389v135h383v-135h-383z" />
<glyph unicode="&#x2011;" horiz-adv-x="665" d="M141 389v135h383v-135h-383z" />
<glyph unicode="&#x2012;" horiz-adv-x="665" d="M141 389v135h383v-135h-383z" />
<glyph unicode="&#x2013;" horiz-adv-x="1024" d="M141 389v135h742v-135h-742z" />
<glyph unicode="&#x2014;" horiz-adv-x="2048" d="M141 389v135h1766v-135h-1766z" />
<glyph unicode="&#x2018;" horiz-adv-x="436" d="M113 1030v141l108 263h101l-52 -263v-141h-157z" />
<glyph unicode="&#x2019;" horiz-adv-x="436" d="M113 1047l51 262v125h155v-125l-106 -262h-100z" />
<glyph unicode="&#x201a;" horiz-adv-x="438" d="M111 -193l49 256v142h159v-142l-110 -256h-98z" />
<glyph unicode="&#x201c;" horiz-adv-x="724" d="M113 1030v141l116 263h109l-55 -263v-141h-170zM387 1030v141l119 263h106l-55 -263v-141h-170z" />
<glyph unicode="&#x201d;" horiz-adv-x="727" d="M109 1030l53 262v142h170v-142l-115 -262h-108zM385 1030l53 262v142h170v-142l-112 -262h-111z" />
<glyph unicode="&#x201e;" horiz-adv-x="729" d="M109 -193l53 256v142h170v-142l-117 -256h-106zM385 -193l53 256v142h172v-142l-114 -256h-111z" />
<glyph unicode="&#x2022;" horiz-adv-x="768" d="M113 578q0 108 80.5 187t185.5 79t186.5 -78t81.5 -188q0 -109 -82.5 -190t-189.5 -81q-100 0 -181 79.5t-81 191.5z" />
<glyph unicode="&#x2026;" horiz-adv-x="1265" d="M117 78q0 43 25 73.5t61 30.5q37 0 63.5 -30.5t26.5 -73.5t-26.5 -73t-63.5 -30t-61.5 30t-24.5 73zM539 78q0 43 25 73.5t61 30.5q37 0 63.5 -30.5t26.5 -73.5t-26.5 -73t-63.5 -30t-61.5 30t-24.5 73zM961 78q0 43 25 73.5t61 30.5q37 0 63.5 -30.5t26.5 -73.5 t-26.5 -73t-63.5 -30t-61.5 30t-24.5 73z" />
<glyph unicode="&#x202f;" horiz-adv-x="393" />
<glyph unicode="&#x2039;" horiz-adv-x="507" d="M59 455v67l334 344v-157l-190 -220l190 -221v-153z" />
<glyph unicode="&#x203a;" horiz-adv-x="507" d="M115 115v153l194 221l-194 220v157l334 -344v-67z" />
<glyph unicode="&#x205f;" horiz-adv-x="492" />
<glyph unicode="&#x20ac;" horiz-adv-x="909" d="M43 465l41 113h94q-4 82 -4 116q0 50 4 70h-135l41 108h104q31 233 141 364.5t277 131.5q143 0 268 -125l-79 -104q-81 84 -183 84t-168 -89.5t-88 -261.5h398l-45 -108h-367q-6 -44 -6 -82q0 -48 6 -104h311l-47 -113h-250q20 -168 86 -259t170 -91q91 0 162 71l98 -90 q-122 -119 -266 -119q-167 0 -276.5 126.5t-141.5 361.5h-145z" />
<glyph unicode="&#x2122;" horiz-adv-x="1302" d="M61 1346v88h433v-88h-170v-435h-95v435h-168zM588 911v523h145l146 -232l139 232h143v-523h-96v435l-162 -271h-47l-170 271v-435h-98z" />
<glyph unicode="&#x25fc;" horiz-adv-x="921" d="M0 0v922h922v-922h-922z" />
</font>
</defs>
</svg>
