<?xml version="1.0" standalone="no"?>
<!DOCTYPE svg PUBLIC "-//W3C//DTD SVG 1.1//EN" "http://www.w3.org/Graphics/SVG/1.1/DTD/svg11.dtd" >
<svg xmlns="http://www.w3.org/2000/svg">
<metadata></metadata>
<defs>
<font id="universalis_adf_stditalic" horiz-adv-x="1077" >
<font-face units-per-em="2048" ascent="1536" descent="-512" />
<missing-glyph horiz-adv-x="614" />
<glyph unicode="AE" horiz-adv-x="1761" d="M10 0l883 1456l2 -22h631l30 -150h-630l63 -366h635l27 -150h-627l104 -623h586l27 -145h-758l-61 371h-525l-219 -371h-168zM489 518h412l-94 533z" />
<glyph unicode="ae" horiz-adv-x="1667" d="M129 193q0 38 8 71q68 314 492 314h217l4 14q6 27 6 51q0 78 -59.5 122t-169.5 44q-148 -5 -254 -88l-41 119q169 98 340 98q72 0 119.5 -7.5t84 -30t58 -45t59.5 -69.5q78 66 169 109t177 43h11h8q161 0 247.5 -91t86.5 -251q0 -44 -6 -90l-11 -51q-2 -2 -2 -4h-708 q-9 -43 -9 -84q0 -114 63 -187.5t167 -73.5h16q166 0 299 127l78 -86q-78 -82 -189 -125t-235 -45q-73 1 -128.5 17.5t-92 47.5t-59.5 68.5t-39 86.5q-57 -104 -163.5 -160.5t-258.5 -56.5q-137 0 -211 54.5t-74 158.5zM295 231q0 -63 43.5 -98t122.5 -35q128 0 225 89.5 t129 238.5l4 25h-153q-189 0 -267 -38t-100 -139q-4 -14 -4 -43zM1010 580h534v18q0 107 -61 158t-160 51q-91 0 -185 -74t-128 -153z" />
<glyph unicode="OE" horiz-adv-x="2136" d="M205 502q0 98 24 209q72 338 299.5 541.5t530.5 203.5q164 0 283 -64t184 -184l47 226h792l-30 -150h-635l-78 -366h635l-33 -150h-635l-131 -623h651l-30 -145h-809l45 213q-111 -115 -257.5 -176.5t-314.5 -61.5q-254 0 -396 140t-142 387zM356 537q0 -202 112 -318.5 t302 -116.5q220 0 396 148t243 412l18 88q13 76 13 137q0 202 -110 318t-300 116q-148 0 -280.5 -71t-232.5 -211.5t-140 -327.5q-21 -107 -21 -174z" />
<glyph unicode="oe" horiz-adv-x="1812" d="M172 350q0 59 10 103q44 203 210.5 344t359.5 141q123 0 206.5 -57.5t122.5 -163.5q82 106 193 163.5t237 57.5h9q161 0 247 -91t86 -251q0 -44 -6 -90l-10 -51q-2 -2 -2 -4h-719q-8 -36 -8 -78q0 -115 67 -191t173 -76h16q166 0 299 127l78 -86q-78 -82 -189 -125 t-235 -45q-125 0 -214 62.5t-128 169.5q-86 -109 -195.5 -170.5t-232.5 -61.5q-166 0 -270.5 104.5t-104.5 268.5zM338 373q0 -115 67 -191t173 -76q124 0 233.5 102t138.5 245q8 39 8 84q0 116 -64.5 193t-168.5 77q-125 0 -236.5 -105t-142.5 -249q-8 -36 -8 -80z M1161 580h545v18q0 107 -61 158t-160 51q-92 0 -191.5 -74.5t-132.5 -152.5z" />
<glyph unicode="&#xfb01;" horiz-adv-x="1081" d="M205 0l170 801h-148l25 117h147l60 286q33 156 125.5 243.5t240.5 88.5h158l-27 -125h-149q-81 0 -123 -47t-66 -141l-63 -305h580l-195 -918h-154l170 801h-426l-170 -801h-155zM1030 1255q0 15 2 23q9 43 45.5 73.5t79.5 30.5q37 0 60.5 -23.5t23.5 -58.5q0 -14 -2 -22 q-9 -43 -45.5 -72.5t-79.5 -29.5q-37 0 -60.5 22t-23.5 57z" />
<glyph unicode="&#xfb02;" horiz-adv-x="1081" d="M205 0l170 801h-148l25 117h147l60 278q33 160 127 248.5t250 91.5h430l-326 -1536h-154l299 1409h-278q-81 0 -124 -50.5t-67 -146.5l-61 -294h174l-24 -117h-175l-170 -801h-155z" />
<glyph unicode="&#xfb03;" horiz-adv-x="1609" d="M188 0l170 801h-147l25 117h147l59 282q72 330 377 336h146l-27 -127h-147q-81 0 -123 -48.5t-66 -143.5l-63 -299h413l60 286q33 156 125.5 243.5t240.5 88.5h158l-27 -125h-149q-81 0 -123 -47t-66 -141l-63 -305h580l-195 -918h-154l170 801h-426l-170 -801h-155 l170 801h-414l-170 -801h-156zM1583 1255q0 15 2 23q9 43 45.5 73.5t79.5 30.5q37 0 60.5 -23.5t23.5 -58.5q0 -14 -2 -22q-9 -43 -45.5 -72.5t-79.5 -29.5q-37 0 -60.5 22t-23.5 57z" />
<glyph unicode="&#xfb04;" horiz-adv-x="1656" d="M205 0l170 801h-148l25 117h147l60 282q72 330 377 336h145l-27 -127h-147q-81 0 -123 -48.5t-66 -143.5l-63 -299h420l59 278q33 160 127 248.5t250 91.5h430l-325 -1536h-154l299 1409h-279q-80 0 -123 -50.5t-67 -146.5l-62 -294h175l-25 -117h-174l-170 -801h-156 l170 801h-420l-170 -801h-155z" />
<glyph horiz-adv-x="0" />
<glyph horiz-adv-x="682" />
<glyph unicode=" "  horiz-adv-x="614" />
<glyph unicode="&#x09;" horiz-adv-x="614" />
<glyph unicode="&#xa0;" horiz-adv-x="614" />
<glyph unicode="!" horiz-adv-x="600" d="M213 55q0 15 2 23q9 43 45 73.5t78 30.5q37 0 61.5 -24.5t24.5 -59.5q0 -12 -2 -20q-9 -43 -46.5 -73t-80.5 -30q-37 0 -59.5 22.5t-22.5 57.5zM313 432l60 320l143 682h174l-143 -682l-80 -320h-154z" />
<glyph unicode="&#x22;" horiz-adv-x="743" d="M336 918l108 516h142l-109 -516h-141zM653 918l109 516h143l-108 -516h-144z" />
<glyph unicode="#" horiz-adv-x="1241" d="M106 371l29 137h295l133 301h-268l31 139h301l170 375h133l-168 -375h246l170 375h133l-168 -375h264l-31 -139h-297l-131 -301h266l-28 -137h-299l-164 -371h-137l166 371h-248l-162 -371h-137l166 371h-265zM565 508h248l131 301h-244z" />
<glyph unicode="$" horiz-adv-x="919" d="M86 121l107 115q73 -63 116 -82.5t133 -20.5l86 397q-143 25 -207.5 82t-64.5 156q0 50 10 94q64 309 402 332l51 240h84l-49 -236q123 -3 254 -111l-103 -122l-14 14t-15 14.5t-14 12t-16.5 12t-17.5 9.5t-21.5 9.5t-23 6.5t-28.5 5.5t-32 2.5l-80 -369q157 -26 232 -89 t75 -171q0 -43 -8 -82q-34 -157 -148.5 -246.5t-295.5 -99.5l-54 -250h-84l54 250q-99 0 -178.5 27.5t-149.5 99.5zM414 821q0 -50 33.5 -78t115.5 -45l76 353q-182 -14 -219 -179q-6 -27 -6 -51zM528 135q105 14 171 62t83 125q4 28 4 38q0 115 -180 148z" />
<glyph unicode="%" horiz-adv-x="1710" d="M256 963q0 21 8 67q29 136 148 234t256 98q120 0 194 -73.5t74 -188.5q0 -38 -8 -74q-29 -134 -147.5 -232t-252.5 -98q-119 0 -195.5 76.5t-76.5 190.5zM395 991q0 -67 45.5 -112t116.5 -45q79 0 149 57t87 137q4 14 4 45q0 67 -43.5 110.5t-114.5 43.5 q-82 0 -151.5 -57.5t-88.5 -139.5q-4 -28 -4 -39zM401 -27l1063 1389h129l-1063 -1389h-129zM1055 238q0 21 8 67q29 135 146.5 232.5t252.5 97.5q121 0 197 -74.5t76 -189.5q0 -14 -9 -70q-29 -133 -148 -230.5t-253 -97.5q-119 0 -194.5 75.5t-75.5 189.5zM1192 266 q0 -68 46 -112.5t116 -44.5q79 0 149.5 57t87.5 135q4 28 4 41q0 68 -45 113t-116 45q-80 0 -150.5 -58t-87.5 -137q-4 -28 -4 -39z" />
<glyph unicode="&#x26;" horiz-adv-x="1230" d="M152 281q0 51 12 106q27 129 116 217.5t216 118.5q-177 49 -177 219q0 36 9 76q35 163 167 256.5t322 93.5q45 0 107 -16.5t114 -44.5l-102 -150q-26 22 -39 31.5t-38.5 19t-55.5 9.5q-128 0 -207.5 -58.5t-101.5 -161.5q-7 -32 -7 -51q0 -74 57.5 -113.5t162.5 -39.5h51 l-33 -152h-45q-139 0 -230 -67.5t-116 -186.5q-8 -33 -8 -68q0 -95 70.5 -144.5t205.5 -49.5q106 0 175 7t126 32l135 637h-127l25 117h127l49 237h156l-49 -237h127l-25 -117h-127l-170 -801h-156v6q-174 -29 -301 -29q-202 0 -308.5 78t-106.5 226z" />
<glyph unicode="'" horiz-adv-x="477" d="M305 1059l285 401l106 -74l-327 -374z" />
<glyph unicode="(" horiz-adv-x="516" d="M176 301q0 129 29 277q83 388 428 823h135q-314 -429 -397 -823q-35 -169 -35 -328q0 -248 84 -490h-135q-109 269 -109 541z" />
<glyph unicode=")" horiz-adv-x="520" d="M-6 -240q305 397 393 818q37 164 37 331q0 245 -82 492h135q107 -281 107 -545q0 -135 -31 -278q-83 -406 -424 -818h-135z" />
<glyph unicode="*" horiz-adv-x="745" d="M283 1014l270 141l-211 139l53 74l193 -147l57 270h80l-57 -270l256 147l24 -74l-274 -139l215 -141l-55 -70l-193 146l-59 -273h-80l59 273l-256 -146z" />
<glyph unicode="+" horiz-adv-x="882" d="M166 496v155h319v348h144v-348h325v-155h-325v-349h-144v349h-319z" />
<glyph unicode="," horiz-adv-x="438" d="M8 -256l285 401l106 -73l-329 -375z" />
<glyph unicode="-" horiz-adv-x="735" d="M223 389l29 135h453l-29 -135h-453z" />
<glyph unicode="." horiz-adv-x="446" d="M127 55q0 15 2 23q9 43 45 73.5t78 30.5q37 0 61.5 -24.5t24.5 -59.5q0 -12 -2 -20q-9 -43 -46.5 -73t-80.5 -30q-37 0 -59.5 22.5t-22.5 57.5z" />
<glyph unicode="/" horiz-adv-x="716" d="M-12 -168l870 1704h146l-871 -1704h-145z" />
<glyph unicode="0" horiz-adv-x="1198" d="M272 381q0 137 41 330q78 364 229 554.5t363 190.5q154 0 235 -105.5t81 -310.5q0 -148 -39 -329q-76 -362 -228 -549t-364 -187q-156 0 -237 102.5t-81 303.5zM420 387q0 -291 194 -291q287 0 416 615q41 185 41 327q0 287 -194 287q-285 0 -416 -614q-41 -196 -41 -324 z" />
<glyph unicode="1" horiz-adv-x="651" d="M272 0l269 1272h-203l106 162h295l-303 -1434h-164z" />
<glyph unicode="2" horiz-adv-x="1040" d="M113 0l30 147l602 560q108 115 157.5 187t66.5 148q6 35 6 66q0 95 -58 154t-159 59h-4q-90 0 -165 -53.5t-95 -122.5h-146q29 127 158 217.5t276 95.5q162 0 255 -80.5t93 -222.5q0 -47 -12 -100q-43 -191 -225 -387l-563 -521h606l-31 -147h-792z" />
<glyph unicode="3" horiz-adv-x="1101" d="M145 262v27h166q5 -93 62 -143t159 -50q128 0 220.5 79t121.5 218q11 57 11 86q0 97 -55 153t-158 56l28 139q109 0 188.5 64t102.5 178q8 36 8 74q0 87 -52.5 134.5t-151.5 47.5q-97 0 -169.5 -47.5t-107.5 -136.5h-164q44 148 168 231.5t301 83.5q154 0 242 -71 t88 -201q0 -53 -10 -97q-25 -121 -104.5 -206t-198.5 -119q94 -26 145 -96t51 -174q0 -41 -10 -99q-43 -201 -177 -309.5t-341 -108.5q-177 0 -270 72t-93 215z" />
<glyph unicode="4" horiz-adv-x="1114" d="M168 311v35l940 1112h35l-213 -997h184l-31 -150h-184l-65 -311h-158l65 311h-573zM449 461h323l115 532z" />
<glyph unicode="5" horiz-adv-x="1042" d="M115 135l104 115q86 -135 213 -141q155 0 265 91.5t143 252.5q10 44 10 96q0 117 -71.5 183.5t-200.5 66.5q-125 0 -289 -76l350 711h563l-63 -146h-437l-186 -366q59 12 121 16q173 0 271 -91.5t98 -256.5q0 -54 -17 -137q-47 -228 -199.5 -353t-381.5 -125 q-80 0 -158 39.5t-135 120.5z" />
<glyph unicode="6" horiz-adv-x="1161" d="M203 350q0 59 10 103q40 182 154 305l663 700l103 -74l-447 -469q15 7 45 15q21 8 49 8q165 0 268 -105.5t103 -269.5q0 -53 -12 -108q-43 -200 -207 -339t-357 -139q-165 0 -268.5 104.5t-103.5 268.5zM369 373q0 -115 66 -191t171 -76q126 0 236 102t139 245q8 39 8 84 q0 116 -65 193t-170 77q-124 0 -235 -105.5t-142 -248.5q-8 -36 -8 -80z" />
<glyph unicode="7" horiz-adv-x="948" d="M225 0l703 1282h-592l31 152h807l-785 -1434h-164z" />
<glyph unicode="8" horiz-adv-x="1171" d="M219 268q0 62 14 125q31 142 119 239.5t219 129.5q-78 23 -117.5 83t-39.5 148q0 49 12 101q35 170 158 266t309 96q156 0 241 -67.5t85 -196.5q0 -41 -13 -98q-27 -126 -98.5 -212.5t-187.5 -119.5q92 -26 140 -93t48 -169q0 -48 -12 -107q-43 -202 -176 -310t-342 -108 q-174 0 -266.5 73.5t-92.5 219.5zM377 307q0 -100 58.5 -155.5t166.5 -55.5q129 0 221 78.5t121 218.5q10 55 10 90q0 100 -57 154.5t-168 54.5q-130 0 -220 -77t-122 -222q-10 -52 -10 -86zM561 999q0 -87 50.5 -132.5t146.5 -45.5q114 0 192 67t103 187q10 48 10 80 q0 170 -199 170q-116 0 -192.5 -64t-102.5 -186q-8 -36 -8 -76z" />
<glyph unicode="9" horiz-adv-x="1163" d="M313 870q0 47 13 107q43 200 207.5 339.5t355.5 139.5q165 0 269 -104.5t104 -266.5q0 -46 -13 -106q-42 -188 -153 -305l-668 -701l-104 72l454 471q-45 -18 -94 -22q-164 0 -267.5 105.5t-103.5 270.5zM473 895q0 -116 65.5 -193t170.5 -77q124 0 234.5 105t141.5 249 q9 44 9 82q0 115 -65.5 189.5t-170.5 74.5q-126 0 -236 -101.5t-141 -244.5q-8 -39 -8 -84z" />
<glyph unicode=":" horiz-adv-x="444" d="M127 55q0 15 2 23q9 43 45 73.5t78 30.5q37 0 61.5 -24.5t24.5 -59.5q0 -12 -2 -20q-9 -43 -46.5 -73t-80.5 -30q-37 0 -59.5 22.5t-22.5 57.5zM270 729q0 15 2 23q7 43 43.5 73.5t79.5 30.5q38 0 62 -24.5t24 -61.5q0 -12 -2 -18q-9 -43 -46.5 -73t-80.5 -30 q-37 0 -59.5 22.5t-22.5 57.5z" />
<glyph unicode=";" horiz-adv-x="456" d="M8 -256l285 401l106 -73l-329 -375zM299 729q0 15 2 23q7 43 43.5 73.5t79.5 30.5q38 0 62 -24.5t24 -61.5q0 -12 -2 -18q-9 -43 -46.5 -73t-80.5 -30q-37 0 -59.5 22.5t-22.5 57.5z" />
<glyph unicode="&#x3c;" horiz-adv-x="1255" d="M152 455v137l1075 381v-150l-867 -301l873 -299v-149z" />
<glyph unicode="=" horiz-adv-x="1380" d="M258 621v139h1079v-139h-1079zM262 287v139h1077v-139h-1077z" />
<glyph unicode="&#x3e;" horiz-adv-x="1249" d="M229 823v150l1084 -381v-137l-1077 -381v149l864 299z" />
<glyph unicode="?" horiz-adv-x="845" d="M313 1120q25 113 93.5 191.5t148 111.5t162.5 33q122 0 191 -58.5t69 -160.5q0 -37 -4 -55q-6 -26 -19.5 -54t-28.5 -51t-40 -51t-42.5 -45.5t-47 -43t-42 -36t-40 -32t-29.5 -23.5q-11 -10 -42 -37.5t-44 -39.5t-36 -35t-34 -37.5t-22 -33t-14 -34.5q-9 -27 -9 -49 q0 -32 15 -51t43 -19h6h16q37 0 64.5 20t46.5 74h110q-24 -101 -96.5 -167t-173.5 -66h-8q-76 3 -131.5 57t-55.5 135q0 25 5 45q11 53 38 102t68 93t79.5 77.5t92.5 73.5q182 142 201 215q4 16 4 43q0 93 -135 93q-68 0 -123.5 -49t-79.5 -136h-156zM340 53q0 15 2 23 q9 43 45.5 73.5t79.5 30.5q37 0 60.5 -23.5t23.5 -58.5q0 -14 -2 -22q-9 -43 -45.5 -73t-79.5 -30q-37 0 -60.5 22.5t-23.5 57.5z" />
<glyph unicode="@" horiz-adv-x="1624" d="M182 459v4q0 165 61.5 310t165 245t243 157.5t292.5 57.5q141 0 272.5 -52t230 -140.5t158 -216t60.5 -269.5q0 -225 -133 -354t-367 -135v133q-94 -131 -264 -131q-144 0 -236 108.5t-92 284.5q0 166 89.5 273.5t232.5 107.5q178 0 272 -131v112h117v-630 q123 20 192 115.5t70 248.5q-1 126 -53 233.5t-136 179t-191 113t-220 43.5q-140 0 -262 -54.5t-205.5 -145.5t-131.5 -211.5t-48 -251.5q0 -184 86 -335.5t232.5 -237t320.5 -85.5q106 0 211.5 44t196.5 118l75 -94q-203 -168 -481 -174q-134 0 -254 40.5t-210.5 112.5 t-157 167t-101 208t-35.5 232zM707 455q0 -120 59.5 -191t165.5 -71q100 0 160.5 70.5t60.5 191.5q-3 120 -63.5 190t-161.5 70q-100 0 -160.5 -68t-60.5 -192z" />
<glyph unicode="A" horiz-adv-x="1171" d="M10 0l883 1456l268 -1456h-168l-61 371h-535l-219 -371h-168zM489 518h412l-94 533z" />
<glyph unicode="B" horiz-adv-x="1116" d="M141 0l303 1434h435q161 0 250.5 -69t89.5 -196q0 -29 -11 -86q-59 -268 -286 -307q99 -26 152.5 -96.5t53.5 -177.5q0 -52 -12 -107q-41 -192 -176 -293.5t-346 -101.5h-453zM326 137h286q146 0 232.5 68t116.5 213q10 55 10 88q0 192 -240 192h-287zM473 836h266 q132 0 210 54t104 173q8 46 8 63q0 160 -223 166h-267z" />
<glyph unicode="C" horiz-adv-x="1161" d="M207 475q0 113 26 234q73 345 282 546t493 201q216 0 370 -129l-104 -113q-122 107 -285 107q-222 0 -378 -158t-218 -454q-26 -133 -26 -224q0 -187 91 -284t271 -97q166 0 320 99l65 -107q-193 -123 -422 -123q-232 0 -358.5 131.5t-126.5 370.5z" />
<glyph unicode="D" horiz-adv-x="1286" d="M141 0l305 1440h351q296 0 439.5 -113.5t143.5 -355.5q0 -111 -30 -252q-78 -372 -285.5 -545.5t-572.5 -173.5h-351zM328 137h217q270 0 426 141t219 441q24 120 24 213q0 188 -103 277t-320 89h-218z" />
<glyph unicode="E" horiz-adv-x="1007" d="M141 0l303 1434h793l-31 -150h-635l-77 -366h634l-32 -150h-635l-131 -623h651l-31 -145h-809z" />
<glyph unicode="F" horiz-adv-x="909" d="M141 0l303 1434h719l-30 -150h-562l-77 -366h561l-33 -148h-561l-162 -770h-158z" />
<glyph unicode="G" horiz-adv-x="1282" d="M209 475q0 108 27 240q75 352 283 546.5t503 194.5q234 0 403 -125l-110 -121q-129 111 -309 111q-239 0 -394 -151t-219 -455q-26 -118 -26 -223q0 -377 381 -377q199 0 317 69l86 410h-281l31 143h436l-133 -622q-225 -140 -497 -140q-241 0 -369.5 129t-128.5 371z " />
<glyph unicode="H" horiz-adv-x="1241" d="M141 0l303 1434h156l-125 -592h645l125 592h158l-303 -1434h-158l145 692h-645l-145 -692h-156z" />
<glyph unicode="I" horiz-adv-x="440" d="M141 0l303 1434h158l-303 -1434h-158z" />
<glyph unicode="J" horiz-adv-x="571" d="M6 -25l31 142h45q124 0 190 76t105 268l207 973h157l-206 -973q-53 -251 -164 -368.5t-303 -117.5h-62z" />
<glyph unicode="K" horiz-adv-x="1140" d="M141 0l303 1434h160l-131 -619l717 619h207l-781 -666l523 -768h-211l-479 702l-148 -702h-160z" />
<glyph unicode="L" horiz-adv-x="931" d="M141 0l303 1434h158l-272 -1289h622l-30 -145h-781z" />
<glyph unicode="M" horiz-adv-x="1581" d="M29 0l696 1434h10l144 -1018l577 1018h12l82 -1434h-168l-57 942l-539 -942l-135 942l-454 -942h-168z" />
<glyph unicode="N" horiz-adv-x="1232" d="M141 0l305 1434h15l565 -1004l213 1004h156l-305 -1434h-17l-565 995l-211 -995h-156z" />
<glyph unicode="O" horiz-adv-x="1533" d="M221 502q0 93 25 209q72 338 299 541.5t530 203.5q248 0 389.5 -143t141.5 -393q0 -103 -23 -209q-71 -338 -293 -537t-530 -199q-254 0 -396.5 140t-142.5 387zM373 537q0 -202 111.5 -318.5t301.5 -116.5q227 0 409 164.5t241 444.5q20 90 20 176q0 202 -110 318 t-299 116q-148 0 -281 -71t-233 -211.5t-140 -327.5q-20 -102 -20 -174z" />
<glyph unicode="P" horiz-adv-x="1007" d="M141 0l303 1434h369q369 0 369 -289q0 -55 -15 -123q-44 -204 -179 -306t-349 -102h-211l-129 -614h-158zM459 752h211q130 0 220 67.5t120 202.5q8 39 8 78q0 186 -234 192h-211z" />
<glyph unicode="Q" horiz-adv-x="1501" d="M205 502q0 98 24 209q72 338 299.5 541.5t530.5 203.5q248 0 389 -143t141 -393q0 -107 -22 -209q-68 -317 -269 -512l119 -199h-168l-61 106q-198 -131 -445 -131q-254 0 -396 140t-142 387zM356 537q0 -202 112 -318.5t302 -116.5t350 117l-159 273h167l101 -175 q141 157 190 394q21 95 21 176q0 202 -110 318t-300 116q-148 0 -280.5 -71t-232.5 -211.5t-140 -327.5q-21 -107 -21 -174z" />
<glyph unicode="R" horiz-adv-x="1021" d="M141 0l303 1434h369h6q162 0 249 -70.5t87 -212.5q0 -61 -14 -121q-47 -172 -135.5 -261t-219.5 -126l191 -643h-170l-191 614h-188l-129 -614h-158zM459 758h211q130 0 211.5 69.5t109.5 202.5q10 52 10 82q0 174 -217 180h-211z" />
<glyph unicode="S" horiz-adv-x="1024" d="M104 131l129 127q107 -135 267 -145q153 0 250.5 64t126.5 194q8 39 8 78q0 53 -18.5 90t-63 60.5t-75.5 33.5t-100 27l-24 6q-151 36 -221 101.5t-70 178.5q0 44 13 107q39 187 175 295t341 108q119 -1 199 -45t141 -129l-123 -115q-50 80 -98 117t-127 37 q-298 0 -355 -258q-6 -30 -6 -55q0 -28 9 -51.5t20.5 -40.5t36 -32.5t41 -24.5t51.5 -20t52 -15.5t57 -14.5q11 -3 16 -4q149 -36 222 -110.5t73 -196.5q0 -44 -13 -111q-44 -204 -188 -308t-379 -104q-92 0 -195.5 42.5t-171.5 113.5z" />
<glyph unicode="T" horiz-adv-x="1062" d="M293 1284l31 150h1022l-31 -150h-432l-273 -1284h-155l272 1284h-434z" />
<glyph unicode="U" horiz-adv-x="1220" d="M219 336q0 76 23 194l190 904h158l-187 -879q-26 -130 -26 -205q0 -129 62 -189.5t194 -60.5q171 0 272 108t152 347l186 879h152l-191 -904q-120 -555 -598 -555q-387 0 -387 361z" />
<glyph unicode="V" horiz-adv-x="1191" d="M326 1434h163l193 -1035l631 1035h162l-877 -1454h-20z" />
<glyph unicode="W" horiz-adv-x="1597" d="M342 1434h168l57 -926l533 926l141 -926l455 926h168l-701 -1454h-16l-137 1019l-578 -1019h-16z" />
<glyph unicode="X" horiz-adv-x="1114" d="M12 0l621 764l-256 670h168l209 -545l440 545h172l-561 -691l285 -743h-168l-238 618l-500 -618h-172z" />
<glyph unicode="Y" horiz-adv-x="1075" d="M311 1434h172l234 -598l485 598h168l-610 -746l-146 -688h-153l145 688z" />
<glyph unicode="Z" horiz-adv-x="1087" d="M31 0l1009 1282h-718l30 152h985l-1011 -1289h757l-30 -145h-1022z" />
<glyph unicode="[" horiz-adv-x="550" d="M86 -256l358 1690h359l-27 -129h-203l-305 -1432h203l-27 -129h-358z" />
<glyph unicode="\" horiz-adv-x="634" d="M285 1223h143l147 -1377h-145z" />
<glyph unicode="]" horiz-adv-x="548" d="M-4 -256l27 129h202l305 1432h-202l26 129h357l-359 -1690h-356z" />
<glyph unicode="^" horiz-adv-x="1169" d="M215 766l451 457h165l461 -457h-170l-368 334l-373 -334h-166z" />
<glyph unicode="_" horiz-adv-x="880" d="M-94 -393l24 117h895l-24 -117h-895z" />
<glyph unicode="`" horiz-adv-x="532" d="M63 1382l125 76l224 -321l-82 -62z" />
<glyph unicode="a" d="M174 311q0 62 16 144q46 216 182 349.5t308 133.5q207 0 266 -162l31 142h153l-194 -918h-154l27 133q-123 -153 -334 -153q-140 0 -220.5 88.5t-80.5 242.5zM336 328q0 -109 51.5 -169.5t149.5 -60.5q124 0 215.5 96t126.5 261q14 75 14 120q0 111 -53 173.5t-152 62.5 q-122 0 -212.5 -94t-125.5 -262q-14 -63 -14 -127z" />
<glyph unicode="b" horiz-adv-x="1081" d="M141 0l326 1536h156l-162 -760q131 162 334 162q140 0 219.5 -91t79.5 -247q0 -58 -17 -145q-46 -213 -180 -344t-307 -131q-104 0 -167 35t-99 118l-27 -133h-156zM379 330q0 -109 52 -170.5t151 -61.5q121 0 212 96t126 261q14 75 14 120q0 111 -52.5 173.5 t-148.5 62.5q-122 0 -213.5 -94t-126.5 -262q-14 -63 -14 -125z" />
<glyph unicode="c" horiz-adv-x="907" d="M170 350q0 59 10 103q44 203 210.5 344t359.5 141h16q75 0 145 -27.5t119 -83.5l-127 -114q-68 94 -180 94q-125 0 -236.5 -105t-142.5 -249q-8 -36 -8 -80q0 -115 66.5 -191t172.5 -76q115 0 220 91l75 -121q-176 -101 -297 -101q-5 0 -14 1t-14 1q-166 0 -270.5 104.5 t-104.5 268.5z" />
<glyph unicode="d" d="M174 311q0 62 16 144q46 216 182 349.5t308 133.5q207 0 266 -162l162 760h154l-326 -1536h-154l27 133q-123 -153 -334 -153q-140 0 -220.5 88.5t-80.5 242.5zM336 328q0 -109 51.5 -169.5t149.5 -60.5q124 0 215.5 96t126.5 261q14 75 14 120q0 111 -53 173.5 t-152 62.5q-122 0 -212.5 -94t-125.5 -262q-14 -63 -14 -127z" />
<glyph unicode="e" horiz-adv-x="1032" d="M174 348q0 61 10 105q29 134 112 245.5t200 175.5t243 64h9q161 0 247 -91t86 -251q0 -44 -6 -90l-10 -51q-2 -2 -2 -4h-719q-8 -36 -8 -78q0 -115 66.5 -191t172.5 -76h17q166 0 299 127l78 -86q-78 -82 -189 -125t-235 -45q-165 0 -268 104.5t-103 266.5zM389 580h545 v18q0 107 -61 158t-160 51q-92 0 -191.5 -74.5t-132.5 -152.5z" />
<glyph unicode="f" horiz-adv-x="579" d="M205 0l170 801h-148l25 117h147l60 282q72 330 377 336h145l-27 -127h-147q-81 0 -123 -48.5t-66 -143.5l-63 -299h170l-25 -117h-170l-170 -801h-155z" />
<glyph unicode="g" d="M68 -322l135 101q24 -53 78 -84t127 -31q303 0 366 305l41 191q-123 -160 -334 -160q-141 0 -222 89t-81 243q0 64 15 137q45 208 179 338.5t308 130.5q104 0 169 -39t97 -123l31 142h153l-194 -918q-50 -231 -181 -346t-352 -115h-24q-100 0 -185 35.5t-126 103.5z M340 344q0 -107 51 -164t150 -57q126 0 215.5 91t124.5 255q14 75 14 119q0 107 -52.5 165t-154.5 58q-122 0 -210.5 -89.5t-123.5 -252.5q-14 -63 -14 -125z" />
<glyph unicode="h" horiz-adv-x="1058" d="M141 0l326 1536h156l-162 -764q144 166 338 166q129 0 195.5 -64t66.5 -190q0 -62 -14 -131l-117 -553h-156l115 547q12 55 12 98q0 159 -166 162q-125 0 -210.5 -76.5t-118.5 -214.5l-109 -516h-156z" />
<glyph unicode="i" horiz-adv-x="438" d="M141 0l195 918h156l-195 -918h-156zM385 1255q0 15 2 23q9 43 45.5 73.5t79.5 30.5q37 0 60.5 -23.5t23.5 -58.5q0 -14 -2 -22q-9 -43 -45.5 -72.5t-79.5 -29.5q-37 0 -60.5 22t-23.5 57z" />
<glyph unicode="j" horiz-adv-x="438" d="M43 -461l293 1379h156l-293 -1379h-156zM385 1255q0 15 2 23q9 43 45.5 73.5t79.5 30.5q37 0 60.5 -23.5t23.5 -58.5q0 -14 -2 -22q-9 -43 -45.5 -72.5t-79.5 -29.5q-37 0 -60.5 22t-23.5 57z" />
<glyph unicode="k" horiz-adv-x="1001" d="M141 0l326 1536h156l-217 -1018l546 400h197l-592 -433l420 -485h-203l-383 446l-94 -446h-156z" />
<glyph unicode="l" horiz-adv-x="438" d="M141 0l326 1536h156l-326 -1536h-156z" />
<glyph unicode="m" horiz-adv-x="1644" d="M141 0l195 918h156l-31 -146q73 86 153 126t183 40q204 0 239 -199q152 199 369 199q119 0 181.5 -64.5t62.5 -187.5q0 -50 -17 -133l-116 -553h-156l115 547q12 58 12 104q0 156 -152 156q-120 0 -204.5 -77t-116.5 -214l-109 -516h-153l114 547q13 63 13 104 q0 156 -154 156q-119 0 -203.5 -78.5t-115.5 -212.5l-109 -516h-156z" />
<glyph unicode="n" horiz-adv-x="1058" d="M141 0l195 918h156l-31 -146q144 166 338 166q129 0 195.5 -64t66.5 -190q0 -62 -14 -131l-117 -553h-156l115 547q12 55 12 98q0 159 -166 162q-125 0 -210.5 -76.5t-118.5 -214.5l-109 -516h-156z" />
<glyph unicode="o" horiz-adv-x="1101" d="M170 350q0 59 10 103q44 203 210.5 344t359.5 141q163 0 265.5 -105.5t102.5 -269.5q0 -53 -12 -108q-43 -200 -206.5 -339t-354.5 -139q-166 0 -270.5 104.5t-104.5 268.5zM336 373q0 -115 66.5 -191t172.5 -76q124 0 234 102t139 245q8 39 8 84q0 116 -64.5 193 t-168.5 77q-125 0 -236.5 -105t-142.5 -249q-8 -36 -8 -80z" />
<glyph unicode="p" horiz-adv-x="1081" d="M43 -461l293 1379h156l-31 -142q131 162 334 162q140 0 219.5 -91t79.5 -247q0 -58 -17 -145q-46 -213 -180 -344t-307 -131q-104 0 -167 35t-99 118l-125 -594h-156zM379 330q0 -109 52 -170.5t151 -61.5q121 0 212 96t126 261q14 75 14 120q0 111 -52.5 173.5 t-148.5 62.5q-122 0 -213.5 -94t-126.5 -262q-14 -63 -14 -125z" />
<glyph unicode="q" d="M174 311q0 62 16 144q46 216 182 349.5t308 133.5q207 0 266 -162l31 142h153l-292 -1379h-154l125 594q-127 -158 -334 -158q-139 0 -220 90.5t-81 245.5zM336 328q0 -109 51.5 -169.5t149.5 -60.5q124 0 215.5 96t126.5 261q14 75 14 120q0 111 -53 173.5t-152 62.5 q-122 0 -212.5 -94t-125.5 -262q-14 -63 -14 -127z" />
<glyph unicode="r" horiz-adv-x="745" d="M141 0l195 918h156l-31 -146q129 166 352 166q17 0 48.5 -8t53.5 -21l-84 -139h-2q-49 35 -86 35h-6q-131 0 -217 -83.5t-123 -240.5l-100 -481h-156z" />
<glyph unicode="s" horiz-adv-x="841" d="M111 123l133 96q29 -55 78 -84t108 -29q106 0 153 23.5t64 91.5q6 24 6 43q0 22 -8 38.5t-19 27.5t-34.5 21t-42 16t-55.5 16q-123 36 -181.5 85.5t-58.5 133.5q0 33 4 51q28 128 133.5 206.5t255.5 78.5q146 0 254 -119l-110 -100q-39 45 -79.5 67.5t-99.5 22.5 q-79 0 -137.5 -40t-73.5 -110q0 -3 -1 -8.5t-1 -7.5q0 -53 49 -82t134 -47q235 -64 235 -215q0 -25 -6 -49q-27 -130 -131.5 -201.5t-282.5 -71.5q-87 0 -166.5 39t-119.5 107z" />
<glyph unicode="t" horiz-adv-x="534" d="M190 0l170 801h-127l25 117h127l76 362h153l-75 -362h127l-25 -117h-127l-170 -801h-154z" />
<glyph unicode="u" horiz-adv-x="1044" d="M195 262q0 54 10 98l119 558h151l-117 -551q-10 -48 -10 -78q0 -89 53.5 -136t145.5 -47q124 0 193 66.5t104 222.5l110 523h156l-119 -558q-38 -177 -163.5 -280t-299.5 -103h-10q-145 0 -234 74t-89 211z" />
<glyph unicode="v" horiz-adv-x="987" d="M227 918h170l158 -625l424 625h172l-655 -938h-27z" />
<glyph unicode="w" horiz-adv-x="1429" d="M233 918h170l140 -588l364 588l123 -588l387 588h174l-628 -938h-25l-107 587l-358 -587h-22z" />
<glyph unicode="x" horiz-adv-x="989" d="M35 0l465 479l-236 439h180l179 -330l321 330h180l-436 -449l258 -469h-182l-195 358l-352 -358h-182z" />
<glyph unicode="y" horiz-adv-x="1107" d="M98 -322l135 101q24 -53 78 -84t127 -31q304 0 367 305l33 154q-60 -79 -142 -112.5t-190 -33.5q-138 0 -218.5 95.5t-80.5 253.5q0 65 16 143l96 449h162l-96 -449q-14 -63 -14 -125q0 -107 50.5 -165t149.5 -58q126 0 215.5 92t124.5 256l97 449h153l-196 -920 q-95 -459 -531 -459h-22q-100 0 -186.5 36.5t-127.5 102.5z" />
<glyph unicode="z" horiz-adv-x="899" d="M72 0l26 133l721 664h-561l27 121h733l-31 -140l-719 -659h580l-25 -119h-751z" />
<glyph unicode="{" horiz-adv-x="729" d="M123 483l27 131h55q118 0 174.5 51.5t85.5 186.5l45 217q30 137 73.5 206t123.5 98.5t227 29.5h51l-27 -129h-57q-118 0 -161.5 -38t-75.5 -171l-48 -223q-31 -144 -81.5 -207.5t-149.5 -85.5q65 -19 94 -56t29 -104q0 -48 -16 -133l-48 -225q-14 -72 -14 -101 q0 -56 36 -77t128 -21h57l-26 -129h-52q-169 0 -236 37.5t-67 142.5q0 56 19 146l47 217q14 72 14 106q0 69 -40 100t-132 31h-55z" />
<glyph unicode="|" horiz-adv-x="577" d="M334 -307v1741h141v-1741h-141z" />
<glyph unicode="}" horiz-adv-x="727" d="M-23 -297l27 129h59q118 0 162 38t70 161l47 225q30 139 80.5 202.5t148.5 90.5q-63 15 -91.5 52t-28.5 106q0 62 16 135l47 223q16 72 16 109q0 58 -35 79t-124 21h-60l27 129h53q166 0 232.5 -38.5t66.5 -141.5q0 -52 -20 -154l-45 -217q-15 -81 -15 -107 q0 -71 40.5 -101t133.5 -30h50l-27 -131h-49q-120 0 -176.5 -49.5t-85.5 -187.5l-47 -217q-17 -81 -38 -134t-51 -92.5t-76 -60t-105.5 -30t-147.5 -9.5h-54z" />
<glyph unicode="~" horiz-adv-x="1290" d="M176 381l31 145q103 64 183 92.5t165 28.5q114 0 215 -53q108 -57 213 -57q145 0 332 133l-33 -150q-98 -63 -178.5 -90t-167.5 -29q-109 0 -219 52q-50 30 -108.5 44.5t-102.5 14.5q-145 0 -330 -131z" />
<glyph unicode="&#xa1;" horiz-adv-x="595" d="M213 0l139 657l82 338h150l-62 -338l-139 -657h-170zM483 1327q0 15 2 23q9 43 45 73.5t78 30.5q37 0 61.5 -24.5t24.5 -59.5q0 -12 -2 -20q-9 -43 -46.5 -73t-80.5 -30q-37 0 -59.5 22.5t-22.5 57.5z" />
<glyph unicode="&#xa2;" horiz-adv-x="866" d="M143 317q0 55 17 138q45 214 179.5 339t346.5 142l49 238h84l-49 -238q137 -7 223 -55l-30 -142q-111 67 -222 70l-149 -709q122 6 250 72l-29 -141q-104 -41 -248 -51l-49 -234h-84l51 238q-164 11 -252 96.5t-88 236.5zM309 342q0 -102 50.5 -164t148.5 -74l149 703 q-127 -13 -215 -106t-120 -246q-13 -67 -13 -113z" />
<glyph unicode="&#xa3;" horiz-adv-x="929" d="M49 0l31 150h199l90 419h-166l26 131h166l45 213q52 236 163.5 345.5t307.5 109.5q100 -3 174 -48.5t103 -123.5l-113 -102q-27 40 -39 56t-34.5 37t-47 28t-59.5 8q-83 0 -135.5 -28t-90.5 -99.5t-65 -202.5l-41 -193h322l-27 -131h-321l-91 -419h467l-30 -150h-834z " />
<glyph unicode="&#xa4;" horiz-adv-x="1175" d="M236 975l94 102l174 -186q91 67 198 67q106 0 201 -65l172 188l99 -104l-177 -184q64 -104 64 -218q0 -115 -64 -213l181 -186l-97 -104l-176 186q-92 -68 -198 -68q-108 0 -203 66l-170 -186l-94 104l170 186q-64 108 -64 226q0 107 62 202zM475 578q2 -103 69 -174.5 t163 -71.5q92 0 155.5 70t63.5 171v5v4q0 95 -65 164t-159 69q-91 0 -159 -69t-68 -168z" />
<glyph unicode="&#xa5;" horiz-adv-x="1034" d="M170 406l23 110h350l10 47l-39 142h-281l23 108h223l-155 533h161l183 -635l452 635h162l-381 -533h221l-22 -108h-279l-100 -142l-10 -47h348l-23 -110h-346l-86 -406h-170l86 406h-350z" />
<glyph unicode="&#xa6;" horiz-adv-x="542" d="M289 551v623h139v-623h-139zM295 -285v617h139v-617h-139z" />
<glyph unicode="&#xa7;" horiz-adv-x="831" d="M104 -123l31 143q119 -56 227 -63q185 0 211 137q2 8 2 23q0 74 -143 180l-18 14q-129 92 -176.5 147.5t-47.5 119.5q0 23 11 69q38 173 205 256q-60 60 -60 150q0 35 4 55q25 114 125 187t240 73q135 0 246 -53l-31 -146q-131 67 -225 70q-78 0 -134 -35t-69 -102 q0 -2 -1 -7.5t-1 -7.5q0 -69 139 -169q157 -125 204.5 -176.5t47.5 -118.5q0 -18 -8 -64q-19 -82 -68.5 -143.5t-138.5 -112.5q59 -71 59 -149q0 -36 -4 -54q-26 -123 -128.5 -197.5t-246.5 -74.5q-129 0 -252 49zM336 633q0 -52 53.5 -106.5t212.5 -157.5q61 41 95 80 t44 83q4 28 4 39q0 53 -55 112t-209 159q-120 -83 -139 -164q-6 -24 -6 -45z" />
<glyph unicode="&#xa8;" horiz-adv-x="757" d="M358 1182q0 16 2 24q9 43 44.5 74t76.5 31q35 0 56.5 -22.5t21.5 -57.5q0 -17 -2 -25q-9 -43 -44.5 -73.5t-76.5 -30.5q-35 0 -56.5 22.5t-21.5 57.5zM696 1182q0 16 2 24q9 43 44.5 74t76.5 31q35 0 56.5 -22.5t21.5 -57.5q0 -17 -2 -25q-9 -43 -44.5 -73.5t-76.5 -30.5 q-35 0 -56.5 22.5t-21.5 57.5z" />
<glyph unicode="&#xa9;" horiz-adv-x="1488" d="M229 666v8q0 141 54 266t143 211t206.5 136t241.5 50q139 0 263 -55.5t210 -148t137 -214.5t52 -253v-4q0 -181 -88 -333.5t-237.5 -240.5t-325.5 -88q-180 0 -331.5 91.5t-238 244.5t-86.5 330zM317 666q1 -159 81 -292.5t210 -208.5t277 -75q159 0 289 79.5t202 211 t72 285.5q-1 130 -50.5 240t-130.5 182t-182 112.5t-208 42.5q-149 0 -278 -76.5t-205.5 -208t-76.5 -284.5v-8zM492 666v4q0 186 110 293.5t299 107.5q132 0 244 -49v-117q-96 53 -232 60q-130 0 -203 -75.5t-73 -217.5q0 -147 75 -227t212 -80q119 0 225 57v-113 q-108 -50 -242 -53q-187 0 -301 110t-114 300z" />
<glyph unicode="&#xaa;" horiz-adv-x="823" d="M205 420l24 112h578l-25 -112h-577zM268 795q0 28 6 55q53 246 369 246h154l2 4q4 16 4 45q0 119 -162 119q-109 0 -242 -62l25 115q135 51 252 51q252 0 252 -213q0 -41 -13 -104l-88 -408h-127l23 102q-48 -57 -116 -88.5t-146 -31.5q-91 0 -142 44.5t-51 125.5z M397 836q0 -46 33 -73.5t98 -27.5q86 0 153 65.5t89 166.5l6 26h-106q-132 0 -194 -29.5t-77 -99.5q-2 -10 -2 -28z" />
<glyph unicode="&#xab;" horiz-adv-x="921" d="M150 455l14 67l463 344l-33 -157l-297 -220l203 -221l-33 -153zM514 455l14 67l465 344l-32 -157l-302 -220l207 -221l-32 -153z" />
<glyph unicode="&#xac;" horiz-adv-x="1331" d="M199 565v140h1077v-472h-141v332h-936z" />
<glyph unicode="&#xad;" horiz-adv-x="735" d="M223 389l29 135h453l-29 -135h-453z" />
<glyph unicode="&#xae;" horiz-adv-x="1138" d="M295 954v9q0 105 39 198.5t104 158t150 101.5t176 37q133 0 244.5 -71.5t173 -188t61.5 -248.5q0 -206 -138.5 -350.5t-332.5 -144.5q-131 0 -241.5 68t-173 183t-62.5 248zM358 954q0 -180 123.5 -306t288.5 -126q171 0 288.5 127t117.5 301q-1 99 -36.5 182 t-93.5 137.5t-131 86t-151 33.5q-165 0 -285.5 -128t-120.5 -303v-4zM567 680v567h183q229 0 229 -162q0 -120 -129 -147q14 -3 33.5 -27.5t54.5 -79.5l88 -151h-108l-84 145q-37 61 -59.5 78.5t-61.5 20.5h-45v-244h-101zM670 989h80q67 0 97 20t30 70q0 49 -24.5 72 t-102.5 27h-80v-189z" />
<glyph unicode="&#xaf;" horiz-adv-x="784" d="M379 1126l27 123h501l-26 -123h-502z" />
<glyph unicode="&#xb0;" horiz-adv-x="690" d="M334 1067q0 26 6 53q22 101 107 173.5t186 72.5q98 0 145 -57t47 -140q0 -17 -4 -49q-21 -97 -105.5 -169t-185.5 -72q-90 0 -143 52t-53 136zM432 1092q0 -48 33 -81.5t86 -33.5q59 0 109 40t63 103q2 10 2 29q0 50 -30.5 84.5t-82.5 34.5q-60 0 -111.5 -42.5 t-64.5 -105.5q-4 -20 -4 -28z" />
<glyph unicode="&#xb1;" horiz-adv-x="1005" d="M195 651v156h315v348h143v-348h330v-156h-324v-348h-145v348h-319zM197 0v150h788v-150h-788z" />
<glyph unicode="&#xb2;" horiz-adv-x="749" d="M205 645l22 98l412 301q67 54 97.5 89t39.5 73q2 8 2 21q0 48 -41.5 78t-115.5 30q-62 0 -112.5 -27t-59.5 -61h-117q17 80 109.5 138t201.5 61q122 0 193 -49.5t71 -136.5q0 -30 -4 -46q-21 -104 -151 -217l-373 -254h430l-23 -98h-581z" />
<glyph unicode="&#xb3;" horiz-adv-x="794" d="M225 815v12h133q6 -46 48.5 -71t111.5 -25q86 0 146 36.5t73 100.5q2 10 2 27q0 52 -42 82.5t-119 30.5l22 102q78 0 130.5 30t62.5 83q2 8 2 24q0 43 -38.5 65.5t-109.5 22.5q-138 0 -182 -90h-129q29 94 119 147.5t217 53.5q118 0 185 -44.5t67 -125.5q0 -27 -4 -43 q-12 -64 -65.5 -108.5t-137.5 -63.5q72 -14 111.5 -54.5t39.5 -101.5q0 -13 -4 -37q-25 -114 -119.5 -174.5t-246.5 -60.5q-273 0 -273 182z" />
<glyph unicode="&#xb4;" horiz-adv-x="536" d="M82 1112l244 342l141 -72l-295 -338z" />
<glyph unicode="&#xb5;" horiz-adv-x="1069" d="M45 -451l291 1369h156l-123 -572q-9 -43 -9 -80q0 -162 185 -162q249 0 309 277l115 537h155l-192 -918h-158l21 102q-57 -63 -119 -92.5t-146 -29.5q-88 0 -140 28.5t-73 91.5l-116 -551h-156z" />
<glyph unicode="&#xb6;" horiz-adv-x="966" d="M242 868q0 40 10 95q37 169 169 276t312 107h377l-324 -1520h-118l301 1409h-158l-301 -1409h-121l162 756q-149 14 -229 87.5t-80 198.5z" />
<glyph unicode="&#xb7;" horiz-adv-x="526" d="M225 551q0 13 4 33q13 63 68.5 108t118.5 45q55 0 90 -34t35 -87q0 -12 -4 -32q-13 -63 -68.5 -108.5t-118.5 -45.5q-55 0 -90 34t-35 87z" />
<glyph unicode="&#xb8;" horiz-adv-x="542" d="M-6 -369l237 287h99l-217 -369z" />
<glyph unicode="&#xb9;" horiz-adv-x="473" d="M319 645l146 676h-146l78 113h221l-167 -789h-132z" />
<glyph unicode="&#xba;" horiz-adv-x="851" d="M223 420l25 112h577l-24 -112h-578zM297 885q0 49 12 108q36 172 143 273.5t261 101.5q123 0 190.5 -67t67.5 -193q0 -48 -13 -115q-37 -169 -145 -268.5t-258 -99.5q-122 0 -190 69t-68 191zM430 909q0 -81 39.5 -128.5t110.5 -47.5q88 0 155 72t92 188q11 48 11 97 q0 83 -37.5 128.5t-108.5 45.5q-89 0 -157.5 -73t-94.5 -198q-10 -52 -10 -84z" />
<glyph unicode="&#xbb;" horiz-adv-x="921" d="M133 115l33 153l301 221l-207 220l33 157l321 -344l-14 -67zM498 115l32 153l299 221l-204 220l32 157l322 -344l-14 -67z" />
<glyph unicode="&#xbc;" horiz-adv-x="1413" d="M184 -23l1037 1391h129l-1037 -1391h-129zM287 1255l78 113h221l-166 -788h-131l143 675h-145zM756 164l674 637l-115 -533h131l-21 -104h-131l-34 -164h-127l34 164h-411zM981 268h207l53 252z" />
<glyph unicode="&#xbd;" horiz-adv-x="1460" d="M174 -23l1036 1391h129l-1036 -1391h-129zM276 1255l78 113h221l-165 -788h-131l143 675h-146zM831 0l21 98l412 301q69 55 99.5 90t39.5 72q2 6 2 21q0 48 -43 78t-117 30q-62 0 -112.5 -27t-59.5 -61h-117q17 80 110.5 138t201.5 61q123 0 193.5 -49.5t70.5 -137.5 q0 -29 -4 -45q-21 -103 -152 -217l-372 -254h430l-21 -98h-582z" />
<glyph unicode="&#xbe;" horiz-adv-x="1644" d="M131 760v12h133q4 -45 47 -70.5t113 -25.5q86 0 145 36.5t72 100.5q4 20 4 29q0 51 -43 80.5t-121 29.5l23 103q78 0 130 29.5t64 82.5q2 8 2 21q0 43 -39 67.5t-110 24.5q-138 0 -182 -90h-129q29 94 118.5 147.5t216.5 53.5q118 0 186 -44.5t68 -125.5q0 -29 -4 -43 q-13 -64 -66.5 -108.5t-137.5 -63.5q73 -13 112 -54t39 -102q0 -13 -4 -37q-25 -114 -119.5 -174.5t-247.5 -60.5q-270 0 -270 182zM438 -23l1039 1391h127l-1039 -1391h-127zM987 164l672 637l-115 -533h133l-20 -104h-133l-35 -164h-127l35 164h-410zM1210 268h207l53 252 z" />
<glyph unicode="&#xbf;" horiz-adv-x="845" d="M168 197q0 15 4 51q7 34 28.5 71.5t45 66.5t60 64.5t58.5 54t57 46.5t40 33q11 10 50 44.5t53.5 48.5t39 40t36 45.5t15.5 38.5q9 24 9 47q0 32 -16 52t-44 20h-6h-16q-78 0 -111 -95h-111q26 101 99 167.5t172 66.5h8q76 -3 132 -57.5t56 -135.5q0 -29 -4 -45 q-22 -99 -93.5 -179.5t-184.5 -166.5q-185 -143 -203 -215q-4 -28 -4 -41q0 -49 32.5 -71.5t102.5 -22.5q68 0 123.5 48.5t81.5 135.5h156q-26 -113 -94.5 -191.5t-147.5 -111.5t-162 -33q-122 0 -192 60.5t-70 163.5zM594 1333q0 15 2 23q9 42 46.5 72t80.5 30 q37 0 59.5 -22.5t22.5 -57.5q0 -14 -2 -22q-9 -43 -45.5 -74t-79.5 -31q-37 0 -60.5 23.5t-23.5 58.5z" />
<glyph unicode="&#xc0;" horiz-adv-x="1171" d="M10 0l883 1456l268 -1456h-168l-61 371h-535l-219 -371h-168zM489 518h412l-94 533zM782 1866l125 76l223 -322l-81 -61z" />
<glyph unicode="&#xc1;" horiz-adv-x="1171" d="M10 0l883 1456l268 -1456h-168l-61 371h-535l-219 -371h-168zM489 518h412l-94 533zM768 1626l244 342l141 -72l-295 -337z" />
<glyph unicode="&#xc2;" horiz-adv-x="1171" d="M10 0l883 1456l268 -1456h-168l-61 371h-535l-219 -371h-168zM489 518h412l-94 533zM649 1606l266 262h136l153 -262l-121 -47l-127 188l-204 -188z" />
<glyph unicode="&#xc3;" horiz-adv-x="1171" d="M10 0l883 1456l268 -1456h-168l-61 371h-535l-219 -371h-168zM489 518h412l-94 533zM567 1620q31 40 67 75t88 65.5t97 31.5q78 0 137 -53q3 -2 16 -13t19 -15.5t18.5 -13.5t21.5 -13t20.5 -7.5t21.5 -3.5h6q37 0 80.5 32t79.5 87l78 -61q-36 -65 -115.5 -118.5 t-144.5 -53.5h-2h-8q-68 0 -125 51q-3 2 -16.5 12t-19 14.5t-19 13t-22 13t-20.5 9t-22 5.5h-4q-73 0 -166 -118z" />
<glyph unicode="&#xc4;" horiz-adv-x="1171" d="M10 0l883 1456l268 -1456h-168l-61 371h-535l-219 -371h-168zM489 518h412l-94 533zM670 1638q0 17 2 25q9 43 44.5 73.5t76.5 30.5q35 0 56 -22t21 -57q0 -17 -2 -25q-9 -43 -44 -73.5t-76 -30.5q-35 0 -56.5 22t-21.5 57zM1008 1638q0 17 2 25q9 43 44 73.5t76 30.5 q35 0 56.5 -22t21.5 -57q0 -17 -2 -25q-9 -43 -44.5 -73.5t-76.5 -30.5q-35 0 -56 22t-21 57z" />
<glyph unicode="&#xc5;" horiz-adv-x="1171" d="M10 0l883 1456l268 -1456h-164l-65 371h-535l-223 -371h-164zM489 518h412l-94 533zM745 1675q0 4 5 39q18 78 85.5 135.5t149.5 57.5q72 0 117 -44t45 -112q0 -13 -4 -37q-17 -80 -86 -135t-152 -55q-70 0 -115 42.5t-45 108.5zM836 1692q0 -36 23.5 -60t62.5 -24 q47 0 85.5 31t47.5 75q2 6 2 21q0 36 -25.5 60t-64.5 24q-44 0 -81.5 -29.5t-47.5 -75.5q-2 -8 -2 -22z" />
<glyph unicode="&#xc7;" horiz-adv-x="1161" d="M207 475q0 113 26 234q73 345 282 546t493 201q216 0 370 -129l-106 -113q-119 107 -283 107q-222 0 -378 -158t-218 -454q-26 -133 -26 -224q0 -187 91 -284t271 -97q168 0 324 101l59 -109q-190 -123 -420 -123q-232 0 -358.5 131.5t-126.5 370.5zM391 -369l238 287h98 l-217 -369z" />
<glyph unicode="&#xc8;" horiz-adv-x="1007" d="M141 0l303 1434h793l-31 -150h-635l-77 -366h634l-32 -150h-635l-131 -623h651l-31 -145h-809zM739 1866l125 76l223 -322l-81 -61z" />
<glyph unicode="&#xc9;" horiz-adv-x="1007" d="M141 0l303 1434h793l-31 -150h-635l-77 -366h634l-32 -150h-635l-131 -623h651l-31 -145h-809zM725 1626l244 342l141 -72l-295 -337z" />
<glyph unicode="&#xca;" horiz-adv-x="1007" d="M141 0l303 1434h793l-31 -150h-635l-77 -366h634l-32 -150h-635l-131 -623h651l-31 -145h-809zM606 1606l266 262h136l153 -262l-121 -47l-127 188l-204 -188z" />
<glyph unicode="&#xcb;" horiz-adv-x="1007" d="M141 0l303 1434h793l-31 -150h-635l-77 -366h634l-32 -150h-635l-131 -623h651l-31 -145h-809zM627 1638q0 17 2 25q9 43 44.5 73.5t76.5 30.5q35 0 56 -22t21 -57q0 -17 -2 -25q-9 -43 -44 -73.5t-76 -30.5q-35 0 -56.5 22t-21.5 57zM965 1638q0 17 2 25q9 43 44 73.5 t76 30.5q35 0 56.5 -22t21.5 -57q0 -17 -2 -25q-9 -43 -44.5 -73.5t-76.5 -30.5q-35 0 -56 22t-21 57z" />
<glyph unicode="&#xcc;" horiz-adv-x="440" d="M141 0l303 1434h158l-303 -1434h-158zM414 1866l125 76l223 -322l-82 -61z" />
<glyph unicode="&#xcd;" horiz-adv-x="440" d="M141 0l303 1434h158l-303 -1434h-158zM399 1626l244 342l141 -72l-295 -337z" />
<glyph unicode="&#xce;" horiz-adv-x="440" d="M141 0l303 1434h158l-303 -1434h-158zM281 1606l266 262h135l154 -262l-121 -47l-127 188l-205 -188z" />
<glyph unicode="&#xcf;" horiz-adv-x="440" d="M141 0l303 1434h158l-303 -1434h-158zM301 1638q0 17 2 25q9 43 44.5 73.5t76.5 30.5q35 0 56.5 -22t21.5 -57q0 -17 -2 -25q-9 -43 -44.5 -73.5t-76.5 -30.5q-35 0 -56.5 22t-21.5 57zM639 1638q0 17 2 25q9 43 44.5 73.5t76.5 30.5q35 0 56.5 -22t21.5 -57 q0 -17 -2 -25q-9 -43 -44.5 -73.5t-76.5 -30.5q-35 0 -56.5 22t-21.5 57z" />
<glyph unicode="&#xd0;" horiz-adv-x="1335" d="M166 559l29 135h143l137 652h348q298 0 444 -110.5t146 -340.5q0 -100 -27 -223q-74 -348 -278 -510t-569 -162h-349l119 559h-143zM391 145h205q260 0 407.5 127.5t204.5 399.5q23 115 23 184q0 173 -101.5 255.5t-312.5 82.5h-205l-104 -500h137l-29 -135h-137z" />
<glyph unicode="&#xd1;" horiz-adv-x="1232" d="M141 0l305 1434h15l565 -1004l213 1004h156l-305 -1434h-17l-565 995l-211 -995h-156zM598 1620q31 40 67 75t88 65.5t97 31.5q78 0 137 -53q3 -2 16 -13t19 -15.5t18.5 -13.5t21.5 -13t20.5 -7.5t21.5 -3.5h6q37 0 80.5 32t79.5 87l78 -61q-36 -65 -116 -118.5 t-145 -53.5h-2h-8q-68 0 -125 51q-2 1 -19 14.5t-24.5 18t-22.5 14t-27.5 14t-24.5 6.5h-5q-72 0 -165 -118z" />
<glyph unicode="&#xd2;" horiz-adv-x="1533" d="M221 502q0 93 25 209q72 338 299 541.5t530 203.5q248 0 389.5 -143t141.5 -393q0 -103 -23 -209q-71 -338 -293 -537t-530 -199q-254 0 -396.5 140t-142.5 387zM373 537q0 -202 111.5 -318.5t301.5 -116.5q227 0 409 164.5t241 444.5q20 90 20 176q0 202 -110 318 t-299 116q-148 0 -281 -71t-233 -211.5t-140 -327.5q-20 -102 -20 -174zM961 1866l124 76l224 -322l-82 -61z" />
<glyph unicode="&#xd3;" horiz-adv-x="1533" d="M221 502q0 93 25 209q72 338 299 541.5t530 203.5q248 0 389.5 -143t141.5 -393q0 -103 -23 -209q-71 -338 -293 -537t-530 -199q-254 0 -396.5 140t-142.5 387zM373 537q0 -202 111.5 -318.5t301.5 -116.5q227 0 409 164.5t241 444.5q20 90 20 176q0 202 -110 318 t-299 116q-148 0 -281 -71t-233 -211.5t-140 -327.5q-20 -102 -20 -174zM946 1626l244 342l141 -72l-295 -337z" />
<glyph unicode="&#xd4;" horiz-adv-x="1533" d="M221 502q0 93 25 209q72 338 299 541.5t530 203.5q248 0 389.5 -143t141.5 -393q0 -103 -23 -209q-71 -338 -293 -537t-530 -199q-254 0 -396.5 140t-142.5 387zM373 537q0 -202 111.5 -318.5t301.5 -116.5q227 0 409 164.5t241 444.5q20 90 20 176q0 202 -110 318 t-299 116q-148 0 -281 -71t-233 -211.5t-140 -327.5q-20 -102 -20 -174zM827 1606l267 262h135l153 -262l-120 -47l-127 188l-205 -188z" />
<glyph unicode="&#xd5;" horiz-adv-x="1533" d="M221 502q0 93 25 209q72 338 299 541.5t530 203.5q248 0 389.5 -143t141.5 -393q0 -103 -23 -209q-71 -338 -293 -537t-530 -199q-254 0 -396.5 140t-142.5 387zM373 537q0 -202 111.5 -318.5t301.5 -116.5q227 0 409 164.5t241 444.5q20 90 20 176q0 202 -110 318 t-299 116q-148 0 -281 -71t-233 -211.5t-140 -327.5q-20 -102 -20 -174zM745 1620q31 40 67 75t88 65.5t97 31.5q79 0 138 -53q2 -1 19 -15.5t24 -19.5t21.5 -14.5t27 -13t24.5 -3.5h6q37 0 80.5 32t79.5 87l78 -61q-36 -65 -115.5 -118.5t-144.5 -53.5h-2h-8q-68 0 -125 51 q-3 2 -16.5 12t-19 14.5t-19 13t-22 13t-20.5 9t-22 5.5h-4q-73 0 -166 -118z" />
<glyph unicode="&#xd6;" horiz-adv-x="1533" d="M221 502q0 93 25 209q72 338 299 541.5t530 203.5q248 0 389.5 -143t141.5 -393q0 -103 -23 -209q-71 -338 -293 -537t-530 -199q-254 0 -396.5 140t-142.5 387zM373 537q0 -202 111.5 -318.5t301.5 -116.5q227 0 409 164.5t241 444.5q20 90 20 176q0 202 -110 318 t-299 116q-148 0 -281 -71t-233 -211.5t-140 -327.5q-20 -102 -20 -174zM848 1638q0 17 2 25q9 43 44.5 73.5t76.5 30.5q35 0 56.5 -22t21.5 -57q0 -17 -2 -25q-9 -43 -44.5 -73.5t-76.5 -30.5q-35 0 -56.5 22t-21.5 57zM1186 1638q0 17 2 25q9 43 44.5 73.5t76.5 30.5 q35 0 56 -22t21 -57q0 -17 -2 -25q-9 -43 -44 -73.5t-76 -30.5q-35 0 -56.5 22t-21.5 57z" />
<glyph unicode="&#xd7;" horiz-adv-x="1196" d="M229 164l381 411l-381 416l99 107l387 -416l385 416l100 -107l-387 -416l387 -411l-102 -111l-383 414l-389 -414z" />
<glyph unicode="&#xd8;" horiz-adv-x="1533" d="M221 502q0 93 25 209q72 338 299 541.5t530 203.5q107 0 180 -22l99 172h145l-125 -222q112 -68 172 -187.5t60 -278.5q0 -101 -23 -207q-71 -338 -293 -537t-530 -199q-90 0 -170 21l-94 -168h-146l121 213q-122 62 -186 179.5t-64 281.5zM375 537q0 -253 168 -367 l641 1133q-65 18 -137 18q-148 0 -281 -71t-233 -211.5t-140 -327.5q-18 -91 -18 -174zM659 119q58 -17 127 -17q227 0 409 164.5t241 444.5q20 102 20 176q0 244 -160 360z" />
<glyph unicode="&#xd9;" horiz-adv-x="1220" d="M219 336q0 76 23 194l190 904h158l-187 -879q-26 -130 -26 -205q0 -129 62 -189.5t194 -60.5q171 0 272 108t152 347l186 879h152l-191 -904q-120 -555 -598 -555q-387 0 -387 361zM805 1866l125 76l223 -322l-82 -61z" />
<glyph unicode="&#xda;" horiz-adv-x="1220" d="M219 336q0 76 23 194l190 904h158l-187 -879q-26 -130 -26 -205q0 -129 62 -189.5t194 -60.5q171 0 272 108t152 347l186 879h152l-191 -904q-120 -555 -598 -555q-387 0 -387 361zM788 1626l244 342l142 -72l-295 -337z" />
<glyph unicode="&#xdb;" horiz-adv-x="1220" d="M219 336q0 76 23 194l190 904h158l-187 -879q-26 -130 -26 -205q0 -129 62 -189.5t194 -60.5q171 0 272 108t152 347l186 879h152l-191 -904q-120 -555 -598 -555q-387 0 -387 361zM672 1606l266 262h135l154 -262l-121 -47l-127 188l-205 -188z" />
<glyph unicode="&#xdc;" horiz-adv-x="1220" d="M219 336q0 76 23 194l190 904h158l-187 -879q-26 -130 -26 -205q0 -129 62 -189.5t194 -60.5q171 0 272 108t152 347l186 879h152l-191 -904q-120 -555 -598 -555q-387 0 -387 361zM692 1638q0 17 2 25q9 43 44.5 73.5t76.5 30.5q35 0 56.5 -22t21.5 -57q0 -17 -2 -25 q-9 -43 -44.5 -73.5t-76.5 -30.5q-35 0 -56.5 22t-21.5 57zM1030 1638q0 17 2 25q9 43 44.5 73.5t76.5 30.5q35 0 56.5 -22t21.5 -57q0 -17 -2 -25q-9 -43 -44.5 -73.5t-76.5 -30.5q-35 0 -56.5 22t-21.5 57z" />
<glyph unicode="&#xdd;" horiz-adv-x="1075" d="M311 1434h172l234 -598l485 598h168l-610 -746l-146 -688h-153l145 688zM717 1626l244 342l141 -72l-295 -337z" />
<glyph unicode="&#xde;" horiz-adv-x="1001" d="M141 0l303 1434h164l-59 -283h213q174 0 264 -71.5t90 -211.5q0 -60 -14 -120q-82 -395 -512 -404h-213l-72 -344h-164zM410 494h213q117 0 196 65.5t105 188.5q8 36 8 73q0 85 -51.5 131.5t-151.5 46.5h-213z" />
<glyph unicode="&#xdf;" horiz-adv-x="1071" d="M150 0l169 803h-59l82 110l31 142q39 183 163 292t306 109q121 0 204.5 -82t83.5 -217q0 -36 -10 -88l-33 -156q-135 -8 -208 -43t-91 -116q-4 -20 -4 -33q0 -65 74 -119l37 -35q158 -125 158 -266q0 -31 -11 -80q-25 -106 -128 -175t-244 -69q-68 0 -139 30.5 t-107 101.5l129 92q25 -37 67 -69t76 -32q162 0 193 150q8 24 8 37q0 65 -102 141l-66 51q-106 76 -106 187q0 35 8 71q24 113 105 178.5t218 94.5l13 59q6 27 6 53q0 79 -47.5 136t-118.5 57q-104 0 -176.5 -70t-100.5 -192l-223 -1053h-157z" />
<glyph unicode="&#xe0;" d="M174 311q0 62 16 144q46 216 182 349.5t308 133.5q207 0 266 -162l31 142h153l-194 -918h-154l27 133q-123 -153 -334 -153q-140 0 -220.5 88.5t-80.5 242.5zM336 328q0 -109 51.5 -169.5t149.5 -60.5q124 0 215.5 96t126.5 261q14 75 14 120q0 111 -53 173.5t-152 62.5 q-122 0 -212.5 -94t-125.5 -262q-14 -63 -14 -127zM602 1348l125 75l223 -321l-82 -62z" />
<glyph unicode="&#xe1;" d="M174 311q0 62 16 144q46 216 182 349.5t308 133.5q207 0 266 -162l31 142h153l-194 -918h-154l27 133q-123 -153 -334 -153q-140 0 -220.5 88.5t-80.5 242.5zM336 328q0 -109 51.5 -169.5t149.5 -60.5q124 0 215.5 96t126.5 261q14 75 14 120q0 111 -53 173.5t-152 62.5 q-122 0 -212.5 -94t-125.5 -262q-14 -63 -14 -127zM639 1108l244 342l141 -72l-295 -338z" />
<glyph unicode="&#xe2;" d="M174 311q0 62 16 144q46 216 182 349.5t308 133.5q207 0 266 -162l31 142h153l-194 -918h-154l27 133q-123 -153 -334 -153q-140 0 -220.5 88.5t-80.5 242.5zM336 328q0 -109 51.5 -169.5t149.5 -60.5q124 0 215.5 96t126.5 261q14 75 14 120q0 111 -53 173.5t-152 62.5 q-122 0 -212.5 -94t-125.5 -262q-14 -63 -14 -127zM469 1087l266 263h135l154 -263l-121 -47l-127 189l-205 -189z" />
<glyph unicode="&#xe3;" d="M174 311q0 62 16 144q46 216 182 349.5t308 133.5q207 0 266 -162l31 142h153l-194 -918h-154l27 133q-123 -153 -334 -153q-140 0 -220.5 88.5t-80.5 242.5zM336 328q0 -109 51.5 -169.5t149.5 -60.5q124 0 215.5 96t126.5 261q14 75 14 120q0 111 -53 173.5t-152 62.5 q-122 0 -212.5 -94t-125.5 -262q-14 -63 -14 -127zM387 1102q31 40 67 75t88 65.5t97 31.5q78 0 137 -53q3 -2 16 -13t19 -15.5t18.5 -13.5t21.5 -13t20.5 -7.5t21.5 -3.5h6q37 0 80.5 32t79.5 87l78 -62q-36 -65 -115.5 -118.5t-144.5 -53.5h-3h-8q-67 0 -125 52 q-2 1 -19 14.5t-24.5 18t-22.5 14t-27.5 14t-24.5 6.5h-5q-71 0 -165 -119z" />
<glyph unicode="&#xe4;" d="M174 311q0 62 16 144q46 216 182 349.5t308 133.5q207 0 266 -162l31 142h153l-194 -918h-154l27 133q-123 -153 -334 -153q-140 0 -220.5 88.5t-80.5 242.5zM336 328q0 -109 51.5 -169.5t149.5 -60.5q124 0 215.5 96t126.5 261q14 75 14 120q0 111 -53 173.5t-152 62.5 q-122 0 -212.5 -94t-125.5 -262q-14 -63 -14 -127zM489 1120q0 13 3 25q9 43 44 73.5t76 30.5q35 0 56.5 -22.5t21.5 -57.5q0 -16 -2 -24q-9 -43 -44.5 -74t-76.5 -31q-35 0 -56.5 22.5t-21.5 57.5zM827 1120q0 17 2 25q9 43 44.5 73.5t76.5 30.5q35 0 56.5 -22.5 t21.5 -57.5q0 -16 -2 -24q-9 -43 -44.5 -74t-76.5 -31q-35 0 -56.5 22.5t-21.5 57.5z" />
<glyph unicode="&#xe5;" d="M174 311q0 62 16 144q46 216 182 349.5t308 133.5q207 0 266 -162l31 142h153l-194 -918h-154l27 133q-123 -153 -334 -153q-140 0 -220.5 88.5t-80.5 242.5zM336 328q0 -109 51.5 -169.5t149.5 -60.5q124 0 215.5 96t126.5 261q14 75 14 120q0 111 -53 173.5t-152 62.5 q-122 0 -212.5 -94t-125.5 -262q-14 -63 -14 -127zM575 1192q0 4 5 39q18 78 85.5 135t149.5 57q72 0 117 -43.5t45 -111.5q0 -13 -4 -37q-17 -80 -86 -135.5t-152 -55.5q-70 0 -115 43t-45 109zM666 1208q0 -36 23.5 -60t62.5 -24q47 0 85.5 31t47.5 76q2 6 2 20 q0 36 -25.5 60t-64.5 24q-44 0 -81.5 -29t-47.5 -75q-2 -8 -2 -23z" />
<glyph unicode="&#xe7;" horiz-adv-x="907" d="M170 350q0 59 10 103q44 203 210.5 344t359.5 141h16q75 0 145 -27.5t119 -83.5l-127 -114q-68 94 -180 94q-125 0 -236.5 -105t-142.5 -249q-8 -36 -8 -80q0 -115 66.5 -191t172.5 -76q115 0 220 91l75 -121q-176 -101 -297 -101q-5 0 -14 1t-14 1q-166 0 -270.5 104.5 t-104.5 268.5zM246 -369l237 287h99l-217 -369z" />
<glyph unicode="&#xe8;" horiz-adv-x="1032" d="M174 348q0 61 10 105q29 134 112 245.5t200 175.5t243 64h9q161 0 247 -91t86 -251q0 -44 -6 -90l-10 -51q-2 -2 -2 -4h-719q-8 -36 -8 -78q0 -115 66.5 -191t172.5 -76h17q166 0 299 127l78 -86q-78 -82 -189 -125t-235 -45q-165 0 -268 104.5t-103 266.5zM389 580h545 v18q0 107 -61 158t-160 51q-92 0 -191.5 -74.5t-132.5 -152.5zM614 1348l125 75l224 -321l-82 -62z" />
<glyph unicode="&#xe9;" horiz-adv-x="1032" d="M174 348q0 61 10 105q29 134 112 245.5t200 175.5t243 64h9q161 0 247 -91t86 -251q0 -44 -6 -90l-10 -51q-2 -2 -2 -4h-719q-8 -36 -8 -78q0 -115 66.5 -191t172.5 -76h17q166 0 299 127l78 -86q-78 -82 -189 -125t-235 -45q-165 0 -268 104.5t-103 266.5zM389 580h545 v18q0 107 -61 158t-160 51q-92 0 -191.5 -74.5t-132.5 -152.5zM600 1108l244 342l141 -72l-295 -338z" />
<glyph unicode="&#xea;" horiz-adv-x="1032" d="M174 348q0 61 10 105q29 134 112 245.5t200 175.5t243 64h9q161 0 247 -91t86 -251q0 -44 -6 -90l-10 -51q-2 -2 -2 -4h-719q-8 -36 -8 -78q0 -115 66.5 -191t172.5 -76h17q166 0 299 127l78 -86q-78 -82 -189 -125t-235 -45q-165 0 -268 104.5t-103 266.5zM389 580h545 v18q0 107 -61 158t-160 51q-92 0 -191.5 -74.5t-132.5 -152.5zM481 1087l267 263h135l153 -263l-121 -47l-127 189l-204 -189z" />
<glyph unicode="&#xeb;" horiz-adv-x="1032" d="M174 348q0 61 10 105q29 134 112 245.5t200 175.5t243 64h9q161 0 247 -91t86 -251q0 -44 -6 -90l-10 -51q-2 -2 -2 -4h-719q-8 -36 -8 -78q0 -115 66.5 -191t172.5 -76h17q166 0 299 127l78 -86q-78 -82 -189 -125t-235 -45q-165 0 -268 104.5t-103 266.5zM389 580h545 v18q0 107 -61 158t-160 51q-92 0 -191.5 -74.5t-132.5 -152.5zM502 1120q0 17 2 25q9 43 44.5 73.5t76.5 30.5q35 0 56 -22t21 -58q0 -16 -2 -24q-9 -43 -44 -74t-76 -31q-35 0 -56.5 22.5t-21.5 57.5zM840 1120q0 17 2 25q9 43 44.5 73.5t76.5 30.5q35 0 56 -22t21 -58 q0 -16 -2 -24q-9 -43 -44 -74t-76 -31q-35 0 -56.5 22.5t-21.5 57.5z" />
<glyph unicode="&#xec;" horiz-adv-x="438" d="M141 0l195 918h156l-195 -918h-156zM303 1348l125 75l223 -321l-82 -62z" />
<glyph unicode="&#xed;" horiz-adv-x="438" d="M141 0l195 918h156l-195 -918h-156zM289 1108l243 342l142 -72l-295 -338z" />
<glyph unicode="&#xee;" horiz-adv-x="438" d="M141 0l195 918h156l-195 -918h-156zM170 1087l266 263h135l154 -263l-121 -47l-127 189l-205 -189z" />
<glyph unicode="&#xef;" horiz-adv-x="438" d="M141 0l195 918h156l-195 -918h-156zM190 1120q0 13 3 25q9 43 44 73.5t76 30.5q35 0 56.5 -22.5t21.5 -57.5q0 -16 -2 -24q-9 -43 -44.5 -74t-76.5 -31q-35 0 -56.5 22.5t-21.5 57.5zM528 1120q0 17 2 25q9 43 44.5 73.5t76.5 30.5q35 0 56.5 -22.5t21.5 -57.5 q0 -16 -2 -24q-9 -43 -44.5 -74t-76.5 -31q-35 0 -56.5 22.5t-21.5 57.5z" />
<glyph unicode="&#xf0;" horiz-adv-x="1054" d="M168 313q0 63 14 123q43 202 187.5 331.5t330.5 129.5q48 0 93 -8l-197 409l-285 -88l-12 80l252 78l-94 168h180l68 -121l303 90l10 -78l-266 -79l198 -416q60 -98 87.5 -178t27.5 -166q0 -70 -18 -152q-44 -206 -190.5 -331t-340.5 -125q-163 0 -255.5 89t-92.5 244z M336 330q0 -107 54 -168.5t153 -61.5q124 0 217 92t125 244q14 60 14 117q0 105 -49.5 163t-132.5 58q-139 0 -237.5 -88.5t-131.5 -249.5q-12 -58 -12 -106z" />
<glyph unicode="&#xf1;" horiz-adv-x="1058" d="M141 0l195 918h156l-31 -146q144 166 338 166q129 0 195.5 -64t66.5 -190q0 -62 -14 -131l-117 -553h-156l115 547q12 55 12 98q0 159 -166 162q-125 0 -210.5 -76.5t-118.5 -214.5l-109 -516h-156zM408 1102q52 66 118.5 118.5t132.5 53.5q79 0 138 -53q2 -1 19 -15.5 t24 -19.5t21.5 -14.5t27 -13t24.5 -3.5h7q37 0 79.5 32t79.5 87l78 -62q-36 -65 -115.5 -118.5t-144.5 -53.5h-2h-8q-67 0 -125 52q-3 2 -16.5 12t-19.5 14.5t-19 13t-21.5 13t-20.5 9t-22 5.5h-4q-72 0 -166 -119z" />
<glyph unicode="&#xf2;" horiz-adv-x="1101" d="M170 350q0 59 10 103q44 203 210.5 344t359.5 141q163 0 265.5 -105.5t102.5 -269.5q0 -53 -12 -108q-43 -200 -206.5 -339t-354.5 -139q-166 0 -270.5 104.5t-104.5 268.5zM336 373q0 -115 66.5 -191t172.5 -76q124 0 234 102t139 245q8 39 8 84q0 116 -64.5 193 t-168.5 77q-125 0 -236.5 -105t-142.5 -249q-8 -36 -8 -80zM633 1348l125 75l223 -321l-82 -62z" />
<glyph unicode="&#xf3;" horiz-adv-x="1101" d="M170 350q0 59 10 103q44 203 210.5 344t359.5 141q163 0 265.5 -105.5t102.5 -269.5q0 -53 -12 -108q-43 -200 -206.5 -339t-354.5 -139q-166 0 -270.5 104.5t-104.5 268.5zM336 373q0 -115 66.5 -191t172.5 -76q124 0 234 102t139 245q8 39 8 84q0 116 -64.5 193 t-168.5 77q-125 0 -236.5 -105t-142.5 -249q-8 -36 -8 -80zM618 1108l244 342l142 -72l-295 -338z" />
<glyph unicode="&#xf4;" horiz-adv-x="1101" d="M170 350q0 59 10 103q44 203 210.5 344t359.5 141q163 0 265.5 -105.5t102.5 -269.5q0 -53 -12 -108q-43 -200 -206.5 -339t-354.5 -139q-166 0 -270.5 104.5t-104.5 268.5zM336 373q0 -115 66.5 -191t172.5 -76q124 0 234 102t139 245q8 39 8 84q0 116 -64.5 193 t-168.5 77q-125 0 -236.5 -105t-142.5 -249q-8 -36 -8 -80zM500 1087l266 263h135l154 -263l-121 -47l-127 189l-205 -189z" />
<glyph unicode="&#xf5;" horiz-adv-x="1101" d="M170 350q0 59 10 103q44 203 210.5 344t359.5 141q163 0 265.5 -105.5t102.5 -269.5q0 -53 -12 -108q-43 -200 -206.5 -339t-354.5 -139q-166 0 -270.5 104.5t-104.5 268.5zM336 373q0 -115 66.5 -191t172.5 -76q124 0 234 102t139 245q8 39 8 84q0 116 -64.5 193 t-168.5 77q-125 0 -236.5 -105t-142.5 -249q-8 -36 -8 -80zM418 1102q31 40 67 75t88 65.5t97 31.5q78 0 137 -53q3 -2 16 -13t19 -15.5t18.5 -13.5t21.5 -13t20.5 -7.5t21.5 -3.5h6q37 0 80.5 32t79.5 87l77 -62q-36 -65 -115.5 -118.5t-144.5 -53.5h-2h-8q-67 0 -125 52 q-3 2 -16.5 12t-19 14.5t-19 13t-22 13t-20.5 9t-22 5.5h-4q-72 0 -166 -119z" />
<glyph unicode="&#xf6;" horiz-adv-x="1101" d="M170 350q0 59 10 103q44 203 210.5 344t359.5 141q163 0 265.5 -105.5t102.5 -269.5q0 -53 -12 -108q-43 -200 -206.5 -339t-354.5 -139q-166 0 -270.5 104.5t-104.5 268.5zM336 373q0 -115 66.5 -191t172.5 -76q124 0 234 102t139 245q8 39 8 84q0 116 -64.5 193 t-168.5 77q-125 0 -236.5 -105t-142.5 -249q-8 -36 -8 -80zM520 1120q0 17 2 25q9 43 44.5 73.5t76.5 30.5q35 0 56.5 -22.5t21.5 -57.5q0 -16 -2 -24q-9 -43 -44.5 -74t-76.5 -31q-35 0 -56.5 22.5t-21.5 57.5zM858 1120q0 17 2 25q9 43 44.5 73.5t76.5 30.5 q35 0 56.5 -22.5t21.5 -57.5q0 -16 -2 -24q-9 -43 -44.5 -74t-76.5 -31q-35 0 -56.5 22.5t-21.5 57.5z" />
<glyph unicode="&#xf7;" horiz-adv-x="1017" d="M158 453v141h917v-141h-917zM510 162q0 43 29.5 73.5t72.5 30.5t74 -30.5t31 -73.5t-31 -73t-74 -30t-72.5 30t-29.5 73zM512 836q0 43 29.5 73.5t72.5 30.5t74 -30.5t31 -73.5t-31 -73t-74 -30t-72.5 30t-29.5 73z" />
<glyph unicode="&#xf8;" horiz-adv-x="1101" d="M170 350q0 59 10 103q44 203 210.5 344t359.5 141q57 0 96 -10l45 96h108l-63 -131q85 -48 133.5 -134.5t48.5 -195.5q0 -53 -12 -108q-43 -200 -206.5 -339t-354.5 -139q-41 0 -66 5l-53 -107h-109l68 135q-100 42 -157.5 131.5t-57.5 208.5zM336 375q0 -75 31 -136.5 t84 -95.5l331 658q-27 6 -59 6q-125 0 -236.5 -105t-142.5 -249q-8 -36 -8 -78zM543 111q15 -5 32 -5q124 0 234 102t139 245q10 52 10 88q0 137 -90 217z" />
<glyph unicode="&#xf9;" horiz-adv-x="1044" d="M195 262q0 54 10 98l119 558h151l-117 -551q-10 -48 -10 -78q0 -89 53.5 -136t145.5 -47q124 0 193 66.5t104 222.5l110 523h156l-119 -558q-38 -177 -163.5 -280t-299.5 -103h-10q-145 0 -234 74t-89 211zM606 1348l125 75l223 -321l-82 -62z" />
<glyph unicode="&#xfa;" horiz-adv-x="1044" d="M195 262q0 54 10 98l119 558h151l-117 -551q-10 -48 -10 -78q0 -89 53.5 -136t145.5 -47q124 0 193 66.5t104 222.5l110 523h156l-119 -558q-38 -177 -163.5 -280t-299.5 -103h-10q-145 0 -234 74t-89 211zM592 1108l244 342l141 -72l-295 -338z" />
<glyph unicode="&#xfb;" horiz-adv-x="1044" d="M195 262q0 54 10 98l119 558h151l-117 -551q-10 -48 -10 -78q0 -89 53.5 -136t145.5 -47q124 0 193 66.5t104 222.5l110 523h156l-119 -558q-38 -177 -163.5 -280t-299.5 -103h-10q-145 0 -234 74t-89 211zM473 1087l266 263h135l154 -263l-121 -47l-127 189l-205 -189z " />
<glyph unicode="&#xfc;" horiz-adv-x="1044" d="M195 262q0 54 10 98l119 558h151l-117 -551q-10 -48 -10 -78q0 -89 53.5 -136t145.5 -47q124 0 193 66.5t104 222.5l110 523h156l-119 -558q-38 -177 -163.5 -280t-299.5 -103h-10q-145 0 -234 74t-89 211zM494 1120q0 17 2 25q9 43 44 73.5t76 30.5q35 0 56.5 -22.5 t21.5 -57.5q0 -16 -2 -24q-9 -43 -44.5 -74t-76.5 -31q-35 0 -56 22t-21 58zM831 1120q0 13 3 25q9 43 44 73.5t76 30.5q35 0 56.5 -22.5t21.5 -57.5q0 -16 -2 -24q-9 -43 -44.5 -74t-76.5 -31q-35 0 -56.5 22.5t-21.5 57.5z" />
<glyph unicode="&#xfd;" horiz-adv-x="1107" d="M98 -322l135 101q24 -53 78 -84t127 -31q304 0 367 305l33 154q-60 -79 -142 -112.5t-190 -33.5q-138 0 -218.5 95.5t-80.5 253.5q0 65 16 143l96 449h162l-96 -449q-14 -63 -14 -125q0 -107 50.5 -165t149.5 -58q126 0 215.5 92t124.5 256l97 449h153l-196 -920 q-95 -459 -531 -459h-22q-100 0 -186.5 36.5t-127.5 102.5zM614 1108l244 342l141 -72l-294 -338z" />
<glyph unicode="&#xfe;" horiz-adv-x="1081" d="M43 -461l424 1997h156l-162 -760q131 162 334 162q140 0 219.5 -91t79.5 -247q0 -58 -17 -145q-46 -213 -180 -344t-307 -131q-104 0 -167 35t-99 118l-125 -594h-156zM379 330q0 -109 52 -170.5t151 -61.5q121 0 212 96t126 261q14 75 14 120q0 111 -52.5 173.5 t-148.5 62.5q-122 0 -213.5 -94t-126.5 -262q-14 -63 -14 -125z" />
<glyph unicode="&#xff;" horiz-adv-x="1107" d="M98 -322l135 101q24 -53 78 -84t127 -31q304 0 367 305l33 154q-60 -79 -142 -112.5t-190 -33.5q-138 0 -218.5 95.5t-80.5 253.5q0 65 16 143l96 449h162l-96 -449q-14 -63 -14 -125q0 -107 50.5 -165t149.5 -58q126 0 215.5 92t124.5 256l97 449h153l-196 -920 q-95 -459 -531 -459h-22q-100 0 -186.5 36.5t-127.5 102.5zM518 1120q0 17 2 25q9 43 44.5 73.5t76.5 30.5q35 0 56.5 -22.5t21.5 -57.5q0 -16 -2 -24q-9 -43 -44.5 -74t-76.5 -31q-35 0 -56.5 22.5t-21.5 57.5zM856 1120q0 17 2 25q9 43 44.5 73.5t76.5 30.5 q35 0 56.5 -22.5t21.5 -57.5q0 -16 -2 -24q-9 -43 -44.5 -74t-76.5 -31q-35 0 -56.5 22.5t-21.5 57.5z" />
<glyph unicode="&#x178;" horiz-adv-x="1075" d="M311 1434h172l234 -598l485 598h168l-610 -746l-146 -688h-153l145 688zM618 1638q0 13 3 25q9 43 44 73.5t76 30.5q35 0 56.5 -22t21.5 -57q0 -17 -2 -25q-9 -43 -44.5 -73.5t-76.5 -30.5q-35 0 -56.5 22t-21.5 57zM956 1638q0 17 2 25q9 43 44.5 73.5t76.5 30.5 q35 0 56.5 -22t21.5 -57q0 -17 -2 -25q-9 -43 -44.5 -73.5t-76.5 -30.5q-35 0 -56.5 22t-21.5 57z" />
<glyph unicode="&#x2c6;" horiz-adv-x="718" d="M319 1120l267 262h135l153 -262l-120 -47l-127 189l-205 -189z" />
<glyph unicode="&#x2dc;" horiz-adv-x="796" d="M276 1198q31 40 67 75t88 65.5t97 31.5q79 0 138 -53q2 -1 19 -15.5t24 -19.5t21.5 -14.5t27 -13t24.5 -3.5h6q37 0 80.5 32t79.5 87l78 -61q-36 -65 -115.5 -118.5t-144.5 -53.5h-2h-8q-68 0 -125 51q-3 2 -16.5 12t-19 14.5t-19 13t-22 13t-20.5 9t-22 5.5h-4 q-73 0 -166 -118z" />
<glyph unicode="&#x2000;" horiz-adv-x="984" />
<glyph unicode="&#x2001;" horiz-adv-x="1968" />
<glyph unicode="&#x2002;" horiz-adv-x="984" />
<glyph unicode="&#x2003;" horiz-adv-x="1968" />
<glyph unicode="&#x2004;" horiz-adv-x="656" />
<glyph unicode="&#x2005;" horiz-adv-x="492" />
<glyph unicode="&#x2006;" horiz-adv-x="328" />
<glyph unicode="&#x2007;" horiz-adv-x="328" />
<glyph unicode="&#x2008;" horiz-adv-x="246" />
<glyph unicode="&#x2009;" horiz-adv-x="393" />
<glyph unicode="&#x200a;" horiz-adv-x="109" />
<glyph unicode="&#x2010;" horiz-adv-x="735" d="M223 389l29 135h453l-29 -135h-453z" />
<glyph unicode="&#x2011;" horiz-adv-x="735" d="M223 389l29 135h453l-29 -135h-453z" />
<glyph unicode="&#x2012;" horiz-adv-x="735" d="M223 389l29 135h453l-29 -135h-453z" />
<glyph unicode="&#x2013;" horiz-adv-x="1024" d="M223 389v135h770v-135h-770z" />
<glyph unicode="&#x2014;" horiz-adv-x="2048" d="M223 389v135h1794v-135h-1794z" />
<glyph unicode="&#x2018;" horiz-adv-x="460" d="M330 1030l30 141l193 263h109l-125 -263l-31 -141h-176z" />
<glyph unicode="&#x2019;" horiz-adv-x="450" d="M317 1047l125 262l27 125h174l-27 -125l-192 -262h-107z" />
<glyph unicode="&#x201a;" horiz-adv-x="452" d="M51 -193l123 256l31 142h176l-31 -142l-192 -256h-107z" />
<glyph unicode="&#x201c;" horiz-adv-x="804" d="M330 1030l30 141l193 263h109l-125 -263l-31 -141h-176zM672 1030l30 141l195 263h107l-123 -263l-31 -141h-178z" />
<glyph unicode="&#x201d;" horiz-adv-x="798" d="M311 1030l127 262l29 142h176l-29 -142l-194 -262h-109zM655 1030l125 262l29 142h178l-29 -142l-192 -262h-111z" />
<glyph unicode="&#x201e;" horiz-adv-x="796" d="M51 -193l123 256l31 142h176l-31 -142l-192 -256h-107zM395 -193l121 256l31 142h178l-31 -142l-188 -256h-111z" />
<glyph unicode="&#x2022;" horiz-adv-x="702" d="M215 578q2 109 77 187.5t179 78.5t181 -77.5t77 -188.5v-5q0 -108 -77.5 -187t-182.5 -79q-99 0 -176 79t-78 192z" />
<glyph unicode="&#x2026;" horiz-adv-x="1339" d="M127 55q0 15 2 23q9 43 45 73.5t78 30.5q37 0 61.5 -24.5t24.5 -59.5q0 -12 -2 -20q-9 -43 -46.5 -73t-80.5 -30q-37 0 -59.5 22.5t-22.5 57.5zM573 55q0 15 2 23q9 43 45 73.5t78 30.5q37 0 61.5 -24.5t24.5 -59.5q0 -12 -2 -20q-9 -43 -46.5 -73t-80.5 -30 q-37 0 -59.5 22.5t-22.5 57.5zM1020 55q0 15 2 23q9 43 45 73.5t78 30.5q37 0 61.5 -24.5t24.5 -59.5q0 -12 -2 -20q-9 -43 -46.5 -73t-80.5 -30q-37 0 -59.5 22.5t-22.5 57.5z" />
<glyph unicode="&#x202f;" horiz-adv-x="393" />
<glyph unicode="&#x2039;" horiz-adv-x="555" d="M150 455l14 67l463 344l-33 -157l-297 -220l203 -221l-33 -153z" />
<glyph unicode="&#x203a;" horiz-adv-x="557" d="M133 115l33 153l301 221l-207 220l33 157l321 -344l-14 -67z" />
<glyph unicode="&#x205f;" horiz-adv-x="492" />
<glyph unicode="&#x20ac;" horiz-adv-x="1093" d="M135 465l68 113h119q2 5 5 19.5t5 20.5q21 118 30 146h-163l67 108h131q85 232 243.5 364t354.5 132q164 0 285 -127l-39 -190q-55 92 -118 132t-150 40q-131 0 -234.5 -89.5t-169.5 -261.5h486l-70 -108h-450q-2 -8 -6.5 -21.5t-6.5 -21.5q-27 -131 -28 -143h374 l-71 -113h-314q0 -7 -1 -21t-1 -20q0 -150 65.5 -229.5t190.5 -79.5q86 0 166 41t176 135l-41 -191q-167 -123 -338 -123q-186 0 -288.5 113t-102.5 324q0 33 2 51h-176z" />
<glyph unicode="&#x2122;" horiz-adv-x="1349" d="M342 1346v88h432v-88h-170v-435h-94v435h-168zM868 911v523h146l147 -232l137 232h144v-523h-96v435l-160 -271h-47l-172 271v-435h-99z" />
<glyph unicode="&#x25fc;" horiz-adv-x="921" d="M0 0v922h922v-922h-922z" />
</font>
</defs>
</svg>
