<?xml version="1.0" standalone="no"?>
<!DOCTYPE svg PUBLIC "-//W3C//DTD SVG 1.1//EN" "http://www.w3.org/Graphics/SVG/1.1/DTD/svg11.dtd" >
<svg xmlns="http://www.w3.org/2000/svg">
<metadata></metadata>
<defs>
<font id="universalis_adf_stdbold_cond" horiz-adv-x="1011" >
<font-face units-per-em="2048" ascent="1536" descent="-512" />
<missing-glyph horiz-adv-x="583" />
<glyph unicode="AE" horiz-adv-x="1576" d="M12 0l533 1456l41 -33h534l68 -219h-529l101 -264h532l68 -217h-526l180 -502h491l66 -221h-725l-121 336h-360l-121 -336h-232zM432 555h234l-121 406z" />
<glyph unicode="ae" horiz-adv-x="1503" d="M78 283q0 160 102 236.5t305 76.5h131q0 64 -44.5 99.5t-127.5 35.5q-47 -2 -103.5 -22.5t-96.5 -59.5l-107 166q145 123 320 123q78 0 129.5 -16t81.5 -41t80 -80q52 60 119 98.5t139 38.5h10h8q171 0 274 -117t117 -317v-94h-590q0 -94 57 -159t144 -65h14 q128 0 217 109l142 -115q-58 -96 -157 -148.5t-218 -54.5q-112 1 -181.5 53.5t-113.5 145.5q-59 -196 -313 -196q-159 0 -248.5 79t-89.5 224zM326 295q0 -54 27.5 -84.5t78.5 -30.5q85 0 134.5 62t49.5 168h-77q-121 0 -167 -25t-46 -90zM846 596h344q-11 65 -59.5 99 t-112.5 34q-59 0 -111.5 -44t-60.5 -89z" />
<glyph unicode="OE" horiz-adv-x="1957" d="M80 711q0 338 173.5 541.5t459.5 203.5q123 0 223 -60t166 -173v194h762v-219h-533v-256h533v-221h-533v-504h545v-203h-774v203q-63 -118 -163 -180t-226 -62q-288 0 -460.5 199.5t-172.5 536.5zM342 711q0 -230 103.5 -368t267.5 -138q163 0 271 121t118 338v81 q-10 214 -117 341.5t-272 127.5q-160 0 -265.5 -136t-105.5 -367z" />
<glyph unicode="oe" horiz-adv-x="1648" d="M86 455q0 202 128.5 342.5t313.5 140.5q101 0 180.5 -52t131.5 -147q47 96 129.5 147.5t187.5 51.5h8q173 0 277.5 -117t118.5 -317v-47v-37h-605q0 -96 62 -165t149 -69h15q128 0 217 115l143 -121q-58 -95 -158 -148t-219 -55q-103 0 -187.5 56.5t-135.5 154.5 q-114 -211 -314 -211q-121 0 -222.5 63t-160.5 173t-59 242zM338 455q0 -111 56.5 -190t135.5 -79q77 0 133 79.5t56 189.5q0 109 -56.5 191.5t-132.5 82.5q-79 0 -135.5 -82t-56.5 -192zM975 598h358q-11 65 -60.5 98t-115.5 33q-59 0 -115.5 -44t-66.5 -87z" />
<glyph unicode="&#xfb01;" horiz-adv-x="1015" d="M82 725v193h111v260q0 355 282 358h160v-215h-154q-38 0 -52.5 -31t-16.5 -96v-276h462v-918h-217v725h-245v-725h-219v725h-111zM631 1268q0 60 39.5 100.5t97.5 40.5q57 0 96 -40.5t39 -100.5t-39 -102t-96 -42q-58 0 -97.5 42t-39.5 102z" />
<glyph unicode="&#xfb02;" horiz-adv-x="1019" d="M82 725v193h111v249q0 363 292 369h394v-1536h-217v1321h-179q-37 0 -52 -36t-17 -101v-266h139v-193h-139v-725h-221v725h-111z" />
<glyph unicode="&#xfb03;" horiz-adv-x="1525" d="M63 725v193h113v249q0 363 285 369h162v-215h-164q-35 0 -50 -35.5t-18 -103.5v-264h311v260q0 169 70 263t217 95h164v-215h-156q-39 0 -54 -31t-17 -96v-276h469v-918h-219v725h-250v-725h-224v725h-311v-725h-215v725h-113zM1149 1268q0 60 39.5 100.5t97.5 40.5 t97.5 -40.5t39.5 -100.5t-39.5 -102t-97.5 -42t-97.5 42t-39.5 102z" />
<glyph unicode="&#xfb04;" horiz-adv-x="1540" d="M66 725v193h110v249q0 363 287 369h162v-215h-164q-37 0 -51.5 -36t-16.5 -103v-264h314v249q0 363 294 369h398v-1536h-219v1321h-181q-38 0 -52.5 -35.5t-16.5 -101.5v-266h139v-193h-139v-725h-223v725h-314v-725h-217v725h-110z" />
<glyph horiz-adv-x="0" />
<glyph horiz-adv-x="682" />
<glyph unicode=" "  horiz-adv-x="583" />
<glyph unicode="&#x09;" horiz-adv-x="583" />
<glyph unicode="&#xa0;" horiz-adv-x="583" />
<glyph unicode="!" horiz-adv-x="624" d="M182 125q0 64 39 109t92 45q57 0 96.5 -44.5t39.5 -109.5q0 -64 -39.5 -108t-96.5 -44q-53 0 -92 44t-39 108zM215 756v678h188v-678l-10 -338h-162z" />
<glyph unicode="&#x22;" horiz-adv-x="745" d="M141 918v516h187v-516h-187zM416 918v516h188v-516h-188z" />
<glyph unicode="#" horiz-adv-x="1345" d="M41 344v215h258l35 201h-195v215h232l61 356h215l-61 -356h272l62 356h215l-62 -356h223v-215h-260l-32 -201h194v-215h-231l-60 -344h-215l58 344h-271l-59 -344h-215l57 344h-221zM516 559h270l35 201h-270z" />
<glyph unicode="$" horiz-adv-x="870" d="M61 135l121 176q55 -72 84 -93.5t86 -22.5v301q-149 34 -213.5 116.5t-64.5 235.5q0 160 70 252t208 104v230h154v-226q103 -3 235 -135l-114 -186q-3 4 -19 26.5t-21.5 28.5t-19.5 19t-28.5 18t-32.5 6v-270q157 -34 232 -122t75 -241q0 -168 -78.5 -264t-228.5 -106 v-238h-154v238q-81 0 -150.5 32.5t-140.5 120.5zM309 858q0 -91 43 -121v248q-43 -13 -43 -127zM506 201q59 22 59 133q0 105 -59 131v-264z" />
<glyph unicode="%" horiz-adv-x="1773" d="M47 1004q0 147 111.5 252.5t267.5 105.5q160 0 269.5 -104.5t109.5 -258.5q0 -148 -112.5 -255t-266.5 -107q-155 0 -267 108t-112 259zM281 1004q0 -59 42.5 -100.5t102.5 -41.5t102.5 41t42.5 98t-42.5 97.5t-102.5 40.5t-102.5 -39.5t-42.5 -95.5zM416 -27l778 1389 h176l-776 -1389h-178zM969 336q0 151 112 258.5t267 107.5q159 0 267.5 -107t108.5 -265q0 -145 -111.5 -251t-264.5 -106q-155 0 -267 107t-112 256zM1202 334q0 -58 43 -98.5t103 -40.5q59 0 101 40t42 97q0 59 -41.5 101t-101.5 42t-103 -41.5t-43 -99.5z" />
<glyph unicode="&#x26;" horiz-adv-x="1155" d="M82 408q0 119 57 200t154 109q-91 27 -137.5 97t-46.5 173q0 179 108 280t293 101q60 -2 124 -28t116 -74l-115 -191q-36 53 -113 60q-70 0 -106.5 -43.5t-36.5 -122.5q0 -67 36.5 -103.5t102.5 -36.5h88v-235h-84q-81 0 -124.5 -49.5t-43.5 -136.5q0 -89 50 -136 t145 -47q166 0 227 13v499h-100v187h100v211h219v-211h103v-187h-103v-731h-219q-42 -15 -119 -22q-79 -7 -112 -7q-222 0 -342.5 111.5t-120.5 319.5z" />
<glyph unicode="'" horiz-adv-x="477" d="M82 1087l168 373l153 -94l-206 -354z" />
<glyph unicode="(" horiz-adv-x="536" d="M92 580q0 417 201 854h172q-137 -412 -137 -854q0 -440 139 -826h-172q-203 412 -203 826z" />
<glyph unicode=")" horiz-adv-x="532" d="M63 -246q142 399 142 824q0 452 -142 856h173q98 -208 150 -429.5t52 -426.5q0 -417 -202 -824h-173z" />
<glyph unicode="*" horiz-adv-x="837" d="M84 1044l221 111l-221 107l78 135l184 -133v227h143v-227l187 133l80 -135l-224 -107l224 -111l-80 -131l-187 134v-230h-143v230l-184 -134z" />
<glyph unicode="+" horiz-adv-x="864" d="M72 463v225h256v324h207v-324h260v-225h-260v-324h-207v324h-256z" />
<glyph unicode="," horiz-adv-x="479" d="M84 -227l168 372l151 -96l-204 -352z" />
<glyph unicode="-" horiz-adv-x="743" d="M160 369v176h424v-176h-424z" />
<glyph unicode="." horiz-adv-x="466" d="M117 98q0 53 31.5 91t78.5 38q46 0 80.5 -38.5t34.5 -90.5q0 -55 -34 -92t-81 -37t-78.5 37t-31.5 92z" />
<glyph unicode="/" horiz-adv-x="636" d="M39 -168l381 1704h201l-381 -1704h-201z" />
<glyph unicode="0" horiz-adv-x="1138" d="M166 711q0 365 102 555t299 190q192 0 297 -191t105 -554q0 -362 -104 -549t-298 -187q-195 0 -298 185t-103 551zM410 711q0 -510 157 -510q154 0 154 510q0 508 -154 508q-157 0 -157 -508z" />
<glyph unicode="1" horiz-adv-x="671" d="M106 1198l64 236h287v-1434h-203v1198h-148z" />
<glyph unicode="2" d="M125 0v203l381 532q60 91 84 151.5t24 125.5q0 87 -41.5 144.5t-105.5 57.5q-54 0 -91 -45t-42 -104h-209q1 158 103 272.5t235 120.5q178 0 287.5 -118t109.5 -316q0 -191 -125 -395l-350 -426h465v-203h-725z" />
<glyph unicode="3" horiz-adv-x="1050" d="M98 360h217q14 -75 57 -117t109 -42q70 0 112 57t42 160q0 105 -51 167t-140 62v211q77 0 123.5 48t46.5 134q0 85 -35 132t-98 47q-60 0 -97.5 -39.5t-47.5 -114.5h-217q12 183 107.5 287t254.5 104q173 0 276 -105t103 -294q0 -113 -47.5 -191.5t-136.5 -109.5 q97 -28 152.5 -116.5t58.5 -221.5q0 -214 -106 -328.5t-300 -114.5q-167 0 -266 96t-117 289z" />
<glyph unicode="4" horiz-adv-x="987" d="M35 293v82l616 1085l68 -2v-952h153v-213h-153v-293h-205v293h-479zM346 506h168v317z" />
<glyph unicode="5" d="M98 180l127 168q84 -125 189 -131q89 0 141.5 69.5t52.5 192.5q0 122 -53 193t-141 71q-124 0 -258 -55l159 746h527l-39 -224h-357l-57 -254q15 14 43.5 23t30.5 10q190 0 289.5 -133t99.5 -377q0 -242 -114.5 -373t-321.5 -131q-77 0 -162 51.5t-156 153.5z" />
<glyph unicode="6" horiz-adv-x="1105" d="M123 471q0 182 82 317l440 670l172 -117l-248 -374q169 0 287.5 -143t118.5 -351q0 -209 -118.5 -352.5t-287.5 -143.5q-121 0 -223.5 64.5t-162.5 178.5t-60 251zM383 471q0 -107 49.5 -184.5t118.5 -77.5q72 0 123 77t51 185q0 109 -51 188.5t-123 79.5 q-69 0 -118.5 -79.5t-49.5 -188.5z" />
<glyph unicode="7" horiz-adv-x="923" d="M92 1212v222h739l-395 -1434h-221l342 1212h-465z" />
<glyph unicode="8" horiz-adv-x="1122" d="M160 418q0 130 52 220.5t148 117.5q-83 29 -125 109t-42 198q0 184 96 288.5t272 104.5q170 0 268.5 -102t98.5 -291q0 -117 -41.5 -197t-126.5 -110q93 -28 143.5 -116t52.5 -222q0 -215 -102 -329t-293 -114q-193 0 -297 111.5t-104 331.5zM410 418q0 -103 39.5 -160 t111.5 -57q69 0 109.5 57t40.5 160q0 102 -39 159.5t-111 57.5t-111.5 -56t-39.5 -161zM438 1044q0 -83 32 -128.5t91 -45.5q57 0 89 46t32 128q0 175 -121 175q-123 0 -123 -175z" />
<glyph unicode="9" horiz-adv-x="1105" d="M129 954q0 139 54.5 254.5t147 181.5t201.5 66q187 0 317 -144.5t130 -355.5q0 -188 -82 -315l-444 -668l-170 111l249 377q-109 0 -201.5 65t-147 179t-54.5 249zM381 956q0 -109 50 -188.5t120 -79.5t120 79.5t50 188.5q0 108 -50 185.5t-120 77.5t-120 -77.5 t-50 -185.5z" />
<glyph unicode=":" horiz-adv-x="487" d="M113 111q0 59 35.5 102t87.5 43q51 0 88.5 -43t37.5 -102t-37 -100.5t-89 -41.5t-87.5 41t-35.5 101zM113 713q0 60 35.5 102.5t87.5 42.5q51 0 88.5 -42.5t37.5 -102.5q0 -59 -37 -99.5t-89 -40.5q-53 0 -88 40t-35 100z" />
<glyph unicode=";" horiz-adv-x="471" d="M80 -217l158 430l143 -111l-195 -405zM117 713q0 60 36.5 102.5t90.5 42.5q52 0 90.5 -43t38.5 -102q0 -60 -38.5 -102t-90.5 -42q-54 0 -90.5 41.5t-36.5 102.5z" />
<glyph unicode="&#x3c;" horiz-adv-x="1134" d="M55 428v190l979 355v-213l-686 -238l686 -235v-213z" />
<glyph unicode="=" horiz-adv-x="1056" d="M141 287v194h774v-194h-774zM141 569v191h774v-191h-774z" />
<glyph unicode="&#x3e;" horiz-adv-x="1130" d="M96 74v213l686 235l-686 238v213l981 -355v-190z" />
<glyph unicode="?" horiz-adv-x="858" d="M123 1044q3 201 96 316q83 96 201 96q134 0 216.5 -84.5t88.5 -226.5q0 -36 -11.5 -75.5t-25 -68.5t-40 -68t-39 -55t-40.5 -50l-28 -33q-30 -39 -46 -62t-32.5 -53.5t-16.5 -48.5q0 -47 -2 -49h7q27 0 30 69h174q-2 -133 -59.5 -222t-153.5 -89h-8q-91 2 -166 81 t-75 193q0 104 46.5 188.5t129.5 174.5q98 102 100 156q0 67 -59 67q-32 0 -53.5 -41.5t-24.5 -114.5h-209zM295 125q0 63 42 108.5t99 45.5q61 0 103.5 -45.5t42.5 -108.5q0 -64 -42 -108t-104 -44q-58 0 -99.5 44t-41.5 108z" />
<glyph unicode="@" horiz-adv-x="1669" d="M66 461q0 166 64 311t172.5 245.5t254 158t305.5 57.5q148 0 284.5 -52.5t238 -142t162.5 -216.5t61 -267q0 -228 -148 -359t-407 -137v117q-90 -127 -244 -127q-158 0 -259 113t-101 295q0 175 100 290t260 115q158 0 244 -127v99h164v-594q91 19 140.5 100.5 t51.5 212.5q0 111 -46.5 206t-123.5 158t-174.5 99.5t-200.5 38.5q-129 0 -243 -49t-192.5 -131t-123.5 -190t-45 -224q0 -165 80.5 -299.5t214.5 -208.5t293 -74q208 0 405 154l113 -133q-111 -96 -244 -147t-274 -54q-173 0 -321.5 62.5t-248.5 168t-156 243.5t-56 288z M662 457q0 -100 47.5 -158.5t132.5 -58.5q79 0 128.5 58.5t49.5 158.5q0 95 -49 151t-131 56q-78 0 -126.5 -54t-51.5 -153z" />
<glyph unicode="A" horiz-adv-x="1075" d="M14 0l521 1456l526 -1456h-217l-115 336h-383l-113 -336h-219zM420 555h231l-116 356z" />
<glyph unicode="B" horiz-adv-x="1048" d="M141 0v1434h389q179 0 282 -98.5t103 -278.5q0 -250 -174 -287q101 -31 159 -123t58 -229q0 -202 -107 -310t-304 -108h-406zM362 225h175q82 0 122.5 52t40.5 161q0 211 -163 211h-175v-424zM362 874h158q144 0 144 166q0 158 -144 164h-158v-330z" />
<glyph unicode="C" horiz-adv-x="1054" d="M86 709q0 344 150 545.5t407 201.5q196 0 373 -156l-105 -176q-125 90 -258 90q-147 0 -227 -130t-80 -375q0 -244 78 -373t229 -129q123 0 244 82l119 -162q-154 -154 -373 -154q-257 0 -407 195t-150 541z" />
<glyph unicode="D" horiz-adv-x="1196" d="M141 0v1440h328q327 0 481 -172.5t154 -548.5q0 -372 -152.5 -545.5t-482.5 -173.5h-328zM360 225h129q183 0 268 119.5t85 374.5q0 252 -85.5 371.5t-267.5 119.5h-129v-985z" />
<glyph unicode="E" horiz-adv-x="964" d="M141 0v1434h727v-226h-508v-262h508v-223h-508v-504h521v-219h-740z" />
<glyph unicode="F" horiz-adv-x="870" d="M141 0v1434h660v-226h-443v-262h443v-221h-443v-725h-217z" />
<glyph unicode="G" horiz-adv-x="1181" d="M86 715q0 351 152 546t419 195q223 0 398 -149l-92 -191q-140 98 -295 98q-158 0 -241 -125t-83 -374q0 -267 82 -403t242 -136q122 0 188 74v313h-219v211h450v-598q-175 -201 -430 -201q-270 0 -420.5 193t-150.5 547z" />
<glyph unicode="H" horiz-adv-x="1155" d="M141 0v1434h221v-557h431v557h221v-1434h-221v653h-431v-653h-221z" />
<glyph unicode="I" horiz-adv-x="503" d="M141 0v1434h221v-1434h-221z" />
<glyph unicode="J" horiz-adv-x="636" d="M102 -25v232h74q60 0 84.5 60t24.5 214v953h219v-953q0 -260 -75 -383t-239 -123h-88z" />
<glyph unicode="K" horiz-adv-x="1077" d="M141 0v1434h224v-568l411 568h254l-510 -666l545 -768h-258l-442 649v-649h-224z" />
<glyph unicode="L" horiz-adv-x="882" d="M141 0v1434h219v-1215h496v-219h-715z" />
<glyph unicode="M" horiz-adv-x="1488" d="M41 0l391 1434h14l308 -873l284 873h15l393 -1434h-229l-205 766l-269 -766l-268 762l-207 -762h-227z" />
<glyph unicode="N" horiz-adv-x="1150" d="M141 0v1434h17l645 -838v838h207v-1434h-19l-641 819v-819h-209z" />
<glyph unicode="O" horiz-adv-x="1386" d="M82 711q0 338 167 541.5t443 203.5q272 0 440 -203.5t168 -541.5q0 -337 -164.5 -536.5t-443.5 -199.5t-444.5 199t-165.5 537zM336 711q0 -230 99.5 -368t256.5 -138q155 0 255 137t100 369q0 227 -99.5 365t-255.5 138q-154 0 -255 -135.5t-101 -367.5z" />
<glyph unicode="P" horiz-adv-x="948" d="M141 0v1434h332q198 0 305 -106.5t107 -328.5q0 -218 -106 -326t-306 -108h-113v-565h-219zM360 795h113q72 0 114 51t42 153q0 197 -156 203h-113v-407z" />
<glyph unicode="Q" horiz-adv-x="1394" d="M82 711q0 338 166.5 541.5t443.5 203.5q269 0 436.5 -204t167.5 -541q0 -289 -125 -473l125 -222h-227l-47 78q-131 -119 -330 -119q-279 0 -444.5 199t-165.5 537zM336 711q0 -230 100 -368t256 -138q111 0 199 59l-172 281h225l78 -139q27 132 27 305q0 228 -100 365.5 t-257 137.5q-154 0 -255 -135.5t-101 -367.5z" />
<glyph unicode="R" horiz-adv-x="970" d="M141 0v1434h340q184 0 287.5 -108t103.5 -322q-7 -173 -64 -262t-157 -124l256 -618h-225l-254 567h-68v-567h-219zM360 799h121q69 0 105.5 52.5t36.5 152.5q0 192 -142 198h-121v-403z" />
<glyph unicode="S" horiz-adv-x="966" d="M74 1034q1 121 55 217t146 149.5t206 55.5q219 -3 375 -219l-143 -164q-95 141 -215 141q-174 0 -174 -180v-8q0 -63 31.5 -96t115.5 -56l82 -22q337 -88 340 -440q-2 -189 -123.5 -313t-310.5 -124h-4q-87 0 -191 52.5t-184 142.5l139 180q111 -129 236 -135 q184 0 184 182q0 78 -35 124.5t-115 66.5l-83 24q-174 44 -253 144t-79 278z" />
<glyph unicode="T" horiz-adv-x="1001" d="M37 1208v226h928v-226h-353v-1208h-221v1208h-354z" />
<glyph unicode="U" horiz-adv-x="1126" d="M129 551v883h225v-859q0 -192 50.5 -279t162.5 -87q107 0 158 87.5t51 278.5v859h221v-883q0 -576 -430 -576q-438 0 -438 576z" />
<glyph unicode="V" horiz-adv-x="1095" d="M27 1434h227l303 -869l289 869h225l-512 -1454h-20z" />
<glyph unicode="W" horiz-adv-x="1480" d="M39 1434h227l209 -791l266 791l267 -779l206 779h230l-389 -1454h-17l-297 917l-297 -917q-1 -3 -3.5 -3t-6.5 1.5t-6 1.5z" />
<glyph unicode="X" horiz-adv-x="1050" d="M27 0l362 764l-311 670h225l229 -494l228 494h231l-327 -691l348 -743h-228l-262 567l-264 -567h-231z" />
<glyph unicode="Y" horiz-adv-x="997" d="M16 1434h232l256 -547l254 547h225l-369 -758v-676h-233v676z" />
<glyph unicode="Z" horiz-adv-x="1028" d="M41 0l596 1221h-569v213h901l-598 -1225h600v-209h-930z" />
<glyph unicode="[" horiz-adv-x="557" d="M141 -256v1690h342v-205h-143v-1278h143v-207h-342z" />
<glyph unicode="\" horiz-adv-x="622" d="M39 1223h199l344 -1377h-201z" />
<glyph unicode="]" horiz-adv-x="552" d="M74 -49h143v1278h-143v205h338v-1690h-338v207z" />
<glyph unicode="^" horiz-adv-x="1083" d="M49 766l397 457h187l399 -457h-217l-274 270l-277 -270h-215z" />
<glyph unicode="_" horiz-adv-x="800" d="M-10 -276h817v-117h-817v117z" />
<glyph unicode="`" horiz-adv-x="507" d="M78 1360l151 98l195 -295l-119 -88z" />
<glyph unicode="a" d="M96 457q0 215 103 348t268 133q138 0 197 -143v123h206v-918h-206v117q-61 -137 -197 -137q-164 0 -267.5 131t-103.5 346zM354 457q0 -121 36.5 -190.5t103.5 -69.5q79 0 124.5 69t45.5 191q0 120 -45 188t-125 68q-64 0 -102 -67.5t-38 -188.5z" />
<glyph unicode="b" horiz-adv-x="1015" d="M141 0v1536h201v-731q32 75 79.5 104t121.5 29q171 0 269.5 -115.5t98.5 -339.5q0 -226 -101 -366t-267 -140q-68 0 -115.5 34.5t-85.5 115.5v-127h-201zM342 483q0 -128 45 -207t129 -79q65 0 103 79t38 207q0 122 -36 176t-105 54q-84 0 -129 -53t-45 -177z" />
<glyph unicode="c" horiz-adv-x="849" d="M88 455q0 201 120.5 342t287.5 141q182 -12 290 -145l-135 -152q-71 88 -151 88q-72 0 -124 -82t-52 -192t52 -189.5t124 -79.5q85 0 151 82l135 -164q-73 -67 -140.5 -97t-149.5 -30q-167 0 -287.5 139.5t-120.5 338.5z" />
<glyph unicode="d" d="M96 483q1 139 52.5 244t133.5 158t181 53h4q69 0 117.5 -33t79.5 -112v743h206v-1536h-206v127q-63 -150 -197 -150q-166 0 -268 133t-103 373zM352 483q0 -130 34 -208t103 -78h5q79 0 124.5 71.5t45.5 196.5q0 124 -44.5 186t-125.5 62q-67 0 -104.5 -57.5 t-37.5 -172.5z" />
<glyph unicode="e" horiz-adv-x="970" d="M88 455q0 203 118 343t292 140h8q167 0 270 -117.5t103 -316.5v-84h-570q0 -96 58.5 -168t140.5 -72h6q129 0 213 121l139 -121q-56 -96 -151 -148.5t-209 -54.5q-175 0 -296.5 138.5t-121.5 339.5zM328 596h336q-22 133 -166 133q-55 0 -107.5 -44.5t-62.5 -88.5z" />
<glyph unicode="f" horiz-adv-x="602" d="M78 725v193h106v249q0 363 281 369h158v-215h-160q-36 0 -50 -36t-16 -103v-264h129v-193h-129v-725h-213v725h-106z" />
<glyph unicode="g" horiz-adv-x="1013" d="M96 453q0 217 101 351t266 134q126 0 186 -152v132h223v-912q0 -461 -395 -467q-97 0 -195.5 47.5t-152.5 143.5l160 143q62 -106 172 -106q188 0 188 223v121q-62 -134 -186 -134q-162 0 -264.5 133t-102.5 343zM352 453q0 -123 35.5 -189.5t101.5 -66.5q76 0 118 65 t42 187t-42 193t-118 71q-66 0 -101.5 -68t-35.5 -192z" />
<glyph unicode="h" horiz-adv-x="993" d="M141 0v1536h209v-735q37 76 84 106.5t115 30.5q315 0 315 -403v-535h-235v528q0 94 -26 138.5t-81 46.5q-79 0 -124 -55.5t-48 -155.5v-502h-209z" />
<glyph unicode="i" horiz-adv-x="493" d="M115 1262q0 59 40 100t93 41t93 -41t40 -100t-40 -100.5t-93 -41.5t-93 41.5t-40 100.5zM141 0v918h211v-918h-211z" />
<glyph unicode="j" horiz-adv-x="475" d="M117 1262q0 59 40 100t95 41q53 0 93 -41t40 -100q0 -60 -39.5 -102t-93.5 -42q-55 0 -95 41.5t-40 102.5zM141 -461v1379h211v-1379h-211z" />
<glyph unicode="k" horiz-adv-x="944" d="M141 0v1536h203v-952l305 334h242l-391 -418l407 -500h-245l-318 410v-410h-203z" />
<glyph unicode="l" horiz-adv-x="491" d="M141 0v1536h209v-1536h-209z" />
<glyph unicode="m" horiz-adv-x="1511" d="M141 0v913h217v-125q39 77 88 113.5t119 36.5q177 0 238 -172q46 88 110.5 130t155.5 42q150 0 231.5 -104t81.5 -297v-537h-245v532q0 181 -101 181q-74 0 -116.5 -56t-45.5 -153v-504h-241v532q0 181 -105 181q-75 0 -121 -57.5t-49 -151.5v-504h-217z" />
<glyph unicode="n" horiz-adv-x="993" d="M141 0v913h209v-125q76 150 199 150q153 0 234 -101.5t81 -299.5v-537h-235v532q0 178 -107 181q-79 0 -124 -56t-48 -153v-504h-209z" />
<glyph unicode="o" horiz-adv-x="1017" d="M88 455q0 202 122.5 342.5t297.5 140.5q173 0 293.5 -139.5t120.5 -341.5q0 -133 -55 -243.5t-150 -173.5t-209 -63q-175 0 -297.5 138.5t-122.5 339.5zM330 455q0 -110 53 -189.5t127 -79.5q72 0 124 79.5t52 189.5t-52 192t-124 82q-73 0 -126.5 -82.5t-53.5 -191.5z " />
<glyph unicode="p" horiz-adv-x="1015" d="M141 -461v1379h205v-134q34 79 81 116.5t116 37.5q168 0 268 -126.5t100 -352.5q0 -221 -100.5 -353.5t-267.5 -132.5q-72 0 -118 27t-79 104v-565h-205zM346 459q0 -124 43.5 -193t126.5 -69q66 0 103.5 68.5t37.5 193.5q0 124 -37 189t-104 65q-79 0 -124.5 -63.5 t-45.5 -190.5z" />
<glyph unicode="q" d="M96 444q0 225 102.5 359.5t268.5 134.5q139 0 201 -154v134h202v-1379h-202v584q-63 -150 -201 -150q-75 0 -142 31.5t-118 90t-81 149t-30 200.5zM352 444q0 -123 36.5 -185t105.5 -62q83 0 128.5 65t45.5 189q0 125 -46 193.5t-128 68.5q-66 0 -104 -70t-38 -199z" />
<glyph unicode="r" horiz-adv-x="720" d="M141 0v918h201v-130q60 150 201 150q25 0 68.5 -16.5t74.5 -47.5l-72 -194q-57 33 -108 33q-78 0 -119.5 -62.5t-44.5 -177.5v-473h-201z" />
<glyph unicode="s" horiz-adv-x="817" d="M92 164l160 139q60 -117 145 -117q41 0 65 22.5t27 57.5q0 19 -12.5 32.5t-27 19.5t-46.5 16.5t-49 17.5q-123 38 -178 100t-59 179v8q0 132 84.5 215.5t230.5 83.5h4h4q69 0 147.5 -56.5t123.5 -140.5l-146 -112q-21 36 -60.5 68t-80.5 32q-88 -3 -88 -92q0 -55 149 -90 q46 -16 77.5 -30.5t64.5 -37t53 -49.5t32.5 -66.5t12.5 -89.5q-1 -94 -50.5 -164.5t-122.5 -103.5t-157 -33q-191 0 -303 191z" />
<glyph unicode="t" horiz-adv-x="555" d="M84 727v191h92v362h201v-362h90v-191h-90v-727h-201v727h-92z" />
<glyph unicode="u" horiz-adv-x="983" d="M129 377v541h229v-535q0 -86 39 -136t99 -50q65 0 94 50.5t31 162.5v508h233v-541q0 -185 -95.5 -292.5t-254.5 -107.5h-8q-159 0 -263 104.5t-104 295.5z" />
<glyph unicode="v" horiz-adv-x="909" d="M39 918h215l203 -490l198 490h217l-405 -938h-25z" />
<glyph unicode="w" horiz-adv-x="1288" d="M39 918h221l184 -453l197 453l203 -451l186 451h221l-395 -938h-22l-193 499l-186 -499l-23 20z" />
<glyph unicode="x" horiz-adv-x="940" d="M47 0l289 477l-262 441h233l172 -283l162 283h231l-270 -451l283 -467h-232l-190 317l-182 -317h-234z" />
<glyph unicode="y" horiz-adv-x="1042" d="M127 459v459h240v-459q0 -126 37.5 -194t111.5 -68q75 0 115.5 68.5t40.5 193.5v459h229v-895q0 -484 -395 -484q-4 0 -13.5 -1t-13.5 -1q-96 0 -185 50.5t-140 142.5l159 147q59 -106 174 -106q185 0 185 225v121q-51 -140 -185 -140q-160 0 -260 130.5t-100 351.5z" />
<glyph unicode="z" horiz-adv-x="878" d="M90 0v182l449 553h-426v183h667v-189l-442 -551h442v-178h-690z" />
<glyph unicode="{" horiz-adv-x="729" d="M41 436v226h90q55 0 76.5 37.5t21.5 136.5v202q0 113 13.5 180t53 110.5t103.5 59t172 15.5h84v-221h-90q-51 0 -67 -27t-19 -119v-211q0 -134 -28.5 -194t-100.5 -82q73 -25 101 -84.5t28 -190.5v-213q0 -83 16.5 -109t69.5 -26h90v-223h-84q-106 0 -169 14.5 t-103.5 55.5t-55 107.5t-14.5 178.5v205q0 94 -21 133t-77 39h-90z" />
<glyph unicode="|" horiz-adv-x="432" d="M137 -307v1741h148v-1741h-148z" />
<glyph unicode="}" horiz-adv-x="724" d="M72 -74h92q52 0 67 25t15 110v213q0 131 29 190.5t102 84.5q-72 22 -101.5 82t-29.5 194v211q0 90 -15 118t-67 28h-92v221h88q106 0 168.5 -15t102.5 -58t54.5 -110.5t14.5 -181.5v-202q0 -99 21 -136.5t77 -37.5h84v-226h-84q-56 0 -77 -36t-21 -136v-205 q0 -88 -9.5 -146.5t-31.5 -101.5t-62.5 -65.5t-96.5 -32.5t-140 -10h-88v223z" />
<glyph unicode="~" horiz-adv-x="1202" d="M102 381v168q86 57 157.5 83.5t152.5 26.5q102 0 215 -45q76 -32 157 -32q142 0 295 88v-170q-85 -59 -156.5 -84t-154.5 -27q-99 0 -215 43q-78 37 -158 37q-135 0 -293 -88z" />
<glyph unicode="&#xa1;" horiz-adv-x="622" d="M178 1303q0 64 39.5 108.5t93.5 44.5q56 0 94.5 -44.5t38.5 -108.5t-38.5 -108t-94.5 -44q-55 0 -94 44t-39 108zM215 0v653l14 355h160l12 -355v-653h-186z" />
<glyph unicode="&#xa2;" horiz-adv-x="833" d="M68 455q0 220 89 348t261 147v224h155v-224q102 -7 181 -63v-215q-99 73 -181 76v-584q85 3 181 76v-215q-80 -51 -181 -60v-219h-155v223q-167 12 -258.5 139.5t-91.5 346.5zM324 455q0 -260 94 -287v575q-44 -10 -69 -86.5t-25 -201.5z" />
<glyph unicode="&#xa3;" horiz-adv-x="919" d="M70 0v219h149v309h-125v203h125v156q0 249 82.5 365t265.5 116q100 -5 184 -63t130 -160l-138 -148q-35 47 -52 66.5t-46 35.5t-65 17q-71 0 -99 -52t-28 -196v-137h252v-203h-252v-309h366v-219h-749z" />
<glyph unicode="&#xa4;" horiz-adv-x="1142" d="M51 219l166 172q-59 97 -59 184q0 102 61 183l-166 172l152 147l172 -166q80 60 184 60q99 0 184 -58l175 168l151 -149l-170 -170q60 -83 60 -187q0 -101 -62 -182l170 -172l-151 -149l-175 166q-88 -60 -182 -60q-102 0 -188 58l-172 -166zM401 578q0 -68 46.5 -116 t113.5 -48q63 0 108.5 48.5t45.5 115.5q0 62 -45 108.5t-109 46.5t-112 -45t-48 -110z" />
<glyph unicode="&#xa5;" horiz-adv-x="983" d="M53 1346h221l218 -576l219 576h221l-213 -504h162v-185h-232l-35 -94h267v-182h-273v-381h-235v381h-273v180h273l-37 96h-236v185h166z" />
<glyph unicode="&#xa6;" horiz-adv-x="425" d="M137 -285v662h148v-662h-148zM137 502v672h148v-672h-148z" />
<glyph unicode="&#xa7;" horiz-adv-x="806" d="M74 637v8q0 162 114 244q-70 62 -73 182q0 130 81.5 213.5t215.5 83.5q129 0 235 -76v-213q-133 54 -225 54q-28 0 -47 -17.5t-19 -50.5q0 -54 101 -121q69 -59 98 -84t69 -63.5t53 -58t29 -50.5t19.5 -58.5t3.5 -66.5q0 -150 -115 -241q39 -43 56 -84.5t18 -98.5 q0 -139 -83 -225t-218 -86q-109 0 -242 74v213q116 -45 226 -52q73 0 73 70q0 59 -108 139l-19 15q-148 112 -195.5 181t-47.5 169zM303 672q0 -53 31 -95t145 -133q21 54 21 95q0 50 -33.5 96.5t-140.5 130.5q-20 -45 -23 -94z" />
<glyph unicode="&#xa8;" horiz-adv-x="815" d="M109 1214q0 61 38.5 104.5t94.5 43.5q58 0 96.5 -43.5t38.5 -104.5t-38.5 -104t-96.5 -43q-56 0 -94.5 43t-38.5 104zM426 1214q0 61 38.5 104.5t94.5 43.5t94.5 -43.5t38.5 -104.5t-38.5 -104t-94.5 -43t-94.5 43t-38.5 104z" />
<glyph unicode="&#xa9;" horiz-adv-x="1503" d="M70 666q0 190 96.5 346t250.5 240.5t328 84.5q193 0 351 -94.5t244.5 -247.5t86.5 -329q0 -182 -92 -335.5t-249 -242t-341 -88.5q-186 0 -342 91.5t-244.5 244.5t-88.5 330zM236 666q0 -104 42 -198.5t112 -161t163 -105.5t192 -39q109 0 205.5 41t164.5 109.5 t107.5 161t39.5 192.5q0 115 -44.5 211t-117.5 158.5t-165 98t-190 37.5q-102 0 -196 -40.5t-162.5 -108t-109.5 -161t-41 -195.5zM326 666q0 195 120 308t324 113q139 0 262 -63v-166q-101 44 -252 51q-109 0 -170 -62.5t-61 -180.5q0 -116 63 -180t176 -64q132 0 244 47 v-160q-116 -64 -262 -67q-201 0 -322.5 113.5t-121.5 310.5z" />
<glyph unicode="&#xaa;" horiz-adv-x="784" d="M92 848q0 264 301 264l72 -10q0 59 -100 59q-107 0 -220 -45v180q117 72 230 72q280 0 280 -342v-405h-190v75q-43 -108 -133 -108q-109 0 -174 68.5t-66 191.5zM137 399v160h520v-160h-520zM311 858q0 -26 13.5 -42.5t40.5 -16.5q44 0 72 37t28 96l-37 4 q-117 0 -117 -78z" />
<glyph unicode="&#xab;" horiz-adv-x="876" d="M59 436v105l408 325v-209l-113 -108l400 317v-209l-176 -168l176 -170v-204l-394 307l107 -103v-204zM293 489l51 -49v99z" />
<glyph unicode="&#xac;" horiz-adv-x="1196" d="M78 514v191h977v-472h-211v281h-766z" />
<glyph unicode="&#xad;" horiz-adv-x="743" d="M160 369v176h424v-176h-424z" />
<glyph unicode="&#xae;" horiz-adv-x="1040" d="M-29 954q0 143 70 260t183 180.5t241 63.5q137 0 251.5 -71.5t178 -187t63.5 -245.5q0 -208 -145 -353.5t-348 -145.5q-102 0 -194.5 40t-157.5 108t-103.5 159.5t-38.5 191.5zM111 954q0 -152 106.5 -261t247.5 -109q151 0 252 105t104 265q0 162 -108 266t-248 109 q-94 0 -176.5 -52.5t-130 -139t-47.5 -183.5zM274 692v565h193q109 -3 161 -40.5t52 -118.5v-4q0 -53 -32 -88.5t-93 -47.5q20 -4 40.5 -25.5t38.5 -56t32 -65.5t29.5 -68.5t21.5 -50.5h-156l-51 144q-25 47 -40.5 60.5t-41.5 16.5h-12v-221h-142zM416 1038h49 q40 0 49.5 10.5t9.5 43.5t-9.5 43.5t-49.5 11.5h-49v-109z" />
<glyph unicode="&#xaf;" horiz-adv-x="751" d="M141 1126v123h469v-123h-469z" />
<glyph unicode="&#xb0;" horiz-adv-x="702" d="M96 1120q0 101 72.5 173.5t177.5 72.5q62 0 111 -22t78 -59t44 -78.5t17 -86.5q0 -97 -72.5 -169t-177.5 -72q-108 0 -179 69.5t-71 171.5zM254 1120q0 -36 27 -62t65 -26q36 0 63 25.5t27 62.5q0 36 -26.5 64t-63.5 28t-64.5 -26.5t-27.5 -65.5z" />
<glyph unicode="&#xb1;" horiz-adv-x="894" d="M86 0v221h723v-221h-723zM86 606v225h256v324h207v-324h260v-225h-260v-323h-207v323h-256z" />
<glyph unicode="&#xb2;" horiz-adv-x="743" d="M90 645v150l272 282q30 35 42 57t12 46q0 25 -20.5 41t-53.5 16q-28 0 -49 -18t-23 -41h-176q0 108 73.5 185.5t172.5 82.5q133 0 215 -73t82 -195q0 -106 -98 -226l-222 -157h306v-150h-533z" />
<glyph unicode="&#xb3;" horiz-adv-x="761" d="M68 893h188q7 -32 29 -50t53 -18q42 0 68 17.5t26 46.5q0 39 -24.5 60.5t-69.5 21.5v166q37 0 58.5 15.5t21.5 43.5q0 43 -80 43q-28 0 -46.5 -16.5t-21.5 -48.5h-182q6 126 73.5 199t176.5 73q137 0 219 -64t82 -176q0 -113 -125 -149q66 -12 103.5 -56.5t37.5 -111.5 q0 -124 -82 -190t-235 -66q-241 0 -270 260z" />
<glyph unicode="&#xb4;" horiz-adv-x="524" d="M78 1137l211 317l166 -94l-250 -316z" />
<glyph unicode="&#xb5;" horiz-adv-x="976" d="M141 -451v1369h213v-578q0 -170 140 -170q153 0 153 203v545h219v-945h-219v80q-27 -62 -59.5 -89t-83.5 -27q-110 0 -150 116v-504h-213z" />
<glyph unicode="&#xb6;" horiz-adv-x="907" d="M51 936q0 181 104 295.5t273 114.5h338v-1520h-182v1325h-33v-1325h-186v711q-148 17 -231 120.5t-83 278.5z" />
<glyph unicode="&#xb7;" horiz-adv-x="532" d="M104 588q0 67 45.5 114.5t110.5 47.5t110.5 -47.5t45.5 -114.5t-45.5 -114.5t-110.5 -47.5t-110.5 47.5t-45.5 114.5z" />
<glyph unicode="&#xb8;" horiz-adv-x="464" d="M90 -352l137 270h135l-112 -369z" />
<glyph unicode="&#xb9;" horiz-adv-x="481" d="M70 1253l51 181h219v-789h-168v608h-102z" />
<glyph unicode="&#xba;" horiz-adv-x="806" d="M96 975q0 180 79.5 286.5t223.5 106.5q140 0 223 -103.5t83 -289.5q0 -178 -82.5 -282.5t-223.5 -104.5q-139 0 -221 104t-82 283zM141 399v160h518v-160h-518zM319 975q0 -79 22 -128.5t58 -49.5q37 0 58.5 49.5t21.5 128.5q0 86 -21 136t-59 50q-36 0 -58 -50t-22 -136 z" />
<glyph unicode="&#xbb;" horiz-adv-x="878" d="M123 115v204l178 170l-178 168v209l385 -305l-100 96v209l411 -325v-105l-411 -321v204l96 93zM535 442l49 47l-49 48v-95z" />
<glyph unicode="&#xbc;" horiz-adv-x="1327" d="M37 1182l63 186h269v-823h-203v637h-129zM176 -23l637 1391h201l-639 -1391h-199zM612 154l547 694v-520h117v-174h-117v-156h-188v156h-359zM856 328h115v145z" />
<glyph unicode="&#xbd;" horiz-adv-x="1378" d="M37 1182l63 186h269v-823h-205v637h-127zM172 -23l637 1391h199l-635 -1391h-201zM713 -2v160l297 303q34 36 47.5 59t13.5 47q0 28 -23 46t-59 18q-34 0 -56 -21t-24 -49h-190q0 117 80.5 201.5t187.5 89.5q144 0 233 -75.5t89 -203.5q0 -117 -111 -247l-240 -168h336 v-160h-581z" />
<glyph unicode="&#xbe;" horiz-adv-x="1574" d="M41 799h205q7 -35 31.5 -54.5t60.5 -19.5q50 0 79 19t29 53q0 40 -29 64t-79 24v176q42 0 67 16.5t25 48.5q0 45 -92 45q-68 0 -80 -69h-199q7 135 82 212t197 77q153 0 243.5 -67t90.5 -187q0 -61 -37 -102t-105 -58q73 -13 114.5 -61t43.5 -119q0 -133 -91.5 -206 t-258.5 -73q-268 0 -297 281zM430 -23l653 1375h201l-649 -1375h-205zM858 152l553 686v-516h119v-170h-119v-154h-190v154h-363zM1120 322h101v147z" />
<glyph unicode="&#xbf;" horiz-adv-x="858" d="M133 283q0 31 7 63t22 63.5t28 56t35 54.5t33.5 45t33 40t23.5 28l48 61.5t32.5 52t16.5 52.5v47h-4q-28 0 -33 -74h-172q2 135 59.5 226.5t153.5 91.5h8q91 -3 165.5 -84t74.5 -195q0 -104 -47 -187.5t-130 -172.5q-96 -100 -98 -158q0 -66 57 -66q32 0 54.5 40.5 t25.5 111.5h209q-3 -199 -98 -309q-81 -97 -199 -97q-134 0 -216.5 84t-88.5 226zM276 1305q0 64 42 108.5t102 44.5t100.5 -44t40.5 -109t-40.5 -109.5t-100.5 -44.5t-102 45t-42 109z" />
<glyph unicode="&#xc0;" horiz-adv-x="1075" d="M14 0l521 1456l526 -1456h-217l-115 336h-383l-113 -336h-219zM365 1843l151 99l195 -295l-119 -88zM420 555h231l-116 356z" />
<glyph unicode="&#xc1;" horiz-adv-x="1075" d="M14 0l521 1456l526 -1456h-217l-115 336h-383l-113 -336h-219zM350 1651l211 317l166 -94l-250 -315zM420 555h231l-116 356z" />
<glyph unicode="&#xc2;" horiz-adv-x="1075" d="M14 0l521 1456l526 -1456h-217l-115 336h-383l-113 -336h-219zM274 1626l189 242h151l187 -242l-154 -67l-108 131l-109 -131zM420 555h231l-116 356z" />
<glyph unicode="&#xc3;" horiz-adv-x="1075" d="M14 0l521 1456l526 -1456h-217l-115 336h-383l-113 -336h-219zM199 1630q109 160 227 162q78 0 147 -41q2 -1 12 -8.5t14.5 -10t13 -7.5t15 -7t13.5 -2h2q23 0 45 21t37 55l149 -68q-22 -64 -91 -114.5t-136 -50.5h-4h-10q-71 0 -133 36q-50 35 -72 37h-4 q-28 0 -47.5 -19.5t-38.5 -53.5zM420 555h231l-116 356z" />
<glyph unicode="&#xc4;" horiz-adv-x="1075" d="M14 0l521 1456l526 -1456h-217l-115 336h-383l-113 -336h-219zM246 1706q0 61 38.5 104t94.5 43q58 0 96.5 -43t38.5 -104t-38.5 -104t-96.5 -43q-56 0 -94.5 43t-38.5 104zM420 555h231l-116 356zM563 1706q0 61 38.5 104t94.5 43t94.5 -43t38.5 -104t-38.5 -104 t-94.5 -43t-94.5 43t-38.5 104z" />
<glyph unicode="&#xc5;" horiz-adv-x="1075" d="M14 0l521 1456l526 -1456h-217l-115 336h-379l-117 -336h-219zM360 1716q0 79 51.5 136t125.5 57q72 0 124.5 -56t55.5 -137q0 -78 -52.5 -134t-127.5 -56q-71 0 -124 55.5t-53 134.5zM424 555h225l-114 356zM489 1716q0 -20 17 -36.5t31 -16.5t32.5 16.5t18.5 36.5 t-18.5 36.5t-32.5 16.5q-15 0 -31.5 -15.5t-16.5 -37.5z" />
<glyph unicode="&#xc7;" horiz-adv-x="1052" d="M88 692q0 352 150.5 558t406.5 206q200 0 371 -160l-109 -176q-126 90 -254 90q-146 0 -225.5 -133t-79.5 -385q0 -246 77 -370.5t228 -124.5q119 0 240 82l123 -162q-156 -156 -371 -156q-258 0 -407.5 191t-149.5 540zM399 -336l164 281h164l-133 -396z" />
<glyph unicode="&#xc8;" horiz-adv-x="964" d="M141 0v1434h727v-226h-508v-262h508v-223h-508v-504h521v-219h-740zM338 1843l151 99l195 -295l-119 -88z" />
<glyph unicode="&#xc9;" horiz-adv-x="964" d="M141 0v1434h727v-226h-508v-262h508v-223h-508v-504h521v-219h-740zM322 1651l210 317l166 -94l-249 -315z" />
<glyph unicode="&#xca;" horiz-adv-x="964" d="M141 0v1434h727v-226h-508v-262h508v-223h-508v-504h521v-219h-740zM248 1626l188 242h152l186 -242l-153 -67l-109 131l-109 -131z" />
<glyph unicode="&#xcb;" horiz-adv-x="964" d="M141 0v1434h727v-226h-508v-262h508v-223h-508v-504h521v-219h-740zM219 1706q0 61 38.5 104t94.5 43q58 0 96.5 -43t38.5 -104t-38.5 -104t-96.5 -43q-56 0 -94.5 43t-38.5 104zM537 1706q0 61 38.5 104t94.5 43t94.5 -43t38.5 -104t-38.5 -104t-94.5 -43t-94.5 43 t-38.5 104z" />
<glyph unicode="&#xcc;" horiz-adv-x="503" d="M78 1843l151 99l197 -295l-119 -88zM141 0v1434h221v-1434h-221z" />
<glyph unicode="&#xcd;" horiz-adv-x="503" d="M63 1651l211 317l166 -94l-250 -315zM141 0v1434h221v-1434h-221z" />
<glyph unicode="&#xce;" horiz-adv-x="503" d="M-12 1626l188 242h152l188 -242l-156 -67l-106 131l-111 -131zM141 0v1434h221v-1434h-221z" />
<glyph unicode="&#xcf;" horiz-adv-x="503" d="M-41 1706q0 61 38.5 104t96.5 43t96.5 -43t38.5 -104t-38.5 -104t-96.5 -43t-96.5 43t-38.5 104zM141 0v1434h221v-1434h-221zM279 1706q0 61 38 104t93 43q58 0 96.5 -43t38.5 -104t-38.5 -104t-96.5 -43q-55 0 -93 43t-38 104z" />
<glyph unicode="&#xd0;" horiz-adv-x="1249" d="M68 526v207h116v613h330q330 0 485.5 -162t155.5 -512q0 -348 -154 -510t-487 -162h-330v526h-116zM418 231h119q176 0 258 107t82 334q0 225 -81.5 329.5t-258.5 104.5h-119v-373h110v-207h-110v-295z" />
<glyph unicode="&#xd1;" horiz-adv-x="1150" d="M141 0v1434h17l645 -838v838h207v-1434h-19l-641 819v-819h-209zM238 1630q109 160 227 162q78 0 147 -41q2 -1 12 -8.5t14.5 -10t13 -7.5t15 -7t13.5 -2h2q23 0 45 21t37 55l149 -68q-22 -64 -91 -114.5t-136 -50.5h-4h-10q-71 0 -133 36q-50 35 -72 37h-4 q-27 0 -47 -19.5t-39 -53.5z" />
<glyph unicode="&#xd2;" horiz-adv-x="1386" d="M82 711q0 338 167 541.5t443 203.5q272 0 440 -203.5t168 -541.5q0 -337 -164.5 -536.5t-443.5 -199.5t-444.5 199t-165.5 537zM336 711q0 -230 99.5 -368t256.5 -138q155 0 255 137t100 369q0 227 -99.5 365t-255.5 138q-154 0 -255 -135.5t-101 -367.5zM518 1843 l152 99l194 -295l-119 -88z" />
<glyph unicode="&#xd3;" horiz-adv-x="1386" d="M82 711q0 338 167 541.5t443 203.5q272 0 440 -203.5t168 -541.5q0 -337 -164.5 -536.5t-443.5 -199.5t-444.5 199t-165.5 537zM336 711q0 -230 99.5 -368t256.5 -138q155 0 255 137t100 369q0 227 -99.5 365t-255.5 138q-154 0 -255 -135.5t-101 -367.5zM504 1651 l211 317l166 -94l-250 -315z" />
<glyph unicode="&#xd4;" horiz-adv-x="1386" d="M82 711q0 338 167 541.5t443 203.5q272 0 440 -203.5t168 -541.5q0 -337 -164.5 -536.5t-443.5 -199.5t-444.5 199t-165.5 537zM336 711q0 -230 99.5 -368t256.5 -138q155 0 255 137t100 369q0 227 -99.5 365t-255.5 138q-154 0 -255 -135.5t-101 -367.5zM428 1626 l188 242h152l186 -242l-153 -67l-109 131l-108 -131z" />
<glyph unicode="&#xd5;" horiz-adv-x="1386" d="M82 711q0 338 167 541.5t443 203.5q272 0 440 -203.5t168 -541.5q0 -337 -164.5 -536.5t-443.5 -199.5t-444.5 199t-165.5 537zM336 711q0 -230 99.5 -368t256.5 -138q155 0 255 137t100 369q0 227 -99.5 365t-255.5 138q-154 0 -255 -135.5t-101 -367.5zM352 1630 q109 160 228 162q78 0 147 -41q2 -1 12 -8.5t14.5 -10t13 -7.5t15 -7t13.5 -2h2q23 0 45 21t37 55l149 -68q-22 -64 -91 -114.5t-136 -50.5h-4h-11q-71 0 -133 36q-50 35 -71 37h-4q-28 0 -47.5 -19.5t-38.5 -53.5z" />
<glyph unicode="&#xd6;" horiz-adv-x="1386" d="M82 711q0 338 167 541.5t443 203.5q272 0 440 -203.5t168 -541.5q0 -337 -164.5 -536.5t-443.5 -199.5t-444.5 199t-165.5 537zM336 711q0 -230 99.5 -368t256.5 -138q155 0 255 137t100 369q0 227 -99.5 365t-255.5 138q-154 0 -255 -135.5t-101 -367.5zM399 1706 q0 61 38.5 104t94.5 43q58 0 97 -43t39 -104t-39 -104t-97 -43q-56 0 -94.5 43t-38.5 104zM717 1706q0 61 38.5 104t94.5 43t94.5 -43t38.5 -104t-38.5 -104t-94.5 -43t-94.5 43t-38.5 104z" />
<glyph unicode="&#xd7;" horiz-adv-x="1026" d="M63 207l302 368l-302 371l144 152l303 -371l301 371l145 -152l-303 -371l303 -368l-145 -154l-301 369l-303 -369z" />
<glyph unicode="&#xd8;" horiz-adv-x="1392" d="M84 711q0 231 75.5 406t214 269.5t320.5 94.5q63 0 121 -25l39 150h211l-53 -230q137 -89 214 -260.5t77 -404.5q0 -348 -165 -554t-444 -206q-59 0 -112 26l-37 -149h-211l55 223q-147 78 -226 248.5t-79 411.5zM338 711q0 -160 33.5 -279.5t91.5 -179.5l289 993 q-36 -12 -58 -12q-154 0 -255 -140t-101 -382zM643 178q24 15 51 15q155 0 255 139.5t100 378.5q0 157 -31 274.5t-86 181.5z" />
<glyph unicode="&#xd9;" horiz-adv-x="1126" d="M129 551v883h225v-859q0 -192 50.5 -279t162.5 -87q107 0 158 87.5t51 278.5v859h221v-883q0 -576 -430 -576q-438 0 -438 576zM391 1843l152 99l194 -295l-119 -88z" />
<glyph unicode="&#xda;" horiz-adv-x="1126" d="M129 551v883h225v-859q0 -192 50.5 -279t162.5 -87q107 0 158 87.5t51 278.5v859h221v-883q0 -576 -430 -576q-438 0 -438 576zM375 1651l211 317l166 -94l-250 -315z" />
<glyph unicode="&#xdb;" horiz-adv-x="1126" d="M129 551v883h225v-859q0 -192 50.5 -279t162.5 -87q107 0 158 87.5t51 278.5v859h221v-883q0 -576 -430 -576q-438 0 -438 576zM301 1626l188 242h152l186 -242l-153 -67l-109 131l-108 -131z" />
<glyph unicode="&#xdc;" horiz-adv-x="1126" d="M129 551v883h225v-859q0 -192 50.5 -279t162.5 -87q107 0 158 87.5t51 278.5v859h221v-883q0 -576 -430 -576q-438 0 -438 576zM272 1706q0 61 39 104t95 43q58 0 96.5 -43t38.5 -104t-38.5 -104t-96.5 -43q-56 0 -95 43t-39 104zM590 1706q0 61 38.5 104t94.5 43 t94.5 -43t38.5 -104t-38.5 -104t-94.5 -43t-94.5 43t-38.5 104z" />
<glyph unicode="&#xdd;" horiz-adv-x="997" d="M16 1434h232l256 -547l254 547h225l-369 -758v-676h-233v676zM311 1651l211 317l166 -94l-250 -315z" />
<glyph unicode="&#xde;" horiz-adv-x="942" d="M141 0v1434h219v-258h121q195 0 296.5 -109.5t101.5 -321.5q0 -423 -398 -432h-121v-313h-219zM360 555h121q61 0 94 48.5t33 141.5q0 87 -33 137t-94 50h-121v-377z" />
<glyph unicode="&#xdf;" horiz-adv-x="1040" d="M74 737l73 172v119q0 192 108 310t282 118q129 0 231 -120.5t102 -288.5v-5v-200q-114 0 -167.5 -25t-53.5 -86v-2q0 -23 26 -53t54 -51t62 -43l34 -23q72 -58 98.5 -117t26.5 -137q0 -7 -1 -23t-1 -24q-2 -124 -82 -202.5t-217 -78.5q-32 0 -65 8t-72.5 27t-77 58 t-65.5 94l157 131q80 -102 123 -102q27 0 43.5 24t16.5 70q0 56 -25 92.5t-72 66.5q-99 59 -142.5 125t-43.5 160q0 118 54.5 186.5t162.5 98.5v18q0 81 -32 128.5t-79 47.5q-62 0 -114 -51.5t-56 -132.5v-1026h-215v737h-73z" />
<glyph unicode="&#xe0;" d="M96 457q0 215 103 348t268 133q138 0 197 -143v123h206v-918h-206v117q-61 -137 -197 -137q-164 0 -267.5 131t-103.5 346zM309 1325l152 98l194 -295l-118 -88zM354 457q0 -121 36.5 -190.5t103.5 -69.5q79 0 124.5 69t45.5 191q0 120 -45 188t-125 68q-64 0 -102 -67.5 t-38 -188.5z" />
<glyph unicode="&#xe1;" d="M96 457q0 215 103 348t268 133q138 0 197 -143v123h206v-918h-206v117q-61 -137 -197 -137q-164 0 -267.5 131t-103.5 346zM352 1133l211 317l166 -94l-250 -316zM354 457q0 -121 36.5 -190.5t103.5 -69.5q79 0 124.5 69t45.5 191q0 120 -45 188t-125 68 q-64 0 -102 -67.5t-38 -188.5z" />
<glyph unicode="&#xe2;" d="M96 457q0 215 103 348t268 133q138 0 197 -143v123h206v-918h-206v117q-61 -137 -197 -137q-164 0 -267.5 131t-103.5 346zM219 1108l189 242h151l186 -242l-153 -68l-109 131l-108 -131zM354 457q0 -121 36.5 -190.5t103.5 -69.5q79 0 124.5 69t45.5 191q0 120 -45 188 t-125 68q-64 0 -102 -67.5t-38 -188.5z" />
<glyph unicode="&#xe3;" d="M96 457q0 215 103 348t268 133q138 0 197 -143v123h206v-918h-206v117q-61 -137 -197 -137q-164 0 -267.5 131t-103.5 346zM145 1112q109 160 228 162q78 0 147 -41q2 -1 12 -8.5t14.5 -10t13 -7.5t15 -7t13.5 -2h2q23 0 45 21t37 55l149 -68q-22 -64 -91 -115t-136 -51 h-4h-10q-70 0 -134 37q-50 35 -71 37h-4q-27 0 -46.5 -20t-39.5 -54zM354 457q0 -121 36.5 -190.5t103.5 -69.5q79 0 124.5 69t45.5 191q0 120 -45 188t-125 68q-64 0 -102 -67.5t-38 -188.5z" />
<glyph unicode="&#xe4;" d="M96 457q0 215 103 348t268 133q138 0 197 -143v123h206v-918h-206v117q-61 -137 -197 -137q-164 0 -267.5 131t-103.5 346zM190 1188q0 61 39 104t95 43q58 0 96.5 -43t38.5 -104t-38.5 -104.5t-96.5 -43.5q-56 0 -95 43.5t-39 104.5zM354 457q0 -121 36.5 -190.5 t103.5 -69.5q79 0 124.5 69t45.5 191q0 120 -45 188t-125 68q-64 0 -102 -67.5t-38 -188.5zM508 1188q0 61 38.5 104t94.5 43t94.5 -43t38.5 -104t-38.5 -104.5t-94.5 -43.5t-94.5 43.5t-38.5 104.5z" />
<glyph unicode="&#xe5;" d="M96 457q0 215 103 348t268 133q138 0 197 -143v123h206v-918h-206v117q-61 -137 -197 -137q-164 0 -267.5 131t-103.5 346zM305 1231q0 79 51 135.5t125 56.5q72 0 125 -55.5t56 -136.5q0 -78 -53 -134.5t-128 -56.5q-71 0 -123.5 56t-52.5 135zM354 457 q0 -121 36.5 -190.5t103.5 -69.5q79 0 124.5 69t45.5 191q0 120 -45 188t-125 68q-64 0 -102 -67.5t-38 -188.5zM434 1231q0 -20 16.5 -36.5t30.5 -16.5t32.5 16.5t18.5 36.5t-18.5 36.5t-32.5 16.5t-30.5 -15.5t-16.5 -37.5z" />
<glyph unicode="&#xe7;" horiz-adv-x="849" d="M88 455q0 201 120.5 342t287.5 141q182 -12 290 -145l-135 -152q-71 88 -151 88q-72 0 -124 -82t-52 -192t52 -189.5t124 -79.5q85 0 151 82l135 -164q-73 -67 -140.5 -97t-149.5 -30q-167 0 -287.5 139.5t-120.5 338.5zM274 -334l148 273h158l-119 -390z" />
<glyph unicode="&#xe8;" horiz-adv-x="970" d="M88 455q0 203 118 343t292 140h8q167 0 270 -117.5t103 -316.5v-84h-570q0 -96 58.5 -168t140.5 -72h6q129 0 213 121l139 -121q-56 -96 -151 -148.5t-209 -54.5q-175 0 -296.5 138.5t-121.5 339.5zM309 1325l152 98l194 -295l-118 -88zM328 596h336q-22 133 -166 133 q-55 0 -107.5 -44.5t-62.5 -88.5z" />
<glyph unicode="&#xe9;" horiz-adv-x="970" d="M88 455q0 203 118 343t292 140h8q167 0 270 -117.5t103 -316.5v-84h-570q0 -96 58.5 -168t140.5 -72h6q129 0 213 121l139 -121q-56 -96 -151 -148.5t-209 -54.5q-175 0 -296.5 138.5t-121.5 339.5zM328 596h336q-22 133 -166 133q-55 0 -107.5 -44.5t-62.5 -88.5z M356 1133l211 317l166 -94l-250 -316z" />
<glyph unicode="&#xea;" horiz-adv-x="970" d="M88 455q0 203 118 343t292 140h8q167 0 270 -117.5t103 -316.5v-84h-570q0 -96 58.5 -168t140.5 -72h6q129 0 213 121l139 -121q-56 -96 -151 -148.5t-209 -54.5q-175 0 -296.5 138.5t-121.5 339.5zM219 1108l189 242h151l186 -242l-153 -68l-109 131l-108 -131zM328 596 h336q-22 133 -166 133q-55 0 -107.5 -44.5t-62.5 -88.5z" />
<glyph unicode="&#xeb;" horiz-adv-x="970" d="M88 455q0 203 118 343t292 140h8q167 0 270 -117.5t103 -316.5v-84h-570q0 -96 58.5 -168t140.5 -72h6q129 0 213 121l139 -121q-56 -96 -151 -148.5t-209 -54.5q-175 0 -296.5 138.5t-121.5 339.5zM190 1188q0 61 39 104t95 43q58 0 96.5 -43t38.5 -104t-38.5 -104.5 t-96.5 -43.5q-56 0 -95 43.5t-39 104.5zM328 596h336q-22 133 -166 133q-55 0 -107.5 -44.5t-62.5 -88.5zM508 1188q0 61 38.5 104t94.5 43t94.5 -43t38.5 -104t-38.5 -104.5t-94.5 -43.5t-94.5 43.5t-38.5 104.5z" />
<glyph unicode="&#xec;" horiz-adv-x="493" d="M74 1346l151 98l195 -295l-119 -88zM141 0v918h211v-918h-211z" />
<glyph unicode="&#xed;" horiz-adv-x="493" d="M57 1153l213 317l164 -94l-250 -315zM141 0v918h211v-918h-211z" />
<glyph unicode="&#xee;" horiz-adv-x="493" d="M-16 1128l188 242h152l186 -242l-154 -67l-108 131l-109 -131zM141 0v918h211v-918h-211z" />
<glyph unicode="&#xef;" horiz-adv-x="493" d="M-45 1208q0 61 38.5 104.5t94.5 43.5q58 0 96.5 -43.5t38.5 -104.5t-38.5 -104t-96.5 -43q-56 0 -94.5 43t-38.5 104zM141 0v918h211v-918h-211zM272 1208q0 61 39 104.5t95 43.5t94.5 -43.5t38.5 -104.5t-38.5 -104t-94.5 -43t-95 43t-39 104z" />
<glyph unicode="&#xf0;" horiz-adv-x="1003" d="M72 1296l147 64l-106 176h231l66 -96l213 80l63 -140l-190 -73l229 -344q90 -116 131 -235t41 -265q0 -217 -111 -350t-290 -133t-290.5 133t-111.5 350q0 216 111.5 351.5t290.5 135.5q6 0 12 -6l-178 281l-187 -76zM330 463q0 -114 45.5 -183t120.5 -69q67 0 106 69 t39 183q-2 65 -14.5 121t-39 96.5t-63.5 40.5h-2q-90 0 -141 -66.5t-51 -191.5z" />
<glyph unicode="&#xf1;" horiz-adv-x="993" d="M141 0v913h209v-125q76 150 199 150q153 0 234 -101.5t81 -299.5v-537h-235v532q0 178 -107 181q-79 0 -124 -56t-48 -153v-504h-209zM166 1112q109 160 227 162q79 0 148 -41q3 -2 12 -8.5t14 -10t13 -8t14.5 -6.5t13.5 -2h2q23 0 45 21t37 55l150 -68 q-22 -64 -91.5 -115t-136.5 -51h-4h-10q-69 0 -133 37q-50 35 -72 37h-4q-27 0 -46.5 -20t-39.5 -54z" />
<glyph unicode="&#xf2;" horiz-adv-x="1017" d="M88 455q0 202 122.5 342.5t297.5 140.5q173 0 293.5 -139.5t120.5 -341.5q0 -133 -55 -243.5t-150 -173.5t-209 -63q-175 0 -297.5 138.5t-122.5 339.5zM330 455q0 -110 53 -189.5t127 -79.5q72 0 124 79.5t52 189.5t-52 192t-124 82q-73 0 -126.5 -82.5t-53.5 -191.5z M332 1325l151 98l195 -295l-119 -88z" />
<glyph unicode="&#xf3;" horiz-adv-x="1017" d="M88 455q0 202 122.5 342.5t297.5 140.5q173 0 293.5 -139.5t120.5 -341.5q0 -133 -55 -243.5t-150 -173.5t-209 -63q-175 0 -297.5 138.5t-122.5 339.5zM317 1133l211 317l166 -94l-250 -316zM330 455q0 -110 53 -189.5t127 -79.5q72 0 124 79.5t52 189.5t-52 192 t-124 82q-73 0 -126.5 -82.5t-53.5 -191.5z" />
<glyph unicode="&#xf4;" horiz-adv-x="1017" d="M88 455q0 202 122.5 342.5t297.5 140.5q173 0 293.5 -139.5t120.5 -341.5q0 -133 -55 -243.5t-150 -173.5t-209 -63q-175 0 -297.5 138.5t-122.5 339.5zM242 1108l188 242h152l186 -242l-154 -68l-108 131l-109 -131zM330 455q0 -110 53 -189.5t127 -79.5q72 0 124 79.5 t52 189.5t-52 192t-124 82q-73 0 -126.5 -82.5t-53.5 -191.5z" />
<glyph unicode="&#xf5;" horiz-adv-x="1017" d="M88 455q0 202 122.5 342.5t297.5 140.5q173 0 293.5 -139.5t120.5 -341.5q0 -133 -55 -243.5t-150 -173.5t-209 -63q-175 0 -297.5 138.5t-122.5 339.5zM166 1112q109 160 227 162q79 0 148 -41q3 -2 12 -8.5t14 -10t13 -8t14.5 -6.5t13.5 -2h2q23 0 45 21t37 55l150 -68 q-22 -64 -91.5 -115t-136.5 -51h-4h-10q-69 0 -133 37q-50 35 -72 37h-4q-27 0 -46.5 -20t-39.5 -54zM330 455q0 -110 53 -189.5t127 -79.5q72 0 124 79.5t52 189.5t-52 192t-124 82q-73 0 -126.5 -82.5t-53.5 -191.5z" />
<glyph unicode="&#xf6;" horiz-adv-x="1017" d="M88 455q0 202 122.5 342.5t297.5 140.5q173 0 293.5 -139.5t120.5 -341.5q0 -133 -55 -243.5t-150 -173.5t-209 -63q-175 0 -297.5 138.5t-122.5 339.5zM213 1188q0 61 38.5 104t94.5 43q58 0 96.5 -43t38.5 -104t-38.5 -104.5t-96.5 -43.5q-56 0 -94.5 43.5t-38.5 104.5 zM330 455q0 -110 53 -189.5t127 -79.5q72 0 124 79.5t52 189.5t-52 192t-124 82q-73 0 -126.5 -82.5t-53.5 -191.5zM530 1188q0 61 39 104t95 43t94.5 -43t38.5 -104t-38.5 -104.5t-94.5 -43.5t-95 43.5t-39 104.5z" />
<glyph unicode="&#xf7;" horiz-adv-x="907" d="M55 399v201h795v-201h-795zM307 205q0 62 41.5 104.5t102.5 42.5q60 0 101.5 -42.5t41.5 -104.5q0 -59 -42 -102.5t-101 -43.5q-61 0 -102.5 43.5t-41.5 102.5zM307 793q0 63 41 105t103 42q60 0 101.5 -42t41.5 -105q0 -59 -41.5 -101.5t-101.5 -42.5q-61 0 -102.5 42.5 t-41.5 101.5z" />
<glyph unicode="&#xf8;" horiz-adv-x="1040" d="M92 451q0 214 124.5 360.5t303.5 146.5q23 0 45 -14l10 80h177l-21 -141q97 -58 154 -172t57 -258q0 -212 -122.5 -357t-299.5 -145q-18 0 -26 12l-11 -88h-178l25 137q-107 52 -172.5 170t-65.5 269zM350 451q0 -162 45 -234l137 504q-76 -4 -129 -83t-53 -187zM539 170 q63 0 107 82.5t44 198.5q0 146 -31 227z" />
<glyph unicode="&#xf9;" horiz-adv-x="983" d="M129 377v541h229v-535q0 -86 39 -136t99 -50q65 0 94 50.5t31 162.5v508h233v-541q0 -185 -95.5 -292.5t-254.5 -107.5h-8q-159 0 -263 104.5t-104 295.5zM317 1325l152 98l195 -295l-119 -88z" />
<glyph unicode="&#xfa;" horiz-adv-x="983" d="M129 377v541h229v-535q0 -86 39 -136t99 -50q65 0 94 50.5t31 162.5v508h233v-541q0 -185 -95.5 -292.5t-254.5 -107.5h-8q-159 0 -263 104.5t-104 295.5zM303 1133l211 317l166 -94l-250 -316z" />
<glyph unicode="&#xfb;" horiz-adv-x="983" d="M129 377v541h229v-535q0 -86 39 -136t99 -50q65 0 94 50.5t31 162.5v508h233v-541q0 -185 -95.5 -292.5t-254.5 -107.5h-8q-159 0 -263 104.5t-104 295.5zM227 1108l189 242h151l187 -242l-154 -68l-108 131l-109 -131z" />
<glyph unicode="&#xfc;" horiz-adv-x="983" d="M129 377v541h229v-535q0 -86 39 -136t99 -50q65 0 94 50.5t31 162.5v508h233v-541q0 -185 -95.5 -292.5t-254.5 -107.5h-8q-159 0 -263 104.5t-104 295.5zM199 1188q0 61 38.5 104t94.5 43q58 0 96.5 -43t38.5 -104t-38.5 -104.5t-96.5 -43.5q-56 0 -94.5 43.5 t-38.5 104.5zM516 1188q0 61 38.5 104t94.5 43t94.5 -43t38.5 -104t-38.5 -104.5t-94.5 -43.5t-94.5 43.5t-38.5 104.5z" />
<glyph unicode="&#xfd;" horiz-adv-x="1042" d="M127 459v459h240v-459q0 -126 37.5 -194t111.5 -68q75 0 115.5 68.5t40.5 193.5v459h229v-895q0 -484 -395 -484q-4 0 -13.5 -1t-13.5 -1q-96 0 -185 50.5t-140 142.5l159 147q59 -106 174 -106q185 0 185 225v121q-51 -140 -185 -140q-160 0 -260 130.5t-100 351.5z M326 1133l211 317l165 -94l-249 -316z" />
<glyph unicode="&#xfe;" horiz-adv-x="1019" d="M141 -461v1997h205v-713q34 81 81 119.5t116 38.5q166 0 267 -143.5t101 -378.5q0 -231 -100.5 -373.5t-267.5 -142.5q-68 0 -115.5 34t-81.5 115v-553h-205zM346 459q0 -131 43.5 -207t126.5 -76q66 0 103.5 75.5t37.5 207.5q0 131 -37.5 206.5t-103.5 75.5 q-78 0 -124 -74.5t-46 -207.5z" />
<glyph unicode="&#xff;" horiz-adv-x="1042" d="M127 459v459h240v-459q0 -126 37.5 -194t111.5 -68q75 0 115.5 68.5t40.5 193.5v459h229v-895q0 -484 -395 -484q-4 0 -13.5 -1t-13.5 -1q-96 0 -185 50.5t-140 142.5l159 147q59 -106 174 -106q185 0 185 225v121q-51 -140 -185 -140q-160 0 -260 130.5t-100 351.5z M221 1188q0 61 38.5 104t94.5 43q58 0 96.5 -43t38.5 -104t-38.5 -104.5t-96.5 -43.5q-56 0 -94.5 43.5t-38.5 104.5zM539 1188q0 61 38.5 104t94.5 43t94.5 -43t38.5 -104t-38.5 -104.5t-94.5 -43.5t-94.5 43.5t-38.5 104.5z" />
<glyph unicode="&#x178;" horiz-adv-x="997" d="M16 1434h232l256 -547l254 547h225l-369 -758v-676h-233v676zM209 1706q0 61 38.5 104t94.5 43q58 0 96.5 -43t38.5 -104t-38.5 -104t-96.5 -43q-56 0 -94.5 43t-38.5 104zM526 1706q0 61 38.5 104t94.5 43t95 -43t39 -104t-39 -104t-95 -43t-94.5 43t-38.5 104z" />
<glyph unicode="&#x2c6;" horiz-adv-x="702" d="M88 1141l188 241h152l186 -241l-153 -68l-109 131l-108 -131z" />
<glyph unicode="&#x2dc;" horiz-adv-x="835" d="M66 1208q109 160 227 162q78 0 147 -41q2 -1 12 -8.5t14.5 -10t13 -7.5t15 -7t13.5 -2h2q23 0 45 21t37 55l149 -67q-22 -64 -91 -115t-136 -51h-4h-10q-69 0 -133 37q-49 34 -72 36h-4q-27 0 -47 -19.5t-39 -53.5z" />
<glyph unicode="&#x2000;" horiz-adv-x="984" />
<glyph unicode="&#x2001;" horiz-adv-x="1968" />
<glyph unicode="&#x2002;" horiz-adv-x="984" />
<glyph unicode="&#x2003;" horiz-adv-x="1968" />
<glyph unicode="&#x2004;" horiz-adv-x="656" />
<glyph unicode="&#x2005;" horiz-adv-x="492" />
<glyph unicode="&#x2006;" horiz-adv-x="328" />
<glyph unicode="&#x2007;" horiz-adv-x="328" />
<glyph unicode="&#x2008;" horiz-adv-x="246" />
<glyph unicode="&#x2009;" horiz-adv-x="393" />
<glyph unicode="&#x200a;" horiz-adv-x="109" />
<glyph unicode="&#x2010;" horiz-adv-x="743" d="M160 369v176h424v-176h-424z" />
<glyph unicode="&#x2011;" horiz-adv-x="743" d="M160 369v176h424v-176h-424z" />
<glyph unicode="&#x2012;" horiz-adv-x="743" d="M160 369v176h424v-176h-424z" />
<glyph unicode="&#x2013;" horiz-adv-x="1024" d="M160 369v176h704v-176h-704z" />
<glyph unicode="&#x2014;" horiz-adv-x="2048" d="M160 369v176h1728v-176h-1728z" />
<glyph unicode="&#x2018;" horiz-adv-x="464" d="M111 1030v156l102 248h133l-39 -248v-156h-196z" />
<glyph unicode="&#x2019;" horiz-adv-x="466" d="M115 1047l37 245v142h194v-142l-98 -245h-133z" />
<glyph unicode="&#x201a;" horiz-adv-x="468" d="M115 -193l37 240v158h196v-158l-100 -240h-133z" />
<glyph unicode="&#x201c;" horiz-adv-x="751" d="M115 1030v158l121 246h157l-49 -246v-158h-229zM358 1030v158l121 246h158l-47 -246v-158h-232z" />
<glyph unicode="&#x201d;" horiz-adv-x="749" d="M106 1030l48 248v156h227v-156l-115 -248h-160zM354 1030l43 248v156h232v-156l-115 -248h-160z" />
<glyph unicode="&#x201e;" horiz-adv-x="751" d="M109 -193l45 240v158h229v-158l-117 -240h-157zM356 -193l43 240v158h232v-158l-115 -240h-160z" />
<glyph unicode="&#x2022;" horiz-adv-x="716" d="M102 578q0 109 76 187.5t180 78.5t181 -77.5t77 -188.5q0 -110 -78 -190.5t-184 -80.5q-99 0 -175.5 79t-76.5 192z" />
<glyph unicode="&#x2026;" horiz-adv-x="1400" d="M117 98q0 53 31.5 91t78.5 38q46 0 80.5 -38.5t34.5 -90.5q0 -55 -34 -92t-81 -37t-78.5 37t-31.5 92zM584 98q0 53 31.5 91t78.5 38q46 0 80.5 -38.5t34.5 -90.5q0 -55 -34 -92t-81 -37t-78.5 37t-31.5 92zM1051 98q0 53 31.5 91t78.5 38q46 0 80.5 -38.5t34.5 -90.5 q0 -55 -34 -92t-81 -37t-78.5 37t-31.5 92z" />
<glyph unicode="&#x202f;" horiz-adv-x="393" />
<glyph unicode="&#x2039;" horiz-adv-x="561" d="M63 436v105l373 325v-209l-153 -168l153 -170v-204z" />
<glyph unicode="&#x203a;" horiz-adv-x="563" d="M125 115v204l160 170l-160 168v209l375 -325v-105z" />
<glyph unicode="&#x205f;" horiz-adv-x="492" />
<glyph unicode="&#x20ac;" horiz-adv-x="993" d="M43 440l51 185h82q-4 28 -4 41q0 9 4 49h-133l51 180h103q34 222 150 347.5t290 125.5q152 0 301 -158l-100 -163q-88 71 -195 71q-85 0 -139.5 -56.5t-73.5 -166.5h393l-53 -180h-356q-4 -28 -4 -45t4 -45h313l-57 -185h-240q15 -106 70.5 -164.5t142.5 -58.5 q105 0 199 82l96 -158v-18q-140 -146 -301 -146q-175 0 -291 120t-149 343h-154z" />
<glyph unicode="&#x2122;" horiz-adv-x="1419" d="M74 1278v156h512v-156h-166v-367h-180v367h-166zM625 911v523h217l112 -183l107 183h217v-523h-170v367l-98 -236h-109l-108 236v-367h-168z" />
<glyph unicode="&#x25fc;" horiz-adv-x="921" d="M0 0v922h922v-922h-922z" />
</font>
</defs>
</svg>
