<?xml version="1.0" standalone="no"?>
<!DOCTYPE svg PUBLIC "-//W3C//DTD SVG 1.1//EN" "http://www.w3.org/Graphics/SVG/1.1/DTD/svg11.dtd" >
<svg xmlns="http://www.w3.org/2000/svg">
<metadata></metadata>
<defs>
<font id="charger_monospaceregular" horiz-adv-x="1460" >
<font-face units-per-em="2048" ascent="1638" descent="-410" />
<missing-glyph horiz-adv-x="509" />
<glyph horiz-adv-x="0" />
<glyph horiz-adv-x="682" />
<glyph horiz-adv-x="0" />
<glyph horiz-adv-x="0" />
<glyph unicode="&#xd;" horiz-adv-x="434" />
<glyph unicode=" "  horiz-adv-x="509" />
<glyph unicode="&#x09;" horiz-adv-x="509" />
<glyph unicode="&#xa0;" horiz-adv-x="509" />
<glyph unicode="!" horiz-adv-x="751" d="M242 125q9 57 55.5 96t103.5 39t90.5 -39t24.5 -96q-9 -56 -56.5 -95.5t-105.5 -39.5q-57 0 -89 39t-23 96zM354 399l97 820h233l-180 -740l-2 -2q-3 -5 -9 -12.5t-23 -27.5t-32 -35.5t-33 -29t-30 -14.5q-25 -3 -21 41z" />
<glyph unicode="&#x22;" horiz-adv-x="976" d="M506 1257v345h215l-76 -439zM694 1163l76 439h215l-119 -345z" />
<glyph unicode="#" horiz-adv-x="1423" d="M266 313l78 170h221l70 179h-215l76 169h209l147 367h145l-147 -367h119l147 367h168l-162 -367h197l-76 -169h-196l-72 -179h192l-77 -170h-185l-129 -323h-145l127 323h-117l-129 -323h-162l142 323h-226zM711 483h118l72 179h-119z" />
<glyph unicode="$" horiz-adv-x="1327" d="M233 102l136 136h6q13 -1 39 -16t55.5 -31.5t90 -30t136.5 -13.5q88 0 166 51.5t92 135.5q9 52 -4 88.5t-54 58.5t-70 31.5t-90 23.5l-13.5 3t-11.5 3t-13 3q-146 34 -202 60q-138 65 -137 204q0 29 6 61q22 129 142.5 230t272.5 110l33 185l131 -115l-12 -74 q48 -6 84.5 -18.5t53 -24t44.5 -35t43 -34.5l10 -7l-133 -133h-4q-13 1 -28 15t-31.5 30t-66.5 29.5t-126 13.5q-93 2 -156.5 -42.5t-78.5 -129.5q-6 -30 3 -53.5t22.5 -37.5t43.5 -26t49.5 -17t58 -13.5t52.5 -11.5q157 -38 220 -70q146 -72 148 -226q1 -38 -7 -81 q-14 -82 -80.5 -159.5t-156 -128t-177.5 -64.5l-33 -199l-133 115l14 82q-67 5 -117 15.5t-89 28.5t-61 31.5t-58 40.5z" />
<glyph unicode="%" horiz-adv-x="1689" d="M371 897q22 124 117.5 218.5t207.5 94.5q115 0 182.5 -95t45.5 -218q-22 -124 -121.5 -218.5t-214.5 -94.5q-112 0 -175.5 94.5t-41.5 218.5zM401 -20l914 1208h149l-886 -1208h-177zM496 897q-11 -68 23 -121t93 -53q60 0 116 54t67 120q11 67 -26.5 120.5t-96.5 53.5 t-112 -53.5t-64 -120.5zM983 291q22 122 116 217.5t193 95.5q97 0 159 -96t40 -217t-116 -217.5t-191 -96.5q-65 0 -117 44.5t-75 117.5t-9 152zM1112 291q-11 -67 17.5 -120.5t78.5 -53.5q51 0 99 54t59 120q11 67 -18.5 120.5t-79.5 53.5t-97.5 -53.5t-58.5 -120.5z" />
<glyph unicode="&#x26;" horiz-adv-x="1351" d="M274 344q18 103 80.5 175t151.5 112q-125 83 -98 248q2 15 7.5 35.5t19.5 54.5t33.5 66t52.5 66.5t73.5 59.5t99.5 41.5t127 16.5q78 0 137.5 -23.5t126.5 -67.5q14 -8 -18 -36.5t-71 -53.5l-38 -24l-8 -4l-2 2q-64 39 -160 39q-85 0 -140 -43t-70 -129 q-16 -94 29.5 -136.5t127.5 -42.5h84l-106 -155h-4q-100 0 -172.5 -68t-83.5 -133q-18 -102 29 -154.5t145 -52.5q82 0 155.5 24.5t106.5 71.5l29 173h-160l106 155h258q40 0 53 -19.5t7 -58.5q-6 -40 -26.5 -58.5t-59.5 -18.5h-29l-33 -187v-2q-21 -68 -73.5 -119.5 t-119 -78.5t-128.5 -39.5t-117 -12.5q-74 0 -137.5 21.5t-112 64.5t-69 118t-3.5 173z" />
<glyph unicode="'" horiz-adv-x="720" d="M512 1257v345h213l-76 -439z" />
<glyph unicode="(" horiz-adv-x="966" d="M303 280q-14 152 16 314q37 214 134.5 407.5t231 313t263.5 119.5h10l-32 -189l-8 -2q-84 -9 -175.5 -107.5t-160 -245.5t-93.5 -296q-21 -113 -13.5 -229t32 -209.5t73 -153t109.5 -59.5h10l-32 -191h-11q-98 0 -176.5 71t-121 188t-56.5 269z" />
<glyph unicode=")" horiz-adv-x="964" d="M174 -248l33 191h10q81 0 172 100t160 250.5t94 300.5q21 113 13 226t-33.5 204.5t-74 151.5t-108.5 67l-8 2l33 189h10q98 0 176.5 -70.5t121 -187.5t56.5 -268.5t-16 -313.5q-37 -214 -134.5 -408t-231 -314t-263.5 -120h-10z" />
<glyph unicode="*" horiz-adv-x="1165" d="M371 838l272 202l-203 203l117 88l139 -141l35 201h146l-35 -201l186 141l88 -88l-272 -203l203 -202l-119 -88l-137 141l-35 -201h-146l35 201l-188 -141z" />
<glyph unicode="+" horiz-adv-x="1355" d="M309 510l29 168h354l66 373h168l-66 -373h352l-28 -168h-353l-63 -373h-168l64 373h-355z" />
<glyph unicode="," horiz-adv-x="917" d="M178 -287l49 29q50 27 92 63q57 48 88 101.5t30 109t-40 101.5l-2 4l2 4q6 57 54.5 96t105.5 39t90.5 -39t24.5 -96q-10 -58 -42.5 -119t-85.5 -118.5t-134.5 -102t-176.5 -61.5z" />
<glyph unicode="-" horiz-adv-x="1359" d="M324 510l28 168h850l-28 -168h-850z" />
<glyph unicode="." horiz-adv-x="782" d="M258 125q9 57 56 96t104 39t90 -39t24 -96t-56.5 -96t-104.5 -39t-89.5 39t-23.5 96z" />
<glyph unicode="/" horiz-adv-x="1345" d="M184 -158l961 1504h188l-960 -1504h-189z" />
<glyph unicode="0" horiz-adv-x="1366" d="M322 594q27 156 113 298t205 229t234 87t204 -87t126 -229t10 -298q-20 -117 -76.5 -230t-131.5 -198t-166.5 -137t-177.5 -52q-115 0 -204 87.5t-126 230.5t-10 299zM492 594q-18 -107 1.5 -205t73 -159.5t127.5 -61.5t149 61.5t129 159.5t72 205t-1.5 204.5t-73 158.5 t-127.5 61q-112 0 -217 -130t-133 -294z" />
<glyph unicode="1" horiz-adv-x="882" d="M414 1096l327 112q8 4 25 4q29 1 42.5 -20.5t8.5 -54.5l-201 -1157h-170l179 1028l-189 -68z" />
<glyph unicode="2" horiz-adv-x="1257" d="M227 57q11 73 34 132t50 98t68.5 72t77.5 53t88 43q372 182 411 393q17 92 -29 142t-139 50q-36 0 -58 -2t-48 -10t-41 -27t-20 -49l-3 -10h-198l2 10q14 79 79.5 139t148.5 88.5t165 28.5q116 0 203 -61q52 -34 79.5 -85t29 -122.5t-43 -170.5t-133.5 -214 q-49 -63 -106 -105.5t-102.5 -61.5t-111 -51t-118.5 -71q-36 -23 -43 -65q-5 -28 6.5 -47t38.5 -19h514l-70 -155h-671q-39 0 -52 18t-8 59z" />
<glyph unicode="3" horiz-adv-x="1239" d="M233 113l115 143l8 -6q114 -103 260 -103q103 0 169 51t83 150q7 28 -0.5 61t-29 64t-64 51.5t-98.5 20.5h-4l-60 155h90q88 0 151 40.5t79 131.5q15 84 -29 126t-135 42q-101 0 -190 -39l-7 -2l-118 113l12 6q176 90 330 90q72 0 127.5 -16t88.5 -40.5t55.5 -59t31 -65 t11 -65.5t1.5 -53t-4 -35q-26 -158 -184 -243q77 -39 112 -110.5t13 -172.5q-17 -97 -62.5 -170.5t-109.5 -116t-136.5 -63.5t-150.5 -21q-190 0 -346 129z" />
<glyph unicode="4" horiz-adv-x="1386" d="M287.5 426q2.5 39 36.5 74l604 620l186 74l-119 -688h179l24 -156h-229l-64 -360h-176l64 360h-433q-29 0 -49 17q-26 20 -23.5 59zM545 506h274l64 366z" />
<glyph unicode="5" horiz-adv-x="1390" d="M229 84l136 135h6q13 -2 29.5 -14t36 -24.5t82.5 -23t161 -10.5q75 0 148 26.5t131.5 85.5t72.5 140q9 57 -12 97q-35 67 -144 93t-244.5 7t-248.5 -76l-18 -8l124 602q7 39 30.5 56.5t66.5 17.5h704l-121 -156h-528l-61 -289q124 50 254 50q96 0 170 -22t127.5 -68.5 t73.5 -126.5t1 -187q-23 -131 -106 -226t-198.5 -140.5t-250.5 -45.5q-67 0 -117.5 1.5t-89 8t-61 10t-46.5 16t-32.5 17.5t-32 23.5t-32.5 24.5z" />
<glyph unicode="6" horiz-adv-x="1267" d="M287 395q26 145 65.5 259t92.5 196t110 138.5t129 101.5q80 50 209.5 78t263.5 30h14l-69 -156h-8q-105 0 -185.5 -17.5t-141 -54t-104 -84.5t-83.5 -118q88 45 180 45q156 0 252 -123.5t67 -294.5q-29 -170 -168.5 -294t-296.5 -124q-102 0 -184.5 56t-122 153 t-20.5 209zM461 395q-17 -101 37 -172t147 -71q92 0 167.5 70.5t92.5 172.5t-33.5 173t-142.5 71q-93 0 -172 -71.5t-96 -172.5z" />
<glyph unicode="7" horiz-adv-x="1249" d="M369 -20l571 1050h-549l96 158h719l-661 -1208h-176z" />
<glyph unicode="8" horiz-adv-x="1253" d="M274 338q17 92 77.5 168t152.5 127q-102 99 -78 244q23 134 139.5 227.5t251.5 93.5t220.5 -93.5t62.5 -227.5q-24 -144 -162 -244q75 -52 109.5 -129t13.5 -166q-26 -149 -163 -255t-292 -106q-75 0 -142 28t-113.5 76t-68 115.5t-8.5 141.5zM446 338q-15 -86 40 -146.5 t147 -60.5t164.5 60t87.5 147q22 85 -32.5 146t-147.5 61q-92 0 -168 -60.5t-91 -146.5zM584 874q-12 -72 31 -124t116 -52t133 52t72 124q12 71 -30 123t-115 52t-134 -52t-73 -123z" />
<glyph unicode="9" horiz-adv-x="1263" d="M262 -23l70 156h8q139 0 237.5 33.5t159.5 90.5t115 151q-90 -46 -176 -46q-102 0 -183.5 56t-120.5 153t-20 209q29 170 169.5 294t297.5 124q102 0 184 -56t121.5 -153t20.5 -209q-26 -145 -65 -259t-91 -195.5t-109 -138t-128 -101.5q-80 -50 -211 -78.5t-265 -30.5 h-14zM526 780q-17 -101 35 -172t144 -71q93 0 171 71t95 172t-37 172.5t-146 71.5t-168.5 -71.5t-93.5 -172.5z" />
<glyph unicode=":" horiz-adv-x="768" d="M250 125q9 57 56 96t104 39t90 -39t24 -96q-9 -56 -56.5 -95.5t-105.5 -39.5q-57 0 -89 39t-23 96zM362 784q9 57 57 96.5t105 39.5t89.5 -39.5t23.5 -96.5t-56 -96t-104 -39t-90.5 39t-24.5 96z" />
<glyph unicode=";" horiz-adv-x="897" d="M170 -287l49 29q50 27 92 63q57 48 88 101.5t30 109t-40 101.5l-2 4l2 4q6 57 54.5 96t105.5 39t90.5 -39t24.5 -96q-10 -58 -42.5 -119t-85.5 -118.5t-134.5 -102t-176.5 -61.5zM502 784q9 57 57 96.5t105 39.5t89 -39.5t23 -96.5t-56 -96t-104 -39t-90 39t-24 96z" />
<glyph unicode="&#x3c;" horiz-adv-x="1308" d="M319 578l920 491l-29 -170l-585 -321l475 -322l-31 -170z" />
<glyph unicode="=" horiz-adv-x="1359" d="M289 303l28 168h850l-28 -168h-850zM354 692l31 168h850l-31 -168h-850z" />
<glyph unicode="&#x3e;" horiz-adv-x="1310" d="M233 86l31 170l586 322l-475 321l28 170l752 -491z" />
<glyph unicode="?" horiz-adv-x="1177" d="M362 864l3 10q22 107 97 189.5t170 123t191 40.5q129 0 209 -85.5t53 -244.5q-7 -40 -20.5 -74.5t-29 -59.5t-41.5 -48.5t-45.5 -38t-53.5 -31.5t-54.5 -25.5t-59.5 -24.5t-58 -24l-47 -229h-158l33 262q5 49 40.5 81.5t84.5 50t97.5 34.5t86.5 48.5t45 78.5 q11 71 -18 108t-78 42q-77 6 -158.5 -45t-101.5 -128l-2 -10h-185zM420 125q9 57 56 96t104 39q56 0 85.5 -38.5t20.5 -96.5q-9 -57 -53 -96t-101 -39t-89 39t-23 96z" />
<glyph unicode="@" horiz-adv-x="1529" d="M223 -10l90 520q27 156 114 279.5t216.5 192.5t278.5 69q231 0 351 -152t79 -389q-41 -239 -183 -391t-325 -152q-41 0 -88 9.5t-97 31.5t-89.5 53t-64 79t-22.5 104v2l9 45q43 252 64 300t91 48h283l121 -393q81 100 110 264q17 93 -8 178t-89.5 139t-154.5 54 q-84 0 -156 -31t-121 -84t-81 -118.5t-45 -137.5l-90 -520h-193zM653 260q-3 -48 64 -84.5t143 -36.5q23 0 62 13l-93 311h-141z" />
<glyph unicode="A" d="M215 0l539 1047q2 5 10.5 22t12.5 24t13.5 22.5t16.5 23t20 18.5t25.5 16.5t30 10t37.5 4.5q95 0 106 -72l184 -1116h-176l-51 365h-414l-176 -365h-178zM645 520h320l-68 520h-6z" />
<glyph unicode="B" horiz-adv-x="1294" d="M231 0l205 1188h359q164 0 248 -84q64 -64 64 -171q0 -34 -7 -73q-24 -146 -168 -223q157 -67 157 -227q0 -31 -6 -66q-28 -166 -147 -255t-285 -89h-420zM430 156h221q221 0 254 188q5 28 5 52q0 58 -31 92q-43 47 -153 47h-5h-225zM522 692h170q204 0 232 168 q4 23 4 43q0 58 -33 87q-44 40 -143 40h-170z" />
<glyph unicode="C" horiz-adv-x="1378" d="M328 594q15 88 51 175.5t91 166.5t122 139.5t152 96.5t174 36q74 0 133.5 -17.5t97 -48t64.5 -71t36.5 -86t12.5 -93.5q1 -11 0 -22q0 -36 -7 -71v-11l-155 5l2 10q5 30 5 56q1 75 -41 120q-56 61 -169 61q-127 0 -243 -131t-148 -315q-9 -66 -9 -130t17.5 -121.5 t45 -101t72.5 -69t101 -25.5q186 0 332 111l76 64l-6 -207l-7 -4q-213 -134 -423 -134q-216 0 -321 168q-72 115 -72 282q0 78 16 167z" />
<glyph unicode="D" horiz-adv-x="1343" d="M233 0l205 1188h338q174 0 276 -94.5t128 -251.5q9 -52 8 -108q0 -67 -12 -140q-34 -204 -141 -346t-261 -207q-93 -41 -203 -41h-338zM430 156h150q171 0 275.5 117t139.5 321q12 73 12 133q0 206 -141 274q-60 29 -135 29h-149z" />
<glyph unicode="E" horiz-adv-x="1320" d="M227 0l205 1188h811l-102 -156h-566l-59 -342h397l-94 -155h-330l-65 -379h657l-98 -156h-756z" />
<glyph unicode="F" horiz-adv-x="1302" d="M225 0l205 1188h813l-100 -152h-568l-59 -346h395l-92 -153h-330l-92 -537h-172z" />
<glyph unicode="G" horiz-adv-x="1415" d="M330 594q22 128 87 245t149 196.5t178 126t176 46.5q190 0 280 -110q66 -81 66 -204q0 -45 -9 -95v-11l-155 5l2 10q5 30 5 56q0 75 -41 120q-57 61 -169 61q-137 0 -248.5 -134t-142.5 -312q-11 -66 -11 -122q0 -37 5 -69q11 -83 45 -140t82.5 -86.5t105.5 -29.5 q168 0 297 91l29 161h-109l-37 156h330l-59 -336v-2q-2 -9 -6.5 -23.5t-20.5 -44t-35 -40.5q-221 -132 -417 -132q-142 0 -238.5 78.5t-132.5 218.5q-20 76 -20 164q0 74 14 156z" />
<glyph unicode="H" horiz-adv-x="1286" d="M240 0l204 1188h170l-86 -498h424l86 498h172l-204 -1188h-172l92 535h-424l-92 -535h-170z" />
<glyph unicode="I" horiz-adv-x="690" d="M240 0l204 1188h170l-204 -1188h-170z" />
<glyph unicode="J" horiz-adv-x="1241" d="M250 141l166 82l2 -4q66 -72 190 -72h10q113 0 172.5 52t79.5 170l142 819h172l-148 -850q-31 -179 -150.5 -270t-297.5 -91q-110 0 -194.5 42.5t-137.5 113.5z" />
<glyph unicode="K" horiz-adv-x="1413" d="M225 0l205 1188h170l-92 -531l588 531h221l-672 -586l506 -602h-229l-437 526l-90 -526h-170z" />
<glyph unicode="L" horiz-adv-x="1269" d="M225 0l205 1188h172l-178 -1032h606l-102 -156h-703z" />
<glyph unicode="M" horiz-adv-x="1572" d="M240 0l204 1188h191q10 0 33.5 -57t53.5 -149t55.5 -176.5t51.5 -173t31 -104.5q7 10 66 105.5t110 175t112.5 174t103.5 150t53 55.5h194l-205 -1188h-168l156 926l-477 -717l-236 717l-159 -926h-170z" />
<glyph unicode="N" horiz-adv-x="1310" d="M240 0l204 1188h158q46 0 55 -35l263 -813l145 848h170l-205 -1188h-110q-46 0 -58 35l-289 897l-163 -932h-170z" />
<glyph unicode="O" horiz-adv-x="1562" d="M328 594q27 157 126 299t239 228.5t278 86.5t248.5 -86.5t160.5 -228.5q32 -92 33 -191q0 -53 -10 -108q-20 -117 -84.5 -230.5t-152.5 -198t-196 -136.5t-212 -52t-194 52t-148 136.5t-83 198.5q-14 63 -14 127q0 51 9 103zM522 594q-7 -41 -7 -81q-1 -63 17 -123 q28 -98 98 -160t161 -62t182 62t154 160t81 204q7 41 7 80q0 64 -18 124q-29 98 -98.5 159t-160.5 61q-138 0 -263 -130.5t-153 -293.5z" />
<glyph unicode="P" horiz-adv-x="1273" d="M229 0l205 1188h363q178 0 277 -104q76 -79 76 -201q0 -37 -7 -78q-31 -179 -166 -281t-311 -102h-193l-74 -422h-170zM500 580h174q120 0 195.5 56t95.5 169q5 30 5 56q0 169 -218 169h-174z" />
<glyph unicode="Q" horiz-adv-x="1474" d="M328 594q27 157 119.5 299t222 228.5t256.5 86.5t226 -87t142 -229q27 -88 27 -181q0 -57 -10 -117q-19 -108 -72 -212.5t-129 -184.5l88 -88q22 -21 22 -44q0 -29 -32 -61q-33 -33 -63 -33q-24 0 -46 21l-90 96q-140 -111 -276 -111q-127 0 -226 87.5t-143 230.5 q-26 88 -26 181q0 58 10 118zM506 594q-7 -44 -7 -86q0 -61 15 -118q25 -99 87 -160.5t144 -61.5q73 0 138 41l-19 22q-19 21 -19 44q0 28 29 61q30 33 56 33q21 0 41 -21l30 -35q107 127 132 281q8 44 8 87q0 60 -15 117q-25 98 -87.5 159t-145.5 61t-166.5 -61t-143 -159 t-77.5 -204z" />
<glyph unicode="R" horiz-adv-x="1290" d="M225 0l205 1188h371q49 0 93 -7t86 -23.5t72 -42.5t52 -64t26 -89q2 -17 2 -36q0 -37 -6 -80q-22 -121 -107.5 -195.5t-201.5 -105.5q25 -36 69.5 -156t84.5 -239.5t47 -135.5l8 -14h-217l-2 6q-6 20 -21.5 89t-31.5 127.5t-38 123.5t-51 105.5t-61 46.5q-30 6 -74 6h-47 l-86 -504h-172zM512 662h174q229 0 262 184q4 23 4 42q0 62 -40 96q-53 46 -156 46h-181z" />
<glyph unicode="S" horiz-adv-x="1341" d="M242 102l135 136h6q14 -1 38.5 -16t52 -31.5t86.5 -30t134 -13.5q89 0 171 51.5t96 135.5q3 17 3 32q0 22 -6 41q-10 32 -31 51.5t-53 34t-65.5 24t-71.5 17.5q-28 6 -41 9h-1h-1l-1 1h-1h-1h-1l-2 1q-145 34 -205 67q-116 63 -116 195q0 29 6 61q24 133 151 236.5 t279 103.5q62 0 110 -5t77 -11t57.5 -20t40.5 -22.5t37.5 -29.5t37.5 -30l8 -7l-135 -135h-6q-13 1 -23.5 10.5t-24.5 22.5t-36 26t-66 22t-106 9h-8q-86 0 -142 -42q-58 -44 -73 -130q-5 -31 3.5 -55t24.5 -38.5t42.5 -25.5t51 -17.5t56.5 -13.5q28 -6 41 -9 q161 -37 228 -70q148 -74 148 -231v-6q-1 -32 -7 -68q-15 -88 -90 -171.5t-179.5 -133.5t-203.5 -50q-90 0 -156.5 8.5t-115.5 28.5t-76 36t-68 46z" />
<glyph unicode="T" horiz-adv-x="1325" d="M393 1030l27 158h856l-27 -158h-340l-172 -1030h-170l164 1030h-338z" />
<glyph unicode="U" horiz-adv-x="1308" d="M305 397l135 791h170l-133 -770q-9 -52 -9 -94q0 -70 26 -112q42 -66 165 -65.5t186.5 65t88.5 206.5l133 770h170l-135 -791q-35 -203 -159.5 -311.5t-311.5 -108.5q-187 1 -274 109q-62 77 -62 202q0 51 10 109z" />
<glyph unicode="V" horiz-adv-x="1466" d="M416 1188h178l182 -846l469 846h178l-718 -1227z" />
<glyph unicode="W" horiz-adv-x="1855" d="M416 1188h178l172 -846l311 614l92 -614l467 846h179l-711 -1227l-96 592l-306 -592z" />
<glyph unicode="X" horiz-adv-x="1486" d="M211 0l528 618l-288 570h202l203 -445l350 445h199l-479 -572l315 -616h-213l-219 494l-393 -494h-205z" />
<glyph unicode="Y" horiz-adv-x="1445" d="M416 1188h196l219 -539l379 539h195l-516 -699l-84 -489h-174l84 489z" />
<glyph unicode="Z" horiz-adv-x="1343" d="M229 76q6 30 25 49l758 905h-606l149 158h649q40 0 53 -19q9 -13 9 -36q0 -11 -2 -23q-3 -26 -19 -45l-762 -911h633l-149 -154h-678q-39 0 -53 18q-9 13 -9 36q0 10 2 22z" />
<glyph unicode="[" horiz-adv-x="999" d="M203 -154l248 1434h499l-28 -170h-330l-191 -1094h330l-29 -170h-499z" />
<glyph unicode="\" horiz-adv-x="1345" d="M442 1346h189l444 -1504h-188z" />
<glyph unicode="]" horiz-adv-x="999" d="M203 -154l28 170h332l191 1094h-332l29 170h499l-248 -1434h-499z" />
<glyph unicode="^" horiz-adv-x="1243" d="M414 1069l454 477l291 -477h-174l-156 242l-241 -242h-174z" />
<glyph unicode="_" horiz-adv-x="1640" d="M180 -403l29 167h1100l-29 -167h-1100z" />
<glyph unicode="`" horiz-adv-x="931" d="M504 1550h268l96 -333l-209 69z" />
<glyph unicode="a" horiz-adv-x="1316" d="M276 276q19 109 91 181.5t170.5 102.5t222.5 30q104 0 213 -45l10 65q5 28 5 51q0 55 -28 81q-40 38 -149 38q-98 0 -162 -18t-125 -66l-10 -8l-68 133l11 6q79 59 168 89t215 30q321 0 321 -251q0 -39 -8 -85l-104 -610h-156l20 113q-168 -136 -325 -136q-159 0 -247 82 q-70 65 -70 163q0 26 5 54zM455 279q-3 -15 -3 -28q0 -49 36 -77q45 -35 135 -35q53 0 107 19.5t98 51.5t64.5 49t37.5 34l16 94q-111 41 -215 41q-251 0 -276 -149z" />
<glyph unicode="b" horiz-adv-x="1355" d="M233 0l207 1198l193 125l-92 -524q133 147 297 147q73 0 140 -35t115 -97t68 -154q11 -49 11 -100q0 -47 -9 -97q-21 -123 -89 -233t-176 -181.5t-228 -71.5q-167 0 -254 152l-23 -129h-160zM483 463q-7 -42 -7 -80q0 -85 38 -145q54 -86 176 -86q106 0 188.5 91 t104.5 220q7 37 7 71q0 77 -35 140q-50 90 -160 90q-117 0 -203.5 -90.5t-108.5 -210.5z" />
<glyph unicode="c" horiz-adv-x="1341" d="M303 268q-9 44 -9 93t9 102q28 163 125 277t229 169q84 37 185 37q252 0 323 -186l4 -4l-127 -203l-4 27q-13 112 -63.5 155t-153.5 43q-100 0 -176 -52t-121 -138q-32 -62 -43 -125q-8 -43 -8 -81q1 -58 19 -104q30 -76 100 -108q47 -23 110 -23q171 0 330 109l70 51 v-194l-6 -4q-91 -59 -202.5 -95.5t-219.5 -36.5q-152 0 -247 79t-124 212z" />
<glyph unicode="d" horiz-adv-x="1355" d="M308 320q-1 22 -2 43q0 49 7 100q18 105 71.5 197.5t123.5 154t150 96.5t153 35q163 0 242 -147l92 524l147 -125l-207 -1198h-157l22 129q-141 -152 -307 -152q-73 0 -134.5 27.5t-101.5 74t-67.5 109t-31.5 132.5zM494 463q-7 -39 -7 -74q0 -81 36 -145q51 -92 157 -92 q122 0 206.5 86.5t108.5 224.5q6 32 6 63q0 42 -11 81q-19 68 -73 112.5t-133 44.5q-110 0 -189 -89.5t-101 -211.5z" />
<glyph unicode="e" horiz-adv-x="1429" d="M305 463q35 198 202.5 340.5t354.5 142.5q91 0 170.5 -38.5t132.5 -103t76 -154.5q13 -52 13 -107q0 -40 -7 -82l-14 -78h-762q9 -105 79.5 -172.5t172.5 -67.5q103 0 201 78q40 30 92 33q10 1 20 1q39 0 64 -10l33 -12l8 -6l-8 -10q-86 -109 -204 -174.5t-235 -65.5 q-91 0 -171 38.5t-133.5 103.5t-77.5 155q-14 53 -14 109q0 39 7 80zM498 537h583q-6 106 -74.5 174.5t-172.5 68.5q-103 0 -197 -69t-139 -174z" />
<glyph unicode="f" horiz-adv-x="1253" d="M324 643l28 166h168l27 147q32 171 140.5 266t270.5 95q51 0 89.5 -6t68.5 -20t48 -26t46 -34l4 -4l-98 -148l-8 6q-5 4 -22 19t-21 18t-19.5 11.5t-28.5 10.5t-35.5 4.5t-51.5 2.5q-174 0 -209 -207l-25 -137h357l-29 -164h-356l-117 -643h-170l111 643h-168z" />
<glyph unicode="g" horiz-adv-x="1353" d="M272 -295l84 164l11 -8q71 -61 131.5 -77.5t148.5 -16.5q107 0 176 57.5t88 163.5l31 174q-130 -144 -297 -144q-73 0 -140.5 35.5t-116 97t-68.5 153.5q-11 50 -11 103q0 46 8 95q15 91 59.5 178t108.5 155.5t149.5 110t176.5 41.5q167 0 254 -151l22 129h162l-170 -990 q-28 -158 -152 -268t-309 -110q-101 0 -176 19t-163 85zM496 492q-7 -39 -7 -75q0 -39 8 -75q15 -70 63 -116t122 -46q117 0 205 94t110 218q8 46 8 86q0 85 -37 146q-53 89 -175 89q-106 0 -190.5 -95t-106.5 -226z" />
<glyph unicode="h" horiz-adv-x="1263" d="M238 0l206 1198l195 125l-113 -647q147 176 316 176q136 0 198 -92q44 -65 44 -159q0 -38 -7 -81l-90 -520h-172l88 512q6 35 6 63q0 121 -104 121q-116 0 -211 -102q-99 -106 -127 -264l-57 -330h-172z" />
<glyph unicode="i" horiz-adv-x="743" d="M268 0l160 924h170l-160 -924h-170zM420 1184q9 57 56 96t104 39t90 -39q26 -31 26 -72q0 -11 -2 -24q-9 -56 -56.5 -95.5t-105.5 -39.5q-57 0 -89 39q-25 30 -25 72q0 11 2 24z" />
<glyph unicode="j" horiz-adv-x="1124" d="M195 -115l135 125l4 -6q29 -33 81.5 -56.5t104.5 -23.5q132 0 162 164l145 836h170l-145 -836q-28 -171 -127 -256q-62 -56 -147 -70q-35 -6 -68 -6q-48 0 -92 12q-76 20 -135 50t-82 59zM838 1155q9 50 46.5 83.5t86.5 33.5q50 0 79 -34q23 -26 23 -61q0 -11 -2 -22 q-9 -49 -49 -83t-90 -34q-49 0 -76 34q-20 25 -20 59q0 11 2 24z" />
<glyph unicode="k" horiz-adv-x="1353" d="M225 0l207 1198l195 125l-150 -858l535 459h229l-491 -398l340 -526h-224l-241 430l-179 -149l-49 -281h-172z" />
<glyph unicode="l" horiz-adv-x="692" d="M240 0l206 1198l193 125l-229 -1323h-170z" />
<glyph unicode="m" horiz-adv-x="1843" d="M236 0l133 770l192 125l-29 -166q145 178 322 178q103 0 164 -55.5t72 -153.5v2l2 2q162 205 344 205q136 0 197 -89q43 -63 43 -156q0 -38 -7 -82l-100 -580h-168l96 559q5 30 5 55q0 44 -16 76q-25 48 -93 49q-114 0 -207 -100q-107 -111 -131 -256l-66 -383h-172 l96 559q5 30 5 55q0 44 -16 76q-25 48 -93 49q-114 0 -207 -100q-105 -108 -129 -256l-65 -383h-172z" />
<glyph unicode="n" horiz-adv-x="1261" d="M236 0l133 770l192 125l-29 -166q145 178 322 178q136 0 196 -89q42 -63 42 -156q0 -39 -7 -82l-100 -580h-168l96 559q5 30 5 55q0 44 -16 76q-25 48 -93 49q-114 0 -207 -100q-105 -108 -129 -256l-65 -383h-172z" />
<glyph unicode="o" horiz-adv-x="1406" d="M305 463q23 131 107 243t201 176t237 64q89 0 166.5 -38t128.5 -102.5t73 -154.5q12 -51 13 -104q0 -41 -8 -84q-35 -199 -196.5 -342.5t-344.5 -143.5q-120 0 -215 65q-95 66 -140 178q-30 74 -30 156q0 43 8 87zM473 463q-6 -33 -6 -63q0 -92 53 -163q70 -94 191 -94 t221 93.5t123 226.5q6 33 6 64q0 91 -51 161q-68 92 -189 92q-122 0 -223.5 -92.5t-124.5 -224.5z" />
<glyph unicode="p" horiz-adv-x="1353" d="M184 -274l207 1198h160l-23 -129q137 151 308 151q120 0 203 -71.5t113 -180.5q18 -65 18 -134q0 -48 -9 -99q-37 -208 -187.5 -346t-305.5 -138q-163 0 -244 148l-92 -524zM481 461q-6 -34 -6 -66q0 -41 10 -79q18 -67 71 -111.5t132 -44.5q110 0 190.5 89.5 t102.5 211.5q7 39 7 74q0 82 -36 145q-51 92 -157 92q-122 0 -206 -86.5t-108 -224.5z" />
<glyph unicode="q" horiz-adv-x="1355" d="M313 461q15 91 60.5 178t110 155.5t150.5 110t177 41.5q167 0 254 -151l22 129h158l-207 -1198l-192 -125l92 524q-134 -148 -295 -148q-73 0 -140.5 35.5t-116.5 97t-70 154.5q-11 49 -11 103q0 46 8 94zM494 461q-7 -38 -7 -73q0 -38 8 -72q15 -68 63 -112t122 -44 q117 0 205 90.5t110 210.5q7 42 7 79q0 85 -38 146q-56 86 -178 86q-106 0 -188 -91t-104 -220z" />
<glyph unicode="r" horiz-adv-x="1169" d="M225 0l140 811l194 123l-35 -197q142 178 328 178q25 0 44.5 -0.5t37 -4t27 -4.5t24 -7t18.5 -7.5t20.5 -10.5t20.5 -11l11 -6l-101 -159l-8 6q-21 16 -31.5 21.5t-37 10.5t-70.5 5q-116 0 -217 -101q-100 -103 -125 -256l-68 -391h-172z" />
<glyph unicode="s" horiz-adv-x="1312" d="M305 104l6 199l17 -18q76 -83 148 -112.5t194 -29.5q107 0 177 34.5t81 105.5q1 7 1 13q0 46 -67 69q-46 18 -160 31.5t-145 19.5q-54 11 -93.5 26.5t-75.5 43.5q-36 26 -50 72q-7 25 -7 56q0 25 5 52q21 116 144.5 198t285.5 82q103 0 190 -29t125 -92v-2l-41 -153 l-10 14q-43 51 -108 73.5t-174 22.5q-98 0 -161 -28.5t-73 -89.5q-6 -30 7.5 -45t43.5 -27q52 -21 198 -37t206 -41q139 -57 139 -185q0 -23 -4 -48q-24 -133 -135 -217.5t-316 -84.5q-112 0 -198.5 26.5t-147.5 96.5z" />
<glyph unicode="t" horiz-adv-x="1257" d="M344 752l31 168h168l63 374h176l-63 -374h358l-30 -168h-359l-70 -408q-6 -34 -6 -61q0 -140 146 -140q29 0 52 2.5t37 5t30.5 10t24 12t27 17.5t29.5 19l11 6l49 -147l-8 -5q-49 -30 -77.5 -44.5t-83 -28t-120.5 -13.5q-163 -1 -239 91q-57 68 -57 180q0 38 7 80l72 424 h-168z" />
<glyph unicode="u" horiz-adv-x="1263" d="M291 305l100 580h168l-98 -559q-5 -30 -5 -55q0 -45 16 -77q25 -49 93 -49q115 0 209 101q102 106 127 256l68 383h172l-154 -885h-172l27 156q-146 -179 -320 -179q-136 -1 -196 89q-42 62 -42 156q0 38 7 83z" />
<glyph unicode="v" horiz-adv-x="1456" d="M375 924h188l197 -641l418 641h188l-664 -957z" />
<glyph unicode="w" horiz-adv-x="1865" d="M375 924h178l207 -656l280 471l121 -471l436 656h179l-664 -959l-125 457l-280 -457z" />
<glyph unicode="x" horiz-adv-x="1531" d="M213 0l510 477l-322 447h222l227 -363l356 363h211l-481 -449l348 -475h-225l-250 389l-381 -389h-215z" />
<glyph unicode="y" horiz-adv-x="1443" d="M236 -414l10 172h10q119 6 213 79.5t178 236.5l-272 850h186l193 -686l415 686h185l-623 -967q-30 -51 -49.5 -82t-51 -74t-57.5 -69.5t-63.5 -57t-75 -47t-86.5 -28.5t-104 -13h-8z" />
<glyph unicode="z" horiz-adv-x="1386" d="M213 0l729 772h-418l-75 152h849l-731 -772h449l76 -152h-879z" />
<glyph unicode="{" horiz-adv-x="1130" d="M313 561l318 719h469l-29 -170h-319l-240 -553l49 -541h320l-29 -170h-469z" />
<glyph unicode="|" horiz-adv-x="690" d="M213 -154l248 1434h170l-248 -1434h-170z" />
<glyph unicode="}" horiz-adv-x="1130" d="M190 -154l29 170h320l237 541l-47 553h-319l28 170h469l68 -719l-316 -715h-469z" />
<glyph unicode="~" horiz-adv-x="1345" d="M330 602l8 6q67 49 130 76t136 27q66 0 133.5 -21.5t120 -43t80.5 -21.5q92 0 168 55l10 6l60 -127l-9 -6q-69 -49 -130 -74.5t-134 -25.5q-52 0 -165 43t-169 43q-90 0 -170 -58l-10 -6z" />
<glyph unicode="&#xa1;" horiz-adv-x="749" d="M238 -10l176 739l4 2q3 5 9 12.5t23 27.5t32 35.5t33 29t30 14.5q24 3 20 -41l-94 -819h-233zM406 1083q9 57 56.5 96.5t104.5 39.5t89.5 -39.5t23.5 -96.5t-56 -96t-104 -39t-90 39t-24 96z" />
<glyph unicode="&#xa2;" horiz-adv-x="1316" d="M297 264q-17 87 2 199q29 166 126.5 283.5t229.5 173.5q40 19 105 30l33 189l125 -115l-13 -74q184 -27 242 -180l4 -4l-127 -203l-4 27q-13 111 -63 154.5t-148 43.5q-95 0 -169.5 -53.5t-119.5 -142.5q-31 -60 -43 -129q-19 -111 11 -189t96 -112q48 -25 104 -25 q163 0 322 109l69 51v-195l-6 -4q-163 -102 -336 -125l-35 -196l-124 114l14 82q-119 20 -195 97t-100 194z" />
<glyph unicode="&#xa3;" horiz-adv-x="1249" d="M227 94l9 6q141 111 200 201q4 7 14 21t14.5 21.5t10 21t8.5 28.5h-178l60 168h116q-1 10 -6 55q-5 17 -15.5 47.5t-15.5 47.5t-12 51t-5.5 57t5.5 66q14 80 70 157t143 127t178 50q159 0 295 -105l10 -8l-165 -105l-5 5q-64 45 -165 45q-71 0 -122 -45.5t-63 -120.5 q-6 -38 3 -90t24.5 -104.5t17.5 -65.5v-2q2 -20 2 -62h232l-60 -168h-176q-37 -135 -153 -239q61 14 104 14q40 0 97.5 -17.5t91.5 -17.5q42 0 74.5 12.5t80.5 40.5l10 7l56 -140l-8 -6q-63 -41 -114.5 -61.5t-113.5 -20.5q-44 0 -117 19.5t-120 19.5q-106 0 -226 -49l-8 -2 z" />
<glyph unicode="&#xa5;" horiz-adv-x="1456" d="M391 229l27 154h272l12 72h-272l27 153h211l-248 590h196l209 -539l398 539h194l-452 -590h211l-27 -153h-277l-12 -72h277l-27 -154h-276l-41 -239h-170l41 239h-273z" />
<glyph unicode="&#xa6;" horiz-adv-x="688" d="M211 -154l108 625h170l-108 -625h-170zM350 655l109 625h170l-109 -625h-170z" />
<glyph unicode="&#xa7;" horiz-adv-x="1320" d="M233 92l136 135h6q14 -1 39.5 -15.5t54.5 -31t87.5 -30t131.5 -13.5q81 0 158 50t98 130q-241 -18 -334 5q-53 13 -102 52t-90.5 108t-54.5 165.5t6 224.5q24 136 151.5 241.5t282.5 105.5q70 0 119 -5t86 -20t52 -23.5t48 -35.5t43 -35l6 -6l-135 -136h-4 q-12 1 -22.5 10.5t-24 22.5t-34.5 26.5t-63.5 22.5t-101.5 9q-88 2 -149 -44t-76 -133q-5 -28 9.5 -45t42.5 -23.5t57.5 -9t65 -5t54.5 -7.5q47 -12 95.5 -33t101.5 -60t90.5 -87.5t56 -120.5t4.5 -153q-16 -90 -92.5 -175t-179 -135.5t-195.5 -50.5q-90 0 -156.5 8.5 t-115.5 28.5t-76.5 36t-68.5 46zM541 631q-11 -32 26.5 -96t98.5 -80q8 -4 14 -4q59 -14 145.5 -9t94.5 29q8 54 -65.5 108t-135.5 70q-41 10 -172 -12q-6 0 -6 -6z" />
<glyph unicode="&#xa8;" horiz-adv-x="1187" d="M440 1196q9 57 56 96t104 39t88.5 -39t22.5 -96t-55 -96t-103 -39t-89.5 39t-23.5 96zM852 1196q9 57 54 96t102 39t90 -39t24 -96t-56.5 -96t-104.5 -39t-87.5 39t-21.5 96z" />
<glyph unicode="&#xa9;" horiz-adv-x="1384" d="M301 463q23 134 105.5 248t200.5 179.5t241 65.5q115 0 205.5 -65.5t132 -179.5t18.5 -248q-35 -203 -193 -349.5t-335 -146.5q-123 0 -217.5 66.5t-137.5 181t-20 248.5zM434 463q-26 -150 52.5 -257.5t211.5 -107.5q128 0 237.5 107t135.5 258q26 150 -46 256t-200 106 q-133 0 -249 -106t-142 -256zM512 352q-9 51 0 111q16 93 71.5 158.5t129.5 97.5q44 20 96 20q131 0 160 -106l4 -4l-72 -125v26q-4 60 -28 83.5t-76 23.5q-99 0 -154 -105q-22 -51 -25 -69q-10 -59 6.5 -101.5t51.5 -60.5q21 -12 55 -12q91 0 164 57q40 30 53 -14 q8 -20 1 -40.5t-23 -33.5q-99 -74 -211 -74q-81 0 -134.5 46t-68.5 122z" />
<glyph unicode="&#xaa;" horiz-adv-x="1030" d="M434 1157q19 109 103 160t204 51q70 0 131 -27l7 37q10 63 -13 88t-90 25q-59 0 -99 -11.5t-77 -41.5l-8 -8l-49 92l10 6q53 39 108.5 58.5t133.5 19.5q117 0 168.5 -57t31.5 -171l-69 -407h-107l12 67q-99 -82 -198 -82q-101 0 -157.5 55t-41.5 146zM557 1157 q-7 -45 18 -66.5t80 -21.5q89 0 189 100l10 62q-60 24 -131 24t-113.5 -21.5t-52.5 -76.5z" />
<glyph unicode="&#xab;" horiz-adv-x="1390" d="M319 578l644 495l-31 -172l-395 -323l282 -324l-28 -172zM680 578l641 497l-31 -174l-426 -323l314 -324l-29 -174z" />
<glyph unicode="&#xac;" horiz-adv-x="1347" d="M324 510l28 168h838l-53 -309l-160 47l16 94h-669z" />
<glyph unicode="&#xad;" horiz-adv-x="1245" d="M324 510l28 168h735l-28 -168h-735z" />
<glyph unicode="&#xae;" horiz-adv-x="1394" d="M301 463q23 134 106 248t200 179.5t239 65.5q185 0 294 -144.5t74 -348.5q-23 -134 -105 -249t-198 -181t-235 -66q-123 0 -217.5 66.5t-137.5 181t-20 248.5zM434 463q-26 -152 49.5 -258.5t214.5 -106.5q132 0 244.5 107t138.5 258q26 152 -47.5 257t-210.5 105 t-250 -105.5t-139 -256.5zM539 184l94 553h170q56 0 95 -24.5t52 -71.5q6 -31 0 -66q-10 -55 -48 -90.5t-89 -50.5q15 -23 34 -79t29.5 -94t16.5 -62l6 -15h-96l-2 6q-3 9 -10 41t-14 58t-16.5 55.5t-22 47.5t-25.5 20q-6 2 -31 2h-16l-39 -230h-88zM680 498h70q97 0 110 77 q7 40 -15.5 61t-64.5 21h-73z" />
<glyph unicode="&#xaf;" horiz-adv-x="1155" d="M440 1178l29 168h639l-29 -168h-639z" />
<glyph unicode="&#xb0;" horiz-adv-x="1067" d="M453 1282q20 115 117.5 196t213.5 81t184 -81t48 -196q-20 -116 -115.5 -197t-210.5 -81q-116 0 -186.5 81.5t-50.5 196.5zM590 1282q-10 -58 27 -100.5t96 -42.5q58 0 106.5 42t59.5 101q10 58 -24 99.5t-93 41.5t-110.5 -41.5t-61.5 -99.5z" />
<glyph unicode="&#xb1;" horiz-adv-x="1363" d="M205 -123l28 168h875l-29 -168h-874zM313 510l29 168h352l66 373h168l-66 -373h355l-29 -168h-354l-64 -373h-168l64 373h-353z" />
<glyph unicode="&#xb2;" horiz-adv-x="1056" d="M397 977q9 59 29.5 103t52 73t61.5 46.5t74 35.5q273 113 295 246q10 58 -21 88t-97 30q-26 0 -41.5 -1t-33.5 -6t-27.5 -16.5t-12.5 -29.5v-10h-154v10q10 57 56 100.5t106 64t121 20.5q105 0 178 -56q42 -33 54 -80.5t-17 -122t-107 -163.5q-41 -52 -88.5 -80t-109 -52 t-105.5 -53q-28 -16 -32 -41q-3 -15 5 -25.5t27 -10.5h357l-47 -123h-478q-51 0 -45 53z" />
<glyph unicode="&#xb3;" horiz-adv-x="1071" d="M406 1014l73 94l10 -6q78 -60 191 -60q78 0 126 30.5t58 88.5q6 38 -35.5 76.5t-128.5 38.5h-6l-43 123h70q71 0 119.5 24.5t56.5 77.5q9 48 -26 73t-103 25q-69 0 -137 -20l-6 -2l-82 80l12 6q125 68 242 68q74 0 125 -21t73 -48t31.5 -63t9 -56.5t-3.5 -37.5 q-19 -108 -129 -162q123 -61 101 -186q-11 -65 -43.5 -114t-80 -77.5t-101.5 -42.5t-115 -14q-146 0 -252 99z" />
<glyph unicode="&#xb4;" horiz-adv-x="933" d="M449 1217l213 333h266l-248 -264z" />
<glyph unicode="&#xb5;" horiz-adv-x="1251" d="M193 -264l198 1159h168l-98 -576q-30 -184 98 -184q105 0 201 103q100 111 127 264l67 393h172l-155 -905h-172l26 155q-145 -178 -309 -178q-64 0 -113 27l-32 -201z" />
<glyph unicode="&#xb6;" horiz-adv-x="1540" d="M365 809q30 179 169.5 284t331.5 105h394l-209 -1208h-168l75 432h-225q-191 0 -295 102.5t-73 284.5zM1102 -10l209 1208h170l-209 -1208h-170z" />
<glyph unicode="&#xb7;" horiz-adv-x="776" d="M332 584q9 56 56.5 95.5t105.5 39.5q57 0 89 -39t23 -96t-56 -96t-104 -39t-90 39t-24 96z" />
<glyph unicode="&#xb8;" horiz-adv-x="1013" d="M154 -430l69 125l10 -2q84 -35 183 -35q96 0 104 57q4 24 -32.5 39.5t-83.5 20t-91 2.5h-12l90 262h154l-25 -141q4 0 10 -1t9 -1q77 -8 128 -58t29 -121q-27 -94 -106 -146t-189 -52q-149 0 -241 47z" />
<glyph unicode="&#xb9;" horiz-adv-x="782" d="M518 1657l225 76q31 10 48 -7.5t12 -44.5l-131 -757h-133l114 669l-121 -45z" />
<glyph unicode="&#xba;" horiz-adv-x="1134" d="M453 1282q23 134 134 229t238 95t205 -95t55 -229t-133 -230t-237 -96t-206 96t-56 230zM592 1282q-13 -77 31 -132.5t114 -55.5t133 55.5t76 132.5t-30 131.5t-113 54.5t-134 -54.5t-77 -131.5z" />
<glyph unicode="&#xbb;" horiz-adv-x="1390" d="M233 82l29 172l430 324l-317 323l31 172l471 -495zM594 80l29 174l395 324l-283 323l31 174l469 -497z" />
<glyph unicode="&#xbc;" horiz-adv-x="1775" d="M274 -158l1117 1504h200l-1128 -1504h-189zM422 1190q-10 56 39 72l205 71q29 9 45.5 -8t11.5 -43l-131 -756h-119l117 668l-111 -41q-48 -15 -57 37zM876.5 180q1.5 27 28.5 51l469 408l121 51l-78 -454h115l18 -109h-151l-41 -233h-117l41 233h-346q-26 0 -41 12 q-20 14 -18.5 41zM1081 236h219l39 225z" />
<glyph unicode="&#xbd;" horiz-adv-x="1638" d="M274 -158l963 1504h188l-962 -1504h-189zM422 1190q-10 56 39 72l205 71q29 9 45.5 -8t11.5 -43l-131 -756h-119l117 668l-111 -41q-48 -15 -57 37zM850 -51q17 113 67 168.5t138 93.5q260 116 282 252q10 59 -20.5 90t-95.5 31q-26 0 -41.5 -1.5t-32.5 -6.5t-26.5 -16.5 t-12.5 -29.5l-2 -10h-135l2 10q13 78 94 124t174 46q82 0 143 -41q34 -23 52 -56.5t19.5 -80.5t-27.5 -112t-87 -140q-41 -53 -88.5 -81t-110 -52.5t-106.5 -54.5q-25 -18 -28 -41q-7 -39 28 -39h320q18 0 24 -16t2 -35q-4 -21 -15.5 -39t-29.5 -18h-450q-25 0 -32.5 13.5 t-4.5 41.5z" />
<glyph unicode="&#xbe;" horiz-adv-x="1890" d="M338 596q-36 29 4 78v2q10 13 22 21.5t27.5 10.5t28.5 -12q72 -65 176 -65q74 0 121 33t57 98q7 42 -29 83.5t-112 41.5q-52 0 -43 55q5 28 19 40.5t42 12.5q140 0 158 113q9 55 -21 82t-94 27q-71 0 -129 -25q-17 -7 -31.5 -10.5t-24.5 -1.5t-17.5 4t-13.5 8.5t-8.5 10 t-6.5 11.5t-4 9l-2 2l2 4q6 34 30 45q113 59 222 59q50 0 89.5 -11t63 -27.5t39 -39.5t21.5 -43.5t8 -44t1 -36t-3 -23.5q-19 -108 -115 -160q104 -61 82 -186q-22 -126 -112 -188t-210 -62q-137 0 -237 84zM408 -158l1095 1504h201l-1108 -1504h-188zM991 180q1 27 27 51 l469 408l121 51l-78 -454h115l18 -109h-152l-41 -233h-116l41 233h-346q-24 0 -39 12q-20 14 -19 41zM1194 236h219l39 225z" />
<glyph unicode="&#xbf;" horiz-adv-x="1142" d="M270 319q7 40 21 74.5t29.5 59.5t41 48.5t45.5 38.5t52.5 32t53.5 26t56.5 24t53.5 23l51 229h133l-37 -262q-6 -49 -38 -81.5t-75.5 -50t-87 -34.5t-77.5 -48.5t-41 -78.5q-10 -71 15 -107.5t73 -41.5q66 -6 138.5 45t90.5 127l2 10h184l-2 -10q-17 -80 -64.5 -148.5 t-109.5 -112t-129.5 -67.5t-128.5 -24q-57 0 -107 20t-88 59t-53.5 103.5t-1.5 146.5zM662 1092q9 56 50 95.5t89 39.5t75.5 -39t18.5 -96q-9 -56 -50 -96t-89 -40t-75.5 39.5t-18.5 96.5z" />
<glyph unicode="&#xc0;" d="M215 0l539 1047q2 5 10.5 22t12.5 24t13.5 22.5t16.5 23t20 18.5t25.5 16.5t30 10t37.5 4.5q95 0 106 -72l184 -1116h-176l-51 365h-414l-176 -365h-178zM641 1638h240l75 -333l-180 69zM645 520h320l-68 520h-6z" />
<glyph unicode="&#xc1;" d="M215 0l539 1047q2 5 10.5 22t12.5 24t13.5 22.5t16.5 23t20 18.5t25.5 16.5t30 10t37.5 4.5q95 0 106 -72l184 -1116h-176l-51 365h-414l-176 -365h-178zM645 520h320l-68 520h-6zM924 1305l192 333h238l-224 -264z" />
<glyph unicode="&#xc2;" d="M215 0l539 1047q2 5 10.5 22t12.5 24t13.5 22.5t16.5 23t20 18.5t25.5 16.5t30 10t37.5 4.5q95 0 106 -72l184 -1116h-176l-51 365h-414l-176 -365h-178zM596 1311l428 477l266 -477h-155l-152 241l-235 -241h-152zM645 520h320l-68 520h-6z" />
<glyph unicode="&#xc3;" d="M215 0l539 1047q2 5 10.5 22t12.5 24t13.5 22.5t16.5 23t20 18.5t25.5 16.5t30 10t37.5 4.5q95 0 106 -72l184 -1116h-176l-51 365h-414l-176 -365h-178zM557 1460l8 6q71 52 124.5 77.5t117.5 25.5q67 0 137 -21.5t124 -43t83 -21.5q82 0 152 55l8 6l61 -127l-10 -6 q-72 -52 -124.5 -76t-117.5 -24q-55 0 -172 43t-174 43q-45 0 -78 -14t-71 -44l-11 -6zM645 520h320l-68 520h-6z" />
<glyph unicode="&#xc4;" d="M215 0l539 1047q2 5 10.5 22t12.5 24t13.5 22.5t16.5 23t20 18.5t25.5 16.5t30 10t37.5 4.5q95 0 106 -72l184 -1116h-176l-51 365h-414l-176 -365h-178zM645 520h320l-68 520h-6zM653 1446q9 57 50.5 96t91.5 39t78.5 -39t19.5 -96t-51 -96t-92 -39t-78 39t-19 96z M1036 1446q9 56 51.5 95.5t92.5 39.5t78.5 -39t19.5 -96t-51 -96t-92 -39t-79 39t-20 96z" />
<glyph unicode="&#xc5;" d="M215 0l539 1049q4 7 14.5 28t17.5 32t19 27.5t26.5 27.5t32.5 18q-79 22 -120.5 96t-24.5 170q20 115 107 195.5t188 80.5t159.5 -80.5t38.5 -195.5q-17 -96 -82 -170t-149 -96q39 -14 45 -62l184 -1120h-176l-51 365h-414l-176 -365h-178zM645 520h320l-68 520h-6z M840 1448q-10 -58 20.5 -100.5t81.5 -42.5t95 42t55 101q10 58 -20 99.5t-81 41.5q-52 0 -96 -41t-55 -100z" />
<glyph unicode="&#xc7;" horiz-adv-x="1376" d="M326 594q19 111 71 219t127 197t177.5 143.5t213.5 54.5q74 0 133.5 -17.5t97.5 -48t65 -71t36.5 -86t12.5 -93.5t-7 -93v-11l-155 5l2 10q20 115 -36.5 176t-168.5 61q-127 0 -243 -131t-148 -315q-9 -66 -9 -130t17.5 -121.5t45 -101t72.5 -69t101 -25.5q186 0 332 111 l78 64l-8 -207l-7 -4q-181 -113 -354 -129l-18 -109q3 0 7 -1t7 -1q68 -8 112.5 -57.5t22.5 -120.5q-26 -95 -95.5 -147t-166.5 -52q-133 0 -213 47l-6 4l65 125l9 -2q72 -35 159 -35t95 58q4 24 -27.5 39t-72.5 19.5t-81 2.5h-12l76 232q-180 28 -265.5 191.5t-41.5 418.5z " />
<glyph unicode="&#xc8;" horiz-adv-x="1318" d="M225 0l205 1188h811l-102 -156h-564l-59 -342h395l-94 -155h-328l-65 -379h655l-98 -156h-756zM532 1638h252l80 -333l-182 69z" />
<glyph unicode="&#xc9;" horiz-adv-x="1320" d="M227 0l205 1188h811l-102 -156h-566l-59 -342h397l-94 -155h-330l-65 -379h657l-98 -156h-756zM834 1305l196 333h260l-246 -264z" />
<glyph unicode="&#xca;" horiz-adv-x="1318" d="M225 0l205 1188h811l-102 -156h-564l-59 -342h395l-94 -155h-328l-65 -379h655l-98 -156h-756zM485 1311l449 477l291 -477h-174l-158 241l-238 -241h-170z" />
<glyph unicode="&#xcb;" horiz-adv-x="1318" d="M225 0l205 1188h811l-102 -156h-564l-59 -342h395l-94 -155h-328l-65 -379h655l-98 -156h-756zM549 1446q9 56 54.5 95.5t98.5 39.5q50 0 79 -39t20 -96q-9 -56 -51.5 -95.5t-92.5 -39.5q-53 0 -85 39.5t-23 95.5zM948 1446q9 57 52 96t96 39q57 0 90 -39t24 -96 t-55.5 -96t-103.5 -39q-52 0 -82 39t-21 96z" />
<glyph unicode="&#xcc;" horiz-adv-x="974" d="M508 1638h268l96 -333l-206 69zM543 0l205 1188h170l-205 -1188h-170z" />
<glyph unicode="&#xcd;" horiz-adv-x="968" d="M223 0l205 1188h170l-205 -1188h-170zM514 1305l213 333h266l-245 -264z" />
<glyph unicode="&#xce;" horiz-adv-x="1257" d="M436 1311l486 477l319 -477h-174l-186 241l-271 -241h-174zM528 0l205 1188h170l-205 -1188h-170z" />
<glyph unicode="&#xcf;" horiz-adv-x="1198" d="M461 1446q9 57 56 96t104 39q58 0 97 -39.5t30 -95.5t-61.5 -95.5t-111.5 -39.5q-57 0 -90 39t-24 96zM496 0l204 1188h170l-204 -1188h-170zM913 1446q9 56 62 95.5t112 39.5q57 0 90.5 -39t24.5 -96t-56 -96t-104 -39q-58 0 -98 39.5t-31 95.5z" />
<glyph unicode="&#xd1;" horiz-adv-x="1333" d="M254 0l205 1188h157q45 0 54 -35l264 -813l145 848h170l-205 -1188h-110q-51 0 -60 35l-286 897l-164 -932h-170zM471 1460l8 6q68 50 129 76.5t131 26.5q68 0 138.5 -21.5t125.5 -43t84 -21.5q88 0 164 55l11 6l59 -127l-8 -6q-69 -49 -128.5 -74.5t-129.5 -25.5 q-55 0 -171.5 43t-174.5 43q-88 0 -168 -58l-13 -6z" />
<glyph unicode="&#xd2;" horiz-adv-x="1560" d="M326 594q27 157 126 299t239 228.5t278 86.5q104 0 194.5 -51.5t149.5 -135.5t84.5 -197t5.5 -230t-84.5 -230.5t-153 -198t-197 -136.5t-212.5 -52t-194 52t-148 136.5t-83 198t-5 230.5zM520 594q-18 -106 10.5 -204t97.5 -160t160 -62q138 0 265 131.5t155 294.5 q18 105 -11.5 203t-99.5 159.5t-161 61.5q-138 0 -263 -130.5t-153 -293.5zM690 1638h234l80 -333l-183 69z" />
<glyph unicode="&#xd3;" horiz-adv-x="1562" d="M328 594q27 157 126 299t239 228.5t278 86.5t248.5 -86.5t160.5 -228.5t23 -299q-20 -117 -84.5 -230.5t-152.5 -198t-196 -136.5t-212 -52t-194 52t-148 136.5t-83 198t-5 230.5zM522 594q-18 -106 10.5 -204t98 -160t160.5 -62t182 62t154 160t81 204t-11 203.5 t-98.5 159t-160.5 61.5q-138 0 -263 -130.5t-153 -293.5zM971 1305l194 333h232l-219 -264z" />
<glyph unicode="&#xd4;" horiz-adv-x="1560" d="M326 594q27 157 126 299t239 228.5t278 86.5q104 0 194.5 -51.5t149.5 -135.5t84.5 -197t5.5 -230t-84.5 -230.5t-153 -198t-197 -136.5t-212.5 -52t-194 52t-148 136.5t-83 198t-5 230.5zM520 594q-18 -106 10.5 -204t97.5 -160t160 -62q138 0 265 131.5t155 294.5 q18 105 -11.5 203t-99.5 159.5t-161 61.5q-138 0 -263 -130.5t-153 -293.5zM643 1311l426 477l264 -477h-151l-154 241l-233 -241h-152z" />
<glyph unicode="&#xd5;" horiz-adv-x="1560" d="M326 594q27 157 126 299t239 228.5t278 86.5q104 0 194.5 -51.5t149.5 -135.5t84.5 -197t5.5 -230t-84.5 -230.5t-153 -198t-197 -136.5t-212.5 -52t-194 52t-148 136.5t-83 198t-5 230.5zM520 594q-18 -106 10.5 -204t97.5 -160t160 -62q138 0 265 131.5t155 294.5 q18 105 -11.5 203t-99.5 159.5t-161 61.5q-138 0 -263 -130.5t-153 -293.5zM604 1460l10 6q68 51 122 77t118 26q67 0 136.5 -21.5t124 -43t83.5 -21.5q80 0 150 55l8 6l59 -127l-10 -6q-70 -51 -122.5 -75.5t-117.5 -24.5q-55 0 -171 43t-173 43q-77 0 -151 -58l-8 -6z" />
<glyph unicode="&#xd6;" horiz-adv-x="1560" d="M326 594q27 157 126 299t239 228.5t278 86.5q104 0 194.5 -51.5t149.5 -135.5t84.5 -197t5.5 -230t-84.5 -230.5t-153 -198t-197 -136.5t-212.5 -52t-194 52t-148 136.5t-83 198t-5 230.5zM520 594q-18 -106 10.5 -204t97.5 -160t160 -62q138 0 265 131.5t155 294.5 q18 105 -11.5 203t-99.5 159.5t-161 61.5q-138 0 -263 -130.5t-153 -293.5zM698 1446q9 56 51.5 95.5t92.5 39.5t77.5 -39t18.5 -96t-50 -96t-91 -39t-79 39t-20 96zM1083 1446q9 56 51.5 95.5t92.5 39.5t77.5 -39t18.5 -96t-50 -96t-91 -39t-79 39t-20 96z" />
<glyph unicode="&#xd9;" horiz-adv-x="1308" d="M305 397l135 791h170l-133 -770q-25 -140 17 -205.5t165 -65.5t186.5 64.5t88.5 206.5l133 770h170l-135 -791q-35 -203 -159.5 -311.5t-311.5 -108.5t-274 108.5t-52 311.5zM545 1638h254l78 -333l-183 69z" />
<glyph unicode="&#xda;" horiz-adv-x="1308" d="M305 397l135 791h170l-133 -770q-25 -140 17 -205.5t165 -65.5t186.5 64.5t88.5 206.5l133 770h170l-135 -791q-35 -203 -159.5 -311.5t-311.5 -108.5t-274 108.5t-52 311.5zM842 1305l194 333h252l-237 -264z" />
<glyph unicode="&#xdb;" horiz-adv-x="1308" d="M305 397l135 791h170l-133 -770q-25 -140 17 -205.5t165 -65.5t186.5 64.5t88.5 206.5l133 770h170l-135 -791q-35 -203 -159.5 -311.5t-311.5 -108.5t-274 108.5t-52 311.5zM496 1311l446 477l283 -477h-170l-154 241l-235 -241h-170z" />
<glyph unicode="&#xdc;" horiz-adv-x="1308" d="M305 397l135 791h170l-133 -770q-25 -140 17 -205.5t165 -65.5t186.5 64.5t88.5 206.5l133 770h170l-135 -791q-35 -203 -159.5 -311.5t-311.5 -108.5t-274 108.5t-52 311.5zM557 1446q9 56 55.5 95.5t100.5 39.5q50 0 77.5 -39t18.5 -96t-50 -96t-91 -39 q-53 0 -86.5 39.5t-24.5 95.5zM958 1446q9 57 50.5 96t91.5 39q53 0 86 -39.5t24 -95.5t-55.5 -95.5t-99.5 -39.5q-50 0 -78 39t-19 96z" />
<glyph unicode="&#xdd;" horiz-adv-x="1445" d="M416 1188h196l219 -539l379 539h195l-516 -699l-84 -489h-174l84 489zM913 1305l195 333h250l-238 -264z" />
<glyph unicode="&#xe0;" horiz-adv-x="1314" d="M274 276q19 109 91 181.5t170.5 102.5t222.5 30q104 0 213 -45l10 65q17 93 -22.5 131.5t-149.5 38.5q-98 0 -162 -18t-125 -66l-10 -8l-68 133l11 6q79 59 168 89t215 30q371 0 313 -336l-104 -610h-156l18 113q-168 -136 -323 -136q-159 0 -247 82t-65 217zM453 279 q-12 -70 33 -105t135 -35q53 0 107 19.5t98 51.5t64.5 49t37.5 34l16 94q-111 41 -215 41q-251 0 -276 -149zM496 1376h272l106 -334l-221 70z" />
<glyph unicode="&#xe1;" horiz-adv-x="1333" d="M266 276q19 109 90.5 181.5t169.5 102.5t222 30q106 0 215 -45l10 65q17 93 -23.5 131.5t-150.5 38.5q-98 0 -161 -18t-124 -66l-10 -8l-68 133l10 6q79 60 167.5 89.5t213.5 29.5q374 0 316 -336l-105 -610h-155l18 113q-168 -136 -326 -136q-159 0 -245.5 82t-63.5 217 zM444 279q-12 -70 32 -105t134 -35q52 0 107 20t99 51t66.5 49.5t37.5 33.5l16 94q-111 41 -217 41q-250 0 -275 -149zM825 1042l222 334h268l-246 -264z" />
<glyph unicode="&#xe2;" horiz-adv-x="1327" d="M266 276q19 109 90.5 181.5t169.5 102.5t222 30q106 0 215 -45l10 65q17 93 -22.5 131.5t-149.5 38.5q-98 0 -162 -18t-125 -66l-10 -8l-68 133l10 6q79 59 168.5 89t214.5 30q372 0 314 -336l-105 -610h-155l18 113q-168 -136 -326 -136q-159 0 -245.5 82t-63.5 217z M438 1049l492 477l319 -477h-174l-186 241l-277 -241h-174zM444 279q-12 -70 32 -105t134 -35q52 0 107 20t99 51t66.5 49.5t37.5 33.5l16 94q-111 41 -217 41q-250 0 -275 -149z" />
<glyph unicode="&#xe3;" horiz-adv-x="1396" d="M285 276q14 83 58 144.5t109.5 98t143.5 54t168 17.5q99 0 215 -45l10 65q17 93 -23 131.5t-149 38.5q-96 0 -159 -18t-126 -66l-10 -8l-67 133l8 6q78 59 168.5 89t214.5 30q373 0 315 -336l-104 -610h-156l21 113q-174 -136 -328 -136q-159 0 -245.5 82t-63.5 217z M420 1198l8 6q68 50 129.5 76.5t136.5 26.5q81 0 165.5 -21.5t149.5 -43t99 -21.5q96 0 172 55l10 6l58 -127l-7 -6q-69 -49 -130 -74.5t-138 -25.5q-65 0 -204 43t-207 43q-93 0 -173 -58l-12 -6zM463 279q-12 -70 32.5 -105t133.5 -35q51 0 105.5 20t98 51t66 49.5 t37.5 33.5l16 94q-111 41 -217 41q-247 0 -272 -149z" />
<glyph unicode="&#xe4;" horiz-adv-x="1316" d="M276 276q19 109 91 181.5t170.5 102.5t222.5 30q104 0 213 -45l10 65q17 93 -22.5 131.5t-149.5 38.5q-98 0 -162 -18t-125 -66l-10 -8l-68 133l11 6q79 59 168 89t215 30q371 0 313 -336l-104 -610h-156l20 113q-168 -136 -325 -136q-159 0 -247 82t-65 217zM455 279 q-12 -70 33 -105t135 -35q53 0 107 19.5t98 51.5t64.5 49t37.5 34l16 94q-111 41 -215 41q-251 0 -276 -149zM510 1184q9 57 56 96t104 39q59 0 94.5 -39t26.5 -96q-9 -56 -59 -95.5t-109 -39.5q-57 0 -89.5 39t-23.5 96zM969 1184q9 57 56.5 96t104.5 39t90.5 -39t24.5 -96 q-9 -56 -56.5 -95.5t-105.5 -39.5q-57 0 -90 39t-24 96z" />
<glyph unicode="&#xe5;" horiz-adv-x="1312" d="M274 276q19 109 91 181.5t170.5 102.5t222.5 30q104 0 213 -45l10 65q17 93 -22.5 131.5t-149.5 38.5q-98 0 -162 -18t-125 -66l-10 -8l-68 133l11 6q79 59 168 89t215 30q371 0 313 -336l-104 -610h-156l18 113q-168 -136 -323 -136q-159 0 -247 82t-65 217zM453 279 q-12 -70 33 -105t135 -35q53 0 107 19.5t98 51.5t64.5 49t37.5 34l16 94q-111 41 -215 41q-251 0 -276 -149zM608 1327q20 115 120.5 196t223.5 81q121 0 190.5 -80.5t49.5 -196.5t-117.5 -197t-218.5 -81q-123 0 -195.5 81.5t-52.5 196.5zM748 1327q-10 -58 30 -100.5 t103 -42.5q62 0 112.5 42t61.5 101t-25.5 100t-99.5 41t-117.5 -41.5t-64.5 -99.5z" />
<glyph unicode="&#xe7;" horiz-adv-x="1339" d="M301 268q-18 89 0 195q28 163 125 277t229 169q84 37 185 37q252 0 323 -186l4 -4l-127 -203l-4 27q-13 112 -63.5 155t-153.5 43q-100 0 -176 -52t-121 -138q-32 -62 -43 -125q-20 -109 10.5 -184.5t100.5 -108.5q47 -23 110 -23q171 0 330 109l70 51l-2 -194l-4 -4 q-168 -107 -353 -127l-18 -109q3 0 8 -1t8 -1q32 -4 62.5 -18t54.5 -36.5t33 -54t-2 -69.5q-27 -93 -103.5 -146t-175.5 -53q-133 0 -213 47l-6 4l66 125l8 -2q76 -35 162 -35t94 58q4 24 -28 39t-73 19.5t-81 2.5h-13l76 232q-121 18 -198 93.5t-101 190.5z" />
<glyph unicode="&#xe8;" horiz-adv-x="1427" d="M305 463q35 198 201.5 340.5t353.5 142.5q91 0 170.5 -38.5t132.5 -103t76 -155t6 -188.5l-14 -78h-762q9 -105 79.5 -172.5t172.5 -67.5q103 0 201 78q39 30 91 33t85 -9l32 -12l9 -6l-9 -10q-86 -109 -203.5 -174.5t-234.5 -65.5q-91 0 -170.5 38.5t-133 103.5 t-77 155.5t-6.5 188.5zM496 537h583q-6 106 -75 174.5t-173 68.5q-103 0 -196.5 -69t-138.5 -174zM561 1376h254l80 -334l-184 70z" />
<glyph unicode="&#xe9;" horiz-adv-x="1427" d="M305 463q35 198 201.5 340.5t353.5 142.5q91 0 170.5 -38.5t132.5 -103t76 -155t6 -188.5l-14 -78h-762q9 -105 79.5 -172.5t172.5 -67.5q103 0 201 78q39 30 91 33t85 -9l32 -12l9 -6l-9 -10q-86 -109 -203.5 -174.5t-234.5 -65.5q-91 0 -170.5 38.5t-133 103.5 t-77 155.5t-6.5 188.5zM496 537h583q-6 106 -75 174.5t-173 68.5q-103 0 -196.5 -69t-138.5 -174zM860 1042l197 334h252l-240 -264z" />
<glyph unicode="&#xea;" horiz-adv-x="1427" d="M305 463q35 198 201.5 340.5t353.5 142.5q91 0 170.5 -38.5t132.5 -103t76 -155t6 -188.5l-14 -78h-762q9 -105 79.5 -172.5t172.5 -67.5q103 0 201 78q39 30 91 33t85 -9l32 -12l9 -6l-9 -10q-86 -109 -203.5 -174.5t-234.5 -65.5q-91 0 -170.5 38.5t-133 103.5 t-77 155.5t-6.5 188.5zM496 537h583q-6 106 -75 174.5t-173 68.5q-103 0 -196.5 -69t-138.5 -174zM512 1049l449 477l282 -477h-172l-151 241l-238 -241h-170z" />
<glyph unicode="&#xeb;" horiz-adv-x="1427" d="M305 463q35 198 201.5 340.5t353.5 142.5q91 0 170.5 -38.5t132.5 -103t76 -155t6 -188.5l-14 -78h-762q9 -105 79.5 -172.5t172.5 -67.5q103 0 201 78q39 30 91 33t85 -9l32 -12l9 -6l-9 -10q-86 -109 -203.5 -174.5t-234.5 -65.5q-91 0 -170.5 38.5t-133 103.5 t-77 155.5t-6.5 188.5zM496 537h583q-6 106 -75 174.5t-173 68.5q-103 0 -196.5 -69t-138.5 -174zM575 1184q9 56 55.5 95.5t100.5 39.5q50 0 77.5 -39t18.5 -96t-51 -96t-92 -39q-53 0 -85.5 39.5t-23.5 95.5zM977 1184q9 57 50 96t91 39q55 0 88.5 -39.5t24.5 -95.5 t-57 -95.5t-103 -39.5q-49 0 -76 39t-18 96z" />
<glyph unicode="&#xec;" horiz-adv-x="974" d="M463 1376h268l96 -334l-206 70zM545 0l160 924h169l-159 -924h-170z" />
<glyph unicode="&#xed;" horiz-adv-x="968" d="M223 0l160 924h170l-160 -924h-170zM469 1042l213 334h266l-246 -264z" />
<glyph unicode="&#xee;" horiz-adv-x="1243" d="M389 1049l479 477l310 -477h-174l-177 241l-264 -241h-174zM530 0l144 924h182l-156 -924h-170z" />
<glyph unicode="&#xef;" horiz-adv-x="1191" d="M420 1184q9 57 56 96t104 39t88 -39t22 -96t-55 -96t-103 -39t-89 39t-23 96zM502 0l141 924h186l-157 -924h-170zM872 1184q9 57 55 96t103 39t90.5 -39t24.5 -96q-9 -56 -56.5 -95.5t-105.5 -39.5q-57 0 -88.5 39t-22.5 96z" />
<glyph unicode="&#xf1;" horiz-adv-x="1329" d="M272 0l134 770l192 125l-29 -166q145 178 322 178q136 0 196 -89t35 -238l-100 -580h-168l96 559q14 83 -12 131.5t-94 48.5q-114 0 -207 -100q-102 -106 -127 -256l-66 -383h-172zM422 1198l8 6q68 50 129 76.5t133 26.5q68 0 138.5 -21.5t125.5 -43t84 -21.5 q92 0 168 55l11 6l57 -127l-6 -6q-69 -49 -129 -74.5t-133 -25.5q-55 0 -173 43t-176 43q-87 0 -167 -58l-13 -6z" />
<glyph unicode="&#xf2;" horiz-adv-x="1406" d="M305 463q23 131 107 243t201 176t237 64q89 0 166.5 -38t128.5 -102.5t73 -154.5t5 -188q-35 -199 -196.5 -342.5t-344.5 -143.5q-120 0 -215 65t-140 177.5t-22 243.5zM473 463q-23 -132 47 -226t191 -94t221 93.5t123 226.5q23 132 -45 224.5t-189 92.5 q-122 0 -223.5 -92.5t-124.5 -224.5zM561 1376h246l78 -334l-183 70z" />
<glyph unicode="&#xf3;" horiz-adv-x="1404" d="M305 463q23 131 106.5 243t200 176t236.5 64q89 0 167 -38t129.5 -102.5t73.5 -154.5t5 -188q-23 -131 -106.5 -243.5t-200 -177.5t-236.5 -65t-214.5 65t-139 177.5t-21.5 243.5zM473 463q-23 -132 46 -226t190 -94t222 93.5t124 226.5q23 132 -45.5 224.5t-190.5 92.5 q-121 0 -222 -92.5t-124 -224.5zM848 1042l196 334h242l-229 -264z" />
<glyph unicode="&#xf4;" horiz-adv-x="1404" d="M305 463q23 131 106.5 243t200 176t236.5 64q89 0 167 -38t129.5 -102.5t73.5 -154.5t5 -188q-23 -131 -106.5 -243.5t-200 -177.5t-236.5 -65t-214.5 65t-139 177.5t-21.5 243.5zM473 463q-23 -132 46 -226t190 -94t222 93.5t124 226.5q23 132 -45.5 224.5t-190.5 92.5 q-121 0 -222 -92.5t-124 -224.5zM512 1049l436 477l273 -477h-160l-154 241l-237 -241h-158z" />
<glyph unicode="&#xf5;" horiz-adv-x="1404" d="M305 463q23 131 106.5 243t200 176t236.5 64q89 0 167 -38t129.5 -102.5t73.5 -154.5t5 -188q-23 -131 -106.5 -243.5t-200 -177.5t-236.5 -65t-214.5 65t-139 177.5t-21.5 243.5zM473 463q-23 -132 46 -226t190 -94t222 93.5t124 226.5q23 132 -45.5 224.5t-190.5 92.5 q-121 0 -222 -92.5t-124 -224.5zM475 1198l10 6q69 51 125.5 77t120.5 26q68 0 138.5 -21.5t125.5 -43t84 -21.5q80 0 156 55l8 6l60 -127l-9 -6q-69 -49 -127 -74.5t-123 -25.5q-55 0 -171.5 43t-174.5 43q-45 0 -79 -14t-74 -44l-10 -6z" />
<glyph unicode="&#xf6;" horiz-adv-x="1404" d="M305 463q23 131 106.5 243t200 176t236.5 64q89 0 167 -38t129.5 -102.5t73.5 -154.5t5 -188q-23 -131 -106.5 -243.5t-200 -177.5t-236.5 -65t-214.5 65t-139 177.5t-21.5 243.5zM473 463q-23 -132 46 -226t190 -94t222 93.5t124 226.5q23 132 -45.5 224.5t-190.5 92.5 q-121 0 -222 -92.5t-124 -224.5zM575 1184q9 56 52.5 95.5t91.5 39.5q50 0 78.5 -39t19.5 -96q-9 -56 -52 -95.5t-93 -39.5q-48 0 -77 39.5t-20 95.5zM965 1184q9 57 51 96t92 39q48 0 78.5 -39.5t21.5 -95.5t-53.5 -95.5t-93.5 -39.5q-50 0 -77.5 39t-18.5 96z" />
<glyph unicode="&#xf9;" horiz-adv-x="1261" d="M291 305l100 580h168l-98 -559q-14 -83 11 -132t93 -49q115 0 209 101q102 106 127 256l68 383h172l-154 -885h-172l27 156q-146 -179 -320 -179q-136 0 -196 89.5t-35 238.5zM473 1376h256l80 -334l-182 70z" />
<glyph unicode="&#xfa;" horiz-adv-x="1261" d="M289 305l100 580h168l-98 -559q-14 -83 11 -132t93 -49q115 0 209 101q102 106 127 256l68 383h172l-154 -885h-172l27 156q-146 -179 -320 -179q-136 0 -196 89.5t-35 238.5zM772 1042l197 334h256l-244 -264z" />
<glyph unicode="&#xfb;" horiz-adv-x="1257" d="M287 305l100 580h168l-98 -559q-14 -83 11 -132t93 -49q115 0 209 101q102 106 127 256l68 383h172l-154 -885h-172l27 156q-146 -179 -320 -179q-136 0 -196 89.5t-35 238.5zM420 1049l452 477l287 -477h-174l-154 241l-239 -241h-172z" />
<glyph unicode="&#xfc;" horiz-adv-x="1259" d="M289 305l100 580h168l-98 -559q-14 -83 11 -132t93 -49q115 0 209 101q102 106 127 256l68 383h172l-154 -885h-172l27 156q-146 -179 -320 -179q-136 0 -196 89.5t-35 238.5zM483 1184q9 57 55.5 96t102.5 39q50 0 78.5 -39t19.5 -96q-9 -56 -52 -95.5t-93 -39.5 q-56 0 -88 39t-23 96zM889 1184q9 57 51 96t92 39q56 0 89 -39t24 -96q-9 -56 -56.5 -95.5t-103.5 -39.5q-50 0 -77.5 39t-18.5 96z" />
<glyph unicode="&#xfd;" horiz-adv-x="1441" d="M233 -414l11 172h10q119 6 213 79.5t178 236.5l-272 850h186l193 -686l417 686h185l-623 -967q-30 -50 -50 -81.5t-51 -74.5t-57.5 -70t-64 -56.5t-75.5 -46.5t-87 -29t-104 -13h-9zM868 1042l193 334h252l-238 -264z" />
<glyph unicode="&#xff;" horiz-adv-x="1441" d="M233 -414l11 172h10q119 6 213 79.5t178 236.5l-272 850h186l193 -686l417 686h185l-623 -967q-30 -50 -50 -81.5t-51 -74.5t-57.5 -70t-64 -56.5t-75.5 -46.5t-87 -29t-104 -13h-9zM584 1184q9 56 53.5 95.5t97.5 39.5q50 0 80 -39.5t21 -95.5t-53.5 -95.5t-94.5 -39.5 q-53 0 -83 39t-21 96zM981 1184q9 57 51 96t92 39q53 0 85.5 -39.5t23.5 -95.5t-55.5 -95.5t-100.5 -39.5q-50 0 -77.5 39t-18.5 96z" />
<glyph unicode="&#x178;" horiz-adv-x="1445" d="M416 1188h196l219 -539l379 539h195l-516 -699l-84 -489h-174l84 489zM633 1446q9 56 55 95.5t98 39.5q50 0 79 -39t20 -96q-9 -56 -51.5 -95.5t-92.5 -39.5q-52 0 -84.5 39.5t-23.5 95.5zM1028 1446q9 57 51 96t92 39q52 0 85 -39.5t24 -95.5t-55.5 -95.5t-98.5 -39.5 q-50 0 -78.5 39t-19.5 96z" />
<glyph unicode="&#x2dc;" horiz-adv-x="1353" d="M276 262l11 6q69 50 129 76.5t133 26.5q66 0 133.5 -21.5t120 -43t80.5 -21.5q96 0 172 55l8 6l59 -127l-8 -6q-69 -49 -129 -74.5t-133 -25.5q-52 0 -165 43t-169 43q-92 0 -172 -58l-10 -6z" />
<glyph unicode="&#x2000;" horiz-adv-x="894" />
<glyph unicode="&#x2001;" horiz-adv-x="1788" />
<glyph unicode="&#x2002;" horiz-adv-x="894" />
<glyph unicode="&#x2003;" horiz-adv-x="1788" />
<glyph unicode="&#x2004;" horiz-adv-x="596" />
<glyph unicode="&#x2005;" horiz-adv-x="447" />
<glyph unicode="&#x2006;" horiz-adv-x="298" />
<glyph unicode="&#x2007;" horiz-adv-x="298" />
<glyph unicode="&#x2008;" horiz-adv-x="223" />
<glyph unicode="&#x2009;" horiz-adv-x="357" />
<glyph unicode="&#x200a;" horiz-adv-x="99" />
<glyph unicode="&#x2010;" horiz-adv-x="1359" d="M324 510l28 168h850l-28 -168h-850z" />
<glyph unicode="&#x2011;" horiz-adv-x="1359" d="M324 510l28 168h850l-28 -168h-850z" />
<glyph unicode="&#x2012;" horiz-adv-x="1359" d="M324 510l28 168h850l-28 -168h-850z" />
<glyph unicode="&#x2013;" horiz-adv-x="1505" d="M324 510l33 168h991l-33 -168h-991z" />
<glyph unicode="&#x2014;" horiz-adv-x="2529" d="M324 510l65 168h1983l-65 -168h-1983z" />
<glyph unicode="&#x202f;" horiz-adv-x="357" />
<glyph unicode="&#x205f;" horiz-adv-x="447" />
<glyph unicode="&#x20ac;" horiz-adv-x="1562" d="M283 393l75 168h725l-65 -168h-324q15 -168 111 -223q54 -33 117 -33q176 0 333 111l11 8l63 -150l-10 -6q-211 -133 -428 -133q-177 0 -273.5 118t-107.5 308h-227zM324 625l75 168h179q110 277 325 381q95 45 199 45q90 0 169.5 -35.5t121.5 -91.5q90 -116 59 -283 l-2 -10l-154 4l2 10q20 114 -42.5 176t-176.5 62q-215 0 -336 -258h381l-69 -168h-731z" />
<glyph unicode="&#x25fc;" horiz-adv-x="921" d="M0 0v922h922v-922h-922z" />
</font>
</defs>
</svg>
