<?xml version="1.0" standalone="no"?>
<!DOCTYPE svg PUBLIC "-//W3C//DTD SVG 1.1//EN" "http://www.w3.org/Graphics/SVG/1.1/DTD/svg11.dtd" >
<svg xmlns="http://www.w3.org/2000/svg">
<metadata></metadata>
<defs>
<font id="charger_monospaceregular" horiz-adv-x="1460" >
<font-face units-per-em="2048" ascent="1638" descent="-410" />
<missing-glyph horiz-adv-x="509" />
<glyph horiz-adv-x="0" />
<glyph horiz-adv-x="682" />
<glyph horiz-adv-x="0" />
<glyph horiz-adv-x="0" />
<glyph unicode="&#xd;" horiz-adv-x="434" />
<glyph unicode=" "  horiz-adv-x="509" />
<glyph unicode="&#x09;" horiz-adv-x="509" />
<glyph unicode="&#xa0;" horiz-adv-x="509" />
<glyph unicode="!" horiz-adv-x="751" d="M219 125q0 57 40 96t97 39t97.5 -39t40.5 -96t-40.5 -96t-97.5 -39t-97 39t-40 96zM240 1219h233l-51 -740l-2 -2l-7.5 -12.5t-17.5 -27.5t-25.5 -35.5t-28.5 -29t-28 -14.5q-24 -3 -28 41z" />
<glyph unicode="&#x22;" horiz-adv-x="976" d="M229 1602h215v-439l-155 94zM494 1163v439h215l-60 -345z" />
<glyph unicode="#" horiz-adv-x="1423" d="M213 313l47 170h221l39 179h-215l47 169h209l84 367h146l-84 -367h118l84 367h168l-98 -367h197l-48 -169h-196l-41 -179h192l-47 -170h-184l-74 -323h-145l72 323h-117l-74 -323h-162l86 323h-225zM627 483h118l41 179h-118z" />
<glyph unicode="$" horiz-adv-x="1327" d="M215 102l113 136h6q13 -1 42 -16t61.5 -31.5t95.5 -30t139 -13.5q88 0 156.5 51t68.5 136q0 42 -17 75t-35 51.5t-61.5 35.5t-64.5 22.5t-76 17.5l-39 9q-154 35 -214 62q-150 65 -171 208q-4 26 -4 55q0 129 102.5 230t253.5 110v185l152 -115v-74q49 -6 88 -19 t57 -23.5t51.5 -35t49.5 -34.5l10 -7l-109 -133h-4q-13 1 -30.5 15t-37 30t-72 29.5t-128.5 13.5q-93 2 -149 -42.5t-56 -129.5q0 -26 8 -46.5t25 -35.5t34 -25t44.5 -18.5t47 -13t51 -10.5t46.5 -10q167 -39 237 -72q159 -75 184 -236q5 -32 5 -69q0 -123 -109.5 -227 t-242.5 -125v-199l-152 115v82q-88 7 -156.5 26t-102 37t-87.5 53z" />
<glyph unicode="%" horiz-adv-x="1689" d="M215 897q0 124 80 218.5t192 94.5q115 0 198 -94.5t83 -218.5t-83 -218.5t-198 -94.5q-112 0 -192 94.5t-80 218.5zM340 897q0 -67 44 -120.5t103 -53.5t105.5 53.5t46.5 120.5t-46.5 120.5t-105.5 53.5t-103 -53.5t-44 -120.5zM406 -20l704 1208h150l-678 -1208h-176z M932 291q0 122 78 217.5t178 95.5q97 0 174.5 -96t77.5 -217t-77.5 -217.5t-174.5 -96.5q-100 0 -178 96t-78 218zM1061 291q0 -67 38.5 -120.5t88.5 -53.5t88.5 53.5t38.5 120.5t-38.5 120.5t-88.5 53.5t-88.5 -53.5t-38.5 -120.5z" />
<glyph unicode="&#x26;" horiz-adv-x="1351" d="M215 344q0 102 50 174.5t132 112.5q-141 84 -141 248q0 16 2 36t10 54.5t22 66t41 66t62.5 59.5t92 41.5t124.5 16.5q78 0 142.5 -23.5t138.5 -67.5q16 -8 -11.5 -36.5t-62.5 -53.5l-35 -24l-6 -4l-2 2q-70 39 -168 39q-85 0 -132.5 -43t-47.5 -129q0 -94 53 -136.5 t135 -42.5h84l-80 -155h-4q-52 0 -96 -21t-70 -52.5t-40.5 -65.5t-14.5 -62q0 -102 55.5 -154.5t153.5 -52.5q83 0 152 24.5t94 71.5v173h-160l80 155h258q39 0 55.5 -19.5t16.5 -58.5q0 -40 -16.5 -58.5t-55.5 -18.5h-29v-187v-2q-10 -68 -53.5 -119.5t-105 -78.5 t-121.5 -39.5t-115 -12.5q-59 0 -113.5 13t-105 42t-87.5 71.5t-59 107t-22 143.5z" />
<glyph unicode="'" horiz-adv-x="720" d="M236 1602h213v-439l-154 94z" />
<glyph unicode="(" horiz-adv-x="966" d="M217 594q0 214 64 407.5t176.5 313t242.5 119.5h11v-189l-9 -2q-82 -9 -156 -107.5t-116.5 -245.5t-42.5 -296q0 -150 42.5 -300.5t116 -250.5t154.5 -100h11v-191h-11q-130 0 -242.5 120t-176.5 314t-64 408z" />
<glyph unicode=")" horiz-adv-x="964" d="M217 -57h10q81 0 155 100t116.5 250.5t42.5 300.5q0 149 -43 296t-117 245.5t-156 107.5l-8 2v189h10q130 0 242.5 -119.5t177 -313t64.5 -407.5q0 -160 -38.5 -313.5t-102.5 -270t-154.5 -187.5t-188.5 -71h-10v191z" />
<glyph unicode="*" horiz-adv-x="1165" d="M225 838l238 202l-238 203l103 88l164 -141v201h145v-201l162 141l102 -88l-237 -203l237 -202l-102 -88l-162 141v-201h-145v201l-164 -141z" />
<glyph unicode="+" horiz-adv-x="1355" d="M221 510v168h354v373h168v-373h353v-168h-353v-373h-168v373h-354z" />
<glyph unicode="," horiz-adv-x="917" d="M227 -287l45 29q45 28 80 63q74 74 84 156t-59 156l-2 4v4q-4 57 38 96t99 39t97 -39t40 -96q0 -58 -22 -119t-64.5 -118.5t-116 -102t-165.5 -61.5z" />
<glyph unicode="-" horiz-adv-x="1359" d="M236 510v168h849v-168h-849z" />
<glyph unicode="." horiz-adv-x="782" d="M236 125q0 57 40 96t97 39t97 -39t40 -96t-40 -96t-97 -39t-97 39t-40 96z" />
<glyph unicode="/" horiz-adv-x="1345" d="M211 -158l702 1504h189l-703 -1504h-188z" />
<glyph unicode="0" horiz-adv-x="1366" d="M219 594q0 156 62 298t166 229t219 87t219 -87t165.5 -229t61.5 -298t-61.5 -299t-165.5 -230.5t-219 -87.5t-219 87.5t-166 230.5t-62 299zM389 594q0 -107 37 -205t101.5 -159.5t138.5 -61.5t138 61.5t101 159.5t37 205t-37 204.5t-101 158.5t-138 61t-138.5 -61 t-101.5 -158.5t-37 -204.5z" />
<glyph unicode="1" horiz-adv-x="882" d="M225 1096l307 112q8 4 25 4q29 1 46.5 -21t17.5 -54v-1157h-170v1028l-177 -68z" />
<glyph unicode="2" horiz-adv-x="1257" d="M217 57q-2 73 11 132t34 98t57 72t68 53t80 43q342 182 342 393q0 92 -54 142t-147 50q-28 0 -46 -1t-40 -6t-34.5 -14t-21.5 -26t-9 -41v-10h-199v10q0 79 55 139t133 88.5t160 28.5q114 0 213 -61q58 -34 94 -85t50 -122.5t-13 -170.5t-96 -214q-38 -63 -87.5 -105.5 t-91.5 -61.5t-102 -51t-106 -71q-33 -23 -33 -65q0 -28 15.5 -47t42.5 -19h514l-43 -155h-672q-39 0 -55.5 18t-18.5 59z" />
<glyph unicode="3" horiz-adv-x="1239" d="M215 113l88 143l10 -6q135 -103 279 -103q103 0 160 51t57 150q2 27 -11.5 60.5t-40 64.5t-73 51.5t-102.5 20.5h-4l-86 155h90q87 0 142.5 40.5t55.5 131.5q0 84 -51 126t-141 42q-99 0 -182 -39l-7 -2l-139 113l12 6q162 90 314 90q72 0 130.5 -16t96 -41t65.5 -59 t42 -65t22 -65t10 -53t2 -35q0 -160 -141 -243q83 -39 130.5 -110.5t43.5 -172.5q0 -97 -33 -170.5t-89.5 -116t-125.5 -63.5t-147 -21q-191 0 -369 129z" />
<glyph unicode="4" horiz-adv-x="1386" d="M214.5 426q-4.5 36 23.5 74l497 620l172 74v-688h178l52 -156h-230v-360h-176v360h-432q-27 0 -51 17q-29 23 -33.5 59zM457 506h274v366z" />
<glyph unicode="5" horiz-adv-x="1390" d="M215 84l113 135h6q14 -2 32.5 -14t40 -24.5t86 -23t162.5 -10.5q75 0 143.5 26.5t116.5 85.5t48 140q0 54 -29 97q-46 67 -160 93t-246 7t-235 -76l-17 -8l21 602q1 40 21 57t63 17h704l-94 -156h-528l-12 -289q117 50 245 50q96 0 174.5 -22t139.5 -68.5t95 -126.5 t34 -187q0 -99 -38.5 -178t-105 -129.5t-153.5 -77.5t-187 -27q-59 0 -106.5 2t-81 4.5t-63.5 9.5t-47 10.5t-38.5 15t-30 17t-31 20.5t-32.5 22z" />
<glyph unicode="6" horiz-adv-x="1267" d="M219 395q0 145 20 259t59 196t86.5 138.5t111.5 101.5q71 50 195.5 78t258.5 30h15l-43 -156h-9q-105 0 -182.5 -17.5t-131.5 -54t-89.5 -84.5t-63.5 -118q82 45 172 45q157 0 275.5 -124t118.5 -294t-118.5 -294t-275.5 -124q-102 0 -194 56t-148.5 153t-56.5 209z M393 395q0 -101 66 -172t159 -71q92 0 156 71t64 172t-64 172.5t-156 71.5q-93 0 -159 -71.5t-66 -172.5z" />
<glyph unicode="7" horiz-adv-x="1249" d="M213 1030l70 158h718l-452 -1208h-176l389 1050h-549z" />
<glyph unicode="8" horiz-adv-x="1253" d="M215 338q0 91 48.5 167t131.5 128q-121 100 -121 244q0 134 100.5 227.5t235.5 93.5t236.5 -93.5t101.5 -227.5q0 -146 -119 -244q84 -51 131 -128t41 -167q0 -99 -55.5 -182.5t-145 -131t-190.5 -47.5t-191.5 47t-147 131t-56.5 183zM389 338q0 -86 64.5 -146.5 t156.5 -60.5t154.5 60t62.5 147q6 85 -59 146t-158 61q-92 0 -156.5 -60.5t-64.5 -146.5zM432 874q0 -72 52.5 -124t125.5 -52t123.5 51.5t50.5 124.5q0 71 -50.5 123t-123.5 52t-125.5 -52t-52.5 -123z" />
<glyph unicode="9" horiz-adv-x="1263" d="M217 780q0 170 119 294t276 124q102 0 194 -56t148 -153t56 -209q0 -145 -19.5 -259t-57.5 -195.5t-85 -138t-111 -101.5q-71 -50 -196.5 -78.5t-259.5 -30.5h-15l43 156h8q139 0 231.5 33.5t144 90.5t89.5 151q-84 -46 -170 -46q-157 0 -276 124t-119 294zM391 780 q0 -101 64.5 -172t156.5 -71t158 71t66 172t-66 172.5t-158 71.5t-156.5 -71.5t-64.5 -172.5z" />
<glyph unicode=":" horiz-adv-x="768" d="M227 125q0 57 40.5 96t97.5 39t97 -39t40 -96t-40 -96t-97 -39t-97.5 39t-40.5 96zM227 784q0 57 40.5 96.5t97.5 39.5t97 -39.5t40 -96.5t-40 -96t-97 -39t-97.5 39t-40.5 96z" />
<glyph unicode=";" horiz-adv-x="897" d="M219 -287l45 29q45 28 80 63q74 74 84 156t-59 156l-2 4v4q-4 57 38 96t99 39t97 -39t40 -96q0 -58 -22 -119t-65 -118.5t-116.5 -102t-165.5 -61.5zM367 784q0 57 40 96.5t97 39.5t97 -39.5t40 -96.5t-40 -96t-97 -39t-97 39t-40 96z" />
<glyph unicode="&#x3c;" horiz-adv-x="1308" d="M219 578l836 491v-170l-531 -321l531 -322v-170z" />
<glyph unicode="=" horiz-adv-x="1359" d="M236 303v168h849v-168h-849zM236 692v168h849v-168h-849z" />
<glyph unicode="&#x3e;" horiz-adv-x="1310" d="M219 86v170l531 322l-531 321v170l836 -491z" />
<glyph unicode="?" horiz-adv-x="1177" d="M213 864v10q4 107 65 189.5t149.5 123t184.5 40.5q60 0 115.5 -20t101.5 -59t73.5 -104t27.5 -147q0 -40 -8 -74.5t-19 -59.5t-33 -48.5t-39 -38t-48 -31.5t-50 -26t-55 -24.5t-53 -23.5l-9 -229h-157l-13 262q-3 49 27.5 81.5t76 50t91.5 34.5t78 48.5t31 78.5 q-1 71 -36 108t-85 42q-79 6 -152.5 -45.5t-79.5 -127.5v-10h-184zM397 125q0 57 40.5 96t97.5 39q56 0 92.5 -38.5t36.5 -96.5t-36.5 -96.5t-92.5 -38.5q-57 0 -97.5 39t-40.5 96z" />
<glyph unicode="@" horiz-adv-x="1529" d="M225 -10v520q0 237 144.5 389t369.5 152q231 0 378 -152t147 -389q0 -239 -115.5 -391t-298.5 -152q-52 0 -115.5 16.5t-127 47.5t-110.5 87t-57 126v2v45q0 250 13.5 299t83.5 49h282l189 -393q65 100 65 264q0 94 -39 178.5t-112.5 138.5t-163.5 54q-68 0 -124.5 -20.5 t-96 -56t-67 -83t-40 -101t-12.5 -110.5v-520h-193zM608 260q6 -48 79 -84.5t149 -36.5q24 0 59 13l-145 311h-142v-203z" />
<glyph unicode="A" d="M215 0l358 1047q1 3 6 19.5t7 21.5t7.5 20t10.5 21t13 17.5t17 17t21 12t27 9.5t33 3q96 0 119 -72l376 -1116h-176l-114 365h-414l-113 -365h-178zM555 520h319l-157 520h-6z" />
<glyph unicode="B" horiz-adv-x="1294" d="M231 0v1188h359q164 0 262 -84t98 -244q0 -147 -129 -223q203 -80 203 -293q0 -166 -103.5 -255t-269.5 -89h-420zM403 156h222q221 0 221 188q0 96 -52 144q-51 47 -160 47h-5h-226v-379zM403 692h170q201 0 201 168q0 89 -51 129.5t-150 40.5h-170v-338z" />
<glyph unicode="C" horiz-adv-x="1378" d="M225 594q0 111 33 219t93 196.5t153.5 143.5t204.5 55q89 0 160 -25.5t116.5 -66t76.5 -95t43.5 -110t12.5 -112.5v-11l-155 5v10q0 115 -67 176t-179 61q-127 0 -220.5 -131t-93.5 -315q0 -82 21 -161.5t59 -143.5t97 -103t129 -39q184 0 311 111l65 64l29 -207l-4 -4 q-189 -134 -401 -134q-216 0 -350 168t-134 449z" />
<glyph unicode="D" horiz-adv-x="1343" d="M233 0v1188h338q174 0 291.5 -94t171.5 -252q39 -115 39 -248q0 -204 -81.5 -346t-223.5 -207q-86 -41 -197 -41h-338zM403 156h150q171 0 255.5 117.5t84.5 320.5q0 319 -199 407q-66 29 -141 29h-150v-874z" />
<glyph unicode="E" horiz-adv-x="1320" d="M227 0v1188h811l-75 -156h-566v-342h398l-68 -155h-330v-379h658l-72 -156h-756z" />
<glyph unicode="F" horiz-adv-x="1302" d="M225 0v1188h813l-73 -152h-568v-346h396l-66 -153h-330v-537h-172z" />
<glyph unicode="G" horiz-adv-x="1415" d="M227 594q0 128 45 245t115 196.5t156 126t168 46.5q191 0 300 -111t109 -298v-11l-155 5v10q0 115 -67 176t-179 61q-92 0 -164.5 -64.5t-110.5 -165.5t-38 -216q0 -204 92 -325.5t213 -121.5q167 0 280 91v161h-108l-64 156h330v-336v-2q0 -9 -2 -23.5t-13 -44 t-28 -40.5q-200 -132 -395 -132q-215 0 -349.5 172.5t-134.5 444.5z" />
<glyph unicode="H" horiz-adv-x="1286" d="M240 0v1188h170v-498h424v498h172v-1188h-172v535h-424v-535h-170z" />
<glyph unicode="I" horiz-adv-x="690" d="M240 0v1188h170v-1188h-170z" />
<glyph unicode="J" horiz-adv-x="1241" d="M225 141l152 82l4 -4q78 -72 203 -72h10q113 0 163 52t50 170v819h172v-850q0 -179 -104.5 -270t-282.5 -91q-110 0 -202.5 43t-156.5 113z" />
<glyph unicode="K" horiz-adv-x="1413" d="M225 0v1188h170v-531l496 531h221l-571 -586l610 -602h-229l-527 526v-526h-170z" />
<glyph unicode="L" horiz-adv-x="1269" d="M225 0v1188h172v-1032h607l-76 -156h-703z" />
<glyph unicode="M" horiz-adv-x="1572" d="M240 0v1188h190q8 0 27.5 -30.5t48 -84t58 -113t64 -132t59 -125t50.5 -108t31 -67.5q3 6 22 49t34.5 77t41.5 91t47.5 102t47.5 99.5t46.5 94.5t40 75t33 53.5t19.5 18.5h194v-1188h-168l-4 926l-354 -717l-358 717v-926h-170z" />
<glyph unicode="N" horiz-adv-x="1310" d="M240 0v1188h157q47 0 62 -35l401 -813v848h170v-1188h-110q-46 0 -64 35l-444 897l-2 -932h-170z" />
<glyph unicode="O" horiz-adv-x="1562" d="M225 594q0 157 74.5 299t199.5 228.5t263 86.5t263 -86.5t200 -228.5t75 -299t-75 -300t-200 -230t-263 -87q-104 0 -203 52t-172 136.5t-117.5 198t-44.5 230.5zM420 594q0 -106 45.5 -204t125.5 -160t171 -62t171.5 62t126.5 160t46 204t-46 203.5t-126.5 159 t-171.5 61.5t-171 -61.5t-125.5 -159t-45.5 -203.5z" />
<glyph unicode="P" horiz-adv-x="1273" d="M229 0v1188h363q178 0 295 -103.5t117 -279.5q0 -179 -118 -281t-294 -102h-193v-422h-170zM399 580h174q120 0 186 56t66 169q0 225 -252 225h-174v-450z" />
<glyph unicode="Q" horiz-adv-x="1474" d="M225 594q0 157 68 299t182.5 228.5t241.5 86.5t241 -87t182 -229t68 -298q0 -108 -35.5 -212.5t-97.5 -184.5l105 -88q31 -25 31 -53q0 -25 -23 -52q-27 -32 -57 -32q-24 0 -50 20l-106 96q-121 -111 -258 -111q-127 0 -241.5 87.5t-182.5 230.5t-68 299zM403 594 q0 -106 43 -204.5t116 -160t155 -61.5q70 0 129 41l-23 22q-27 24 -27 52q0 25 21 53q24 32 50 32q21 0 44 -20l37 -35q82 125 82 281q0 106 -42.5 204t-115 159t-155.5 61t-156 -61t-115.5 -159t-42.5 -204z" />
<glyph unicode="R" horiz-adv-x="1290" d="M225 0v1188h371q60 0 113.5 -10t104 -35t87 -63t58.5 -98t22 -136q0 -63 -21.5 -115t-59 -87.5t-81.5 -59.5t-96 -39q32 -36 97 -155.5t126 -240.5t70 -135l10 -14h-217l-4 6q-9 19 -36.5 89t-53 127.5t-59 123t-69.5 106t-69 46.5q-30 6 -74 6h-47v-504h-172zM397 662 h174q232 0 232 184q0 93 -61 138.5t-164 45.5h-181v-368z" />
<glyph unicode="S" horiz-adv-x="1341" d="M223 102l113 136h6q13 -1 40.5 -16t58.5 -31.5t92.5 -30t136.5 -13.5q89 0 161 51.5t72 135.5q0 29 -8.5 53.5t-19 42t-33.5 33t-38.5 24t-48.5 19t-49 14.5t-54 12t-50 11q-43 10 -59.5 13.5t-57.5 15t-59.5 19.5t-52.5 23.5t-50.5 30.5t-39 38.5t-33.5 49.5t-19 60.5 t-8 74.5q0 133 109.5 236.5t261.5 103.5q62 0 111 -5t79 -11t61.5 -20.5t44.5 -22.5t42.5 -29t42.5 -30l10 -7l-113 -135h-6q-14 1 -32.5 15t-38.5 30.5t-72.5 30.5t-128.5 14h-8q-85 0 -134 -42q-51 -44 -51 -130q0 -26 7.5 -46t23.5 -35t31.5 -25t43 -18.5t44.5 -13 t50 -11.5t46 -10q171 -38 244 -72q165 -77 186 -245q4 -28 4 -58q0 -89 -60.5 -172t-156 -133t-194.5 -50q-90 0 -158 8.5t-120.5 28t-82.5 36t-76 46.5z" />
<glyph unicode="T" horiz-adv-x="1325" d="M215 1030v158h856v-158h-340l6 -1030h-170l-14 1030h-338z" />
<glyph unicode="U" horiz-adv-x="1308" d="M236 397v791h170v-770q0 -140 53 -205.5t176 -65.5t175 64.5t52 206.5v770h170v-791q0 -203 -105 -311.5t-292 -108.5t-293 108.5t-106 311.5z" />
<glyph unicode="V" horiz-adv-x="1466" d="M211 1188h178l328 -846l323 846h179l-508 -1227z" />
<glyph unicode="W" horiz-adv-x="1855" d="M211 1188h178l318 -846l204 614l199 -614l322 846h178l-500 -1227l-199 592l-202 -592z" />
<glyph unicode="X" horiz-adv-x="1486" d="M211 0l422 618l-387 570h203l278 -445l274 445h199l-381 -572l422 -616h-213l-305 494l-307 -494h-205z" />
<glyph unicode="Y" horiz-adv-x="1445" d="M211 1188h197l311 -539l287 539h194l-395 -699v-489h-174v489z" />
<glyph unicode="Z" horiz-adv-x="1343" d="M217 76q0 32 14 49l603 905h-607l123 158h649q40 0 56 -19t16 -59q0 -30 -10 -45l-604 -911h633l-123 -154h-678q-39 0 -55.5 18.5t-16.5 57.5z" />
<glyph unicode="[" horiz-adv-x="999" d="M229 -154v1434h500v-170h-330v-1094h330v-170h-500z" />
<glyph unicode="\" horiz-adv-x="1345" d="M211 1346h188l703 -1504h-189z" />
<glyph unicode="]" horiz-adv-x="999" d="M229 16h332v1094h-332v170h500v-1434h-500v170z" />
<glyph unicode="^" horiz-adv-x="1243" d="M229 1069l373 477l373 -477h-174l-199 242l-199 -242h-174z" />
<glyph unicode="_" horiz-adv-x="1640" d="M250 -236h1100v-167h-1100v167z" />
<glyph unicode="`" horiz-adv-x="931" d="M236 1550h268l153 -333l-219 69z" />
<glyph unicode="a" horiz-adv-x="1316" d="M229 276q0 83 33 144.5t93 98t135.5 54t166.5 17.5q106 0 222 -45v65q0 93 -46.5 131.5t-156.5 38.5q-98 0 -159.5 -18t-113.5 -66l-8 -8l-90 133l8 6q69 59 153.5 89t209.5 30q373 0 373 -336v-610h-156v113q-22 -21 -47.5 -40.5t-65 -43t-89 -38t-99.5 -14.5 q-159 0 -261 82t-102 217zM408 279q0 -70 50 -105t140 -35q53 0 104 20t89 51t57 49.5t31 33.5v94q-119 41 -222 41q-249 0 -249 -149z" />
<glyph unicode="b" horiz-adv-x="1355" d="M233 0v1198l170 125v-524q107 147 271 147q73 0 146 -35t131.5 -96.5t95 -154t36.5 -197.5q0 -123 -49 -233t-144.5 -181.5t-215.5 -71.5q-168 0 -281 152v-129h-160zM403 463q0 -138 69.5 -224.5t191.5 -86.5q106 0 172.5 91t66.5 220q0 122 -64.5 211.5t-174.5 89.5 q-117 0 -189 -90.5t-72 -210.5z" />
<glyph unicode="c" horiz-adv-x="1341" d="M223 463q0 163 77 277t200 169q78 37 178 37q254 0 356 -186l4 -4l-92 -203l-8 27q-33 112 -91 155t-161 43q-100 0 -166.5 -51.5t-97.5 -138.5q-21 -58 -21 -125q0 -110 43 -185t119 -108q50 -23 115 -23q167 0 309 109l62 51l32 -194l-4 -4q-81 -59 -186 -95.5 t-213 -36.5q-152 0 -261.5 79t-160.5 212q-33 85 -33 195z" />
<glyph unicode="d" horiz-adv-x="1355" d="M233 463q0 105 37 197.5t96.5 154t133.5 96.5t147 35q163 0 268 -147v524l170 -125v-1198h-157v129q-114 -152 -281 -152q-91 0 -170 42t-131.5 110.5t-82.5 155.5t-30 178zM414 463q0 -129 66.5 -220t172.5 -91q122 0 192 86.5t70 224.5q0 119 -72.5 210t-189.5 91 q-110 0 -174.5 -89.5t-64.5 -211.5z" />
<glyph unicode="e" horiz-adv-x="1429" d="M225 463q0 98 39.5 188t104.5 154.5t151.5 102.5t177.5 38t177 -38.5t150 -103t103 -155t39 -188.5v-78h-761q28 -105 109 -172.5t183 -67.5t187 78q33 30 85 33q10 1 20 1q39 0 67 -10l35 -12l10 -6l-6 -10q-67 -109 -174 -174.5t-224 -65.5q-122 0 -231 65 t-175.5 177.5t-66.5 243.5zM406 537h583q-25 106 -106 174.5t-185 68.5q-103 0 -184 -68.5t-108 -174.5z" />
<glyph unicode="f" horiz-adv-x="1253" d="M213 643v166h168v147q3 171 95.5 266t254.5 95q66 0 118 -13.5t78 -28t70 -44.5l7 -4l-74 -148l-10 6q-7 5 -25.5 19t-24 17.5t-21.5 12t-29.5 10.5t-36.5 4.5t-52 2.5q-174 0 -174 -207v-137h356v-164h-356l-6 -643h-170v643h-168z" />
<glyph unicode="g" horiz-adv-x="1353" d="M231 502q0 91 29.5 178t81.5 155.5t130 110t169 41.5q169 0 281 -151v129h161v-990q0 -102 -44 -186.5t-135.5 -138t-215.5 -53.5q-102 0 -180.5 19.5t-177.5 84.5l-6 4l55 164l12 -8q82 -61 145.5 -77.5t151.5 -16.5q107 0 166 57.5t59 163.5v174q-105 -144 -272 -144 q-73 0 -146 35.5t-132 97t-95.5 154t-36.5 197.5zM412 492q0 -80 27 -150t82.5 -116t129.5 -46q117 0 189.5 94t72.5 218q0 143 -70 232t-192 89q-106 0 -172.5 -94.5t-66.5 -226.5z" />
<glyph unicode="h" horiz-adv-x="1263" d="M238 0v1198l172 125v-647q116 176 284 176q136 0 214.5 -91.5t78.5 -240.5v-520h-172v512q0 184 -131 184q-116 0 -192 -102q-82 -106 -82 -264v-330h-172z" />
<glyph unicode="i" horiz-adv-x="743" d="M215 1184q0 57 40 96t97 39t97 -39t40 -96t-40 -96t-97 -39t-97 39t-40 96zM268 0v924h170v-924h-170z" />
<glyph unicode="j" horiz-adv-x="1124" d="M215 -115l113 125l6 -6q34 -32 90 -56t108 -24q136 0 136 164v836h170v-836q0 -172 -84 -256q-53 -56 -136 -70q-34 -6 -68 -6q-47 0 -94 12q-78 20 -142 50t-93 59zM639 1155q0 50 32 83.5t81 33.5q50 0 85 -34t35 -83t-35 -83t-85 -34q-49 0 -81 33.5t-32 83.5z" />
<glyph unicode="k" horiz-adv-x="1353" d="M225 0v1198l172 125v-858l455 459h229l-422 -398l431 -526h-224l-315 430l-154 -149v-281h-172z" />
<glyph unicode="l" horiz-adv-x="692" d="M240 0v1198l170 125v-1323h-170z" />
<glyph unicode="m" horiz-adv-x="1843" d="M236 0v770l172 125v-166q114 178 288 178q103 0 174 -55.5t99 -153.5v2l2 2q128 205 307 205q136 0 213.5 -89.5t77.5 -237.5v-580h-168v559q0 83 -33.5 131.5t-101.5 48.5q-116 0 -191 -100q-86 -108 -86 -256v-383h-172v559q0 83 -33.5 131.5t-101.5 48.5 q-115 0 -190 -100q-84 -105 -84 -256v-383h-172z" />
<glyph unicode="n" horiz-adv-x="1261" d="M236 0v770l172 125v-166q114 178 288 178q136 0 212.5 -89t76.5 -238v-580h-168v559q0 83 -33.5 131.5t-101.5 48.5q-115 0 -190 -100q-84 -105 -84 -256v-383h-172z" />
<glyph unicode="o" horiz-adv-x="1406" d="M225 463q0 98 38 188t101.5 154.5t148 102.5t173.5 38t173 -38t146.5 -102.5t100 -154.5t37.5 -188q0 -131 -63.5 -243.5t-169 -177.5t-224.5 -65q-120 0 -226 65t-170.5 177.5t-64.5 243.5zM393 463q0 -132 86 -226t207 -94t205 93.5t84 226.5q0 132 -84 224.5 t-205 92.5q-122 0 -207.5 -92.5t-85.5 -224.5z" />
<glyph unicode="p" horiz-adv-x="1353" d="M231 -274v1198h160v-129q110 151 281 151q120 0 215.5 -71.5t144.5 -181t49 -232.5q0 -105 -36.5 -197.5t-95 -154t-131.5 -97t-146 -35.5q-165 0 -271 148v-524zM401 461q0 -120 72 -210.5t189 -90.5q110 0 174.5 89.5t64.5 211.5q0 129 -66.5 220t-172.5 91 q-122 0 -191.5 -86.5t-69.5 -224.5z" />
<glyph unicode="q" horiz-adv-x="1355" d="M233 461q0 72 19 143t55.5 132.5t85.5 108.5t115 74t139 27q169 0 281 -151v129h157v-1198l-170 -125v524q-106 -148 -268 -148q-73 0 -147 35.5t-133.5 97t-96.5 154t-37 197.5zM414 461q0 -122 64.5 -211.5t174.5 -89.5q117 0 189.5 91t72.5 210q0 138 -70 224.5 t-192 86.5q-106 0 -172.5 -91t-66.5 -220z" />
<glyph unicode="r" horiz-adv-x="1169" d="M225 0v811l172 123v-197q111 178 297 178q22 0 41 -1t32 -2t28.5 -4.5t22 -4.5t21 -7t17.5 -7.5t19.5 -9t19.5 -9.5l10 -6l-71 -159l-11 6q-23 16 -34.5 21.5t-39 10.5t-71.5 5q-118 0 -201 -101q-80 -100 -80 -256v-391h-172z" />
<glyph unicode="s" horiz-adv-x="1312" d="M221 666q0 116 109.5 198t271.5 82q103 0 194.5 -29t141.5 -92l2 -2l-14 -153l-15 14q-53 51 -121.5 73.5t-177.5 22.5q-97 0 -155 -28.5t-58 -89.5q0 -30 16 -45t48 -27q56 -21 205 -37t213 -41q82 -31 129 -86t47 -147q0 -133 -97.5 -217.5t-302.5 -84.5 q-113 0 -203.5 26.5t-162.5 96.5l-4 4l-29 199l21 -18q90 -83 167 -112.5t199 -29.5q106 0 170 34.5t64 105.5q0 56 -80 82q-49 18 -165.5 31.5t-148.5 19.5q-56 11 -98 26.5t-82 43t-62 73t-22 107.5z" />
<glyph unicode="t" horiz-adv-x="1257" d="M215 752v168h168v374h176v-374h359v-168h-359v-408q0 -201 174 -201q29 0 52 2.5t36.5 4.5t29.5 10.5t21.5 12t24 17.5t25.5 19l10 6l74 -147l-7 -5q-44 -30 -70 -44.5t-78 -28t-118 -13.5q-162 0 -254.5 91.5t-95.5 259.5v424h-168z" />
<glyph unicode="u" horiz-adv-x="1263" d="M238 305v580h168v-559q0 -83 33.5 -132t101.5 -49q115 0 190 101q84 105 84 256v383h172v-885h-172v156q-115 -179 -289 -179q-136 0 -212 89.5t-76 238.5z" />
<glyph unicode="v" horiz-adv-x="1456" d="M215 924h188l308 -641l307 641h188l-497 -957z" />
<glyph unicode="w" horiz-adv-x="1865" d="M215 924h178l320 -656l200 471l201 -471l324 656h178l-498 -959l-205 457l-200 -457z" />
<glyph unicode="x" horiz-adv-x="1531" d="M213 0l428 477l-399 447h221l291 -363l293 363h210l-403 -449l430 -475h-225l-318 389l-313 -389h-215z" />
<glyph unicode="y" horiz-adv-x="1443" d="M215 924h186l312 -686l297 686h184l-455 -967q-21 -50 -35.5 -81.5t-38.5 -74.5t-45.5 -70t-54 -56.5t-67.5 -46.5t-82 -29t-101 -13h-8l-20 172h10q118 6 200.5 80t137.5 236z" />
<glyph unicode="z" horiz-adv-x="1386" d="M213 0l596 772h-418l-102 152h850l-598 -772h448l103 -152h-879z" />
<glyph unicode="{" horiz-adv-x="1130" d="M217 561l193 719h469v-170h-320l-143 -553l143 -541h320v-170h-469z" />
<glyph unicode="|" horiz-adv-x="690" d="M240 -154v1434h170v-1434h-170z" />
<glyph unicode="}" horiz-adv-x="1130" d="M217 16h320l143 541l-143 553h-320v170h469l193 -719l-193 -715h-469v170z" />
<glyph unicode="~" horiz-adv-x="1345" d="M225 602l8 6q59 49 117 76t131 27q66 0 137 -21.5t127 -43t84 -21.5q93 0 160 55l8 6l82 -127l-8 -6q-60 -49 -116.5 -74.5t-129.5 -25.5q-52 0 -172 43t-176 43q-91 0 -162 -58l-8 -6z" />
<glyph unicode="&#xa1;" horiz-adv-x="749" d="M219 1083q0 57 40 96.5t97 39.5t97.5 -39.5t40.5 -96.5t-40.5 -96t-97.5 -39t-97 39t-40 96zM240 -10l49 739l2 2q7 13 18.5 32t40 52t47.5 35q25 3 29 -41l47 -819h-233z" />
<glyph unicode="&#xa2;" horiz-adv-x="1316" d="M219 463q0 166 77.5 283.5t199.5 173.5q37 19 100 30v189l145 -115v-74q187 -27 273 -180l4 -4l-92 -203l-8 27q-33 111 -90.5 154.5t-155.5 43.5q-95 0 -159 -53.5t-95 -142.5q-21 -58 -21 -129q0 -112 43 -189.5t115 -111.5q52 -25 109 -25q161 0 303 109l61 51 l33 -195l-4 -4q-145 -102 -316 -125v-196l-145 114v82q-122 20 -211 97t-133 194q-33 88 -33 199z" />
<glyph unicode="&#xa3;" horiz-adv-x="1249" d="M211 94l8 6q61 55 100.5 101t65.5 100q2 5 13 25t14.5 33.5t3.5 33.5h-178l30 168h117q-2 7 -7.5 26t-8.5 29q-7 16 -28.5 57.5t-31.5 64.5t-20 64t-10 83q0 125 98 229.5t235 104.5q159 0 314 -105l12 -8l-147 -105l-7 5q-70 45 -174 45q-70 0 -112.5 -45.5 t-42.5 -120.5q0 -38 18.5 -90t43 -104t28.5 -66v-2q5 -16 14 -62h232l-31 -168h-176q-12 -131 -113 -239q58 14 102 14q40 0 100.5 -17.5t94.5 -17.5q42 0 72.5 12.5t72.5 40.5l11 7l80 -140l-9 -6q-55 -41 -103 -61.5t-110 -20.5q-44 0 -120 19.5t-123 19.5 q-106 0 -217 -49l-9 -2z" />
<glyph unicode="&#xa5;" horiz-adv-x="1456" d="M213 1198h197l301 -539l305 539h194l-350 -590h211v-153h-276v-72h276v-154h-276v-239h-170v239h-273v154h273v72h-273v153h211z" />
<glyph unicode="&#xa6;" horiz-adv-x="688" d="M238 -154v625h170v-625h-170zM238 655v625h170v-625h-170z" />
<glyph unicode="&#xa7;" horiz-adv-x="1320" d="M217 92l113 135h6q14 -1 42 -15.5t59.5 -31t92.5 -30t134 -13.5q81 0 150 50t75 130q-238 -17 -334 5q-44 10 -89 36.5t-90 74t-80 108.5t-57 147t-22 184q0 135 110 241t265 106q59 0 105.5 -5t76 -11t59.5 -20.5t43.5 -23t42 -29.5t42.5 -30l8 -6l-113 -136h-4 q-12 1 -24 10.5t-27.5 22.5t-38.5 26.5t-67 22.5t-103 9q-88 2 -142.5 -44t-54.5 -133q0 -28 17 -45t46.5 -23.5t59.5 -9t66.5 -5t56.5 -7.5q49 -12 101 -33t112 -60t106 -87.5t76.5 -120.5t30.5 -153q0 -90 -61.5 -175t-155 -135.5t-186.5 -50.5q-117 0 -205.5 18.5 t-130.5 39.5t-103 61zM432 631q-6 -32 43 -96t113 -80q8 -4 14 -4q61 -14 146.5 -9t89.5 29q-1 38 -47 78.5t-97 65.5t-88 34q-41 10 -170 -12q-4 0 -4 -6z" />
<glyph unicode="&#xa8;" horiz-adv-x="1187" d="M233 1196q0 57 40.5 96t97.5 39t95 -39t38 -96t-38 -96t-95 -39t-97.5 39t-40.5 96zM645 1196q0 57 38 96t95 39t97 -39t40 -96t-40 -96t-97 -39t-95 39t-38 96z" />
<glyph unicode="&#xa9;" horiz-adv-x="1384" d="M221 463q0 134 62.5 248t169 179.5t229.5 65.5q115 0 217 -65.5t163.5 -179.5t61.5 -248q0 -100 -36.5 -192.5t-97 -158.5t-141.5 -105.5t-167 -39.5q-123 0 -229.5 66.5t-169 181t-62.5 248.5zM354 463q0 -150 97.5 -257.5t230.5 -107.5q128 0 218.5 107t90.5 258 q0 150 -90.5 256t-218.5 106q-133 0 -230.5 -106t-97.5 -256zM432 463q0 93 43.5 159t112.5 97q41 20 94 20q130 0 178 -106l4 -4l-49 -125l-6 26q-15 60 -43 83.5t-80 23.5q-99 0 -135 -105q-12 -46 -12 -69q0 -59 24 -101.5t62 -60.5q24 -12 57 -12q90 0 154 57 q35 31 55 -14q11 -19 7.5 -40t-17.5 -34q-88 -74 -199 -74q-81 0 -141.5 46t-89.5 122q-19 55 -19 111z" />
<glyph unicode="&#xaa;" horiz-adv-x="1030" d="M233 1157q0 74 38.5 122.5t97.5 68.5t137 20q68 0 135 -27v37q0 62 -28 87.5t-95 25.5q-59 0 -96 -11.5t-70 -41.5l-8 -8l-63 92l8 6q46 39 98.5 58.5t130.5 19.5q117 0 178.5 -57t61.5 -171v-407h-107v67q-88 -82 -184 -82q-102 0 -168 55t-66 146zM356 1157 q0 -88 115 -88q84 0 170 100v62q-69 24 -135 24q-71 0 -110.5 -21.5t-39.5 -76.5z" />
<glyph unicode="&#xab;" horiz-adv-x="1390" d="M219 578l557 495v-172l-340 -323l340 -324v-172zM580 578l555 497v-174l-371 -323l371 -324v-174z" />
<glyph unicode="&#xac;" horiz-adv-x="1347" d="M236 510v168h837v-309l-168 47v94h-669z" />
<glyph unicode="&#xad;" horiz-adv-x="1245" d="M236 510v168h735v-168h-735z" />
<glyph unicode="&#xae;" horiz-adv-x="1394" d="M221 463q0 134 63 248t169 179.5t227 65.5t226 -65.5t167 -179.5t62 -248t-62.5 -249t-167 -181t-223.5 -66q-123 0 -229.5 66.5t-169 181t-62.5 248.5zM354 463q0 -152 94.5 -258.5t233.5 -106.5q132 0 225.5 107t93.5 258q0 152 -92 257t-229 105t-231.5 -105.5 t-94.5 -256.5zM506 184v553h170q56 0 99.5 -24.5t64.5 -71.5q10 -25 10 -66q0 -55 -32.5 -90t-80.5 -51q26 -33 65.5 -114t55.5 -121l8 -15h-96l-2 6q-4 10 -16.5 41.5t-24 57.5t-26.5 55t-30.5 47.5t-29.5 20.5q-6 2 -31 2h-16v-230h-88zM594 498h70q96 0 96 77 q0 40 -25.5 61t-66.5 21h-74v-159z" />
<glyph unicode="&#xaf;" horiz-adv-x="1155" d="M238 1178v168h639v-168h-639z" />
<glyph unicode="&#xb0;" horiz-adv-x="1067" d="M231 1282q0 115 84.5 196t200.5 81t197.5 -81t81.5 -196t-81.5 -196.5t-197.5 -81.5t-200.5 81.5t-84.5 196.5zM369 1282q0 -58 44 -100.5t103 -42.5q58 0 99.5 42t41.5 101q0 58 -41.5 99.5t-99.5 41.5q-59 0 -103 -41.5t-44 -99.5z" />
<glyph unicode="&#xb1;" horiz-adv-x="1363" d="M225 45h875v-168h-875v168zM225 510v168h353v373h167v-373h355v-168h-355v-373h-167v373h-353z" />
<glyph unicode="&#xb2;" horiz-adv-x="1056" d="M229 977q-1 59 11.5 103t39 73t53.5 46.5t68 35.5q252 113 252 246q0 58 -36.5 88t-102.5 30q-26 0 -41 -1t-31.5 -6t-24 -16.5t-7.5 -29.5v-10h-154v10q0 84 77 134.5t173 50.5q106 0 188 -56q47 -33 67.5 -80.5t4.5 -122t-78 -163.5q-33 -52 -76 -80t-100.5 -52 t-95.5 -53q-25 -16 -25 -41q0 -15 10 -25.5t29 -10.5h356l-26 -123h-477q-51 0 -54 53z" />
<glyph unicode="&#xb3;" horiz-adv-x="1071" d="M229 1014l60 94l10 -6q89 -60 201 -60q79 0 121.5 30.5t42.5 88.5q0 37 -49 76t-136 39h-6l-63 123h69q71 0 114.5 24.5t43.5 77.5q0 48 -38.5 73t-106.5 25q-69 0 -134 -20l-6 -2l-96 80l12 6q112 68 230 68q74 0 128.5 -21t81.5 -48t42.5 -63t18.5 -56.5t3 -37.5 q0 -108 -100 -162q131 -60 131 -186q0 -65 -24 -114t-66.5 -77.5t-94 -42.5t-112.5 -14q-145 0 -268 99z" />
<glyph unicode="&#xb4;" horiz-adv-x="933" d="M238 1217l155 333h266l-200 -264z" />
<glyph unicode="&#xb5;" horiz-adv-x="1251" d="M238 -264v1159h168v-576q0 -86 32.5 -135t98.5 -49q105 0 182 103q82 111 82 264v393h172v-905h-172v155q-114 -178 -279 -178q-64 0 -116 27v-201z" />
<glyph unicode="&#xb6;" horiz-adv-x="1540" d="M225 809q0 179 121 284t313 105h394v-1208h-168v432h-226q-191 0 -312.5 102.5t-121.5 284.5zM1104 -10v1208h170v-1208h-170z" />
<glyph unicode="&#xb7;" horiz-adv-x="776" d="M231 584q0 57 40.5 96t97.5 39t97 -39t40 -96t-40 -96t-97 -39t-97.5 39t-40.5 96z" />
<glyph unicode="&#xb8;" horiz-adv-x="1013" d="M227 -430l49 125l11 -2q91 -35 188 -35q94 0 94 57q0 35 -71.5 50.5t-145.5 11.5h-12l45 262h154v-141q4 0 9.5 -1t8.5 -1q78 -8 137 -57.5t51 -121.5q-10 -94 -80 -146t-180 -52q-146 0 -249 47z" />
<glyph unicode="&#xb9;" horiz-adv-x="782" d="M231 1657l213 76q29 10 48.5 -7.5t19.5 -44.5v-757h-133v669l-115 -45z" />
<glyph unicode="&#xba;" horiz-adv-x="1134" d="M231 1282q0 134 95.5 229t222.5 95t221 -95t94 -229t-94 -230t-221 -96t-222.5 96t-95.5 230zM371 1282q0 -77 54 -132.5t124 -55.5t123 55.5t53 132.5t-53 131.5t-123 54.5t-124 -54.5t-54 -131.5z" />
<glyph unicode="&#xbb;" horiz-adv-x="1390" d="M219 82v172l373 324l-373 323v172l557 -495zM580 80v174l338 324l-338 323v174l555 -497z" />
<glyph unicode="&#xbc;" horiz-adv-x="1775" d="M217 1190q-19 56 27 72l192 71q28 9 47 -8t19 -43v-756h-119v668l-102 -41q-46 -15 -64 37zM301 -158l858 1504h201l-871 -1504h-188zM844.5 180.5q-2.5 25.5 19.5 50.5l400 408l112 51v-454h115l37 -109h-152v-233h-116v233h-347q-25 0 -43 12q-23 16 -25.5 41.5z M1040 236h220v225z" />
<glyph unicode="&#xbd;" horiz-adv-x="1638" d="M217 1190q-19 56 27 72l192 71q28 9 47 -8t19 -43v-756h-119v668l-102 -41q-46 -15 -64 37zM301 -158l705 1504h188l-705 -1504h-188zM858 -51q-1 60 10 104t35.5 74t50 47.5t64.5 36.5q239 115 239 252q0 59 -36 90t-101 31q-35 0 -54 -2.5t-34.5 -15t-15.5 -36.5v-10 h-135v10q0 78 73 124t166 46q84 0 150 -41q38 -23 62 -56.5t33 -80.5t-8.5 -112t-62.5 -140q-25 -42 -59 -69.5t-64.5 -39.5t-73 -33t-75.5 -46q-21 -17 -21 -41q0 -39 35 -39h320q18 0 26.5 -16t8.5 -35q0 -22 -8.5 -39.5t-26.5 -17.5h-451q-25 0 -35 13.5t-12 41.5z" />
<glyph unicode="&#xbe;" horiz-adv-x="1890" d="M225 674v2q8 13 18.5 21.5t25.5 10.5t30 -12q84 -65 188 -65q74 0 115 33t41 98q0 42 -43.5 83.5t-120.5 41.5q-51 0 -51 55q0 28 12 40.5t39 12.5q139 0 139 113q0 109 -135 109q-70 0 -125 -25q-19 -8 -34.5 -10.5t-25.5 -1.5t-19.5 8t-13 11t-10 13.5t-7.5 10.5l-2 2 v4q0 33 24 45q102 59 211 59q50 0 91.5 -11t67.5 -27.5t45.5 -39.5t29.5 -43.5t16 -43.5t7 -36t1 -24q0 -107 -88 -160q115 -61 115 -186q0 -126 -79.5 -188t-199.5 -62q-136 0 -251 84q-40 28 -11 78zM434 -158l838 1504h201l-850 -1504h-189zM958.5 180q-3.5 25 18.5 51 l399 408l113 51v-454h115l36 -109h-151v-233h-117v233h-346q-23 0 -41 12q-23 16 -26.5 41zM1153 236h219v225z" />
<glyph unicode="&#xbf;" horiz-adv-x="1142" d="M215 319q0 40 8 74.5t19.5 59.5t32.5 49t38.5 38.5t47.5 31.5t48.5 26t52.5 24t50 23l10 229h133l9 -262q2 -42 -17 -72t-49.5 -45t-66 -31.5t-66.5 -31.5t-51 -44t-19 -69q1 -71 33 -107.5t82 -41.5q68 -6 131.5 45t67.5 127v10h184v-10q-2 -65 -26 -122t-62 -98.5 t-85.5 -71.5t-98.5 -45t-99 -15q-57 0 -110.5 20t-98 59t-71.5 103.5t-27 146.5zM473 1092q0 56 34.5 95.5t82.5 39.5t82.5 -39.5t34.5 -95.5q0 -57 -34.5 -96.5t-82.5 -39.5t-82.5 39.5t-34.5 96.5z" />
<glyph unicode="&#xc0;" d="M215 0l358 1047q1 3 6 19.5t7 21.5t7.5 20t10.5 21t13 17.5t17 17t21 12t27 9.5t33 3q96 0 119 -72l376 -1116h-176l-114 365h-414l-113 -365h-178zM358 1638h240l133 -333l-192 69zM555 520h319l-157 520h-6z" />
<glyph unicode="&#xc1;" d="M215 0l358 1047q1 3 6 19.5t7 21.5t7.5 20t10.5 21t13 17.5t17 17t21 12t27 9.5t33 3q96 0 119 -72l376 -1116h-176l-114 365h-414l-113 -365h-178zM555 520h319l-157 520h-6zM698 1305l136 333h237l-178 -264z" />
<glyph unicode="&#xc2;" d="M215 0l358 1047q1 3 6 19.5t7 21.5t7.5 20t10.5 21t13 17.5t17 17t21 12t27 9.5t33 3q96 0 119 -72l376 -1116h-176l-114 365h-414l-113 -365h-178zM369 1311l346 477l348 -477h-156l-192 241l-195 -241h-151zM555 520h319l-157 520h-6z" />
<glyph unicode="&#xc3;" d="M215 0l358 1047q1 3 6 19.5t7 21.5t7.5 20t10.5 21t13 17.5t17 17t21 12t27 9.5t33 3q96 0 119 -72l376 -1116h-176l-114 365h-414l-113 -365h-178zM305 1460l6 6q61 51 111.5 77t114.5 26q67 0 140.5 -21.5t131 -43t86.5 -21.5q46 0 77.5 13t63.5 42l8 6l82 -127l-8 -6 q-63 -51 -111.5 -75.5t-113.5 -24.5q-55 0 -179.5 43t-181.5 43q-44 0 -74.5 -14t-64.5 -44l-8 -6zM555 520h319l-157 520h-6z" />
<glyph unicode="&#xc4;" d="M215 0l358 1047q1 3 6 19.5t7 21.5t7.5 20t10.5 21t13 17.5t17 17t21 12t27 9.5t33 3q96 0 119 -72l376 -1116h-176l-114 365h-414l-113 -365h-178zM403 1446q0 57 34.5 96t84.5 39t85.5 -39t35.5 -96t-35.5 -96t-85.5 -39t-84.5 39t-34.5 96zM555 520h319l-157 520h-6z M786 1446q0 57 35.5 96t85.5 39t85.5 -39t35.5 -96t-35.5 -96t-85.5 -39t-85.5 39t-35.5 96z" />
<glyph unicode="&#xc5;" d="M215 0l358 1049q2 5 9 27.5t11.5 32.5t14 27t22 28t29.5 18q-83 22 -136.5 96t-53.5 170q0 114 73.5 195t174.5 81q100 0 173 -80.5t73 -195.5q0 -95 -53 -169.5t-134 -96.5q43 -15 58 -62l376 -1120h-176l-114 365h-414l-113 -365h-178zM555 520h319l-157 520h-6z M590 1448q0 -58 38 -100.5t89 -42.5t88 42.5t37 100.5t-37 99.5t-88 41.5q-53 0 -90 -41.5t-37 -99.5z" />
<glyph unicode="&#xc7;" horiz-adv-x="1376" d="M223 594q0 111 33 219t93 196.5t153.5 143.5t204.5 55q89 0 160 -25.5t116.5 -66t76.5 -95t43.5 -110t12.5 -112.5v-11l-155 5v10q0 115 -67 176t-179 61q-127 0 -220.5 -131t-93.5 -315q0 -82 21 -161.5t59 -143.5t97 -103t129 -39q184 0 311 111l67 64l27 -207l-4 -4 q-159 -112 -332 -129v-109q3 0 7.5 -1t7.5 -1q70 -8 121.5 -57t43.5 -121q-9 -95 -69.5 -147t-157.5 -52q-132 0 -221 47l-8 4l45 125l8 -2q80 -35 166 -35q84 0 84 58q0 35 -62.5 50t-128.5 11h-12l35 232q-185 28 -298.5 191.5t-113.5 418.5z" />
<glyph unicode="&#xc8;" horiz-adv-x="1318" d="M225 0v1188h811l-75 -156h-564v-342h396l-68 -155h-328v-379h656l-72 -156h-756zM250 1638h252l137 -333l-195 69z" />
<glyph unicode="&#xc9;" horiz-adv-x="1320" d="M227 0v1188h811l-75 -156h-566v-342h398l-68 -155h-330v-379h658l-72 -156h-756zM608 1305l140 333h260l-201 -264z" />
<glyph unicode="&#xca;" horiz-adv-x="1318" d="M225 0v1188h811l-75 -156h-564v-342h396l-68 -155h-328v-379h656l-72 -156h-756zM258 1311l367 477l372 -477h-174l-198 241l-197 -241h-170z" />
<glyph unicode="&#xcb;" horiz-adv-x="1318" d="M225 0v1188h811l-75 -156h-564v-342h396l-68 -155h-328v-379h656l-72 -156h-756zM299 1446q0 56 39 95.5t92 39.5q50 0 85.5 -39t35.5 -96t-35.5 -96t-85.5 -39q-53 0 -92 39.5t-39 95.5zM698 1446q0 57 36 96t89 39q57 0 97.5 -39t40.5 -96t-40.5 -96t-97.5 -39 q-53 0 -89 39t-36 96z" />
<glyph unicode="&#xcc;" horiz-adv-x="974" d="M225 1638h269l153 -333l-219 69zM543 0v1188h170v-1188h-170z" />
<glyph unicode="&#xcd;" horiz-adv-x="968" d="M223 0v1188h170v-1188h-170zM289 1305l155 333h267l-201 -264z" />
<glyph unicode="&#xce;" horiz-adv-x="1257" d="M209 1311l403 477l402 -477h-174l-228 241l-229 -241h-174zM528 0v1188h170v-1188h-170z" />
<glyph unicode="&#xcf;" horiz-adv-x="1198" d="M211 1446q0 57 40 96t97 39q58 0 104 -39.5t46 -95.5t-46 -95.5t-104 -39.5q-57 0 -97 39t-40 96zM496 0v1188h170v-1188h-170zM664 1446q0 56 46 95.5t105 39.5q57 0 97 -39t40 -96t-40 -96t-97 -39q-59 0 -105 39.5t-46 95.5z" />
<glyph unicode="&#xd1;" horiz-adv-x="1333" d="M219 1460l6 6q59 49 116.5 76t127.5 27q68 0 142 -21.5t132.5 -43t87.5 -21.5q87 0 154 55l10 6l80 -127l-6 -6q-60 -49 -115.5 -74.5t-126.5 -25.5q-55 0 -178.5 43t-181.5 43q-87 0 -158 -58l-10 -6zM254 0v1188h158q44 0 59 -35l403 -813v848h170v-1188h-110 q-51 0 -66 35l-442 897l-2 -932h-170z" />
<glyph unicode="&#xd2;" horiz-adv-x="1560" d="M223 594q0 157 74.5 299t199.5 228.5t263 86.5q139 0 264 -86.5t200.5 -228.5t75.5 -299t-75.5 -300t-201 -230t-263.5 -87q-104 0 -203 52t-172 136.5t-117.5 198t-44.5 230.5zM408 1638h233l137 -333l-194 69zM418 594q0 -106 45.5 -204t125.5 -160t171 -62t172 62 t127.5 160t46.5 204q0 105 -46.5 203t-127.5 159.5t-172 61.5t-171 -61.5t-125.5 -159t-45.5 -203.5z" />
<glyph unicode="&#xd3;" horiz-adv-x="1562" d="M225 594q0 157 74.5 299t199.5 228.5t263 86.5t263 -86.5t200 -228.5t75 -299t-75 -300t-200 -230t-263 -87q-104 0 -203 52t-172 136.5t-117.5 198t-44.5 230.5zM420 594q0 -106 45.5 -204t125.5 -160t171 -62t171.5 62t126.5 160t46 204t-46 203.5t-126.5 159 t-171.5 61.5t-171 -61.5t-125.5 -159t-45.5 -203.5zM745 1305l138 333h231l-174 -264z" />
<glyph unicode="&#xd4;" horiz-adv-x="1560" d="M223 594q0 157 74.5 299t199.5 228.5t263 86.5q139 0 264 -86.5t200.5 -228.5t75.5 -299t-75.5 -300t-201 -230t-263.5 -87q-104 0 -203 52t-172 136.5t-117.5 198t-44.5 230.5zM416 1311l344 477l346 -477h-152l-194 241l-193 -241h-151zM418 594q0 -106 45.5 -204 t125.5 -160t171 -62t172 62t127.5 160t46.5 204q0 105 -46.5 203t-127.5 159.5t-172 61.5t-171 -61.5t-125.5 -159t-45.5 -203.5z" />
<glyph unicode="&#xd5;" horiz-adv-x="1560" d="M223 594q0 157 74.5 299t199.5 228.5t263 86.5q139 0 264 -86.5t200.5 -228.5t75.5 -299t-75.5 -300t-201 -230t-263.5 -87q-104 0 -203 52t-172 136.5t-117.5 198t-44.5 230.5zM352 1460l8 6q59 51 109.5 77t114.5 26q67 0 140 -21.5t131 -43t87 -21.5q45 0 76 13t63 42 l9 6l79 -127l-8 -6q-61 -51 -109 -75.5t-114 -24.5q-55 0 -178 43t-180 43q-78 0 -142 -58l-6 -6zM418 594q0 -106 45.5 -204t125.5 -160t171 -62t172 62t127.5 160t46.5 204q0 105 -46.5 203t-127.5 159.5t-172 61.5t-171 -61.5t-125.5 -159t-45.5 -203.5z" />
<glyph unicode="&#xd6;" horiz-adv-x="1560" d="M223 594q0 157 74.5 299t199.5 228.5t263 86.5q139 0 264 -86.5t200.5 -228.5t75.5 -299t-75.5 -300t-201 -230t-263.5 -87q-104 0 -203 52t-172 136.5t-117.5 198t-44.5 230.5zM418 594q0 -106 45.5 -204t125.5 -160t171 -62t172 62t127.5 160t46.5 204q0 105 -46.5 203 t-127.5 159.5t-172 61.5t-171 -61.5t-125.5 -159t-45.5 -203.5zM449 1446q0 57 35 96t85 39t84.5 -39t34.5 -96t-34.5 -96t-84.5 -39t-85 39t-35 96zM834 1446q0 57 35 96t85 39t84.5 -39t34.5 -96t-34.5 -96t-84.5 -39t-85 39t-35 96z" />
<glyph unicode="&#xd9;" horiz-adv-x="1308" d="M236 397v791h170v-770q0 -140 53 -205.5t176 -65.5t175 64.5t52 206.5v770h170v-791q0 -203 -105 -311.5t-292 -108.5t-293 108.5t-106 311.5zM262 1638h254l135 -333l-194 69z" />
<glyph unicode="&#xda;" horiz-adv-x="1308" d="M236 397v791h170v-770q0 -140 53 -205.5t176 -65.5t175 64.5t52 206.5v770h170v-791q0 -203 -105 -311.5t-292 -108.5t-293 108.5t-106 311.5zM616 1305l138 333h252l-193 -264z" />
<glyph unicode="&#xdb;" horiz-adv-x="1308" d="M236 397v791h170v-770q0 -140 53 -205.5t176 -65.5t175 64.5t52 206.5v770h170v-791q0 -203 -105 -311.5t-292 -108.5t-293 108.5t-106 311.5zM268 1311l365 477l364 -477h-170l-194 241l-195 -241h-170z" />
<glyph unicode="&#xdc;" horiz-adv-x="1308" d="M236 397v791h170v-770q0 -140 53 -205.5t176 -65.5t175 64.5t52 206.5v770h170v-791q0 -203 -105 -311.5t-292 -108.5t-293 108.5t-106 311.5zM307 1446q0 56 40 95.5t93 39.5q50 0 84.5 -39t34.5 -96t-34.5 -96t-84.5 -39q-53 0 -93 39.5t-40 95.5zM709 1446q0 57 34 96 t84 39q53 0 93.5 -39.5t40.5 -95.5t-40.5 -95.5t-93.5 -39.5q-50 0 -84 39t-34 96z" />
<glyph unicode="&#xdd;" horiz-adv-x="1445" d="M211 1188h197l311 -539l287 539h194l-395 -699v-489h-174v489zM688 1305l137 333h250l-192 -264z" />
<glyph unicode="&#xe0;" horiz-adv-x="1314" d="M227 276q0 83 33 144.5t93 98t135.5 54t166.5 17.5q106 0 222 -45v65q0 93 -46.5 131.5t-156.5 38.5q-98 0 -159.5 -18t-113.5 -66l-8 -8l-90 133l8 6q69 59 153.5 89t209.5 30q373 0 373 -336v-610h-156v113q-22 -21 -47.5 -40.5t-65 -43t-89 -38t-99.5 -14.5 q-159 0 -261 82t-102 217zM258 1376h272l164 -334l-233 70zM406 279q0 -70 50 -105t140 -35q53 0 104 20t89 51t57 49.5t31 33.5v94q-119 41 -222 41q-249 0 -249 -149z" />
<glyph unicode="&#xe1;" horiz-adv-x="1333" d="M219 276q0 83 33 144.5t92 98t134.5 54t166.5 17.5q107 0 223 -45v65q0 93 -47 131.5t-157 38.5q-98 0 -158 -18t-113 -66l-8 -8l-90 133l8 6q69 60 152.5 89.5t208.5 29.5q374 0 374 -336v-610h-155v113q-31 -29 -67.5 -55.5t-103.5 -53.5t-132 -27q-159 0 -260 82 t-101 217zM397 279q0 -70 49.5 -105t139.5 -35q52 0 103.5 20t89.5 50.5t57.5 50t31.5 33.5v94q-119 41 -223 41q-248 0 -248 -149zM645 1042l164 334h268l-200 -264z" />
<glyph unicode="&#xe2;" horiz-adv-x="1327" d="M219 276q0 83 33 144.5t92 98t134.5 54t166.5 17.5q107 0 223 -45v65q0 93 -46.5 131.5t-155.5 38.5q-98 0 -159.5 -18t-113.5 -66l-8 -8l-90 133l8 6q69 59 153.5 89t209.5 30q372 0 372 -336v-610h-155v113q-31 -29 -67.5 -55.5t-103.5 -53.5t-132 -27q-159 0 -260 82 t-101 217zM258 1049l408 477l403 -477h-174l-229 241l-234 -241h-174zM397 279q0 -70 49.5 -105t139.5 -35q52 0 103.5 20t89.5 50.5t57.5 50t31.5 33.5v94q-119 41 -223 41q-248 0 -248 -149z" />
<glyph unicode="&#xe3;" horiz-adv-x="1396" d="M213 1198l6 6q59 50 117 76.5t133 26.5q81 0 169 -21.5t156.5 -43t102.5 -21.5q95 0 162 55l10 6l80 -127l-6 -6q-61 -49 -117 -74.5t-133 -25.5q-65 0 -212.5 43t-215.5 43q-91 0 -162 -58l-10 -6zM238 276q0 83 33 144.5t92 98t134 54t165 17.5q99 0 223 -45v65 q0 93 -47.5 131.5t-155.5 38.5q-96 0 -156 -18t-114 -66l-9 -8l-90 133l6 6q69 59 154 89t209 30q375 0 375 -336v-610h-156v113q-149 -136 -303 -136q-159 0 -259.5 82t-100.5 217zM416 279q0 -70 49.5 -105t138.5 -35q51 0 102 20t89 50.5t58.5 50t31.5 33.5v94 q-119 41 -223 41q-246 0 -246 -149z" />
<glyph unicode="&#xe4;" horiz-adv-x="1316" d="M229 276q0 83 33 144.5t93 98t135.5 54t166.5 17.5q106 0 222 -45v65q0 93 -46.5 131.5t-156.5 38.5q-98 0 -159.5 -18t-113.5 -66l-8 -8l-90 133l8 6q69 59 153.5 89t209.5 30q373 0 373 -336v-610h-156v113q-22 -21 -47.5 -40.5t-65 -43t-89 -38t-99.5 -14.5 q-159 0 -261 82t-102 217zM305 1184q0 57 40 96t97 39q59 0 101.5 -39t42.5 -96t-42.5 -96t-101.5 -39q-57 0 -97 39t-40 96zM408 279q0 -70 50 -105t140 -35q53 0 104 20t89 51t57 49.5t31 33.5v94q-119 41 -222 41q-249 0 -249 -149zM764 1184q0 57 41 96t98 39t97 -39 t40 -96t-40 -96t-97 -39t-98 39t-41 96z" />
<glyph unicode="&#xe5;" horiz-adv-x="1312" d="M227 276q0 83 33 144.5t93 98t135.5 54t166.5 17.5q106 0 222 -45v65q0 93 -46.5 131.5t-156.5 38.5q-98 0 -159.5 -18t-113.5 -66l-8 -8l-90 133l8 6q69 59 153.5 89t209.5 30q373 0 373 -336v-610h-156v113q-22 -21 -47.5 -40.5t-65 -43t-89 -38t-99.5 -14.5 q-159 0 -261 82t-102 217zM379 1327q0 115 87 196t210 81q121 0 204 -80.5t83 -196.5t-83 -197t-204 -81q-123 0 -210 81.5t-87 196.5zM406 279q0 -70 50 -105t140 -35q53 0 104 20t89 51t57 49.5t31 33.5v94q-119 41 -222 41q-249 0 -249 -149zM518 1327q0 -58 47.5 -100.5 t110.5 -42.5t106 42t43 101t-43 100t-106 41q-64 0 -111 -41.5t-47 -99.5z" />
<glyph unicode="&#xe7;" horiz-adv-x="1339" d="M221 463q0 163 77 277t200 169q78 37 178 37q254 0 356 -186l4 -4l-92 -203l-8 27q-33 112 -91 155t-161 43q-100 0 -166.5 -51.5t-97.5 -138.5q-21 -58 -21 -125q0 -110 43 -185t119 -108q50 -23 115 -23q167 0 309 109l62 51l32 -194l-4 -4q-151 -107 -330 -127v-109 q3 0 8.5 -1t8.5 -1q73 -8 129.5 -57.5t48.5 -120.5q-10 -93 -77.5 -146t-166.5 -53q-132 0 -221 47l-8 4l45 125l8 -2q84 -35 168 -35t84 58q0 24 -34 39t-76 19.5t-82 2.5h-13l35 232q-124 18 -214 93.5t-134 190.5q-33 85 -33 195z" />
<glyph unicode="&#xe8;" horiz-adv-x="1427" d="M225 463q0 98 39 188t104 154.5t151 102.5t177 38t177 -38.5t150 -103t103 -155t39 -188.5v-78h-762q28 -105 109.5 -172.5t183.5 -67.5t187 78q34 30 85.5 33t86.5 -9l35 -12l10 -6l-6 -10q-67 -109 -174 -174.5t-224 -65.5q-122 0 -230.5 65t-174.5 177.5t-66 243.5z M324 1376h254l137 -334l-197 70zM403 537h584q-25 106 -106 174.5t-185 68.5q-103 0 -184.5 -69t-108.5 -174z" />
<glyph unicode="&#xe9;" horiz-adv-x="1427" d="M225 463q0 98 39 188t104 154.5t151 102.5t177 38t177 -38.5t150 -103t103 -155t39 -188.5v-78h-762q28 -105 109.5 -172.5t183.5 -67.5t187 78q34 30 85.5 33t86.5 -9l35 -12l10 -6l-6 -10q-67 -109 -174 -174.5t-224 -65.5q-122 0 -230.5 65t-174.5 177.5t-66 243.5z M403 537h584q-25 106 -106 174.5t-185 68.5q-103 0 -184.5 -69t-108.5 -174zM680 1042l139 334h252l-194 -264z" />
<glyph unicode="&#xea;" horiz-adv-x="1427" d="M225 463q0 98 39 188t104 154.5t151 102.5t177 38t177 -38.5t150 -103t103 -155t39 -188.5v-78h-762q28 -105 109.5 -172.5t183.5 -67.5t187 78q34 30 85.5 33t86.5 -9l35 -12l10 -6l-6 -10q-67 -109 -174 -174.5t-224 -65.5q-122 0 -230.5 65t-174.5 177.5t-66 243.5z M332 1049l364 477l367 -477h-172l-195 241l-194 -241h-170zM403 537h584q-25 106 -106 174.5t-185 68.5q-103 0 -184.5 -69t-108.5 -174z" />
<glyph unicode="&#xeb;" horiz-adv-x="1427" d="M225 463q0 98 39 188t104 154.5t151 102.5t177 38t177 -38.5t150 -103t103 -155t39 -188.5v-78h-762q28 -105 109.5 -172.5t183.5 -67.5t187 78q34 30 85.5 33t86.5 -9l35 -12l10 -6l-6 -10q-67 -109 -174 -174.5t-224 -65.5q-122 0 -230.5 65t-174.5 177.5t-66 243.5z M371 1184q0 56 40 95.5t93 39.5q50 0 84.5 -39t34.5 -96t-34.5 -96t-84.5 -39q-53 0 -93 39.5t-40 95.5zM403 537h584q-25 106 -106 174.5t-185 68.5q-103 0 -184.5 -69t-108.5 -174zM772 1184q0 57 34.5 96t84.5 39q55 0 95 -39.5t40 -95.5t-40 -95.5t-95 -39.5 q-50 0 -84.5 39t-34.5 96z" />
<glyph unicode="&#xec;" horiz-adv-x="974" d="M225 1376h269l153 -334l-219 70zM545 0v924h170v-924h-170z" />
<glyph unicode="&#xed;" horiz-adv-x="968" d="M223 0v924h170v-924h-170zM289 1042l155 334h267l-201 -264z" />
<glyph unicode="&#xee;" horiz-adv-x="1243" d="M209 1049l395 477l393 -477h-174l-219 241l-221 -241h-174zM514 924h182l4 -924h-170z" />
<glyph unicode="&#xef;" horiz-adv-x="1191" d="M215 1184q0 57 40 96t97 39t95 -39t38 -96t-38 -96t-95 -39t-97 39t-40 96zM483 924h187l2 -924h-170zM668 1184q0 57 39 96t96 39t97 -39t40 -96t-40 -96t-97 -39t-96 39t-39 96z" />
<glyph unicode="&#xf1;" horiz-adv-x="1329" d="M215 1198l6 6q59 49 116.5 76t129.5 27q68 0 142 -21.5t132.5 -43t87.5 -21.5q91 0 158 55l10 6l80 -127l-6 -6q-61 -50 -116 -75t-128 -25q-55 0 -180.5 43t-183.5 43q-87 0 -158 -58l-10 -6zM272 0v770l172 125v-166q114 178 289 178q136 0 212.5 -89t76.5 -238v-580 h-168v559q0 83 -34.5 131.5t-102.5 48.5q-116 0 -191 -100q-82 -103 -82 -256v-383h-172z" />
<glyph unicode="&#xf2;" horiz-adv-x="1406" d="M225 463q0 98 38 188t101.5 154.5t148 102.5t173.5 38t173 -38t146.5 -102.5t100 -154.5t37.5 -188q0 -131 -63.5 -243.5t-169 -177.5t-224.5 -65q-120 0 -226 65t-170.5 177.5t-64.5 243.5zM324 1376h245l136 -334l-195 70zM393 463q0 -132 86 -226t207 -94t205 93.5 t84 226.5q0 132 -84 224.5t-205 92.5q-122 0 -207.5 -92.5t-85.5 -224.5z" />
<glyph unicode="&#xf3;" horiz-adv-x="1404" d="M225 463q0 98 38 188t100.5 154.5t147 102.5t173.5 38t173.5 -38t147 -102.5t100.5 -154.5t38 -188q0 -131 -64 -243.5t-169.5 -177.5t-225.5 -65t-225.5 65t-169.5 177.5t-64 243.5zM393 463q0 -132 85 -226t206 -94t206 94t85 226t-85 224.5t-206 92.5t-206 -92.5 t-85 -224.5zM668 1042l139 334h242l-185 -264z" />
<glyph unicode="&#xf4;" horiz-adv-x="1404" d="M225 463q0 98 38 188t100.5 154.5t147 102.5t173.5 38t173.5 -38t147 -102.5t100.5 -154.5t38 -188q0 -131 -64 -243.5t-169.5 -177.5t-225.5 -65t-225.5 65t-169.5 177.5t-64 243.5zM332 1049l352 477l356 -477h-159l-197 241l-195 -241h-157zM393 463q0 -132 85 -226 t206 -94t206 94t85 226t-85 224.5t-206 92.5t-206 -92.5t-85 -224.5z" />
<glyph unicode="&#xf5;" horiz-adv-x="1404" d="M225 463q0 98 38 188t100.5 154.5t147 102.5t173.5 38t173.5 -38t147 -102.5t100.5 -154.5t38 -188q0 -131 -64 -243.5t-169.5 -177.5t-225.5 -65t-225.5 65t-169.5 177.5t-64 243.5zM268 1198l8 6q60 50 113 76.5t117 26.5q68 0 142 -21.5t132.5 -43t87.5 -21.5 q45 0 78 13t68 42l8 6l82 -127l-8 -6q-60 -49 -113.5 -74.5t-118.5 -25.5q-55 0 -179.5 43t-182.5 43q-77 0 -144 -58l-8 -6zM393 463q0 -132 85 -226t206 -94t206 94t85 226t-85 224.5t-206 92.5t-206 -92.5t-85 -224.5z" />
<glyph unicode="&#xf6;" horiz-adv-x="1404" d="M225 463q0 98 38 188t100.5 154.5t147 102.5t173.5 38t173.5 -38t147 -102.5t100.5 -154.5t38 -188q0 -131 -64 -243.5t-169.5 -177.5t-225.5 -65t-225.5 65t-169.5 177.5t-64 243.5zM371 1184q0 56 36.5 95.5t84.5 39.5q50 0 85 -39t35 -96t-35 -96t-85 -39 q-48 0 -84.5 39.5t-36.5 95.5zM393 463q0 -132 85 -226t206 -94t206 94t85 226t-85 224.5t-206 92.5t-206 -92.5t-85 -224.5zM760 1184q0 57 35.5 96t85.5 39q48 0 85.5 -39.5t37.5 -95.5t-37.5 -95.5t-85.5 -39.5q-50 0 -85.5 39t-35.5 96z" />
<glyph unicode="&#xf9;" horiz-adv-x="1261" d="M236 1376h256l137 -334l-195 70zM238 305v580h168v-559q0 -83 33.5 -132t101.5 -49q115 0 190 101q84 105 84 256v383h172v-885h-172v156q-115 -179 -289 -179q-136 0 -212 89.5t-76 238.5z" />
<glyph unicode="&#xfa;" horiz-adv-x="1261" d="M236 305v580h167v-559q0 -83 34 -132t102 -49q115 0 190 101q84 105 84 256v383h172v-885h-172v156q-115 -179 -289 -179q-136 0 -212 89.5t-76 238.5zM592 1042l139 334h256l-199 -264z" />
<glyph unicode="&#xfb;" horiz-adv-x="1257" d="M233 305v580h168v-559q0 -83 34 -132t102 -49q115 0 190 101q84 105 84 256v383h172v-885h-172v156q-115 -179 -289 -179q-136 0 -212.5 89.5t-76.5 238.5zM240 1049l368 477l371 -477h-174l-197 241l-196 -241h-172z" />
<glyph unicode="&#xfc;" horiz-adv-x="1259" d="M236 305v580h167v-559q0 -83 34 -132t102 -49q115 0 190 101q84 105 84 256v383h172v-885h-172v156q-115 -179 -289 -179q-136 0 -212 89.5t-76 238.5zM279 1184q0 57 39.5 96t95.5 39q50 0 85.5 -39t35.5 -96t-35.5 -96t-85.5 -39q-56 0 -95.5 39t-39.5 96zM684 1184 q0 57 35.5 96t85.5 39q56 0 95.5 -39t39.5 -96t-39.5 -96t-95.5 -39q-50 0 -85.5 39t-35.5 96z" />
<glyph unicode="&#xfd;" horiz-adv-x="1441" d="M213 924h186l312 -686l299 686h184l-455 -967q-21 -50 -36 -82t-38.5 -74.5t-46 -69.5t-54.5 -56.5t-67.5 -46.5t-82.5 -29t-101 -13h-8l-20 172h10q118 6 200.5 80t137.5 236zM688 1042l135 334h252l-192 -264z" />
<glyph unicode="&#xff;" horiz-adv-x="1441" d="M213 924h186l312 -686l299 686h184l-455 -967q-21 -50 -36 -82t-38.5 -74.5t-46 -69.5t-54.5 -56.5t-67.5 -46.5t-82.5 -29t-101 -13h-8l-20 172h10q118 6 200.5 80t137.5 236zM379 1184q0 57 38 96t91 39q50 0 86.5 -39.5t36.5 -95.5t-36.5 -95.5t-86.5 -39.5 q-53 0 -91 39t-38 96zM776 1184q0 57 35.5 96t85.5 39q53 0 92 -39.5t39 -95.5t-39 -95.5t-92 -39.5q-50 0 -85.5 39t-35.5 96z" />
<glyph unicode="&#x178;" horiz-adv-x="1445" d="M211 1188h197l311 -539l287 539h194l-395 -699v-489h-174v489zM383 1446q0 56 39.5 95.5t91.5 39.5q50 0 85.5 -39t35.5 -96t-35.5 -96t-85.5 -39q-52 0 -91.5 39.5t-39.5 95.5zM778 1446q0 57 35.5 96t85.5 39q52 0 91.5 -39.5t39.5 -95.5t-39.5 -95.5t-91.5 -39.5 q-50 0 -85.5 39t-35.5 96z" />
<glyph unicode="&#x2dc;" horiz-adv-x="1353" d="M231 262l9 6q60 50 116 76.5t129 26.5q66 0 137.5 -21.5t127.5 -43t84 -21.5q94 0 161 55l9 6l81 -127l-8 -6q-60 -49 -116.5 -74.5t-129.5 -25.5q-52 0 -172 43t-176 43q-90 0 -161 -58l-9 -6z" />
<glyph unicode="&#x2000;" horiz-adv-x="894" />
<glyph unicode="&#x2001;" horiz-adv-x="1788" />
<glyph unicode="&#x2002;" horiz-adv-x="894" />
<glyph unicode="&#x2003;" horiz-adv-x="1788" />
<glyph unicode="&#x2004;" horiz-adv-x="596" />
<glyph unicode="&#x2005;" horiz-adv-x="447" />
<glyph unicode="&#x2006;" horiz-adv-x="298" />
<glyph unicode="&#x2007;" horiz-adv-x="298" />
<glyph unicode="&#x2008;" horiz-adv-x="223" />
<glyph unicode="&#x2009;" horiz-adv-x="357" />
<glyph unicode="&#x200a;" horiz-adv-x="99" />
<glyph unicode="&#x2010;" horiz-adv-x="1359" d="M236 510v168h849v-168h-849z" />
<glyph unicode="&#x2011;" horiz-adv-x="1359" d="M236 510v168h849v-168h-849z" />
<glyph unicode="&#x2012;" horiz-adv-x="1359" d="M236 510v168h849v-168h-849z" />
<glyph unicode="&#x2013;" horiz-adv-x="1534" d="M236 510v168h1024v-168h-1024z" />
<glyph unicode="&#x2014;" horiz-adv-x="2558" d="M236 510v168h2048v-168h-2048z" />
<glyph unicode="&#x202f;" horiz-adv-x="357" />
<glyph unicode="&#x205f;" horiz-adv-x="447" />
<glyph unicode="&#x20ac;" horiz-adv-x="1562" d="M215 393l47 168h725l-37 -168h-323q45 -168 149 -223q61 -33 121 -33q178 0 315 111l9 8l90 -150l-8 -6q-188 -133 -406 -133q-90 0 -167 33t-133 91.5t-95 134.5t-60 167h-227zM215 625l47 168h178q62 277 260 381q88 45 191 45q90 0 175.5 -35.5t137.5 -91.5 q109 -117 109 -283v-10l-156 4v10q0 114 -73 176t-187 62q-216 0 -291 -258h381l-41 -168h-731z" />
<glyph unicode="&#x25fc;" horiz-adv-x="921" d="M0 0v922h922v-922h-922z" />
</font>
</defs>
</svg>
