<?xml version="1.0" standalone="no"?>
<!DOCTYPE svg PUBLIC "-//W3C//DTD SVG 1.1//EN" "http://www.w3.org/Graphics/SVG/1.1/DTD/svg11.dtd" >
<svg xmlns="http://www.w3.org/2000/svg">
<metadata></metadata>
<defs>
<font id="charger_monospaceregular" horiz-adv-x="1761" >
<font-face units-per-em="2048" ascent="1638" descent="-410" />
<missing-glyph horiz-adv-x="692" />
<glyph horiz-adv-x="0" />
<glyph horiz-adv-x="682" />
<glyph horiz-adv-x="0" />
<glyph horiz-adv-x="0" />
<glyph unicode="&#xd;" horiz-adv-x="587" />
<glyph unicode=" "  horiz-adv-x="692" />
<glyph unicode="&#x09;" horiz-adv-x="692" />
<glyph unicode="&#xa0;" horiz-adv-x="692" />
<glyph unicode="!" horiz-adv-x="827" d="M319 125q9 57 56 96t104 39t90.5 -39t24.5 -96q-9 -56 -56.5 -95.5t-105.5 -39.5q-57 0 -89.5 39t-23.5 96zM432 399l96 820h234l-180 -740l-2 -2q-3 -5 -9 -12.5t-23 -27.5t-32 -35.5t-33 -29t-30 -14.5q-25 -3 -21 41z" />
<glyph unicode="&#x22;" horiz-adv-x="1056" d="M588 1257v345h215l-76 -439zM776 1163l76 439h215l-119 -345z" />
<glyph unicode="#" horiz-adv-x="1662" d="M340 313l78 170h229l86 179h-239l75 169h246l176 367h199l-176 -367h160l176 367h176l-162 -367h197l-76 -169h-197l-84 -179h205l-78 -170h-213l-153 -323h-199l156 323h-162l-154 -323h-182l141 323h-225zM846 483h160l84 179h-160z" />
<glyph unicode="$" horiz-adv-x="1558" d="M311 102l135 136h7q11 -1 29.5 -11t45.5 -23t66 -26t105 -22t149 -9q75 0 147 21.5t125.5 65t63.5 100.5q8 42 -6.5 74.5t-43 52.5t-73 34.5t-88.5 23.5t-98 18q-11 1 -17 2t-15.5 3t-17.5 3q-86 16 -132 26.5t-109.5 35t-92 55.5t-45 84t-4.5 124q23 131 149.5 231 t303.5 109l33 185l184 -115l-12 -74q54 -5 93 -12t70.5 -21.5t44 -21t42.5 -30t36 -27.5l11 -7l-142 -133h-8q-18 1 -38.5 15t-44.5 30t-92.5 29.5t-170.5 13.5q-121 2 -193 -41.5t-87 -130.5q-6 -31 5.5 -55t33 -39t56.5 -26t67.5 -17t75.5 -13q13 -2 20 -3l17.5 -2.5 t18.5 -3.5q99 -18 155 -30.5t128 -41t106 -65t53 -97.5t5 -143q-22 -127 -160 -229.5t-315 -122.5l-33 -199l-186 115l14 82q-80 5 -138.5 15.5t-101 28.5t-65.5 32t-58 40z" />
<glyph unicode="%" horiz-adv-x="1855" d="M444 897q22 124 118 218.5t208 94.5q115 0 182 -95t45 -218q-22 -124 -121 -218.5t-214 -94.5q-112 0 -176 94.5t-42 218.5zM475 -20l934 1208h203l-961 -1208h-176zM569 897q-11 -67 23.5 -120.5t93.5 -53.5q60 0 115.5 54t66.5 120q11 67 -26.5 120.5t-96.5 53.5 t-112 -53.5t-64 -120.5zM1057 291q22 125 125 219t233 94q127 0 194.5 -94t45.5 -219q-23 -126 -122 -220t-226 -94q-130 0 -201 94.5t-49 219.5zM1186 291q-11 -67 33 -120.5t112 -53.5t128 53.5t71 120.5t-30 120.5t-109 53.5q-69 0 -131.5 -54t-73.5 -120z" />
<glyph unicode="&#x26;" horiz-adv-x="1587" d="M352 344q18 103 80.5 175t151.5 112q-126 83 -99 248q2 16 7.5 36t21 54.5t37 66t60 66t86.5 59.5t120 41.5t156 16.5q190 0 350 -91q14 -8 -24 -36.5t-83 -53.5l-45 -24l-8 -4l-6 2q-89 39 -217 39q-114 0 -187.5 -43.5t-88.5 -128.5q-16 -94 48.5 -136.5t174.5 -42.5 h117l-136 -155h-8q-136 0 -227.5 -67.5t-102.5 -133.5q-18 -102 48.5 -154.5t199.5 -52.5q112 0 209 24.5t139 71.5l29 173h-217l135 155h287q39 0 52 -19.5t7 -58.5q-6 -40 -26.5 -58.5t-59.5 -18.5h-28l-33 -187v-2q-21 -69 -80 -120t-137 -78t-155 -39.5t-152 -12.5 q-99 0 -177 21t-134.5 65t-79 118t-5.5 173z" />
<glyph unicode="'" horiz-adv-x="804" d="M594 1257v345h213l-76 -439z" />
<glyph unicode="(" horiz-adv-x="1042" d="M381 280q-14 152 16 314q37 214 134.5 407.5t231 313t263.5 119.5h10l-32 -189l-9 -2q-84 -9 -175 -107.5t-159.5 -245.5t-93.5 -296q-21 -113 -13.5 -229t32 -209.5t73 -153t109.5 -59.5h10l-33 -191h-10q-98 0 -176.5 71t-121 188t-56.5 269z" />
<glyph unicode=")" horiz-adv-x="1040" d="M252 -248l33 191h10q81 0 172 100t160 250.5t94 300.5q21 113 13 226t-33.5 204.5t-74 151.5t-108.5 67l-8 2l33 189h10q98 0 176.5 -70.5t121 -187.5t56.5 -268.5t-16 -313.5q-37 -214 -134.5 -408t-231 -314t-263.5 -120h-10z" />
<glyph unicode="*" horiz-adv-x="1300" d="M453 838l272 202l-203 203l117 88l143 -141l35 201h146l-35 -201l237 141l88 -88l-272 -203l203 -202l-119 -88l-188 141l-35 -201h-146l35 201l-192 -141z" />
<glyph unicode="+" horiz-adv-x="1509" d="M387 510l29 168h391l65 373h168l-65 -373h393l-29 -168h-393l-63 -373h-168l63 373h-391z" />
<glyph unicode="," horiz-adv-x="997" d="M260 -287l49 29q50 27 92 63q57 48 88 101.5t30 109t-40 101.5l-2 4l2 4q6 57 54.5 96t105.5 39t90.5 -39t24.5 -96q-10 -58 -42.5 -119t-85.5 -118.5t-134.5 -102t-176.5 -61.5z" />
<glyph unicode="-" horiz-adv-x="1570" d="M406 510l28 168h977l-29 -168h-976z" />
<glyph unicode="." horiz-adv-x="866" d="M340 125q9 57 56 96t104 39t90 -39t24 -96t-56.5 -96t-104.5 -39t-89.5 39t-23.5 96z" />
<glyph unicode="/" horiz-adv-x="1560" d="M258 -158l1100 1504h188l-1100 -1504h-188z" />
<glyph unicode="0" horiz-adv-x="1638" d="M399 594q20 118 81 229.5t146.5 196.5t197 136.5t227.5 51.5q154 0 264 -87.5t154 -227.5t16 -299t-120 -299.5t-233 -229t-294 -88.5q-116 0 -209.5 52t-150 137.5t-78 197.5t-1.5 230zM569 594q-18 -107 15 -205t109.5 -159.5t176.5 -61.5q75 0 150.5 36.5t135 95.5 t102.5 136.5t57 157.5q18 107 -14 204.5t-107.5 158.5t-175.5 61q-151 0 -286 -130t-163 -294z" />
<glyph unicode="1" horiz-adv-x="962" d="M492 1096l327 112q8 4 25 4q29 1 42.5 -20.5t8.5 -54.5l-201 -1157h-170l178 1028l-188 -68z" />
<glyph unicode="2" horiz-adv-x="1439" d="M305 57q11 73 34 132t50 98t68.5 72t77.5 53t88 43q249 92 372 189t142 204q17 93 -41 142.5t-181 49.5q-49 0 -78.5 -2t-63 -10t-52 -27t-23.5 -49l-2 -10h-198l2 10q14 80 81 139.5t161 88t200 28.5q162 0 256 -61q52 -34 79.5 -85t29 -122.5t-43 -170.5t-133.5 -214 q-51 -64 -117 -106t-123.5 -61t-144 -51.5t-155.5 -70.5q-36 -23 -43 -65q-5 -28 8 -47t45 -19h608l-69 -155h-774q-39 0 -52 18t-8 59z" />
<glyph unicode="3" horiz-adv-x="1427" d="M311 113l115 143l8 -6q114 -103 305 -103q286 0 320 201q5 28 -6.5 60.5t-39.5 64t-85 52t-133 20.5h-9l-88 155h123q56 0 103 8.5t88 28t68.5 54t35.5 81.5q15 84 -46 126t-183 42q-143 0 -232 -39l-6 -2l-119 113l13 6q176 90 370 90q85 0 151.5 -16t106 -40.5 t66.5 -59t38.5 -65t15.5 -65.5t3 -53t-4 -35q-26 -158 -184 -243q76 -39 112.5 -110.5t18.5 -172.5q-34 -191 -174.5 -281t-351.5 -90q-236 0 -392 129z" />
<glyph unicode="4" horiz-adv-x="1556" d="M361 426q2 39 36 74l703 620l186 74l-119 -688h179l24 -156h-229l-64 -360h-176l64 360h-531q-29 0 -49 17q-26 20 -24 59zM618 506h373l64 366z" />
<glyph unicode="5" horiz-adv-x="1464" d="M307 84l135 135h7q13 -2 29.5 -14t36 -24.5t82 -23t159.5 -10.5q75 0 147.5 26.5t130.5 85.5t72 140q9 60 -10 97q-35 67 -143.5 93t-243.5 7t-248 -76l-19 -8l125 602q7 39 30.5 56.5t66.5 17.5h700l-121 -156h-526l-60 -289q124 50 250 50q76 0 138.5 -13.5 t114.5 -43.5t82 -77.5t42.5 -114.5t-4.5 -155q-23 -131 -105.5 -226t-197.5 -140.5t-250 -45.5q-67 0 -117 1.5t-88.5 8t-61 10t-46.5 16t-32.5 17.5t-32.5 23.5t-32 24.5z" />
<glyph unicode="6" horiz-adv-x="1501" d="M365 395q34 194 96.5 332t143 221t194.5 142q104 50 271 78t321 30h14l-70 -156h-8q-175 0 -301 -33t-205.5 -90.5t-146.5 -150.5q115 45 241 45q137 0 235.5 -57t140 -152t22.5 -209q-30 -175 -183 -296.5t-360 -121.5t-321 121.5t-84 296.5zM539 395 q-17 -101 59.5 -172t202.5 -71q125 0 223 70.5t115 172.5t-56 173t-198 71q-126 0 -227.5 -71.5t-118.5 -172.5z" />
<glyph unicode="7" horiz-adv-x="1427" d="M442 -20l678 1050h-655l96 158h825l-735 -1208h-209z" />
<glyph unicode="8" horiz-adv-x="1482" d="M352 338q17 92 77.5 168t152.5 127q-102 99 -78 244q23 137 155 229t310 92q177 0 277 -92t77 -229q-24 -144 -162 -244q74 -51 109 -128t20 -167q-27 -154 -177 -257.5t-355 -103.5t-319 103.5t-87 257.5zM524 338q-15 -87 60 -147t200 -60t220 60t110 147t-59 147 t-199 60t-221 -60t-111 -147zM674 874q-12 -73 48.5 -124.5t160.5 -51.5q101 0 179.5 52t90.5 124q12 71 -49.5 123t-161.5 52t-178 -52t-90 -123z" />
<glyph unicode="9" horiz-adv-x="1495" d="M340 -23l70 156h8q256 0 403 67t248 208q-117 -46 -238 -46q-207 0 -319 121.5t-82 296.5t184 296.5t361 121.5t320 -121.5t83 -296.5q-34 -194 -95.5 -331.5t-141.5 -220.5t-193 -142q-104 -50 -272 -78.5t-322 -30.5h-14zM604 780q-17 -102 56.5 -172.5t199.5 -70.5 t226.5 71t117.5 172t-58.5 172.5t-201.5 71.5t-224.5 -71t-115.5 -173z" />
<glyph unicode=":" horiz-adv-x="847" d="M332 125q9 57 56 96t104 39t90 -39t24 -96q-9 -56 -56.5 -95.5t-105.5 -39.5q-57 0 -89 39t-23 96zM444 784q9 57 57 96.5t105 39.5t89.5 -39.5t23.5 -96.5t-56 -96t-104 -39t-90.5 39t-24.5 96z" />
<glyph unicode=";" horiz-adv-x="972" d="M248 -287l49 29q50 27 92 63q57 48 88 101.5t30 109t-40 101.5l-2 4l2 4q6 57 54.5 96t105.5 39t90 -39t24 -96q-10 -58 -42.5 -119t-85.5 -118.5t-134 -102t-176 -61.5zM580 784q9 57 56.5 96.5t104.5 39.5t89.5 -39.5t23.5 -96.5t-56 -96t-104 -39t-90 39t-24 96z" />
<glyph unicode="&#x3c;" horiz-adv-x="1507" d="M397 578l1039 491l-29 -170l-684 -321l573 -322l-30 -170z" />
<glyph unicode="=" horiz-adv-x="1566" d="M371 303l28 168h977l-28 -168h-977zM436 692l31 168h977l-31 -168h-977z" />
<glyph unicode="&#x3e;" horiz-adv-x="1509" d="M311 86l31 170l684 322l-573 321l28 170l871 -491z" />
<glyph unicode="?" horiz-adv-x="1300" d="M436 864l2 10q34 160 175.5 256.5t308.5 96.5q69 0 126 -20t98.5 -59.5t58.5 -104t3 -146.5q-6 -36 -16.5 -66.5t-27.5 -55.5t-32 -44.5t-42.5 -38t-44.5 -30t-52.5 -26.5t-52.5 -22t-58 -22t-57 -21l-75 -229h-158l33 262q5 49 46 81.5t96.5 50t111.5 34.5t99 48.5 t50 78.5q11 72 -21.5 108.5t-95.5 41.5q-91 6 -179.5 -45t-108.5 -128l-2 -10h-185zM494 125q9 57 55.5 96t103.5 39t90.5 -39t24.5 -96q-9 -56 -56.5 -95.5t-105.5 -39.5q-57 0 -89 39t-23 96z" />
<glyph unicode="@" horiz-adv-x="1781" d="M305 -10l90 520q42 240 222.5 390.5t439.5 150.5q307 0 449 -149t100 -392q-108 -252 -267.5 -397.5t-363.5 -145.5q-61 0 -128.5 16.5t-131.5 47.5t-104.5 87t-37.5 126v2l9 45q43 252 64 300t91 48h357l116 -393q26 27 88 115t117 149q12 70 -8 136.5t-66 118.5 t-121 84t-167 32q-104 0 -189 -31t-141.5 -84.5t-91 -118t-47.5 -137.5l-90 -520h-189zM743 260q-1 -48 78 -84.5t168 -36.5q29 0 72 13l-92 311h-191z" />
<glyph unicode="A" d="M289 0l604 1047q4 6 14 22l15 24t17 23t21.5 22.5t25.5 18.5t32.5 16.5t40 10t49.5 4.5q135 0 152 -72l253 -1116h-176l-92 365h-561l-217 -365h-178zM780 520h430l-125 520h-6z" />
<glyph unicode="B" horiz-adv-x="1529" d="M313 0l205 1188h424q209 0 304 -82q73 -64 74 -176q0 -33 -7 -70q-23 -137 -152 -223q166 -66 166 -228q0 -31 -6 -65q-29 -170 -158 -257t-344 -87h-506zM512 156h299q299 0 332 188q4 21 4 40q1 66 -49 104q-62 47 -211 47h-6h-303zM604 692h227q278 0 306 168 q3 17 3 32q0 64 -52 98q-64 40 -197 40h-227z" />
<glyph unicode="C" horiz-adv-x="1654" d="M406 594q16 90 52.5 176t97.5 166t139 140t184.5 96t226.5 36q83 0 150 -13.5t113 -36t80 -54.5t53 -68q18 -34 27 -76q9 -39 8 -77q0 -40 -7 -84v-11l-156 5l2 10q4 23 4 45q0 84 -63 132q-79 60 -232 60q-171 0 -320 -131t-181 -315q-7 -42 -7 -82q-1 -67 19 -130 q32 -101 117.5 -168t208.5 -67q258 0 417 111l80 64l-10 -207l-6 -4q-213 -134 -510 -134q-285 1 -411 165q-91 118 -90 299q0 71 14 153z" />
<glyph unicode="D" horiz-adv-x="1599" d="M315 0l205 1188h400q235 0 361.5 -93.5t152.5 -252.5q9 -52 9 -108q0 -67 -13 -140q-35 -209 -147.5 -349.5t-295.5 -203.5q-122 -41 -272 -41h-400zM512 156h203q230 0 364.5 117.5t169.5 320.5q10 56 10 106q0 230 -208 301q-85 29 -185 29h-202z" />
<glyph unicode="E" horiz-adv-x="1544" d="M309 0l205 1188h954l-102 -156h-709l-59 -342h537l-119 -155h-445l-65 -379h801l-99 -156h-899z" />
<glyph unicode="F" horiz-adv-x="1521" d="M307 0l205 1188h952l-100 -152h-711l-59 -346h539l-117 -153h-449l-92 -537h-168z" />
<glyph unicode="G" horiz-adv-x="1699" d="M412 594q22 130 92.5 245.5t167 195.5t211 126.5t225.5 46.5q252 0 356 -108q80 -82 80 -213q0 -42 -8 -88v-11l-156 5l2 10q4 24 4 45q0 83 -62 132q-79 60 -232 60q-124 0 -234 -64.5t-179 -166t-89 -215.5q-8 -48 -8 -92q0 -52 11 -98q21 -87 70 -142t116.5 -85 t144.5 -30q226 0 395 91l29 161h-146l-61 156h391l-59 -336v-2q-2 -9 -6.5 -23.5t-20.5 -44t-35 -40.5q-221 -132 -516 -132q-190 0 -311 79.5t-162 217.5q-24 77 -24 169q0 71 14 151z" />
<glyph unicode="H" horiz-adv-x="1519" d="M326 0l204 1188h170l-86 -498h572l86 498h172l-205 -1188h-172l92 535h-571l-92 -535h-170z" />
<glyph unicode="I" horiz-adv-x="774" d="M326 0l204 1188h170l-204 -1188h-170z" />
<glyph unicode="J" horiz-adv-x="1439" d="M332 141l166 82l2 -4q66 -72 228 -72h13q153 0 229.5 52t96.5 170l141 819h172l-147 -850q-63 -361 -522 -361q-256 0 -373 156z" />
<glyph unicode="K" horiz-adv-x="1677" d="M303 0l205 1188h170l-92 -531l764 531h233l-807 -586l641 -602h-229l-625 526l-90 -526h-170z" />
<glyph unicode="L" horiz-adv-x="1476" d="M307 0l205 1188h168l-178 -1032h737l-102 -156h-830z" />
<glyph unicode="M" horiz-adv-x="1910" d="M326 0l204 1188h199q14 0 48.5 -56.5t80 -149.5t84.5 -176t80 -173.5t47 -104.5q2 3 52.5 67.5t87 110.5t99 123.5t109 133t94.5 111t79.5 85t41.5 29.5h203l-205 -1188h-168l156 926l-604 -717l-359 717l-159 -926h-170z" />
<glyph unicode="N" horiz-adv-x="1554" d="M326 0l204 1188h158q57 0 72 -35l405 -813l146 848h170l-205 -1188h-111q-49 0 -61 35l-445 897l-163 -932h-170z" />
<glyph unicode="O" horiz-adv-x="1884" d="M406 594q20 119 89.5 230.5t170 196.5t233.5 136t272 51t254.5 -51t187 -136t102.5 -197q19 -68 19 -138q0 -46 -8 -92q-20 -119 -90 -231t-171 -197.5t-234.5 -137t-272.5 -51.5t-254 51.5t-186 137.5q-72 85 -102 197q-18 68 -18 138q0 46 8 93zM600 594q-5 -30 -5 -60 q0 -74 32 -144q45 -98 143 -160t221 -62q93 0 186.5 37t166 96t123.5 136.5t65 156.5q5 30 5 59q-1 74 -33 144q-46 98 -144 159.5t-221 61.5q-93 0 -186 -36.5t-165.5 -95.5t-123 -136t-64.5 -156z" />
<glyph unicode="P" horiz-adv-x="1505" d="M311 0l205 1188h428q235 0 349 -102q90 -80 90 -208q0 -35 -7 -73q-32 -184 -181 -283.5t-382 -99.5h-258l-74 -422h-170zM582 580h235q164 0 262.5 56t118.5 169q4 23 4 44q0 81 -63 125q-79 56 -244 56h-236z" />
<glyph unicode="Q" horiz-adv-x="1775" d="M406 594q20 119 85 230.5t158 196.5t215 136t250 51q170 0 294.5 -87.5t176.5 -228.5q34 -92 34 -192q0 -52 -9 -106q-19 -108 -72 -212.5t-129 -184.5l88 -88q22 -21 22 -44q0 -29 -32 -61q-33 -33 -63 -33q-24 0 -46 21l-106 96q-186 -111 -371 -111q-128 0 -232.5 52 t-167.5 137.5t-89 197.5q-15 63 -15 129q0 50 9 101zM584 594q-6 -33 -6 -65q0 -72 28 -139q40 -99 128.5 -160.5t199.5 -61.5q98 0 182 41l-26 22q-28 21 -28 45q0 28 38 60t74 32q28 0 55 -20l43 -35q63 60 105.5 133.5t54.5 147.5q6 33 6 65q0 71 -28 139 q-40 98 -128.5 159t-200.5 61t-221.5 -61t-183.5 -159t-92 -204z" />
<glyph unicode="R" horiz-adv-x="1513" d="M307 0l205 1188h440q101 0 177 -17t133 -55q58 -38 80 -106q13 -40 12 -90q0 -35 -6 -74q-22 -123 -112.5 -197t-225.5 -104q36 -36 87.5 -153.5t97 -244.5t48.5 -133l8 -14h-217l-2 6q-8 18 -34 89t-50.5 128t-59 122.5t-76.5 106t-85 46.5q-44 6 -102 6h-60l-86 -504 h-172zM594 662h231q311 0 344 184q3 17 3 33q0 67 -60 105q-74 46 -213 46h-242z" />
<glyph unicode="S" horiz-adv-x="1572" d="M319 102l136 136h6q12 -1 42 -16t66 -31.5t115.5 -30t181.5 -13.5q74 0 144.5 21.5t122 65t61.5 100.5q6 35 -0.5 63t-33 48.5t-46 33t-69.5 25t-72 17t-83 14.5q-31 5 -46 8q-86 15 -135 25.5t-112.5 35t-94 56t-46.5 84.5q-10 31 -10 67q0 27 5 57q25 138 163 239 t336 101q71 0 126.5 -2.5t97 -10.5t68 -13t52.5 -19.5t36.5 -21t34 -26t32.5 -25.5l8 -7l-135 -135h-6q-14 1 -27.5 10.5t-32 22.5t-48.5 26t-90 22t-144 9h-10q-115 0 -190 -42q-78 -44 -93 -130q-4 -26 2.5 -46t26 -35t38 -25t54.5 -18.5t58 -13t65 -11.5t61 -10 q97 -17 153 -29.5t126 -40.5t103.5 -64.5t51.5 -97.5q10 -34 10 -75q0 -32 -6 -68q-24 -138 -183.5 -246.5t-350.5 -108.5q-122 0 -208.5 8.5t-144 28.5t-87 36t-70.5 46z" />
<glyph unicode="T" horiz-adv-x="1492" d="M471 1030l27 158h948l-27 -158h-372l-197 -1030h-170l162 1030h-371z" />
<glyph unicode="U" horiz-adv-x="1552" d="M387 397l135 791h170l-133 -770q-7 -40 -7 -74q0 -86 44 -132q62 -66 227 -65.5t248.5 65.5t108.5 206l133 770h170l-135 -791q-72 -420 -553 -420q-417 0 -417 318q0 47 9 102z" />
<glyph unicode="V" horiz-adv-x="1722" d="M489 1188h179l272 -846l563 846h178l-813 -1227z" />
<glyph unicode="W" horiz-adv-x="2250" d="M489 1188h179l262 -846l381 614l162 -614l557 846h178l-797 -1227l-170 592l-375 -592z" />
<glyph unicode="X" horiz-adv-x="1775" d="M285 0l606 618l-367 570h215l301 -445l449 445h207l-553 -572l389 -616h-213l-326 494l-504 -494h-204z" />
<glyph unicode="Y" horiz-adv-x="1693" d="M489 1188h197l281 -539l493 539h195l-631 -699l-84 -489h-174l84 489z" />
<glyph unicode="Z" horiz-adv-x="1554" d="M307 76q6 30 25 49l889 905h-738l150 158h784q40 0 53 -19q9 -13 9 -36q0 -11 -2 -23q-3 -26 -19 -45l-897 -911h768l-149 -154h-813q-39 0 -53 18q-9 13 -9 36q0 10 2 22z" />
<glyph unicode="[" horiz-adv-x="1079" d="M285 -154l247 1434h500l-28 -170h-330l-191 -1094h330l-29 -170h-499z" />
<glyph unicode="\" horiz-adv-x="1560" d="M516 1346h189l583 -1504h-188z" />
<glyph unicode="]" horiz-adv-x="1079" d="M285 -154l28 170h332l191 1094h-332l28 170h500l-248 -1434h-499z" />
<glyph unicode="^" horiz-adv-x="1413" d="M496 1069l499 477l336 -477h-174l-201 242l-286 -242h-174z" />
<glyph unicode="_" horiz-adv-x="1941" d="M266 -403l29 167h1317l-29 -167h-1317z" />
<glyph unicode="`" horiz-adv-x="1015" d="M586 1550h268l96 -333l-209 69z" />
<glyph unicode="a" horiz-adv-x="1468" d="M358 276q28 162 166.5 238t354.5 76q121 0 245 -45l11 65q5 25 5 46q0 58 -34 86q-46 38 -174 38q-112 0 -184.5 -18t-141.5 -66l-10 -8l-68 133l11 6q78 59 177.5 89t244.5 30q205 0 289 -82q62 -61 63 -172q0 -38 -8 -82l-105 -610h-156l21 113q-65 -49 -163 -92.5 t-206 -43.5q-178 0 -270 81q-73 65 -73 165q0 25 5 53zM537 279q-2 -13 -3 -25q0 -52 43 -80q52 -35 156 -35q171 0 348 154l17 94q-127 41 -248 41q-288 0 -313 -149z" />
<glyph unicode="b" horiz-adv-x="1611" d="M315 0l207 1198l193 125l-92 -524q168 147 391 147q99 0 182 -35t139.5 -97t80.5 -154q13 -51 14 -106q0 -44 -9 -91q-16 -93 -61.5 -178.5t-116 -155t-174 -111t-223.5 -41.5q-121 0 -208.5 42t-139.5 110l-23 -129h-160zM565 463q-6 -32 -6 -62q1 -97 61 -163 q78 -86 242 -86q145 0 250.5 91t128.5 220q5 27 5 52q0 89 -58 159q-74 90 -221 90q-158 0 -269 -90.5t-133 -210.5z" />
<glyph unicode="c" horiz-adv-x="1572" d="M381 268q-9 44 -9 93t9 102q28 167 131.5 280t259.5 166q115 37 246 37q66 0 118 -7t106.5 -25.5t94.5 -57.5t62 -96l4 -4l-127 -203l-4 27q-13 113 -73.5 155.5t-197.5 42.5q-135 0 -235.5 -52t-155.5 -138q-40 -62 -51 -125q-6 -33 -6 -63q0 -70 32 -122 q46 -76 142 -108q65 -23 152 -23q228 0 387 109l69 51v-194l-6 -4q-205 -132 -479 -132q-204 0 -322 78.5t-147 212.5z" />
<glyph unicode="d" horiz-adv-x="1615" d="M390 320q-2 23 -2 46q0 47 7 97q25 141 113.5 253t211.5 171t255 59q220 0 336 -147l92 524l147 -125l-207 -1198h-157l22 129q-170 -152 -401 -152q-97 0 -174.5 27.5t-126 74t-80 109t-36.5 132.5zM575 463q-5 -29 -5 -57q0 -93 58 -163q75 -91 220 -91 q164 0 272.5 86.5t132.5 224.5q4 24 4 47q0 90 -65 163q-82 91 -240 91q-148 0 -251.5 -90t-125.5 -211z" />
<glyph unicode="e" horiz-adv-x="1669" d="M387 463q36 204 215.5 343.5t419.5 139.5q239 0 369 -140q102 -110 102 -260q0 -41 -8 -85l-15 -78h-921q9 -105 102 -172.5t232 -67.5q140 0 266 78q43 30 99 33q11 1 22 1q41 0 67 -10l33 -12l8 -6l-8 -10q-87 -110 -222.5 -175t-293.5 -65t-274 65.5t-166 176.5 q-34 76 -34 162q0 40 7 82zM575 537h744q-6 107 -96 175t-230 68t-256.5 -69t-161.5 -174z" />
<glyph unicode="f" horiz-adv-x="1398" d="M397 643l29 166h168l27 147q33 175 151 268t322 93q71 0 123.5 -13t78 -28.5t62.5 -44.5l4 -4l-98 -148l-9 6q-4 4 -17 15t-16.5 14t-15 10.5t-18.5 9.5t-20.5 7t-27 6t-32.5 2.5t-43 1.5q-235 0 -270 -207l-25 -137h430l-29 -164h-430l-116 -643h-170l110 643h-168z" />
<glyph unicode="g" horiz-adv-x="1613" d="M354 -295l84 164l11 -8q96 -61 177.5 -77.5t200.5 -16.5q145 0 234 57.5t108 163.5l31 174q-165 -144 -391 -144q-132 0 -234 59.5t-151 171.5q-33 74 -33 162q0 44 8 91q16 93 61.5 178.5t116.5 154.5t174.5 110.5t223.5 41.5q121 0 208.5 -42t139.5 -109l23 129h161 l-170 -990q-14 -77 -52.5 -143.5t-103 -120t-162.5 -84t-220 -30.5q-139 0 -238 19.5t-201 84.5zM578 492q-5 -28 -5 -55q0 -50 17 -95q25 -70 93 -116t167 -46q158 0 270.5 94t134.5 218q6 35 6 67q0 98 -59 165q-77 89 -241 89q-145 0 -252.5 -94.5t-130.5 -226.5z" />
<glyph unicode="h" horiz-adv-x="1490" d="M319 0l207 1198l195 125l-113 -647q191 176 418 176q166 0 234 -90q50 -65 50 -163q0 -37 -7 -79l-91 -520h-168l89 512q4 27 4 49q0 135 -152 135q-154 0 -280 -102q-128 -105 -156 -264l-57 -330h-173z" />
<glyph unicode="i" horiz-adv-x="819" d="M346 0l160 924h170l-160 -924h-170zM498 1184q9 57 55.5 96t103.5 39t91 -39q26 -31 26 -73q0 -11 -2 -23q-9 -56 -56.5 -95.5t-105.5 -39.5q-57 0 -89 39q-25 30 -25 72q0 11 2 24z" />
<glyph unicode="j" horiz-adv-x="1273" d="M272 -115l136 125l4 -6q30 -33 86.5 -56.5t124.5 -23.5q176 0 206 164l146 836h170l-146 -836q-28 -171 -127 -256q-69 -56 -166 -70q-41 -6 -79 -6q-54 0 -105 12q-86 20 -153 50.5t-90 58.5zM977 1155q9 49 50 83t91 34t80 -34q23 -26 23 -61q0 -11 -2 -22 q-9 -49 -49.5 -83t-90.5 -34t-81 34q-23 26 -23 61q0 11 2 22z" />
<glyph unicode="k" horiz-adv-x="1597" d="M307 0l207 1198l195 125l-150 -858l694 459h234l-565 -398l413 -526h-223l-352 430l-232 -149l-49 -281h-172z" />
<glyph unicode="l" horiz-adv-x="776" d="M326 0l206 1198l193 125l-229 -1323h-170z" />
<glyph unicode="m" horiz-adv-x="2217" d="M317 0l134 770l192 125l-29 -166q189 178 424 178q258 0 281 -209v2l2 2q192 205 446 205q165 1 233 -87q49 -63 49 -160q0 -37 -7 -80l-100 -580h-168l96 559q4 22 4 42q0 53 -28 89q-38 48 -130 49q-148 0 -272 -100q-136 -108 -160 -256l-65 -383h-172l96 559 q4 22 4 42q0 53 -28 89q-38 48 -130 49q-148 0 -272 -100q-138 -110 -162 -256l-66 -383h-172z" />
<glyph unicode="n" horiz-adv-x="1488" d="M317 0l134 770l192 125l-29 -166q189 178 424 178q166 1 234 -87q50 -63 50 -161q0 -37 -7 -79l-101 -580h-167l96 559q4 22 4 42q0 53 -28 89q-38 48 -130 49q-148 0 -272 -100q-138 -110 -162 -256l-66 -383h-172z" />
<glyph unicode="o" horiz-adv-x="1691" d="M387 463q36 203 220 343t427 140q121 0 219 -38t159.5 -103t87.5 -154q16 -54 15 -111q0 -38 -6 -77q-36 -204 -218.5 -345t-424.5 -141q-161 0 -279.5 65.5t-170.5 176.5q-36 77 -36 164q0 39 7 80zM555 463q-4 -25 -4 -48q1 -101 81 -178q100 -94 263 -94t293 93.5 t153 226.5q4 25 4 49q0 102 -78 176q-97 92 -261 92t-296 -92.5t-155 -224.5z" />
<glyph unicode="p" horiz-adv-x="1609" d="M266 -274l207 1198h160l-23 -129q173 151 402 151q81 0 148.5 -19t114 -53t81 -80t50 -100t20.5 -113q1 -17 1 -35q0 -42 -8 -85q-25 -141 -112 -253t-209 -171.5t-254 -59.5q-219 0 -338 148l-92 -524zM563 461q-5 -25 -5 -50q0 -49 20 -95q28 -67 102 -111.5t180 -44.5 q148 0 252.5 90t126.5 211q5 29 5 57q0 93 -58 163q-74 91 -219 91q-164 0 -272 -86.5t-132 -224.5z" />
<glyph unicode="q" horiz-adv-x="1615" d="M395 461q16 93 62 178.5t118 154.5t176 110.5t224 41.5q121 0 208.5 -42t139.5 -109l23 129h157l-207 -1198l-192 -125l92 524q-170 -148 -389 -148q-132 0 -234.5 59.5t-152.5 171.5q-33 75 -33 162q0 44 8 91zM575 461q-5 -28 -5 -54q0 -88 56 -157q74 -90 222 -90 q158 0 270.5 90.5t134.5 210.5q6 32 6 61q0 97 -61 164q-80 86 -244 86q-145 0 -250.5 -91t-128.5 -220z" />
<glyph unicode="r" horiz-adv-x="1339" d="M307 0l139 811l191 123l-35 -197q80 80 187.5 129t234.5 49q22 0 40.5 -1t32 -2t27.5 -4.5t21 -5t19.5 -6.5t16.5 -7t18 -9.5t18 -9.5l10 -6l-101 -159l-8 6q-21 16 -31.5 21.5t-37 10.5t-70.5 5q-147 0 -279 -101q-132 -105 -157 -256l-68 -391h-168z" />
<glyph unicode="s" horiz-adv-x="1536" d="M383 104l6 199l17 -18q75 -82 168 -112t260 -30q293 0 315 140q6 33 -11.5 51.5t-54.5 30.5q-63 18 -218.5 31.5t-196.5 19.5q-65 10 -111 26t-85 44q-39 26 -54 72q-9 26 -9 58q0 23 5 50q21 119 155.5 199.5t343.5 80.5q139 0 245 -29t145 -92v-2l-41 -153l-11 14 q-43 52 -123 74t-229 22q-131 0 -214 -28.5t-93 -89.5q-6 -30 12.5 -45t59.5 -27q71 -20 263 -36t263 -42q139 -57 139 -185q0 -23 -4 -48q-11 -64 -43 -116t-90 -95t-152 -67t-219 -24q-154 0 -264.5 26.5t-171.5 96.5z" />
<glyph unicode="t" horiz-adv-x="1402" d="M422 752l31 168h168l63 374h176l-63 -374h428l-31 -168h-428l-70 -408q-5 -26 -4 -49q0 -152 205 -152q31 0 55.5 2.5t39 4.5t32.5 10.5t25 12t27.5 17.5t29.5 19l10 6l49 -147l-8 -5q-49 -30 -77.5 -44.5t-84.5 -28t-127 -13.5q-204 0 -290 90q-66 69 -66 184q0 36 6 77 l72 424h-168z" />
<glyph unicode="u" horiz-adv-x="1490" d="M373 305l100 580h168l-98 -559q-4 -23 -4 -43q-1 -54 27 -89q38 -49 130 -49q150 0 275 101q134 107 159 256l68 383h172l-153 -885h-173l27 156q-190 -179 -422 -179q-166 0 -234 88q-49 64 -49 161q0 37 7 79z" />
<glyph unicode="v" horiz-adv-x="1708" d="M449 924h188l287 -641l508 641h188l-754 -957z" />
<glyph unicode="w" horiz-adv-x="2260" d="M449 924h178l297 -656l354 471l190 -471l527 656h178l-754 -959l-194 457l-355 -457z" />
<glyph unicode="x" horiz-adv-x="1828" d="M287 0l587 477l-399 447h234l333 -363l459 363h215l-555 -449l422 -475h-225l-365 389l-491 -389h-215z" />
<glyph unicode="y" horiz-adv-x="1691" d="M309 -414l10 172h11q258 13 452 316l-333 850h186l283 -686l501 686h185l-697 -967q-51 -69 -87.5 -113t-93.5 -97.5t-112 -84t-132 -52.5t-165 -24h-8z" />
<glyph unicode="z" horiz-adv-x="1613" d="M287 0l856 772h-545l-76 152h1006l-854 -772h571l76 -152h-1034z" />
<glyph unicode="{" horiz-adv-x="1267" d="M391 561l318 719h526l-29 -170h-344l-272 -553l82 -541h344l-29 -170h-526z" />
<glyph unicode="|" horiz-adv-x="774" d="M299 -154l248 1434h170l-248 -1434h-170z" />
<glyph unicode="}" horiz-adv-x="1267" d="M268 -154l29 170h344l270 541l-80 553h-344l29 170h526l68 -719l-315 -715h-527z" />
<glyph unicode="~" horiz-adv-x="1552" d="M412 602l8 6q69 50 129.5 76.5t136.5 26.5q88 0 181.5 -21.5t166 -43t109.5 -21.5q96 0 172 55l10 6l59 -127l-8 -6q-69 -49 -130 -74.5t-138 -25.5q-71 0 -227 43t-230 43q-90 0 -170 -58l-10 -6z" />
<glyph unicode="&#xa1;" horiz-adv-x="825" d="M315 -10l177 739l4 2q3 5 9 12.5t23 27.5t32 35.5t33 29t30 14.5q24 3 20 -41l-94 -819h-234zM483 1083q9 57 57 96.5t105 39.5t89.5 -39.5t23.5 -96.5t-56 -96t-104 -39t-90.5 39t-24.5 96z" />
<glyph unicode="&#xa2;" horiz-adv-x="1540" d="M375 264q-17 87 2 199q30 169 133 286t256 171q55 19 141 30l33 189l174 -115l-12 -74q101 -12 169 -52.5t101 -127.5l4 -4l-127 -203l-4 27q-13 113 -71.5 155.5t-188.5 42.5q-128 0 -225.5 -54t-153.5 -142q-39 -61 -51 -129q-20 -112 24.5 -189.5t135.5 -111.5 q67 -25 145 -25q216 0 375 109l70 51v-195l-7 -4q-164 -103 -364 -125l-35 -196l-174 114l14 82q-159 20 -249.5 96t-114.5 195z" />
<glyph unicode="&#xa3;" horiz-adv-x="1404" d="M301 94l8 6q71 56 118.5 102t82.5 99q4 7 14 21t14.5 21.5t10 21t8.5 28.5h-178l59 168h117q-1 10 -6 55q-5 17 -15.5 47.5t-15.5 47.5t-12 51t-5.5 57t5.5 66q22 128 145 231t289 103q196 0 332 -105l10 -8l-166 -105l-4 5q-70 45 -203 45q-91 0 -153 -45.5t-74 -120.5 q-6 -38 8 -90t36.5 -104t25.5 -66v-2q4 -40 4 -62h284l-59 -168h-238q-39 -135 -170 -239q68 14 121 14q54 0 130.5 -17.5t119.5 -17.5q42 0 75.5 12.5t80.5 40.5l10 7l55 -140l-8 -6q-63 -41 -114 -61.5t-113 -20.5q-57 0 -151 19.5t-154 19.5q-118 0 -238 -49l-8 -2z" />
<glyph unicode="&#xa5;" horiz-adv-x="1650" d="M465 229l27 154h333l13 72h-334l26 153h248l-284 590h196l271 -539l454 539h195l-490 -590h248l-27 -153h-333l-13 -72h334l-26 -154h-334l-41 -239h-170l41 239h-334z" />
<glyph unicode="&#xa6;" horiz-adv-x="772" d="M297 -154l109 625h169l-108 -625h-170zM436 655l109 625h170l-109 -625h-170z" />
<glyph unicode="&#xa7;" horiz-adv-x="1525" d="M311 92l135 135h7q13 -1 40.5 -15.5t61.5 -31t109 -30t172 -13.5q109 0 201.5 49.5t113.5 130.5q-75 -5 -194 -6.5t-236 11.5q-65 13 -121.5 52t-100.5 108t-58 165.5t5 224.5q24 138 159.5 242.5t320.5 104.5q79 0 140.5 -5.5t96.5 -10.5t71 -21t46 -22t40.5 -30.5 t37.5 -29.5l6 -6l-135 -136h-4q-14 1 -27.5 10.5t-32 22.5t-47 26.5t-86 22.5t-137.5 9q-116 2 -185.5 -43t-84.5 -134q-5 -28 12.5 -45t53 -23.5t71.5 -9t81.5 -5t71.5 -7.5q63 -11 123.5 -33t121 -60.5t103 -87.5t62.5 -120t6 -153q-16 -92 -94 -175.5t-194.5 -134.5 t-237.5 -51q-114 0 -196 8.5t-137.5 28.5t-84.5 36t-70 46zM618 631q-7 -19 10 -55.5t60 -73t100 -47.5q8 -4 19 -4q81 -14 196 -9t123 29q6 38 -48 78.5t-118.5 65.5t-113.5 34q-36 6 -113 -0.5t-108 -11.5q-7 0 -7 -6z" />
<glyph unicode="&#xa8;" horiz-adv-x="1337" d="M522 1196q9 57 56 96t104 39q58 0 93 -39t26 -96q-9 -56 -58.5 -95.5t-107.5 -39.5q-57 0 -89.5 39t-23.5 96zM991 1196q9 56 57.5 95.5t106.5 39.5q57 0 90.5 -39t24.5 -96q-9 -56 -56.5 -95.5t-105.5 -39.5q-57 0 -91.5 39t-25.5 96z" />
<glyph unicode="&#xa9;" horiz-adv-x="1681" d="M379 463q23 135 115 248.5t230 179t290 65.5q163 0 283 -66t173.5 -178.5t30.5 -248.5q-48 -208 -234 -352t-419 -144q-155 0 -271 66.5t-168.5 180.5t-29.5 249zM512 463q-26 -151 79.5 -258t278.5 -107q172 0 315.5 106.5t182.5 258.5q26 151 -84 256.5t-293 105.5 q-116 0 -220 -48.5t-173 -131.5t-86 -182zM618 463q17 95 75.5 160.5t146.5 95.5q64 20 135 20q186 0 237 -106l5 -4l-93 -125l-4 26q-12 61 -46 84t-107 23q-140 0 -213 -105q-24 -40 -29 -69q1 -61 28 -102.5t74 -59.5q35 -12 76 -12q124 0 217 57q54 31 74 -14 q12 -19 3.5 -40.5t-30.5 -33.5q-130 -74 -280 -74q-110 0 -177.5 45.5t-88.5 122.5q-12 51 -3 111z" />
<glyph unicode="&#xaa;" horiz-adv-x="1114" d="M516 1157q19 109 103 160t204 51q70 0 131 -27l7 37q10 63 -13 88t-90 25q-59 0 -99 -11.5t-77 -41.5l-8 -8l-49 92l10 6q53 39 108.5 58.5t133.5 19.5q117 0 168.5 -57t31.5 -171l-69 -407h-107l12 67q-99 -82 -198 -82q-101 0 -157.5 55t-41.5 146zM639 1157 q-7 -45 18 -66.5t80 -21.5q89 0 189 100l10 62q-60 24 -131 24t-113.5 -21.5t-52.5 -76.5z" />
<glyph unicode="&#xab;" horiz-adv-x="1617" d="M397 578l754 495l-31 -172l-506 -323l394 -324l-29 -172zM799 578l747 497l-30 -174l-467 -323l354 -324l-29 -174z" />
<glyph unicode="&#xac;" horiz-adv-x="1579" d="M406 510l28 168h989l-53 -309l-160 47l17 94h-821z" />
<glyph unicode="&#xad;" horiz-adv-x="1415" d="M406 510l28 168h821l-28 -168h-821z" />
<glyph unicode="&#xae;" horiz-adv-x="1665" d="M379 463q23 135 114.5 248.5t227.5 179t285 65.5q116 0 214 -39t162.5 -104.5t93 -157t11.5 -192.5q-30 -136 -124.5 -249.5t-234.5 -180t-294 -66.5q-226 0 -358 145t-97 351zM512 463q-26 -150 77 -257.5t267 -107.5q172 0 316.5 106.5t181.5 258.5q17 97 -31 181.5 t-139.5 132.5t-200.5 48q-164 0 -304.5 -106.5t-166.5 -255.5zM670 184l94 553h199q149 0 176 -96q6 -31 0 -66q-19 -108 -142 -141q31 -41 109 -235l8 -15h-125l-2 6q-5 11 -16 41.5t-22 57.5t-25 55.5t-30.5 47t-33.5 20.5q-10 2 -43 2h-20l-39 -230h-88zM811 498h94 q131 0 144 77q7 40 -24 61t-89 21h-98z" />
<glyph unicode="&#xaf;" horiz-adv-x="1292" d="M526 1178l29 168h688l-29 -168h-688z" />
<glyph unicode="&#xb0;" horiz-adv-x="1146" d="M535 1282q20 115 117.5 196t213.5 81t184 -81t48 -196q-20 -116 -115.5 -197t-210.5 -81q-116 0 -186.5 81.5t-50.5 196.5zM672 1282q-10 -58 27 -100.5t96 -42.5q58 0 106.5 42t59.5 101q10 58 -24 99.5t-93 41.5t-110.5 -41.5t-61.5 -99.5z" />
<glyph unicode="&#xb1;" horiz-adv-x="1517" d="M283 -123l28 168h953l-29 -168h-952zM391 510l29 168h393l66 373h168l-66 -373h391l-29 -168h-391l-63 -373h-168l63 373h-393z" />
<glyph unicode="&#xb2;" horiz-adv-x="1136" d="M479 977q9 59 29.5 103t52 73t61.5 46.5t74 35.5q273 113 295 246q10 57 -21.5 87.5t-97.5 30.5q-26 0 -41.5 -1t-33 -6t-27 -16.5t-12.5 -29.5v-10h-154v10q10 57 56 100.5t106 64t121 20.5q105 0 178 -56q42 -33 54 -80.5t-17 -122t-107 -163.5q-41 -52 -88.5 -80 t-109 -52t-105.5 -53q-29 -16 -33 -41q-3 -15 5.5 -25.5t27.5 -10.5h357l-48 -123h-477q-51 0 -45 53z" />
<glyph unicode="&#xb3;" horiz-adv-x="1150" d="M487 1014l74 94l10 -6q78 -60 191 -60q78 0 126 30.5t58 88.5q6 38 -35.5 76.5t-128.5 38.5h-6l-43 123h70q71 0 119.5 24.5t56.5 77.5q9 48 -26 73t-103 25q-69 0 -137 -20l-6 -2l-82 80l12 6q125 68 242 68q74 0 125 -21t73 -48t31.5 -63t9 -56.5t-3.5 -37.5 q-19 -108 -129 -162q122 -61 100 -186q-11 -65 -43.5 -114t-80 -77.5t-101.5 -42.5t-115 -14q-145 0 -251 99z" />
<glyph unicode="&#xb4;" horiz-adv-x="1017" d="M530 1217l213 333h267l-248 -264z" />
<glyph unicode="&#xb5;" horiz-adv-x="1474" d="M279 -264l198 1159h168l-98 -576q-30 -184 143 -184q144 0 262 103q129 109 156 264l68 393h172l-156 -905h-172l27 155q-182 -178 -404 -178q-85 0 -154 27l-32 -201z" />
<glyph unicode="&#xb6;" horiz-adv-x="1636" d="M446 809q30 179 168 284t330 105h397l-208 -1208h-172l75 432h-225q-191 0 -293.5 102.5t-71.5 284.5zM1200 -10l209 1208h170l-209 -1208h-170z" />
<glyph unicode="&#xb7;" horiz-adv-x="856" d="M414 584q9 57 56.5 96t104.5 39t89.5 -39t23.5 -96t-56 -96t-104 -39t-90 39t-24 96z" />
<glyph unicode="&#xb8;" horiz-adv-x="1093" d="M236 -430l69 125l10 -2q84 -35 183 -35q96 0 104 57q4 24 -32.5 39.5t-83.5 20t-91 2.5h-12l90 262h154l-25 -141q4 0 10 -1t9 -1q77 -8 128 -58t29 -121q-27 -94 -106 -146t-189 -52q-149 0 -241 47z" />
<glyph unicode="&#xb9;" horiz-adv-x="862" d="M600 1657l225 76q31 10 48 -7.5t12 -44.5l-131 -757h-133l114 669l-121 -45z" />
<glyph unicode="&#xba;" horiz-adv-x="1263" d="M535 1282q23 136 138 230t259 94t226 -94t59 -230t-137.5 -231t-258.5 -95t-226.5 95t-59.5 231zM674 1282q-14 -79 34.5 -133.5t135.5 -54.5t153 54.5t80 133.5t-33.5 132.5t-134.5 53.5t-154 -53.5t-81 -132.5z" />
<glyph unicode="&#xbb;" horiz-adv-x="1617" d="M311 82l29 172l475 324l-362 323l30 172l582 -495zM713 80l28 174l502 324l-389 323l31 174l575 -497z" />
<glyph unicode="&#xbc;" horiz-adv-x="1849" d="M348 -158l1116 1504h203l-1130 -1504h-189zM496 1190q-10 56 39 72l204 71q29 9 46 -8t12 -43l-131 -756h-119l117 668l-111 -41q-48 -15 -57 37zM952 180q1 27 27 51l471 408l121 51l-78 -454h115l18 -109h-151l-41 -233h-117l41 233h-348q-24 0 -39 12q-20 14 -19 41z M1157 236h219l39 225z" />
<glyph unicode="&#xbd;" horiz-adv-x="1845" d="M348 -158l1098 1504h188l-1097 -1504h-189zM496 1190q-10 56 39 72l204 71q29 9 46 -8t12 -43l-131 -756h-119l117 668l-111 -41q-48 -15 -57 37zM1051 -51q9 60 29 104t51.5 74t60.5 47.5t72 36.5q260 116 282 252q10 59 -20.5 90t-95.5 31q-26 0 -41.5 -1.5t-32.5 -6.5 t-26.5 -16.5t-12.5 -29.5l-2 -10h-135l2 10q13 78 94 124t174 46q82 0 143 -41q34 -23 52 -56.5t19.5 -80.5t-27.5 -112t-87 -140q-41 -53 -88.5 -81t-110 -52.5t-106.5 -54.5q-25 -18 -28 -41q-7 -39 28 -39h320q18 0 24 -16t2 -35q-4 -21 -15.5 -39t-29.5 -18h-450 q-28 0 -38 13.5t-7 41.5z" />
<glyph unicode="&#xbe;" horiz-adv-x="1966" d="M412 596q-36 29 4 78v2q10 13 22 21.5t27.5 10.5t28.5 -12q72 -65 176 -65q74 0 121 33t57 98q7 42 -29 83.5t-112 41.5q-52 0 -43 55q5 28 19 40.5t42 12.5q140 0 158 113q9 55 -21 82t-94 27q-71 0 -129 -25q-17 -7 -31.5 -10.5t-25 -1.5t-17.5 3.5t-13.5 9t-8.5 10 t-7 11.5l-4 9l-2 2l2 4q6 34 31 45q113 59 221 59q69 0 117 -20.5t69 -48t29.5 -63t8 -56t-3.5 -37.5q-19 -108 -115 -160q104 -61 82 -186q-22 -126 -112 -188t-210 -62q-137 0 -237 84zM481 -158l1098 1504h201l-1110 -1504h-189zM1065 180q2 27 29 51l469 408l120 51 l-77 -454h114l19 -109h-152l-41 -233h-116l40 233h-346q-26 0 -41 12q-20 14 -18 41zM1270 236h219l39 225z" />
<glyph unicode="&#xbf;" horiz-adv-x="1310" d="M348 319q8 49 25 88.5t44.5 69.5t54 51.5t68 41t71.5 31.5t78 29q10 3 15 5t13 5t14 5l51 229h158l-35 -262q-5 -49 -43 -81.5t-90 -50t-104.5 -34.5t-92.5 -48.5t-47 -78.5q-19 -139 117 -149q91 -6 180 44.5t109 127.5l2 10h184l-2 -10q-34 -160 -176 -256t-309 -96 q-70 0 -127 20t-98 59t-57.5 103.5t-2.5 146.5zM754 1092q9 56 59.5 95.5t108.5 39.5q57 0 90 -39t24 -96t-55.5 -96.5t-103.5 -39.5q-58 0 -95 40t-28 96z" />
<glyph unicode="&#xc0;" d="M289 0l604 1047q4 6 14 22l15 24t17 23t21.5 22.5t25.5 18.5t32.5 16.5t40 10t49.5 4.5q135 0 152 -72l253 -1116h-176l-92 365h-561l-217 -365h-178zM715 1638h313l125 -333l-250 69zM780 520h430l-125 520h-6z" />
<glyph unicode="&#xc1;" d="M289 0l604 1047q4 6 14 22l15 24t17 23t21.5 22.5t25.5 18.5t32.5 16.5t40 10t49.5 4.5q135 0 152 -72l253 -1116h-176l-92 365h-561l-217 -365h-178zM780 520h430l-125 520h-6zM1108 1305l242 333h307l-277 -264z" />
<glyph unicode="&#xc2;" d="M289 0l604 1047q4 6 14 22l15 24t17 23t21.5 22.5t25.5 18.5t32.5 16.5t40 10t49.5 4.5q135 0 152 -72l253 -1116h-176l-92 365h-561l-217 -365h-178zM670 1311l542 477l381 -477h-200l-222 241l-301 -241h-200zM780 520h430l-125 520h-6z" />
<glyph unicode="&#xc3;" d="M289 0l604 1047q4 6 14 22l15 24t17 23t21.5 22.5t25.5 18.5t32.5 16.5t40 10t49.5 4.5q135 0 152 -72l253 -1116h-176l-92 365h-561l-217 -365h-178zM631 1460l8 6q141 103 295 103q92 0 188.5 -21.5t170.5 -43t112 -21.5q113 0 201 55l8 6l61 -127l-10 -6 q-68 -48 -136.5 -74t-158.5 -26q-73 0 -232 43t-237 43q-111 0 -203 -58l-10 -6zM780 520h430l-125 520h-6z" />
<glyph unicode="&#xc4;" d="M289 0l604 1047q4 6 14 22l15 24t17 23t21.5 22.5t25.5 18.5t32.5 16.5t40 10t49.5 4.5q135 0 152 -72l253 -1116h-176l-92 365h-561l-217 -365h-178zM731 1446q9 57 64 96t123 39t108 -39t31 -96t-63 -96t-122 -39t-109 39t-32 96zM780 520h430l-125 520h-6zM1253 1446 q9 57 63 96t122 39t108 -39t31 -96t-62.5 -96t-121.5 -39t-108.5 39t-31.5 96z" />
<glyph unicode="&#xc5;" d="M289 0l604 1049q1 2 14 23t17.5 27t19 23t25.5 25t29 18.5t38 16.5q-108 22 -170 96.5t-45 169.5q20 115 133.5 195.5t251.5 80.5q137 0 219 -80.5t62 -195.5q-17 -96 -101 -170t-196 -96q58 -17 70 -62l253 -1120h-176l-92 365h-561l-217 -365h-178zM780 520h430 l-125 520h-6zM983 1448q-10 -58 36 -100.5t116 -42.5q69 0 124 42t66 101q11 58 -30.5 99.5t-110.5 41.5q-71 0 -131 -41.5t-70 -99.5z" />
<glyph unicode="&#xc7;" horiz-adv-x="1652" d="M403 594q16 90 52.5 176t97.5 166t139.5 140t185 96t226.5 36q83 0 150 -13.5t113 -36t80 -54.5t52.5 -67.5t27.5 -77t8.5 -80.5t-7.5 -80v-11l-156 5l2 10q20 116 -59 176.5t-232 60.5q-171 0 -320 -131t-181 -315q-19 -111 12.5 -212t117 -168t208.5 -67q258 0 417 111 l78 64l-8 -207l-6 -4q-180 -112 -420 -129l-18 -109q6 0 13 -1t9 -1q58 -5 106.5 -27t75 -62.5t11.5 -88.5q-29 -94 -120.5 -146.5t-223.5 -52.5q-179 0 -291 47l-6 4l77 125l13 -2q103 -35 221 -35q115 0 123 58q4 24 -40 39t-100 19.5t-110 2.5h-16l88 232 q-235 27 -335 187t-55 423z" />
<glyph unicode="&#xc8;" horiz-adv-x="1542" d="M307 0l205 1188h954l-102 -156h-711l-59 -342h539l-119 -155h-447l-65 -379h803l-99 -156h-899zM614 1638h289l129 -333l-252 69z" />
<glyph unicode="&#xc9;" horiz-adv-x="1544" d="M309 0l205 1188h954l-102 -156h-709l-59 -342h537l-119 -155h-445l-65 -379h801l-99 -156h-899zM989 1305l246 333h281l-246 -264z" />
<glyph unicode="&#xca;" horiz-adv-x="1542" d="M307 0l205 1188h954l-102 -156h-711l-59 -342h539l-119 -155h-447l-65 -379h803l-99 -156h-899zM567 1311l527 477l356 -477h-174l-223 241l-308 -241h-178z" />
<glyph unicode="&#xcb;" horiz-adv-x="1542" d="M307 0l205 1188h954l-102 -156h-711l-59 -342h539l-119 -155h-447l-65 -379h803l-99 -156h-899zM627 1446q9 57 57 96t109 39q68 0 110 -39t33 -96q-9 -56 -64.5 -95.5t-123.5 -39.5q-61 0 -95.5 39t-25.5 96zM1137 1446q9 56 64 95.5t120 39.5q57 0 90.5 -39t24.5 -96 t-56 -96t-104 -39q-65 0 -106.5 39.5t-32.5 95.5z" />
<glyph unicode="&#xcc;" horiz-adv-x="1054" d="M586 1638h268l96 -333l-207 69zM621 0l204 1188h170l-204 -1188h-170z" />
<glyph unicode="&#xcd;" horiz-adv-x="1048" d="M301 0l205 1188h170l-205 -1188h-170zM592 1305l213 333h266l-246 -264z" />
<glyph unicode="&#xce;" horiz-adv-x="1382" d="M510 1311l510 477l344 -477h-174l-211 241l-295 -241h-174zM627 0l204 1188h170l-204 -1188h-170z" />
<glyph unicode="&#xcf;" horiz-adv-x="1298" d="M535 1446q9 57 55.5 96t103.5 39q60 0 106.5 -40t37.5 -95t-69 -95t-120 -40q-57 0 -90 39t-24 96zM586 0l205 1188h170l-205 -1188h-170zM1004 1446q9 55 67.5 95t118.5 40q57 0 90.5 -39t24.5 -96t-56 -96t-104 -39q-60 0 -105 40t-36 95z" />
<glyph unicode="&#xd1;" horiz-adv-x="1568" d="M332 0l205 1188h157q55 0 70 -35l407 -813l146 848h170l-205 -1188h-111q-48 0 -63 35l-442 897l-164 -932h-170zM549 1460l8 6q69 50 132 76.5t145 26.5q93 0 190 -21.5t172 -43t113 -21.5q59 0 99.5 13t80.5 42l10 6l60 -127l-9 -6q-70 -50 -131 -75t-143 -25 q-72 0 -235 43t-242 43q-101 0 -181 -58l-12 -6z" />
<glyph unicode="&#xd2;" horiz-adv-x="1882" d="M403 594q20 119 89.5 230.5t170.5 196.5t234 136t272 51t254 -51t186.5 -136t102 -196.5t10.5 -230.5t-89.5 -231t-170.5 -197.5t-234 -137t-272 -51.5t-254 51.5t-186.5 137t-102 197.5t-10.5 231zM598 594q-18 -106 27 -204t143 -160t221 -62q93 0 186 37t165.5 96 t123 136.5t64.5 156.5q18 106 -27 203.5t-143 159t-221 61.5q-93 0 -186 -36.5t-165.5 -95.5t-123 -136t-64.5 -156zM768 1638h315l125 -333l-247 69z" />
<glyph unicode="&#xd3;" horiz-adv-x="1884" d="M406 594q20 119 89.5 230.5t170 196.5t233.5 136t272 51t254.5 -51t187 -136t102.5 -196.5t11 -230.5t-90 -231t-171 -197.5t-234.5 -137t-272.5 -51.5t-254 51.5t-186 137t-101.5 197.5t-10.5 231zM600 594q-18 -106 27 -204t143 -160t221 -62q93 0 186.5 37t166 96 t123.5 136.5t65 156.5q18 105 -27.5 203t-144 159.5t-221.5 61.5q-93 0 -186 -36.5t-165.5 -95.5t-123 -136t-64.5 -156zM1163 1305l244 333h313l-280 -264z" />
<glyph unicode="&#xd4;" horiz-adv-x="1882" d="M403 594q20 119 89.5 230.5t170.5 196.5t234 136t272 51t254 -51t186.5 -136t102 -196.5t10.5 -230.5t-89.5 -231t-170.5 -197.5t-234 -137t-272 -51.5t-254 51.5t-186.5 137t-102 197.5t-10.5 231zM598 594q-18 -106 27 -204t143 -160t221 -62q93 0 186 37t165.5 96 t123 136.5t64.5 156.5q18 106 -27 203.5t-143 159t-221 61.5q-93 0 -186 -36.5t-165.5 -95.5t-123 -136t-64.5 -156zM721 1311l549 477l383 -477h-205l-219 241l-303 -241h-205z" />
<glyph unicode="&#xd5;" horiz-adv-x="1882" d="M403 594q20 119 89.5 230.5t170.5 196.5t234 136t272 51t254 -51t186.5 -136t102 -196.5t10.5 -230.5t-89.5 -231t-170.5 -197.5t-234 -137t-272 -51.5t-254 51.5t-186.5 137t-102 197.5t-10.5 231zM598 594q-18 -106 27 -204t143 -160t221 -62q93 0 186 37t165.5 96 t123 136.5t64.5 156.5q18 106 -27 203.5t-143 159t-221 61.5q-93 0 -186 -36.5t-165.5 -95.5t-123 -136t-64.5 -156zM682 1460l10 6q145 103 297 103q92 0 188 -21.5t170 -43t113 -21.5q115 0 203 55l8 6l64 -127l-11 -6q-70 -49 -139 -74.5t-158 -25.5q-73 0 -233 43 t-238 43q-108 0 -200 -58l-13 -6z" />
<glyph unicode="&#xd6;" horiz-adv-x="1882" d="M403 594q20 119 89.5 230.5t170.5 196.5t234 136t272 51t254 -51t186.5 -136t102 -196.5t10.5 -230.5t-89.5 -231t-170.5 -197.5t-234 -137t-272 -51.5t-254 51.5t-186.5 137t-102 197.5t-10.5 231zM598 594q-18 -106 27 -204t143 -160t221 -62q93 0 186 37t165.5 96 t123 136.5t64.5 156.5q18 106 -27 203.5t-143 159t-221 61.5q-93 0 -186 -36.5t-165.5 -95.5t-123 -136t-64.5 -156zM788 1446q9 57 63 96t122 39t109 -39t32 -96t-63.5 -96t-122.5 -39t-108.5 39t-31.5 96zM1309 1446q9 57 62.5 96t121.5 39t109 -39t32 -96t-63.5 -96 t-122.5 -39t-108 39t-31 96z" />
<glyph unicode="&#xd9;" horiz-adv-x="1552" d="M387 397l135 791h170l-133 -770q-25 -140 37 -205.5t227 -65.5t248.5 65t108.5 206l133 770h170l-135 -791q-72 -420 -553 -420q-480 0 -408 420zM627 1638h295l127 -333l-252 69z" />
<glyph unicode="&#xda;" horiz-adv-x="1552" d="M387 397l135 791h170l-133 -770q-25 -140 37 -205.5t227 -65.5t248.5 65t108.5 206l133 770h170l-135 -791q-72 -420 -553 -420q-480 0 -408 420zM997 1305l244 333h293l-258 -264z" />
<glyph unicode="&#xdb;" horiz-adv-x="1552" d="M387 397l135 791h170l-133 -770q-25 -140 37 -205.5t227 -65.5t248.5 65t108.5 206l133 770h170l-135 -791q-72 -420 -553 -420q-480 0 -408 420zM578 1311l528 477l364 -477h-182l-223 241l-305 -241h-182z" />
<glyph unicode="&#xdc;" horiz-adv-x="1552" d="M387 397l135 791h170l-133 -770q-25 -140 37 -205.5t227 -65.5t248.5 65t108.5 206l133 770h170l-135 -791q-72 -420 -553 -420q-480 0 -408 420zM639 1446q9 57 57.5 96t110.5 39q68 0 109 -39t32 -96t-63.5 -96t-122.5 -39q-61 0 -96.5 39t-26.5 96zM1147 1446 q9 57 63.5 96t122.5 39q61 0 96.5 -39t26.5 -96t-57.5 -96t-110.5 -39q-68 0 -109 39t-32 96z" />
<glyph unicode="&#xdd;" horiz-adv-x="1697" d="M489 1188h197l281 -539l493 539h195l-631 -699l-84 -489h-174l84 489zM1069 1305l244 333h295l-262 -264z" />
<glyph unicode="&#xe0;" horiz-adv-x="1466" d="M356 276q28 162 166.5 238t354.5 76q121 0 245 -45l11 65q17 93 -29.5 131.5t-173.5 38.5q-112 0 -184.5 -18t-141.5 -66l-10 -8l-68 133l11 6q78 59 177 89t244 30q205 0 289.5 -82.5t55.5 -253.5l-105 -610h-156l19 113q-65 -49 -162.5 -92.5t-204.5 -43.5 q-178 0 -269.5 81t-68.5 218zM535 279q-12 -70 40 -105t156 -35q171 0 348 154l17 94q-127 41 -248 41q-288 0 -313 -149zM578 1376h290l131 -334l-256 70z" />
<glyph unicode="&#xe1;" horiz-adv-x="1480" d="M344 276q28 162 165.5 238t352.5 76q124 0 248 -45l10 65q17 93 -30.5 131.5t-174.5 38.5q-112 0 -183 -18t-140 -66l-10 -8l-68 133l10 6q78 59 176.5 89t243.5 30q206 0 290.5 -82.5t55.5 -253.5l-104 -610h-156l19 113q-65 -49 -163 -92.5t-206 -43.5q-177 0 -268 81 t-68 218zM522 279q-12 -70 39.5 -105t155.5 -35q60 0 121.5 19.5t112 51.5t74 49t42.5 34l16 94q-127 41 -249 41q-287 0 -312 -149zM940 1042l246 334h276l-245 -264z" />
<glyph unicode="&#xe2;" horiz-adv-x="1474" d="M344 276q28 162 165.5 238t352.5 76q124 0 248 -45l10 65q17 93 -28.5 131.5t-171.5 38.5q-113 0 -186.5 -18t-141.5 -66l-10 -8l-68 133l10 6q78 59 178.5 89t245.5 30q205 0 288 -82.5t54 -253.5l-104 -610h-156l19 113q-65 -49 -163 -92.5t-206 -43.5q-177 0 -268 81 t-68 218zM516 1049l533 477l348 -477h-174l-215 241l-314 -241h-178zM522 279q-12 -70 39.5 -105t155.5 -35q60 0 121.5 19.5t112 51.5t74 49t42.5 34l16 94q-127 41 -249 41q-287 0 -312 -149z" />
<glyph unicode="&#xe3;" horiz-adv-x="1542" d="M358 276q28 162 165 238t351 76q119 0 250 -45l11 65q17 93 -30.5 131.5t-172.5 38.5q-111 0 -183.5 -18t-142.5 -66l-10 -8l-68 133l9 6q158 119 424 119q206 0 290.5 -82.5t55.5 -253.5l-105 -610h-155l18 113q-40 -29 -86.5 -55.5t-127.5 -53.5t-155 -27 q-177 0 -269 81.5t-69 217.5zM494 1198l8 6q69 50 131.5 76.5t142.5 26.5q94 0 191.5 -21.5t172.5 -43t113 -21.5q96 0 172 55l11 6l57 -127l-6 -6q-69 -49 -130 -74.5t-138 -25.5q-74 0 -235.5 43t-240.5 43q-100 0 -180 -58l-12 -6zM537 279q-12 -70 40 -105t154 -35 q59 0 121 20t112 51t74 49t43 34l17 94q-127 41 -252 41q-284 0 -309 -149z" />
<glyph unicode="&#xe4;" horiz-adv-x="1468" d="M358 276q28 162 166.5 238t354.5 76q121 0 245 -45l11 65q17 93 -29.5 131.5t-173.5 38.5q-112 0 -184.5 -18t-141.5 -66l-10 -8l-68 133l11 6q78 59 177.5 89t244.5 30q205 0 289 -82.5t55 -253.5l-105 -610h-156l21 113q-65 -49 -163 -92.5t-206 -43.5 q-178 0 -269.5 81t-68.5 218zM537 279q-12 -70 40 -105t156 -35q171 0 348 154l17 94q-127 41 -248 41q-288 0 -313 -149zM592 1184q9 57 56 96t108 39q68 0 110 -39t33 -96q-9 -56 -65.5 -95.5t-124.5 -39.5q-61 0 -93.5 38.5t-23.5 96.5zM1104 1184q9 56 61.5 95.5 t116.5 39.5q57 0 90.5 -39t24.5 -96q-9 -56 -56.5 -95.5t-105.5 -39.5q-63 0 -101.5 39t-29.5 96z" />
<glyph unicode="&#xe5;" horiz-adv-x="1464" d="M356 276q28 162 166.5 238t354.5 76q121 0 245 -45l11 65q17 93 -29.5 131.5t-173.5 38.5q-112 0 -184.5 -18t-141.5 -66l-10 -8l-68 133l11 6q78 59 177 89t244 30q205 0 289.5 -82.5t55.5 -253.5l-105 -610h-156l19 113q-65 -49 -162.5 -92.5t-204.5 -43.5 q-178 0 -269.5 81t-68.5 218zM535 279q-12 -70 40 -105t156 -35q171 0 348 154l17 94q-127 41 -248 41q-288 0 -313 -149zM690 1327q20 116 131 196.5t252 80.5q138 0 214 -80t56 -197q-21 -117 -124.5 -197.5t-241.5 -80.5q-141 0 -224 81t-63 197zM846 1327 q-10 -58 36.5 -100.5t118.5 -42.5t129 42t68 101t-32 100t-115 41q-73 0 -134 -41.5t-71 -99.5z" />
<glyph unicode="&#xe7;" horiz-adv-x="1570" d="M379 268q-18 89 0 195q28 167 131.5 280t259.5 166q115 37 246 37q66 0 118 -7t106.5 -25.5t94.5 -57.5t62 -96l4 -4l-127 -203l-4 27q-13 113 -73.5 155.5t-197.5 42.5q-135 0 -235.5 -52t-155.5 -138q-40 -62 -51 -125q-20 -109 26 -184.5t142 -108.5q65 -23 152 -23 q228 0 387 109l69 51l-2 -194l-4 -4q-170 -108 -385 -127l-18 -109q6 0 12 -1t8 -1q88 -8 143 -57t33 -121q-28 -96 -112.5 -147.5t-214.5 -51.5q-183 0 -295 47l-6 4l81 125l9 -2q107 -35 223 -35q115 0 123 58q4 24 -39.5 39t-99 19.5t-109.5 2.5h-16l88 232 q-163 18 -256 92.5t-117 191.5z" />
<glyph unicode="&#xe8;" horiz-adv-x="1667" d="M383 463q36 204 216.5 343.5t420.5 139.5q239 0 369 -140.5t94 -344.5l-15 -78h-921q9 -105 102 -172.5t232 -67.5q140 0 266 78q44 30 99.5 33t88.5 -9l33 -12l8 -6l-8 -10q-87 -110 -222.5 -175t-293.5 -65t-274.5 65.5t-167 176.5t-27.5 244zM573 537h744 q-6 107 -96 175t-230 68t-256.5 -69t-161.5 -174zM639 1376h295l125 -334l-250 70z" />
<glyph unicode="&#xe9;" horiz-adv-x="1667" d="M383 463q36 204 216.5 343.5t420.5 139.5q239 0 369 -140.5t94 -344.5l-15 -78h-921q9 -105 102 -172.5t232 -67.5q140 0 266 78q44 30 99.5 33t88.5 -9l33 -12l8 -6l-8 -10q-87 -110 -222.5 -175t-293.5 -65t-274.5 65.5t-167 176.5t-27.5 244zM573 537h744 q-6 107 -96 175t-230 68t-256.5 -69t-161.5 -174zM1012 1042l245 334h289l-256 -264z" />
<glyph unicode="&#xea;" horiz-adv-x="1667" d="M383 463q36 204 216.5 343.5t420.5 139.5q239 0 369 -140.5t94 -344.5l-15 -78h-921q9 -105 102 -172.5t232 -67.5q140 0 266 78q44 30 99.5 33t88.5 -9l33 -12l8 -6l-8 -10q-87 -110 -222.5 -175t-293.5 -65t-274.5 65.5t-167 176.5t-27.5 244zM573 537h744 q-6 107 -96 175t-230 68t-256.5 -69t-161.5 -174zM590 1049l530 477l361 -477h-181l-221 241l-307 -241h-182z" />
<glyph unicode="&#xeb;" horiz-adv-x="1667" d="M383 463q36 204 216.5 343.5t420.5 139.5q239 0 369 -140.5t94 -344.5l-15 -78h-921q9 -105 102 -172.5t232 -67.5q140 0 266 78q44 30 99.5 33t88.5 -9l33 -12l8 -6l-8 -10q-87 -110 -222.5 -175t-293.5 -65t-274.5 65.5t-167 176.5t-27.5 244zM573 537h744 q-6 107 -96 175t-230 68t-256.5 -69t-161.5 -174zM653 1184q9 57 57.5 96t110.5 39q68 0 109.5 -39t32.5 -96q-9 -56 -65 -95.5t-124 -39.5q-61 0 -95.5 39t-25.5 96zM1161 1184q9 57 64 96t123 39q60 0 94.5 -39t25.5 -96t-58.5 -96t-109.5 -39q-68 0 -108 39t-31 96z" />
<glyph unicode="&#xec;" horiz-adv-x="1054" d="M541 1376h268l96 -334l-207 70zM623 0l159 924h170l-159 -924h-170z" />
<glyph unicode="&#xed;" horiz-adv-x="1048" d="M301 0l160 924h170l-160 -924h-170zM547 1042l213 334h266l-246 -264z" />
<glyph unicode="&#xee;" horiz-adv-x="1384" d="M463 1049l514 477l342 -477h-174l-209 241l-299 -241h-174zM627 0l141 924h209l-180 -924h-170z" />
<glyph unicode="&#xef;" horiz-adv-x="1312" d="M494 1184q9 57 55.5 96t103.5 39q58 0 95 -39.5t28 -95.5t-60.5 -95.5t-109.5 -39.5q-57 0 -89 39t-23 96zM590 0l139 924h213l-182 -924h-170zM985 1184q9 56 58.5 95.5t107.5 39.5q57 0 90.5 -39t24.5 -96q-9 -56 -56.5 -95.5t-105.5 -39.5t-93 39t-26 96z" />
<glyph unicode="&#xf1;" horiz-adv-x="1548" d="M346 0l133 770l193 125l-29 -166q189 178 424 178q166 0 234 -87.5t42 -239.5l-100 -580h-168l96 559q14 83 -24.5 131.5t-130.5 48.5q-149 0 -273 -100q-134 -107 -159 -256l-66 -383h-172zM496 1198l8 6q69 50 130.5 76.5t139.5 26.5q93 0 191 -21.5t174 -43t114 -21.5 q101 0 177 55l10 6l57 -127l-6 -6q-69 -49 -132 -74.5t-142 -25.5q-75 0 -236.5 43t-239.5 43q-96 0 -176 -58l-12 -6z" />
<glyph unicode="&#xf2;" horiz-adv-x="1691" d="M387 463q36 203 220 343t427 140q121 0 219 -38t159.5 -103t87.5 -154t9 -188q-36 -204 -218.5 -345t-424.5 -141q-161 0 -279.5 65.5t-170.5 176.5t-29 244zM555 463q-23 -132 76.5 -226t263.5 -94q163 0 293 93.5t153 226.5q23 132 -74 224.5t-261 92.5t-296 -92.5 t-155 -224.5zM643 1376h303l127 -334l-252 70z" />
<glyph unicode="&#xf3;" horiz-adv-x="1689" d="M383 463q36 203 221 343t428 140q121 0 218.5 -38t159 -103t87 -153.5t8.5 -188.5q-36 -204 -217.5 -345t-423.5 -141q-161 0 -280 65.5t-171.5 176.5t-29.5 244zM551 463q-23 -132 77.5 -226t264.5 -94q163 0 292 93.5t152 226.5q23 132 -73 224.5t-260 92.5 q-108 0 -207 -42t-165 -115t-81 -160zM1024 1042l246 334h299l-266 -264z" />
<glyph unicode="&#xf4;" horiz-adv-x="1689" d="M383 463q36 203 221 343t428 140q121 0 218.5 -38t159 -103t87 -153.5t8.5 -188.5q-36 -204 -217.5 -345t-423.5 -141q-161 0 -280 65.5t-171.5 176.5t-29.5 244zM551 463q-23 -132 77.5 -226t264.5 -94q163 0 292 93.5t152 226.5q23 132 -73 224.5t-260 92.5 q-108 0 -207 -42t-165 -115t-81 -160zM590 1049l543 477l370 -477h-192l-219 241l-308 -241h-194z" />
<glyph unicode="&#xf5;" horiz-adv-x="1689" d="M383 463q36 203 221 343t428 140q121 0 218.5 -38t159 -103t87 -153.5t8.5 -188.5q-36 -204 -217.5 -345t-423.5 -141q-161 0 -280 65.5t-171.5 176.5t-29.5 244zM551 463q-23 -132 77.5 -226t264.5 -94q163 0 292 93.5t152 226.5q23 132 -73 224.5t-260 92.5 q-108 0 -207 -42t-165 -115t-81 -160zM553 1198l10 6q68 50 134 76.5t153 26.5q93 0 190 -21.5t172 -43t113 -21.5q117 0 193 55l8 6l59 -127l-8 -6q-69 -49 -134 -74.5t-153 -25.5q-76 0 -235 43t-238 43q-111 0 -194 -58l-11 -6z" />
<glyph unicode="&#xf6;" horiz-adv-x="1689" d="M383 463q36 203 221 343t428 140q121 0 218.5 -38t159 -103t87 -153.5t8.5 -188.5q-36 -204 -217.5 -345t-423.5 -141q-161 0 -280 65.5t-171.5 176.5t-29.5 244zM551 463q-23 -132 77.5 -226t264.5 -94q163 0 292 93.5t152 226.5q23 132 -73 224.5t-260 92.5 q-108 0 -207 -42t-165 -115t-81 -160zM653 1184q9 57 62 96t119 39q68 0 108 -39t31 -96t-64 -96t-123 -39q-66 0 -104 39t-29 96zM1174 1184q9 57 62.5 96t121.5 39q66 0 104 -39t29 -96t-61.5 -96t-118.5 -39q-67 0 -106.5 39t-30.5 96z" />
<glyph unicode="&#xf9;" horiz-adv-x="1488" d="M373 305l100 580h168l-98 -559q-14 -83 23.5 -132t129.5 -49q150 0 275 101q134 107 159 256l68 383h172l-153 -885h-173l27 156q-190 -179 -422 -179q-166 0 -234 88t-42 240zM555 1376h289l129 -334l-252 70z" />
<glyph unicode="&#xfa;" horiz-adv-x="1488" d="M371 305l100 580h168l-98 -559q-14 -83 23.5 -132t129.5 -49q150 0 275 101q134 107 159 256l68 383h172l-154 -885h-172l27 156q-190 -179 -422 -179q-166 0 -234 88t-42 240zM924 1042l245 334h285l-252 -264z" />
<glyph unicode="&#xfb;" horiz-adv-x="1484" d="M369 305l100 580h168l-98 -559q-14 -83 23.5 -132t129.5 -49q150 0 275 101q134 107 159 256l68 383h172l-154 -885h-172l27 156q-190 -179 -422 -179q-166 0 -234 88t-42 240zM502 1049l526 477l356 -477h-174l-223 241l-309 -241h-176z" />
<glyph unicode="&#xfc;" horiz-adv-x="1486" d="M371 305l100 580h168l-98 -559q-14 -83 23.5 -132t129.5 -49q150 0 275 101q134 107 159 256l68 383h172l-154 -885h-172l27 156q-190 -179 -422 -179q-166 0 -234 88t-42 240zM565 1184q9 57 56 96t106 39q68 0 110 -39t33 -96q-9 -56 -65.5 -95.5t-124.5 -39.5 q-58 0 -91 39t-24 96zM1069 1184q9 56 64.5 95.5t123.5 39.5q58 0 92 -39t25 -96t-57 -96t-107 -39q-68 0 -109 39t-32 96z" />
<glyph unicode="&#xfd;" horiz-adv-x="1689" d="M307 -414l10 172h11q258 13 452 316l-334 850h187l282 -686l500 686h184l-696 -967q-36 -49 -62 -81.5t-64 -74.5t-70.5 -69.5t-77.5 -57t-90.5 -46.5t-103 -29t-120.5 -13h-8zM1024 1042l242 334h293l-259 -264z" />
<glyph unicode="&#xff;" horiz-adv-x="1689" d="M307 -414l10 172h11q258 13 452 316l-334 850h187l282 -686l500 686h184l-696 -967q-36 -49 -62 -81.5t-64 -74.5t-70.5 -69.5t-77.5 -57t-90.5 -46.5t-103 -29t-120.5 -13h-8zM657 1184q9 57 58.5 96t113.5 39q68 0 109.5 -39t32.5 -96q-9 -56 -65 -95.5t-124 -39.5 q-64 0 -99 38.5t-26 96.5zM1169 1184q9 57 63 96t122 39q64 0 99 -38.5t26 -96.5q-9 -57 -58.5 -96t-113.5 -39q-67 0 -107 39t-31 96z" />
<glyph unicode="&#x178;" horiz-adv-x="1697" d="M489 1188h197l281 -539l493 539h195l-631 -699l-84 -489h-174l84 489zM707 1446q9 57 58.5 96t115.5 39q68 0 108 -39t31 -96t-62.5 -96t-121.5 -39q-65 0 -101.5 38.5t-27.5 96.5zM1217 1446q9 57 62.5 96t121.5 39q65 0 101.5 -38.5t27.5 -96.5q-9 -57 -58.5 -96 t-115.5 -39q-68 0 -108 39t-31 96z" />
<glyph unicode="&#x2dc;" horiz-adv-x="1564" d="M358 262l11 6q69 50 129.5 76.5t136.5 26.5q88 0 181.5 -21.5t166 -43t109.5 -21.5q96 0 172 55l8 6l59 -127l-8 -6q-70 -50 -130 -75t-136 -25q-71 0 -227 43t-230 43q-92 0 -172 -58l-10 -6z" />
<glyph unicode="&#x2000;" horiz-adv-x="894" />
<glyph unicode="&#x2001;" horiz-adv-x="1788" />
<glyph unicode="&#x2002;" horiz-adv-x="894" />
<glyph unicode="&#x2003;" horiz-adv-x="1788" />
<glyph unicode="&#x2004;" horiz-adv-x="596" />
<glyph unicode="&#x2005;" horiz-adv-x="447" />
<glyph unicode="&#x2006;" horiz-adv-x="298" />
<glyph unicode="&#x2007;" horiz-adv-x="298" />
<glyph unicode="&#x2008;" horiz-adv-x="223" />
<glyph unicode="&#x2009;" horiz-adv-x="357" />
<glyph unicode="&#x200a;" horiz-adv-x="99" />
<glyph unicode="&#x2010;" horiz-adv-x="1570" d="M406 510l28 168h977l-29 -168h-976z" />
<glyph unicode="&#x2011;" horiz-adv-x="1570" d="M406 510l28 168h977l-29 -168h-976z" />
<glyph unicode="&#x2012;" horiz-adv-x="1570" d="M406 510l28 168h977l-29 -168h-976z" />
<glyph unicode="&#x2013;" horiz-adv-x="1589" d="M406 510l29 168h995l-30 -168h-994z" />
<glyph unicode="&#x2014;" horiz-adv-x="2613" d="M406 510l57 168h1991l-59 -168h-1989z" />
<glyph unicode="&#x202f;" horiz-adv-x="357" />
<glyph unicode="&#x205f;" horiz-adv-x="447" />
<glyph unicode="&#x20ac;" horiz-adv-x="1818" d="M356 393l76 168h885l-82 -168h-440q27 -165 163 -223q74 -33 160 -33q236 0 393 111l11 8l63 -150l-10 -6q-211 -133 -488 -133q-122 0 -216 32.5t-153.5 91.5t-92.5 134.5t-41 167.5h-228zM397 625l76 168h178q58 135 161 232t239 149q124 45 254 45q116 0 209 -35 t135 -92q90 -116 59 -283l-2 -10l-154 4l2 10q20 116 -52 177t-216 61q-279 0 -422 -258h494l-82 -168h-879z" />
<glyph unicode="&#x25fc;" horiz-adv-x="921" d="M0 0v922h922v-922h-922z" />
</font>
</defs>
</svg>
