<?xml version="1.0" standalone="no"?>
<!DOCTYPE svg PUBLIC "-//W3C//DTD SVG 1.1//EN" "http://www.w3.org/Graphics/SVG/1.1/DTD/svg11.dtd" >
<svg xmlns="http://www.w3.org/2000/svg">
<metadata></metadata>
<defs>
<font id="charger_monospaceregular" horiz-adv-x="1431" >
<font-face units-per-em="2048" ascent="1638" descent="-410" />
<missing-glyph horiz-adv-x="602" />
<glyph horiz-adv-x="0" />
<glyph horiz-adv-x="682" />
<glyph horiz-adv-x="0" />
<glyph horiz-adv-x="0" />
<glyph unicode="&#xd;" horiz-adv-x="512" />
<glyph unicode=" "  horiz-adv-x="602" />
<glyph unicode="&#x09;" horiz-adv-x="602" />
<glyph unicode="&#xa0;" horiz-adv-x="602" />
<glyph unicode="!" horiz-adv-x="790" d="M258 125q0 57 40 96t97 39t97 -39t40 -96t-40 -96t-97 -39t-97 39t-40 96zM279 1219h233l-51 -740l-2 -2l-7.5 -12.5t-17.5 -27.5t-25.5 -35.5t-28.5 -29t-28 -14.5q-24 -3 -28 41z" />
<glyph unicode="&#x22;" horiz-adv-x="1017" d="M270 1602h215v-439l-155 94zM535 1163v439h215l-60 -345z" />
<glyph unicode="#" horiz-adv-x="1544" d="M250 313l47 170h225l47 179h-227l47 169h227l99 367h172l-99 -367h140l98 367h172l-98 -367h196l-47 -169h-196l-47 -179h198l-47 -170h-199l-86 -323h-172l86 323h-139l-86 -323h-172l86 323h-225zM694 483h140l47 179h-140z" />
<glyph unicode="$" horiz-adv-x="1443" d="M254 102l113 136h6q13 -1 43 -16t65 -31.5t107 -30t160 -13.5q103 0 183.5 51.5t80.5 135.5q0 24 -6 44.5t-14 36.5t-24.5 30t-30.5 24t-38.5 19.5t-40.5 15t-46.5 12.5t-46.5 10.5t-49.5 9.5t-47.5 9q-172 34 -242 65q-147 65 -168 206q-4 26 -4 54q0 130 106 230.5 t269 109.5v185l178 -115v-74q47 -5 83 -12.5t64.5 -20.5t44.5 -22t43.5 -29t40.5 -28l11 -7l-113 -133h-6q-15 1 -35.5 15t-44 30t-85.5 29.5t-151 13.5q-107 2 -167 -42t-60 -130q0 -26 8.5 -46.5t27.5 -35.5t37.5 -25t50 -18.5t52.5 -13t58.5 -11t54.5 -9.5q50 -10 79 -16 t75.5 -18t73.5 -22.5t64.5 -27.5t60 -35.5t47.5 -45t38 -57t22 -70t9 -85.5q0 -125 -115 -228t-268 -124v-199l-178 115v82q-97 7 -170 26t-107 37t-88 53z" />
<glyph unicode="%" horiz-adv-x="1773" d="M252 897q0 124 80 218.5t192 94.5q115 0 198 -94.5t83 -218.5t-83 -218.5t-198 -94.5q-112 0 -192 94.5t-80 218.5zM377 897q0 -67 44 -120.5t103 -53.5t105.5 53.5t46.5 120.5t-46.5 120.5t-105.5 53.5t-103 -53.5t-44 -120.5zM442 -20l715 1208h176l-715 -1208h-176z M969 291q0 124 82.5 218.5t197.5 94.5q112 0 192.5 -94.5t80.5 -218.5t-80.5 -219t-192.5 -95q-115 0 -197.5 95t-82.5 219zM1098 291q0 -67 46 -120.5t105 -53.5t103.5 53.5t44.5 120.5t-44.5 120.5t-103.5 53.5t-105 -53.5t-46 -120.5z" />
<glyph unicode="&#x26;" horiz-adv-x="1470" d="M254 344q0 102 50 174.5t132 112.5q-141 84 -141 248q0 17 2 36t10.5 54t23.5 66.5t44.5 66t69.5 59.5t102.5 41.5t138.5 16.5q161 0 324 -91q16 -8 -14.5 -36.5t-68.5 -53.5l-38 -24l-6 -4l-4 2q-83 39 -197 39q-100 0 -156.5 -43.5t-56.5 -128.5q0 -94 62 -136.5 t159 -42.5h101l-95 -155h-6q-62 0 -113.5 -21t-81.5 -52.5t-46.5 -65t-16.5 -62.5q0 -102 65.5 -154.5t180.5 -52.5q98 0 179 24.5t110 71.5v173h-189l94 155h273q39 0 55.5 -19.5t16.5 -58.5q0 -40 -16.5 -58.5t-55.5 -18.5h-29v-187v-2q-10 -68 -56.5 -119.5t-114 -78.5 t-135 -39.5t-132.5 -12.5q-87 0 -161 21t-134 64.5t-94.5 118t-34.5 173.5z" />
<glyph unicode="'" horiz-adv-x="763" d="M276 1602h213v-439l-153 94z" />
<glyph unicode="(" horiz-adv-x="1005" d="M256 594q0 214 64 407.5t176.5 313t242.5 119.5h11v-189l-9 -2q-82 -9 -156 -107.5t-116.5 -245.5t-42.5 -296q0 -150 42.5 -300.5t116 -250.5t154.5 -100h11v-191h-11q-130 0 -242.5 120t-176.5 314t-64 408z" />
<glyph unicode=")" horiz-adv-x="1003" d="M256 -57h10q81 0 155 100t116.5 250.5t42.5 300.5q0 149 -43 296t-117 245.5t-156 107.5l-8 2v189h10q130 0 242.5 -119.5t177 -313t64.5 -407.5q0 -160 -38.5 -313.5t-102.5 -270t-154.5 -187.5t-188.5 -71h-10v191z" />
<glyph unicode="*" horiz-adv-x="1212" d="M266 838l238 202l-238 203l103 88l166 -141v201h145v-201l166 141l102 -88l-237 -203l237 -202l-102 -88l-166 141v-201h-145v201l-166 -141z" />
<glyph unicode="+" horiz-adv-x="1433" d="M260 510v168h373v373h168v-373h373v-168h-373v-373h-168v373h-373z" />
<glyph unicode="," horiz-adv-x="958" d="M268 -287l45 29q45 28 80 63q74 74 84 156t-59 156l-2 4v4q-4 57 38 96t99 39t97 -39t40 -96q0 -58 -22 -119t-64.5 -118.5t-116 -102t-165.5 -61.5z" />
<glyph unicode="-" horiz-adv-x="1466" d="M276 510v168h914v-168h-914z" />
<glyph unicode="." horiz-adv-x="825" d="M276 125q0 57 40.5 96t97.5 39t97 -39t40 -96t-40 -96t-97 -39t-97.5 39t-40.5 96z" />
<glyph unicode="/" horiz-adv-x="1454" d="M248 -158l772 1504h188l-772 -1504h-188z" />
<glyph unicode="0" horiz-adv-x="1503" d="M258 594q0 157 65.5 298.5t181 228.5t249.5 87t248.5 -87t179.5 -228.5t65 -298.5t-65 -299t-179.5 -230t-248.5 -88t-249.5 88t-181 230t-65.5 299zM428 594q0 -106 44 -204.5t120 -160t162 -61.5t161.5 61.5t118.5 159.5t43 205t-43 204.5t-118.5 158.5t-161.5 61 q-87 0 -162.5 -61t-119.5 -159t-44 -204z" />
<glyph unicode="1" horiz-adv-x="923" d="M264 1096l307 112q8 4 25 4q29 1 46 -20.5t17 -54.5v-1157h-170v1028l-176 -68z" />
<glyph unicode="2" horiz-adv-x="1349" d="M256 57q-2 73 11 132t34 98t57 72t68 53t80 43q393 179 393 393q0 93 -60 142.5t-167 49.5q-34 0 -54.5 -1t-46.5 -6t-40.5 -14t-24.5 -26t-10 -41v-10h-199v10q0 79 56 139t139.5 88.5t177.5 28.5q137 0 239 -61q58 -34 94 -85t50 -122.5t-13 -170.5t-96 -214 q-39 -64 -93 -106t-102 -61t-118.5 -51.5t-124.5 -70.5q-33 -23 -33 -65q0 -28 16.5 -47t45.5 -19h561l-43 -155h-723q-39 0 -55.5 18t-18.5 59z" />
<glyph unicode="3" horiz-adv-x="1339" d="M254 113l88 143l10 -6q135 -103 301 -103q122 0 189 50.5t67 150.5q0 28 -16.5 60.5t-47 64t-84.5 52t-120 20.5h-6l-100 155h106q103 0 168 40.5t65 131.5q0 84 -60.5 126t-166.5 42q-120 0 -203 -39l-6 -2l-139 113l12 6q162 90 334 90q79 0 143.5 -16t105.5 -40.5 t71.5 -59t46 -65.5t24.5 -65t11 -53t2 -35q0 -160 -142 -243q83 -39 131.5 -110.5t48.5 -172.5q0 -97 -34 -170.5t-95 -116t-137 -63.5t-168 -21q-213 0 -391 129z" />
<glyph unicode="4" horiz-adv-x="1472" d="M251 426q-5 36 23 74l547 620l172 74v-688h178l52 -156h-230v-360h-176v360h-481q-27 0 -51 17q-29 23 -34 59zM494 506h323v366z" />
<glyph unicode="5" horiz-adv-x="1361" d="M254 84l113 135h6q14 -2 31.5 -14t37.5 -24.5t78.5 -23t147.5 -10.5q66 0 125 26.5t100 85.5t41 140q0 55 -25 97q-41 67 -140 93t-217.5 7t-219.5 -76l-17 -8l21 602q1 40 21 57t63 17h637l-94 -156h-463l-11 -289q102 50 213 50q84 0 155 -22.5t129 -68.5t91 -126 t33 -187q0 -98 -36.5 -177.5t-98.5 -130t-141 -77.5t-166 -27q-62 0 -109 1.5t-83.5 8t-58.5 10t-47 16t-34.5 17.5t-35.5 23t-36 25z" />
<glyph unicode="6" horiz-adv-x="1384" d="M258 395q0 145 20.5 259t61 196t92 138.5t121.5 101.5q84 50 227 78t287 30h14l-43 -156h-8q-157 0 -263.5 -33t-167.5 -90.5t-105 -150.5q95 45 202 45q182 0 307 -122.5t125 -295.5t-125 -295.5t-307 -122.5t-310 123t-128 295zM432 395q0 -101 77.5 -172t186.5 -71 q108 0 183 70.5t75 172.5t-75 173t-183 71q-109 0 -186.5 -71.5t-77.5 -172.5z" />
<glyph unicode="7" horiz-adv-x="1339" d="M250 1030l69 158h773l-490 -1208h-192l442 1050h-602z" />
<glyph unicode="8" horiz-adv-x="1368" d="M254 338q0 91 48.5 167t131.5 128q-121 100 -121 244q0 136 108.5 228.5t264.5 92.5t263.5 -92.5t107.5 -228.5q0 -146 -119 -244q83 -50 130.5 -127t47.5 -168q0 -152 -125 -256.5t-305 -104.5q-181 0 -306.5 104.5t-125.5 256.5zM428 338q0 -86 75 -146.5t183 -60.5 t182 60t74 147t-74 147t-182 60t-183 -60.5t-75 -146.5zM477 874q0 -72 61 -124t148 -52t147 51.5t60 124.5q0 71 -60 123t-147 52t-148 -52t-61 -123z" />
<glyph unicode="9" horiz-adv-x="1380" d="M256 780q0 173 126 295.5t308 122.5t309 -122.5t127 -295.5q0 -146 -19.5 -259.5t-59 -195t-90.5 -138.5t-121 -101q-84 -50 -228.5 -78.5t-288.5 -30.5h-14l43 156h8q157 0 263.5 33.5t166.5 91t105 150.5q-97 -46 -201 -46q-182 0 -308 122.5t-126 295.5zM430 780 q0 -101 75.5 -172t184.5 -71t185.5 71t76.5 172t-76.5 172.5t-185.5 71.5t-184.5 -71.5t-75.5 -172.5z" />
<glyph unicode=":" horiz-adv-x="808" d="M268 125q0 57 40.5 96t97.5 39t97 -39t40 -96t-40 -96t-97 -39t-97.5 39t-40.5 96zM268 784q0 57 40.5 96.5t97.5 39.5t97 -39.5t40 -96.5t-40 -96t-97 -39t-97.5 39t-40.5 96z" />
<glyph unicode=";" horiz-adv-x="935" d="M258 -287l45 29q45 28 80 63q74 74 84 156t-59 156l-2 4v4q-4 57 38 96t99 39t97 -39t40 -96q0 -58 -22 -119t-65 -118.5t-116.5 -102t-165.5 -61.5zM406 784q0 57 40 96.5t97 39.5t97 -39.5t40 -96.5t-40 -96t-97 -39t-97 39t-40 96z" />
<glyph unicode="&#x3c;" horiz-adv-x="1409" d="M258 578l895 491v-170l-580 -321l580 -322v-170z" />
<glyph unicode="=" horiz-adv-x="1464" d="M276 303v168h914v-168h-914zM276 692v168h914v-168h-914z" />
<glyph unicode="&#x3e;" horiz-adv-x="1411" d="M258 86v170l580 322l-580 321v170l895 -491z" />
<glyph unicode="?" horiz-adv-x="1228" d="M250 864v10q4 107 65 189.5t149.5 123t184.5 40.5q137 0 233.5 -85t96.5 -245q0 -32 -5 -60.5t-12.5 -51t-22 -43t-27.5 -35.5t-34 -30.5t-37 -25t-42.5 -22.5t-43 -20t-46 -19t-45.5 -19l-11 -229h-157l-13 262q-3 49 28.5 81.5t79 50t95.5 34.5t81 48.5t32 78.5 q-1 72 -37.5 108.5t-93.5 41.5q-80 6 -154 -45t-80 -128v-10h-184zM434 125q0 57 40 96t97 39t97.5 -39t40.5 -96t-40.5 -96t-97.5 -39t-97 39t-40 96z" />
<glyph unicode="@" horiz-adv-x="1656" d="M266 -10v520q0 238 149 389.5t392 151.5q269 0 426.5 -150.5t157.5 -390.5q0 -243 -123 -393t-332 -150q-61 0 -131.5 16.5t-140 47.5t-119.5 87t-60 126v2v45q0 250 13.5 299t83.5 49h319l221 -393q78 100 78 264q0 70 -27.5 136.5t-75.5 118.5t-118 84t-150 32 q-94 0 -167 -31t-117 -84t-66 -118t-22 -138v-520h-191zM653 260q7 -48 92.5 -84.5t174.5 -36.5q30 0 69 13l-170 311h-166v-203z" />
<glyph unicode="A" horiz-adv-x="1611" d="M252 0l391 1047q1 3 9 24.5t12 28.5t14 25t20 25.5t26 18t37.5 15t47.5 4.5q116 0 141 -72l412 -1116h-176l-135 365h-488l-133 -365h-178zM623 520h374l-186 520h-6z" />
<glyph unicode="B" horiz-adv-x="1413" d="M272 0v1188h392q186 0 289.5 -83.5t103.5 -244.5q0 -143 -121 -223q207 -79 207 -293q0 -168 -109 -256t-299 -88h-463zM444 156h261q260 0 260 188q1 96 -61 144q-60 47 -190 47h-5h-265v-379zM444 692h199q238 0 238 168q0 89 -60.5 129.5t-177.5 40.5h-199v-338z" />
<glyph unicode="C" horiz-adv-x="1517" d="M264 594q0 89 21 175.5t65.5 166t107 140t152 96.5t193.5 36q101 0 181.5 -25.5t130 -66t82 -95.5t45.5 -109.5t13 -112.5v-11l-155 5v10q0 115 -78 176t-211 61q-149 0 -259 -131t-110 -315q0 -82 25.5 -161.5t70.5 -143.5t114.5 -103t150.5 -39q221 0 354 111l68 64 l26 -207l-4 -4q-189 -134 -444 -134q-250 0 -394.5 166t-144.5 451z" />
<glyph unicode="D" horiz-adv-x="1472" d="M274 0v1188h369q204 0 334 -93.5t184 -252.5q39 -115 39 -248q0 -207 -84.5 -348t-241.5 -205q-102 -41 -231 -41h-369zM444 156h177q200 0 299.5 117.5t99.5 320.5q0 320 -234 407q-79 29 -165 29h-177v-874z" />
<glyph unicode="E" horiz-adv-x="1433" d="M268 0v1188h883l-76 -156h-637v-342h467l-80 -155h-387v-379h729l-71 -156h-828z" />
<glyph unicode="F" horiz-adv-x="1413" d="M266 0v1188h883l-74 -152h-639v-346h467l-78 -153h-389v-537h-170z" />
<glyph unicode="G" horiz-adv-x="1558" d="M268 594q0 104 31 200t84 170t121 130t146 85t155 29q221 0 338 -109.5t117 -299.5v-11l-156 5v10q0 115 -78 176t-211 61q-108 0 -193.5 -64.5t-130.5 -165.5t-45 -216q0 -104 31 -190.5t82.5 -141.5t115 -85t130.5 -30q198 0 330 91v161h-127l-76 156h360v-336v-2 q0 -9 -2 -23.5t-13 -44t-28 -40.5q-200 -132 -444 -132q-249 0 -393 170.5t-144 446.5z" />
<glyph unicode="H" horiz-adv-x="1402" d="M283 0v1188h170v-498h497v498h172v-1188h-172v535h-497v-535h-170z" />
<glyph unicode="I" horiz-adv-x="733" d="M283 0v1188h170v-1188h-170z" />
<glyph unicode="J" horiz-adv-x="1341" d="M266 141l152 82l4 -4q78 -72 221 -72h12q132 0 191 52t59 170v819h172v-850q0 -181 -110 -271t-314 -90q-237 0 -379 156z" />
<glyph unicode="K" horiz-adv-x="1546" d="M264 0v1188h170v-531l584 531h227l-639 -586l678 -602h-229l-621 526v-526h-170z" />
<glyph unicode="L" horiz-adv-x="1374" d="M266 0v1188h170v-1032h672l-76 -156h-766z" />
<glyph unicode="M" horiz-adv-x="1742" d="M283 0v1188h194q9 0 32 -30.5t56 -84t67.5 -113t75 -131.5t69.5 -125.5t58.5 -108.5t36.5 -67q349 660 392 660h198v-1188h-168l-4 926l-418 -717l-419 717v-926h-170z" />
<glyph unicode="N" horiz-adv-x="1433" d="M283 0v1188h157q52 0 70 -35l473 -813v848h170v-1188h-111q-47 0 -65 35l-522 897l-2 -932h-170z" />
<glyph unicode="O" horiz-adv-x="1724" d="M264 594q0 158 79.5 299.5t218 228t300.5 86.5t301 -86.5t219 -228t80 -299.5q0 -118 -47.5 -230.5t-127.5 -197.5t-192 -137t-233 -52t-233 52t-191 137t-126.5 197.5t-47.5 230.5zM459 594q0 -106 54 -204t148 -160t201 -62t202 62t149.5 160t54.5 204t-54.5 203.5 t-149.5 159t-202 61.5t-201 -61.5t-148 -159t-54 -203.5z" />
<glyph unicode="P" horiz-adv-x="1390" d="M270 0v1188h396q206 0 330 -102.5t124 -280.5q0 -182 -124.5 -282.5t-329.5 -100.5h-226v-422h-170zM440 580h205q142 0 219.5 56t77.5 169q0 225 -297 225h-205v-450z" />
<glyph unicode="Q" horiz-adv-x="1626" d="M264 594q0 118 43 230t115.5 196.5t174.5 136t214 51.5q111 0 213.5 -51.5t175 -136.5t115.5 -197t43 -229q0 -108 -35.5 -212.5t-97.5 -184.5l104 -88q31 -25 31 -53q0 -25 -23 -52q-27 -32 -57 -32q-24 0 -49 20l-115 96q-143 -111 -305 -111q-148 0 -275.5 88 t-199.5 230t-72 299zM442 594q0 -106 50 -204.5t136 -160t183 -61.5q84 0 152 41l-27 22q-31 24 -31 52q0 25 25 53q27 30 52 33t58 -21l43 -35q97 128 97 281q0 106 -49.5 204t-135.5 159t-184 61t-184 -61t-135.5 -159t-49.5 -204z" />
<glyph unicode="R" horiz-adv-x="1402" d="M266 0v1188h406q70 0 129.5 -10t114 -35t93 -63t61 -98t22.5 -136q0 -122 -76 -196t-197 -105q37 -36 105.5 -154.5t133 -243t70.5 -133.5l11 -14h-217l-4 6q-9 18 -42.5 89t-63 128t-69.5 122.5t-82 106t-81 46.5q-38 6 -88 6h-54v-504h-172zM438 662h203q272 0 272 184 q0 93 -71.5 138.5t-192.5 45.5h-211v-368z" />
<glyph unicode="S" horiz-adv-x="1458" d="M262 102l113 136h6q13 -1 43 -16t65 -31.5t107 -30t160 -13.5q103 0 183.5 51.5t80.5 135.5q0 24 -6 44t-14 36t-24.5 30t-30.5 23.5t-38.5 19.5t-41 15.5t-46.5 12t-46.5 10t-49 9.5t-47.5 9q-44 8 -69 13.5t-65.5 15.5t-64.5 18.5t-57.5 23.5t-53 31t-42 39t-34.5 49 t-20 60.5t-8 74.5q0 65 30 126.5t82 109t129 76t165 28.5q62 0 111 -2.5t87 -10t63 -13.5t51 -19.5t38 -21t37 -25.5t37 -26l10 -7l-113 -135h-6q-15 1 -35.5 15t-43.5 30.5t-85 30.5t-151 14h-9q-100 0 -158 -42q-61 -44 -61 -130q0 -26 8.5 -46t28 -35t37 -25t50 -18.5 t52.5 -13t58.5 -11.5t54.5 -10q49 -9 79 -15.5t75.5 -17.5t73.5 -21.5t65 -27.5t59.5 -35.5t47 -45t38 -57t22.5 -70t9 -85.5q0 -89 -62 -171.5t-165 -133t-215 -50.5q-138 0 -237 18.5t-142.5 39.5t-104.5 61z" />
<glyph unicode="T" horiz-adv-x="1396" d="M254 1030v158h889v-158h-357l7 -1030h-170l-15 1030h-354z" />
<glyph unicode="U" d="M276 397v791h170v-770q0 -140 63.5 -205.5t207.5 -65.5t206 64.5t62 206.5v770h170v-791q0 -206 -111.5 -313t-326.5 -107t-328 107.5t-113 312.5z" />
<glyph unicode="V" horiz-adv-x="1595" d="M248 1188h178l373 -846l370 846h179l-555 -1227z" />
<glyph unicode="W" horiz-adv-x="2054" d="M248 1188h178l362 -846l240 614l234 -614l366 846h178l-542 -1227l-236 592l-237 -592z" />
<glyph unicode="X" horiz-adv-x="1632" d="M248 0l461 618l-426 570h209l327 -445l324 445h203l-418 -572l458 -616h-212l-359 494l-362 -494h-205z" />
<glyph unicode="Y" horiz-adv-x="1570" d="M248 1188h196l342 -539l344 539h195l-453 -699v-489h-174v489z" />
<glyph unicode="Z" horiz-adv-x="1449" d="M256 76q0 32 14 49l668 905h-672l123 158h717q40 0 56 -19t16 -59q0 -28 -11 -45l-671 -911h700l-123 -154h-745q-39 0 -55.5 18.5t-16.5 57.5z" />
<glyph unicode="[" horiz-adv-x="1040" d="M270 -154v1434h500v-170h-330v-1094h330v-170h-500z" />
<glyph unicode="\" horiz-adv-x="1454" d="M248 1346h188l772 -1504h-188z" />
<glyph unicode="]" horiz-adv-x="1040" d="M270 16h332v1094h-332v170h500v-1434h-500v170z" />
<glyph unicode="^" horiz-adv-x="1329" d="M270 1069l396 477l395 -477h-174l-221 242l-222 -242h-174z" />
<glyph unicode="_" horiz-adv-x="1792" d="M293 -236h1208v-167h-1208v167z" />
<glyph unicode="`" horiz-adv-x="974" d="M276 1550h269l153 -333l-219 69z" />
<glyph unicode="a" horiz-adv-x="1357" d="M270 276q0 83 33 144.5t93 98t135.5 54t166.5 17.5q106 0 222 -45v65q0 93 -46.5 131.5t-156.5 38.5q-98 0 -159.5 -18t-113.5 -66l-8 -8l-90 133l8 6q69 59 153.5 89t209.5 30q373 0 373 -336v-610h-156v113q-22 -21 -47.5 -40.5t-65 -43t-89 -38t-99.5 -14.5 q-159 0 -261 82t-102 217zM449 279q0 -70 50 -105t140 -35q53 0 104 20t89 51t57 49.5t31 33.5v94q-119 41 -222 41q-249 0 -249 -149z" />
<glyph unicode="b" horiz-adv-x="1484" d="M274 0v1198l170 125v-524q126 147 318 147q86 0 167 -35t144 -96.5t101 -153.5t38 -198q0 -73 -18.5 -143.5t-56.5 -132.5t-90.5 -108.5t-126 -74t-158.5 -27.5q-198 0 -328 152v-129h-160zM444 463q0 -138 81.5 -224.5t224.5 -86.5q125 0 203.5 91t78.5 220 q0 121 -76.5 211t-205.5 90q-138 0 -222 -90.5t-84 -210.5z" />
<glyph unicode="c" horiz-adv-x="1458" d="M262 463q0 165 80.5 278.5t214.5 167.5q93 37 209 37q57 0 106 -7t103 -25.5t99.5 -57.5t76.5 -96l4 -4l-92 -203l-8 27q-33 113 -96 155.5t-183 42.5q-118 0 -196.5 -51.5t-114.5 -138.5q-25 -61 -25 -125q0 -110 51 -185t140 -108q59 -23 135 -23q196 0 338 109l61 51 l33 -194l-4 -4q-82 -59 -192.5 -95.5t-235.5 -36.5q-178 0 -298.5 79t-172.5 212q-33 85 -33 195z" />
<glyph unicode="d" horiz-adv-x="1486" d="M274 463q0 140 66.5 252.5t169.5 171.5t219 59q190 0 315 -147v524l170 -125v-1198h-157v129q-130 -152 -328 -152q-105 0 -193 41.5t-144 110.5t-87 155.5t-31 178.5zM455 463q0 -129 78.5 -220t203.5 -91q143 0 225 86.5t82 224.5q0 120 -84.5 210.5t-222.5 90.5 q-129 0 -205.5 -90t-76.5 -211z" />
<glyph unicode="e" horiz-adv-x="1550" d="M266 463q0 132 68 243t186 175.5t258 64.5t257 -65t184 -176.5t67 -243.5v-78h-842q28 -105 120.5 -172.5t213.5 -67.5t219 78q35 30 89 33q11 1 21 1q40 0 68 -10l35 -12l11 -6l-7 -10q-67 -109 -183 -174.5t-253 -65.5q-213 0 -362.5 142.5t-149.5 343.5zM444 537h664 q-25 107 -116.5 175t-213.5 68t-214.5 -68.5t-119.5 -174.5z" />
<glyph unicode="f" horiz-adv-x="1327" d="M250 643v166h168v147q3 173 100.5 267t280.5 94q68 0 121.5 -13.5t80.5 -28t70 -44.5l6 -4l-73 -148l-11 6q-6 4 -25.5 19t-24.5 18t-22 11.5t-31 10.5t-37.5 4.5t-53.5 2.5q-205 0 -205 -207v-137h393v-164h-393l-6 -643h-170v643h-168z" />
<glyph unicode="g" horiz-adv-x="1484" d="M272 502q0 92 30 178t85.5 155t143 110.5t192.5 41.5q199 0 328 -151v129h161v-990q0 -76 -26.5 -143t-78.5 -120t-136.5 -84t-192.5 -31q-120 0 -210.5 19.5t-196.5 84.5l-6 4l55 164l12 -8q94 -61 168 -77.5t178 -16.5q126 0 195 57.5t69 163.5v174 q-123 -144 -319 -144q-86 0 -167 35.5t-144 97t-101.5 153.5t-38.5 198zM453 492q0 -80 32 -150t98 -116t152 -46q138 0 222.5 94t84.5 218q0 143 -82 232t-225 89q-125 0 -203.5 -94.5t-78.5 -226.5z" />
<glyph unicode="h" horiz-adv-x="1378" d="M279 0v1198l172 125v-647q139 176 335 176q151 0 232.5 -90.5t81.5 -241.5v-520h-170v512q0 184 -156 184q-69 0 -128 -28.5t-99 -73.5q-96 -106 -96 -264v-330h-172z" />
<glyph unicode="i" horiz-adv-x="782" d="M254 1184q0 57 40 96t97 39t97 -39t40 -96t-40 -96t-97 -39t-97 39t-40 96zM307 0v924h170v-924h-170z" />
<glyph unicode="j" horiz-adv-x="1200" d="M254 -115l113 125l6 -6q35 -33 93 -56.5t118 -23.5q157 0 157 164v836h170v-836q0 -172 -84 -256q-56 -56 -145 -70q-37 -6 -72 -6q-52 0 -101 12q-84 20 -152 50t-97 59zM709 1155q0 50 33.5 83.5t82.5 33.5q50 0 85.5 -34t35.5 -83t-35.5 -83t-85.5 -34 q-49 0 -82.5 33.5t-33.5 83.5z" />
<glyph unicode="k" horiz-adv-x="1476" d="M266 0v1198l172 125v-858l535 459h231l-459 -398l467 -526h-223l-371 430l-180 -149v-281h-172z" />
<glyph unicode="l" horiz-adv-x="735" d="M283 0v1198l170 125v-1323h-170z" />
<glyph unicode="m" horiz-adv-x="2031" d="M276 0v770l173 125v-166q138 178 339 178q117 0 192 -55t103 -154v2l2 2q143 205 359 205q151 0 231 -88.5t80 -238.5v-580h-168v559q0 83 -40 131.5t-120 48.5q-134 0 -223 -100q-100 -107 -100 -256v-383h-172v559q0 83 -40 131.5t-120 48.5q-134 0 -223 -100 q-100 -107 -100 -256v-383h-173z" />
<glyph unicode="n" horiz-adv-x="1376" d="M276 0v770l173 125v-166q138 178 339 178q152 0 232 -88.5t80 -238.5v-580h-168v559q0 83 -40 131.5t-120 48.5q-134 0 -223 -100q-100 -107 -100 -256v-383h-173z" />
<glyph unicode="o" horiz-adv-x="1550" d="M266 463q0 132 68 243t186 175.5t258 64.5t257 -64.5t184 -175.5t67 -243t-67 -244t-184 -177t-257 -65q-213 0 -362.5 142.5t-149.5 343.5zM434 463q0 -132 101 -226t243 -94t241 94t99 226t-99 224.5t-241 92.5q-143 0 -243.5 -92.5t-100.5 -224.5z" />
<glyph unicode="p" horiz-adv-x="1482" d="M272 -274v1198h160v-129q129 151 328 151q105 0 192.5 -41.5t142.5 -110.5t85 -155t30 -178q0 -106 -38 -198t-101 -153.5t-144 -97t-167 -35.5q-192 0 -318 148v-524zM442 461q0 -120 84 -210.5t222 -90.5q129 0 205.5 90t76.5 211q0 129 -78.5 220t-203.5 91 q-143 0 -224.5 -86.5t-81.5 -224.5z" />
<glyph unicode="q" horiz-adv-x="1486" d="M274 461q0 92 31 178t87 155t144 110.5t193 41.5q199 0 328 -151v129h157v-1198l-170 -125v524q-126 -148 -315 -148q-86 0 -168 35.5t-145.5 97t-102.5 153.5t-39 198zM455 461q0 -121 76.5 -211t205.5 -90q138 0 222.5 90.5t84.5 210.5q0 138 -82 224.5t-225 86.5 q-125 0 -203.5 -91t-78.5 -220z" />
<glyph unicode="r" horiz-adv-x="1255" d="M266 0v811l170 123v-197q131 178 344 178q22 0 41 -1t32 -2t28.5 -4.5t22 -4.5t21 -7t17.5 -7.5t19.5 -9t19.5 -9.5l10 -6l-71 -159l-11 6q-23 16 -34.5 21.5t-39 10.5t-71.5 5q-135 0 -232 -101q-96 -103 -96 -256v-391h-170z" />
<glyph unicode="s" horiz-adv-x="1425" d="M260 666q0 117 115 198.5t301 81.5q121 0 222 -29t151 -92l2 -2l-15 -153l-14 14q-53 52 -129 74t-205 22q-114 0 -182 -28.5t-68 -89.5q0 -30 18 -45t56 -27q65 -20 237.5 -36t241.5 -42q82 -31 129 -86t47 -147q0 -64 -22.5 -116t-71 -95t-133 -67t-199.5 -24 q-134 0 -236.5 26.5t-174.5 96.5l-4 4l-29 199l20 -18q90 -82 178 -112t232 -30q262 0 262 140q0 57 -80 82q-57 18 -194 31.5t-174 19.5q-61 10 -106.5 26t-87.5 43.5t-64.5 73t-22.5 107.5z" />
<glyph unicode="t" horiz-adv-x="1331" d="M254 752v168h168v374h176v-374h393v-168h-393v-408q0 -201 205 -201q30 0 53.5 2.5t37.5 4.5t30 10.5t21.5 12t24 17.5t25.5 19l11 6l73 -147l-6 -5q-44 -30 -70 -44.5t-79 -28t-121 -13.5q-183 0 -280.5 90.5t-100.5 260.5v424h-168z" />
<glyph unicode="u" horiz-adv-x="1378" d="M279 305v580h167v-559q0 -83 40 -132t120 -49q133 0 223 101q101 108 101 256v383h172v-885h-172v156q-139 -179 -340 -179q-151 0 -231 88.5t-80 239.5z" />
<glyph unicode="v" horiz-adv-x="1583" d="M252 924h188l353 -641l352 641h188l-542 -957z" />
<glyph unicode="w" horiz-adv-x="2064" d="M252 924h178l365 -656l237 471l236 -471l368 656h179l-543 -959l-240 457l-237 -457z" />
<glyph unicode="x" horiz-adv-x="1681" d="M250 0l467 477l-438 447h227l344 -363l344 363h213l-440 -449l467 -475h-226l-374 389l-369 -389h-215z" />
<glyph unicode="y" horiz-adv-x="1568" d="M252 924h186l357 -686l340 686h184l-492 -967q-25 -49 -42.5 -81.5t-44.5 -75t-52 -69.5t-61 -56.5t-75 -46.5t-90 -29t-110 -13h-8l-20 172h10q120 6 211.5 80.5t156.5 235.5z" />
<glyph unicode="z" horiz-adv-x="1501" d="M250 0l659 772h-481l-102 152h927l-659 -772h510l102 -152h-956z" />
<glyph unicode="{" horiz-adv-x="1200" d="M256 561l193 719h497v-170h-332l-159 -553l159 -541h332v-170h-497z" />
<glyph unicode="|" horiz-adv-x="733" d="M283 -154v1434h170v-1434h-170z" />
<glyph unicode="}" horiz-adv-x="1200" d="M256 16h332l160 541l-160 553h-332v170h498l192 -719l-192 -715h-498v170z" />
<glyph unicode="~" horiz-adv-x="1449" d="M266 602l8 6q60 50 116.5 76.5t131.5 26.5q77 0 161 -21.5t150.5 -43t98.5 -21.5q95 0 162 55l8 6l82 -127l-8 -6q-61 -49 -117 -74.5t-131 -25.5q-62 0 -203.5 43t-206.5 43q-91 0 -162 -58l-8 -6z" />
<glyph unicode="&#xa1;" horiz-adv-x="788" d="M258 1083q0 57 40 96.5t97 39.5t97 -39.5t40 -96.5t-40 -96t-97 -39t-97 39t-40 96zM279 -10l49 739l2 2q7 13 18.5 32t40 52t47.5 35q25 3 29 -41l47 -819h-233z" />
<glyph unicode="&#xa2;" horiz-adv-x="1429" d="M258 463q0 168 80 285t213 172q44 19 119 30v189l170 -115v-74q94 -12 165.5 -52.5t120.5 -127.5l4 -4l-92 -203l-8 27q-33 112 -94.5 155t-175.5 43q-111 0 -187 -53.5t-112 -142.5q-25 -61 -25 -129q0 -112 50 -190t135 -111q61 -25 129 -25q187 0 329 109l62 51 l33 -195l-5 -4q-146 -103 -329 -125v-196l-170 114v82q-142 20 -238.5 96.5t-140.5 194.5q-33 88 -33 199z" />
<glyph unicode="&#xa3;" horiz-adv-x="1318" d="M248 94l8 6q61 55 100.5 101t65.5 100q2 5 13 25t14.5 33.5t3.5 33.5h-179l31 168h117q-2 7 -7.5 26t-8.5 29q-8 17 -29 57.5t-31.5 64t-20.5 64.5t-10 83q0 81 43.5 157t126 126.5t181.5 50.5q172 0 327 -105l13 -8l-148 -105l-6 5q-73 45 -188 45q-78 0 -125 -45.5 t-47 -120.5q0 -38 20 -90t47.5 -104.5t32.5 -65.5v-2q5 -16 14 -62h252l-31 -168h-206q-12 -131 -113 -239q58 14 102 14q46 0 116.5 -17.5t109.5 -17.5q42 0 72.5 12.5t72.5 40.5l10 7l80 -140l-8 -6q-55 -41 -103 -61.5t-110 -20.5q-51 0 -137.5 19.5t-137.5 19.5 q-106 0 -217 -49l-8 -2z" />
<glyph unicode="&#xa5;" horiz-adv-x="1554" d="M250 1198h196l332 -539l334 539h195l-369 -590h229v-153h-305v-72h305v-154h-305v-239h-170v239h-303v154h303v72h-303v153h229z" />
<glyph unicode="&#xa6;" horiz-adv-x="731" d="M281 -154v625h170v-625h-170zM281 655v625h170v-625h-170z" />
<glyph unicode="&#xa7;" horiz-adv-x="1425" d="M256 92l113 135h6q13 -1 42 -15.5t63 -31t103 -30t154 -13.5q95 0 172.5 49.5t83.5 130.5q-40 -3 -102 -5.5t-149 -0.5t-132 11q-62 13 -122 53t-113 105.5t-86 167.5t-33 224q0 137 114 242t283 105q69 0 124 -5.5t87.5 -10.5t67 -20.5t47 -23t44 -30t42.5 -29.5l8 -6 l-112 -136h-5q-15 1 -35 15t-42.5 31t-81.5 31t-144 14q-102 2 -160.5 -43.5t-58.5 -133.5q0 -28 19 -45t52 -23.5t66.5 -9t75 -5t64.5 -7.5q57 -11 115 -32.5t121.5 -60.5t112 -88t80 -120t31.5 -153q0 -91 -62.5 -175t-163.5 -135t-208 -51q-102 0 -178 8.5t-131.5 28 t-86.5 36t-77 46.5zM471 631q-6 -33 48.5 -96.5t129.5 -79.5q8 -4 17 -4q72 -14 172 -9t104 29q-1 38 -54.5 78.5t-113.5 65.5t-104 34q-57 11 -195 -12q-4 0 -4 -6z" />
<glyph unicode="&#xa8;" horiz-adv-x="1263" d="M274 1196q0 57 40.5 96t97.5 39t97 -39t40 -96t-40 -96t-97 -39t-97.5 39t-40.5 96zM715 1196q0 57 40 96t97 39t97 -39t40 -96t-40 -96t-97 -39t-97 39t-40 96z" />
<glyph unicode="&#xa9;" horiz-adv-x="1517" d="M260 463q0 135 67.5 248.5t182.5 179t250 65.5q101 0 193 -39t158.5 -104.5t106 -157t39.5 -192.5q0 -135 -66.5 -249t-181 -180.5t-249.5 -66.5t-250 66.5t-182.5 180.5t-67.5 249zM393 463q0 -151 108 -258t259 -107t257.5 107t106.5 258t-106.5 256.5t-257.5 105.5 t-259 -106t-108 -256zM485 463q0 94 45 159.5t119 96.5q50 20 111 20q153 0 211 -106l4 -4l-57 -125l-9 26q-18 61 -50 84t-93 23q-116 0 -160 -105q-14 -40 -14 -69q0 -59 27.5 -101.5t72.5 -60.5q30 -12 68 -12q107 0 180 57q42 31 66 -14q13 -19 9 -40.5t-22 -33.5 q-103 -74 -233 -74q-95 0 -161 45.5t-95 122.5q-19 55 -19 111z" />
<glyph unicode="&#xaa;" horiz-adv-x="1073" d="M274 1157q0 74 38.5 122.5t97.5 68.5t137 20q68 0 135 -27v37q0 62 -28 87.5t-95 25.5q-59 0 -96 -11.5t-70 -41.5l-8 -8l-63 92l8 6q46 39 98.5 58.5t130.5 19.5q117 0 178.5 -57t61.5 -171v-407h-107v67q-88 -82 -184 -82q-102 0 -168 55t-66 146zM397 1157 q0 -88 115 -88q84 0 170 100v62q-69 24 -135 24q-71 0 -110.5 -21.5t-39.5 -76.5z" />
<glyph unicode="&#xab;" horiz-adv-x="1505" d="M258 578l612 495v-172l-395 -323l395 -324v-172zM639 578l608 497v-174l-391 -323l391 -324v-174z" />
<glyph unicode="&#xac;" horiz-adv-x="1464" d="M276 510v168h914v-309l-168 47v94h-746z" />
<glyph unicode="&#xad;" horiz-adv-x="1331" d="M276 510v168h779v-168h-779z" />
<glyph unicode="&#xae;" horiz-adv-x="1517" d="M260 463q0 135 67.5 248.5t182.5 179t250 65.5q101 0 193 -39t158.5 -104.5t106 -157t39.5 -192.5q0 -135 -66.5 -249t-181 -180.5t-249.5 -66.5t-250 66.5t-182.5 180.5t-67.5 249zM393 463q0 -151 108 -258t259 -107t257.5 107t106.5 258t-106.5 256.5t-257.5 105.5 t-259 -106t-108 -256zM571 184v553h185q134 0 178 -96q10 -25 10 -66q0 -56 -32.5 -91t-82.5 -50q48 -59 132 -235l8 -15h-109l-2 6q-5 9 -25.5 53.5t-36.5 75.5t-39.5 60.5t-41.5 32.5q-8 2 -37 2h-19v-230h-88zM659 498h82q113 0 113 77q0 40 -30 61t-79 21h-86v-159z" />
<glyph unicode="&#xaf;" horiz-adv-x="1224" d="M281 1178v168h663v-168h-663z" />
<glyph unicode="&#xb0;" horiz-adv-x="1107" d="M272 1282q0 115 84.5 196t200.5 81t197.5 -81t81.5 -196t-81.5 -196.5t-197.5 -81.5t-200.5 81.5t-84.5 196.5zM410 1282q0 -58 44 -100.5t103 -42.5q58 0 99.5 42t41.5 101q0 58 -41 99.5t-100 41.5t-103 -41.5t-44 -99.5z" />
<glyph unicode="&#xb1;" horiz-adv-x="1441" d="M264 45h914v-168h-914v168zM264 510v168h373v373h168v-373h373v-168h-373v-373h-168v373h-373z" />
<glyph unicode="&#xb2;" horiz-adv-x="1097" d="M270 977q-1 59 11.5 103t39 73t53.5 46.5t68 35.5q252 113 252 246q0 58 -36.5 88t-102.5 30q-26 0 -41 -1t-31.5 -6t-24 -16.5t-7.5 -29.5v-10h-154v10q0 84 77 134.5t173 50.5q106 0 188 -56q47 -33 67.5 -80.5t4.5 -122t-78 -163.5q-33 -52 -76 -80t-100.5 -52 t-95.5 -53q-25 -16 -25 -41q0 -15 10 -25.5t29 -10.5h356l-26 -123h-477q-51 0 -54 53z" />
<glyph unicode="&#xb3;" horiz-adv-x="1112" d="M270 1014l60 94l10 -6q89 -60 201 -60q79 0 121.5 30.5t42.5 88.5q0 37 -49 76t-136 39h-6l-63 123h69q71 0 114.5 24.5t43.5 77.5q0 48 -39 73t-107 25t-133 -20l-6 -2l-96 80l12 6q112 68 230 68q74 0 128.5 -21t81.5 -48t42.5 -63t18.5 -56.5t3 -37.5 q0 -108 -100 -162q131 -60 131 -186q0 -65 -24 -114t-66.5 -77.5t-94 -42.5t-112.5 -14q-145 0 -268 99z" />
<glyph unicode="&#xb4;" horiz-adv-x="976" d="M279 1217l155 333h266l-200 -264z" />
<glyph unicode="&#xb5;" horiz-adv-x="1363" d="M281 -264v1159h168v-576q0 -86 38 -135t115 -49q125 0 213 103q96 110 96 264v393h172v-905h-172v155q-134 -178 -325 -178q-75 0 -137 27v-201z" />
<glyph unicode="&#xb6;" horiz-adv-x="1589" d="M266 809q0 179 120 284t312 105h396v-1208h-170v432h-226q-191 0 -311.5 102.5t-120.5 284.5zM1153 -10v1208h170v-1208h-170z" />
<glyph unicode="&#xb7;" horiz-adv-x="817" d="M272 584q0 57 40.5 96t97.5 39t97 -39t40 -96t-40 -96t-97 -39t-97.5 39t-40.5 96z" />
<glyph unicode="&#xb8;" horiz-adv-x="1054" d="M268 -430l49 125l11 -2q91 -35 188 -35q94 0 94 57q0 35 -71.5 50.5t-145.5 11.5h-12l45 262h154v-141q4 0 9.5 -1t8.5 -1q78 -8 137 -57.5t51 -121.5q-10 -94 -80 -146t-180 -52q-147 0 -250 47z" />
<glyph unicode="&#xb9;" horiz-adv-x="823" d="M272 1657l213 76q29 10 48.5 -7.5t19.5 -44.5v-757h-133v669l-115 -45z" />
<glyph unicode="&#xba;" horiz-adv-x="1200" d="M272 1282q0 134 97 229t233 95q135 0 231.5 -94.5t96.5 -229.5t-96.5 -230.5t-231.5 -95.5t-232.5 95.5t-97.5 230.5zM412 1282q0 -78 56 -133t134 -55t133.5 55t55.5 133t-55.5 132t-133.5 54t-134 -54t-56 -132z" />
<glyph unicode="&#xbb;" horiz-adv-x="1505" d="M258 82v172l395 324l-395 323v172l612 -495zM639 80v174l391 324l-391 323v174l608 -497z" />
<glyph unicode="&#xbc;" horiz-adv-x="1714" d="M254 1190q-19 56 27 72l192 71q28 9 47 -8t19 -43v-756h-119v668l-103 -41q-45 -15 -63 37zM338 -158l772 1504h188l-772 -1504h-188zM837.5 180q-2.5 25 16.5 51l348 408l113 51v-454h115l36 -109h-151v-233h-117v233h-301q-22 0 -37 12q-20 16 -22.5 41zM1008 236h190 v225z" />
<glyph unicode="&#xbd;" horiz-adv-x="1742" d="M254 1190q-19 56 27 72l192 71q28 9 47 -8t19 -43v-756h-119v668l-103 -41q-45 -15 -63 37zM338 -158l772 1504h188l-772 -1504h-188zM958 -51q-1 60 10.5 104t37 74t51.5 47.5t65 36.5q240 116 240 252q0 59 -36 90t-101 31q-26 0 -41.5 -1.5t-32 -6.5t-24 -16.5 t-7.5 -29.5v-10h-135v10q0 78 73.5 124t166.5 46q83 0 149 -41q38 -23 62 -56.5t33.5 -80.5t-8 -112t-62.5 -140q-25 -42 -59 -69.5t-64.5 -39.5t-73.5 -33t-76 -46q-20 -17 -20 -41q0 -39 35 -39h319q18 0 26.5 -16t8.5 -35q0 -22 -8.5 -39.5t-26.5 -17.5h-450 q-49 0 -52 55z" />
<glyph unicode="&#xbe;" horiz-adv-x="1849" d="M262 674v2q8 13 18.5 21.5t25.5 10.5t30 -12q84 -65 188 -65q74 0 115 33t41 98q0 42 -43.5 83.5t-120.5 41.5q-51 0 -51 55q0 28 12 40.5t39 12.5q139 0 139 113q0 109 -135 109q-70 0 -125 -25q-19 -8 -34.5 -10.5t-25.5 -1.5t-19.5 8t-13 11t-10 13.5t-7.5 10.5l-2 2 v4q0 33 24 45q102 59 211 59q50 0 91.5 -11t67.5 -27.5t45.5 -39.5t29.5 -43.5t16 -43.5t7 -36t1 -24q0 -107 -88 -160q115 -61 115 -186q0 -126 -79.5 -188t-199.5 -62q-137 0 -252 84q-39 27 -10 78zM471 -158l772 1504h189l-773 -1504h-188zM970.5 180q-2.5 25 16.5 51 l348 408l113 51v-454h115l36 -109h-151v-233h-117v233h-301q-22 0 -37 12q-20 16 -22.5 41zM1141 236h190v225z" />
<glyph unicode="&#xbf;" horiz-adv-x="1236" d="M254 319q0 32 5.5 60.5t12.5 51t22 43.5t27 36t35 31t37.5 25t42.5 22.5t43 19.5t46.5 18.5t45.5 18.5l11 229h157l11 -262q3 -49 -28.5 -81.5t-79 -50t-95.5 -34.5t-81 -48.5t-32 -78.5q1 -71 38 -107.5t95 -41.5q80 -6 154 44.5t80 127.5v10h184v-10 q-4 -107 -65.5 -189t-150 -122.5t-185.5 -40.5q-65 0 -123.5 20t-105 59t-74 103.5t-27.5 146.5zM524 1092q0 57 40.5 96t97.5 39t97 -39t40 -96t-40 -96.5t-97 -39.5t-97.5 39.5t-40.5 96.5z" />
<glyph unicode="&#xc0;" horiz-adv-x="1611" d="M252 0l391 1047q1 3 9 24.5t12 28.5t14 25t20 25.5t26 18t37.5 15t47.5 4.5q116 0 141 -72l412 -1116h-176l-135 365h-488l-133 -365h-178zM395 1638h277l157 -333l-227 69zM623 520h374l-186 520h-6z" />
<glyph unicode="&#xc1;" horiz-adv-x="1611" d="M252 0l391 1047q1 3 9 24.5t12 28.5t14 25t20 25.5t26 18t37.5 15t47.5 4.5q116 0 141 -72l412 -1116h-176l-135 365h-488l-133 -365h-178zM623 520h374l-186 520h-6zM791 1305l159 333h273l-205 -264z" />
<glyph unicode="&#xc2;" horiz-adv-x="1611" d="M252 0l391 1047q1 3 9 24.5t12 28.5t14 25t20 25.5t26 18t37.5 15t47.5 4.5q116 0 141 -72l412 -1116h-176l-135 365h-488l-133 -365h-178zM406 1311l403 477l405 -477h-178l-227 241l-227 -241h-176zM623 520h374l-186 520h-6z" />
<glyph unicode="&#xc3;" horiz-adv-x="1611" d="M252 0l391 1047q1 3 9 24.5t12 28.5t14 25t20 25.5t26 18t37.5 15t47.5 4.5q116 0 141 -72l412 -1116h-176l-135 365h-488l-133 -365h-178zM342 1460l6 6q59 50 117.5 76.5t134.5 26.5q79 0 166 -21.5t155 -43t101 -21.5q96 0 166 55l8 6l82 -127l-8 -6 q-61 -50 -117.5 -75t-134.5 -25q-64 0 -209.5 43t-212.5 43q-92 0 -166 -58l-8 -6zM623 520h374l-186 520h-6z" />
<glyph unicode="&#xc4;" horiz-adv-x="1611" d="M252 0l391 1047q1 3 9 24.5t12 28.5t14 25t20 25.5t26 18t37.5 15t47.5 4.5q116 0 141 -72l412 -1116h-176l-135 365h-488l-133 -365h-178zM442 1446q0 57 41.5 96t100.5 39t100 -39t41 -96t-41 -96t-100 -39t-100.5 39t-41.5 96zM623 520h374l-186 520h-6zM895 1446 q0 57 41 96t100 39t100.5 -39t41.5 -96t-41.5 -96t-100.5 -39t-100 39t-41 96z" />
<glyph unicode="&#xc5;" horiz-adv-x="1611" d="M252 0l391 1049q2 5 9 23t10.5 26.5t12 24t17 24.5t22.5 19t31 16q-97 22 -161 96.5t-64 169.5q0 115 87 195.5t206 80.5t203 -80.5t84 -195.5q0 -96 -62 -170t-157 -96q51 -15 69 -62l412 -1120h-176l-135 365h-488l-133 -365h-178zM623 520h374l-186 520h-6zM662 1448 q0 -58 45.5 -100.5t105.5 -42.5t102.5 42t42.5 101q0 58 -42.5 99.5t-102.5 41.5q-62 0 -106.5 -41.5t-44.5 -99.5z" />
<glyph unicode="&#xc7;" horiz-adv-x="1515" d="M262 594q0 89 21 175.5t65.5 166t107 140t152 96.5t193.5 36q101 0 181.5 -25.5t130 -66t82 -95.5t45.5 -109.5t13 -112.5v-11l-155 5v10q0 115 -78 176t-211 61q-149 0 -259 -131t-110 -315q0 -82 25.5 -161.5t70.5 -143.5t114.5 -103t150.5 -39q221 0 354 111l68 64 l26 -207l-4 -4q-158 -112 -364 -129v-109q4 0 9.5 -1t8.5 -1q81 -8 142 -57t53 -121q-10 -94 -82 -146.5t-187 -52.5q-154 0 -260 47l-8 4l51 125l10 -2q95 -35 197 -35q98 0 98 58q0 24 -40 39t-89 19.5t-96 2.5h-14l41 232q-213 28 -333 189.5t-120 420.5z" />
<glyph unicode="&#xc8;" d="M266 0v1188h883l-76 -156h-637v-342h467l-80 -155h-387v-379h729l-71 -156h-828zM291 1638h270l162 -333l-229 69z" />
<glyph unicode="&#xc9;" horiz-adv-x="1433" d="M268 0v1188h883l-76 -156h-637v-342h467l-80 -155h-387v-379h729l-71 -156h-828zM686 1305l164 333h270l-200 -264z" />
<glyph unicode="&#xca;" d="M266 0v1188h883l-76 -156h-637v-342h467l-80 -155h-387v-379h729l-71 -156h-828zM299 1311l406 477l405 -477h-174l-231 241l-232 -241h-174z" />
<glyph unicode="&#xcb;" d="M266 0v1188h883l-76 -156h-637v-342h467l-80 -155h-387v-379h729l-71 -156h-828zM338 1446q0 57 40 96t97 39q59 0 101 -39t42 -96t-42 -96t-101 -39q-57 0 -97 39t-40 96zM793 1446q0 57 42 96t101 39q57 0 97 -39t40 -96t-40 -96t-97 -39q-59 0 -101 39t-42 96z" />
<glyph unicode="&#xcc;" horiz-adv-x="1015" d="M264 1638h268l154 -333l-219 69zM582 0v1188h170v-1188h-170z" />
<glyph unicode="&#xcd;" horiz-adv-x="1009" d="M262 0v1188h170v-1188h-170zM328 1305l155 333h267l-201 -264z" />
<glyph unicode="&#xce;" horiz-adv-x="1320" d="M246 1311l416 477l413 -477h-174l-239 241l-242 -241h-174zM578 0v1188h170v-1188h-170z" />
<glyph unicode="&#xcf;" horiz-adv-x="1249" d="M248 1446q0 57 40 96t97 39q59 0 108.5 -40t49.5 -95t-49.5 -95t-108.5 -40q-57 0 -97 39t-40 96zM541 0v1188h170v-1188h-170zM709 1446q0 55 49 95t108 40q57 0 97.5 -39t40.5 -96t-40.5 -96t-97.5 -39q-59 0 -108 40t-49 95z" />
<glyph unicode="&#xd1;" horiz-adv-x="1452" d="M258 1460l6 6q59 50 117.5 76.5t134.5 26.5q80 0 167.5 -21.5t156 -43t102.5 -21.5q95 0 162 55l10 6l80 -127l-6 -6q-61 -49 -117 -74.5t-133 -25.5q-64 0 -211 43t-215 43q-93 0 -164 -58l-10 -6zM293 0v1188h158q49 0 67 -35l475 -813v848h170v-1188h-110 q-50 0 -68 35l-520 897l-2 -932h-170z" />
<glyph unicode="&#xd2;" horiz-adv-x="1722" d="M262 594q0 158 79.5 299.5t218 228t300.5 86.5t301 -86.5t219 -228t80 -299.5q0 -118 -47.5 -230.5t-127.5 -197.5t-192 -137t-233 -52t-233 52t-191 137t-126.5 197.5t-47.5 230.5zM446 1638h275l160 -333l-228 69zM457 594q0 -106 54 -204t148 -160t201 -62t202 62 t149.5 160t54.5 204t-54.5 203.5t-149.5 159t-202 61.5t-201 -61.5t-148 -159t-54 -203.5z" />
<glyph unicode="&#xd3;" horiz-adv-x="1724" d="M264 594q0 158 79.5 299.5t218 228t300.5 86.5t301 -86.5t219 -228t80 -299.5q0 -118 -47.5 -230.5t-127.5 -197.5t-192 -137t-233 -52t-233 52t-191 137t-126.5 197.5t-47.5 230.5zM459 594q0 -106 54 -204t148 -160t201 -62t202 62t149.5 160t54.5 204t-54.5 203.5 t-149.5 159t-202 61.5t-201 -61.5t-148 -159t-54 -203.5zM842 1305l162 333h272l-205 -264z" />
<glyph unicode="&#xd4;" horiz-adv-x="1722" d="M262 594q0 158 79.5 299.5t218 228t300.5 86.5t301 -86.5t219 -228t80 -299.5q0 -118 -47.5 -230.5t-127.5 -197.5t-192 -137t-233 -52t-233 52t-191 137t-126.5 197.5t-47.5 230.5zM455 1311l405 477l406 -477h-179l-227 241l-227 -241h-178zM457 594q0 -106 54 -204 t148 -160t201 -62t202 62t149.5 160t54.5 204t-54.5 203.5t-149.5 159t-202 61.5t-201 -61.5t-148 -159t-54 -203.5z" />
<glyph unicode="&#xd5;" horiz-adv-x="1722" d="M262 594q0 158 79.5 299.5t218 228t300.5 86.5t301 -86.5t219 -228t80 -299.5q0 -118 -47.5 -230.5t-127.5 -197.5t-192 -137t-233 -52t-233 52t-191 137t-126.5 197.5t-47.5 230.5zM391 1460l8 6q59 50 117.5 76.5t134.5 26.5q79 0 165.5 -21.5t154.5 -43t102 -21.5 q96 0 166 55l8 6l82 -127l-8 -6q-61 -50 -117.5 -75t-134.5 -25q-64 0 -209.5 43t-212.5 43q-92 0 -166 -58l-8 -6zM457 594q0 -106 54 -204t148 -160t201 -62t202 62t149.5 160t54.5 204t-54.5 203.5t-149.5 159t-202 61.5t-201 -61.5t-148 -159t-54 -203.5z" />
<glyph unicode="&#xd6;" horiz-adv-x="1722" d="M262 594q0 158 79.5 299.5t218 228t300.5 86.5t301 -86.5t219 -228t80 -299.5q0 -118 -47.5 -230.5t-127.5 -197.5t-192 -137t-233 -52t-233 52t-191 137t-126.5 197.5t-47.5 230.5zM457 594q0 -106 54 -204t148 -160t201 -62t202 62t149.5 160t54.5 204t-54.5 203.5 t-149.5 159t-202 61.5t-201 -61.5t-148 -159t-54 -203.5zM494 1446q0 57 41 96t100 39t100 -39t41 -96t-41 -96t-100 -39t-100 39t-41 96zM946 1446q0 57 41 96t100 39t100.5 -39t41.5 -96t-41.5 -96t-100.5 -39t-100 39t-41 96z" />
<glyph unicode="&#xd9;" d="M276 397v791h170v-770q0 -140 63.5 -205.5t207.5 -65.5t206 64.5t62 206.5v770h170v-791q0 -206 -111.5 -313t-326.5 -107t-328 107.5t-113 312.5zM303 1638h275l159 -333l-229 69z" />
<glyph unicode="&#xda;" d="M276 397v791h170v-770q0 -140 63.5 -205.5t207.5 -65.5t206 64.5t62 206.5v770h170v-791q0 -206 -111.5 -313t-326.5 -107t-328 107.5t-113 312.5zM694 1305l162 333h272l-202 -264z" />
<glyph unicode="&#xdb;" d="M276 397v791h170v-770q0 -140 63.5 -205.5t207.5 -65.5t206 64.5t62 206.5v770h170v-791q0 -206 -111.5 -313t-326.5 -107t-328 107.5t-113 312.5zM309 1311l406 477l405 -477h-176l-229 241l-230 -241h-176z" />
<glyph unicode="&#xdc;" d="M276 397v791h170v-770q0 -140 63.5 -205.5t207.5 -65.5t206 64.5t62 206.5v770h170v-791q0 -206 -111.5 -313t-326.5 -107t-328 107.5t-113 312.5zM348 1446q0 57 41 96t98 39q59 0 100.5 -39t41.5 -96t-41.5 -96t-100.5 -39q-57 0 -98 39t-41 96zM803 1446q0 57 41 96 t100 39q57 0 98 -39t41 -96t-41 -96t-98 -39q-59 0 -100 39t-41 96z" />
<glyph unicode="&#xdd;" horiz-adv-x="1572" d="M248 1188h196l342 -539l344 539h195l-453 -699v-489h-174v489zM766 1305l162 333h272l-205 -264z" />
<glyph unicode="&#xe0;" horiz-adv-x="1355" d="M268 276q0 83 33 144.5t93 98t135.5 54t166.5 17.5q106 0 222 -45v65q0 93 -46.5 131.5t-156.5 38.5q-98 0 -159.5 -18t-113.5 -66l-8 -8l-90 133l8 6q69 59 153.5 89t209.5 30q372 0 372 -336v-610h-155v113q-22 -21 -47.5 -40.5t-65 -43t-89 -38t-99.5 -14.5 q-159 0 -261 82t-102 217zM299 1376h272l164 -334l-233 70zM446 279q0 -70 50.5 -105t140.5 -35q53 0 104 20t89 51t57 49.5t31 33.5v94q-119 41 -222 41q-250 0 -250 -149z" />
<glyph unicode="&#xe1;" horiz-adv-x="1372" d="M258 276q0 83 33 144.5t92 98t134.5 54t166.5 17.5q107 0 223 -45v65q0 93 -47.5 131.5t-157.5 38.5q-98 0 -157.5 -18t-112.5 -66l-8 -8l-90 133l8 6q69 60 152 89.5t208 29.5q375 0 375 -336v-610h-155v113q-30 -29 -67 -55.5t-104.5 -53.5t-132.5 -27 q-159 0 -259.5 82t-100.5 217zM436 279q0 -70 49.5 -105t139.5 -35q52 0 103.5 20t89.5 50.5t57.5 50t31.5 33.5v94q-119 41 -223 41q-248 0 -248 -149zM684 1042l164 334h268l-201 -264z" />
<glyph unicode="&#xe2;" horiz-adv-x="1366" d="M258 276q0 83 33 144.5t92 98t134.5 54t166.5 17.5q107 0 223 -45v65q0 93 -46.5 131.5t-155.5 38.5q-98 0 -159.5 -18t-113.5 -66l-8 -8l-90 133l8 6q69 59 153.5 89t209.5 30q372 0 372 -336v-610h-155v113q-30 -29 -67 -55.5t-104.5 -53.5t-132.5 -27 q-159 0 -259.5 82t-100.5 217zM297 1049l408 477l403 -477h-174l-229 241l-234 -241h-174zM436 279q0 -70 49.5 -105t139.5 -35q52 0 103.5 20t89.5 50.5t57.5 50t31.5 33.5v94q-119 41 -223 41q-248 0 -248 -149z" />
<glyph unicode="&#xe3;" horiz-adv-x="1435" d="M250 1198l6 6q59 50 117 76.5t133 26.5q81 0 169 -21.5t156.5 -43t102.5 -21.5q95 0 162 55l10 6l80 -127l-6 -6q-61 -49 -117 -74.5t-133 -25.5q-65 0 -212.5 43t-215.5 43q-91 0 -162 -58l-10 -6zM274 276q0 83 33 144.5t92 98t134 54t165 17.5q100 0 224 -45v65 q0 93 -47.5 131.5t-155.5 38.5q-96 0 -156 -18t-114 -66l-9 -8l-90 133l6 6q69 59 154 89t209 30q375 0 375 -336v-610h-156v113q-149 -136 -303 -136q-159 0 -260 82t-101 217zM453 279q0 -70 49.5 -105t138.5 -35q51 0 102 20t89 50.5t58.5 50t31.5 33.5v94 q-119 41 -224 41q-245 0 -245 -149z" />
<glyph unicode="&#xe4;" horiz-adv-x="1357" d="M270 276q0 83 33 144.5t93 98t135.5 54t166.5 17.5q106 0 222 -45v65q0 93 -46.5 131.5t-156.5 38.5q-98 0 -159.5 -18t-113.5 -66l-8 -8l-90 133l8 6q69 59 153.5 89t209.5 30q373 0 373 -336v-610h-156v113q-22 -21 -47.5 -40.5t-65 -43t-89 -38t-99.5 -14.5 q-159 0 -261 82t-102 217zM346 1184q0 57 40 96t97 39q59 0 101.5 -39t42.5 -96t-42.5 -96t-101.5 -39q-57 0 -97 39t-40 96zM449 279q0 -70 50 -105t140 -35q53 0 104 20t89 51t57 49.5t31 33.5v94q-119 41 -222 41q-249 0 -249 -149zM805 1184q0 57 41 96t98 39t97 -39 t40 -96t-40 -96t-97 -39t-98 39t-41 96z" />
<glyph unicode="&#xe5;" horiz-adv-x="1353" d="M268 276q0 83 33 144.5t93 98t135.5 54t166.5 17.5q106 0 222 -45v65q0 93 -46.5 131.5t-156.5 38.5q-98 0 -159.5 -18t-113.5 -66l-8 -8l-90 133l8 6q69 59 153.5 89t209.5 30q372 0 372 -336v-610h-155v113q-22 -21 -47.5 -40.5t-65 -43t-89 -38t-99.5 -14.5 q-159 0 -261 82t-102 217zM420 1327q0 115 87 196t210 81q121 0 204 -80.5t83 -196.5t-83 -197t-204 -81q-123 0 -210 81.5t-87 196.5zM446 279q0 -70 50.5 -105t140.5 -35q53 0 104 20t89 51t57 49.5t31 33.5v94q-119 41 -222 41q-250 0 -250 -149zM559 1327 q0 -58 47.5 -100.5t110.5 -42.5t106 42t43 101t-43 100t-106 41q-64 0 -111 -41.5t-47 -99.5z" />
<glyph unicode="&#xe7;" horiz-adv-x="1456" d="M260 463q0 165 80.5 278.5t214.5 167.5q93 37 209 37q57 0 106 -7t103 -25.5t99.5 -57.5t76.5 -96l4 -4l-92 -203l-8 27q-33 113 -96 155.5t-183 42.5q-118 0 -196.5 -51.5t-114.5 -138.5q-25 -61 -25 -125q0 -110 51 -185t140 -108q59 -23 135 -23q196 0 338 109l61 51 l33 -194l-4 -4q-152 -108 -346 -127v-109q4 0 9.5 -1t8.5 -1q81 -8 141 -57t52 -121q-10 -94 -82 -146.5t-187 -52.5q-156 0 -262 47l-8 4l53 125l9 -2q99 -35 198 -35t99 58q0 24 -40 39t-89.5 19.5t-96.5 2.5h-14l41 232q-145 18 -243 93t-142 191q-33 85 -33 195z" />
<glyph unicode="&#xe8;" horiz-adv-x="1548" d="M264 463q0 132 68 243t186 175.5t258 64.5t257 -65t184 -176.5t67 -243.5v-78h-842q28 -105 120.5 -172.5t213.5 -67.5t219 78q36 30 89.5 33t88.5 -9l35 -12l11 -6l-7 -10q-67 -109 -183 -174.5t-253 -65.5q-213 0 -362.5 142.5t-149.5 343.5zM362 1376h275l160 -334 l-230 70zM442 537h664q-25 107 -116.5 175t-213.5 68t-214.5 -68.5t-119.5 -174.5z" />
<glyph unicode="&#xe9;" horiz-adv-x="1548" d="M264 463q0 132 68 243t186 175.5t258 64.5t257 -65t184 -176.5t67 -243.5v-78h-842q28 -105 120.5 -172.5t213.5 -67.5t219 78q36 30 89.5 33t88.5 -9l35 -12l11 -6l-7 -10q-67 -109 -183 -174.5t-253 -65.5q-213 0 -362.5 142.5t-149.5 343.5zM442 537h664 q-25 107 -116.5 175t-213.5 68t-214.5 -68.5t-119.5 -174.5zM756 1042l164 334h270l-203 -264z" />
<glyph unicode="&#xea;" horiz-adv-x="1548" d="M264 463q0 132 68 243t186 175.5t258 64.5t257 -65t184 -176.5t67 -243.5v-78h-842q28 -105 120.5 -172.5t213.5 -67.5t219 78q36 30 89.5 33t88.5 -9l35 -12l11 -6l-7 -10q-67 -109 -183 -174.5t-253 -65.5q-213 0 -362.5 142.5t-149.5 343.5zM371 1049l405 477 l406 -477h-176l-230 241l-229 -241h-176zM442 537h664q-25 107 -116.5 175t-213.5 68t-214.5 -68.5t-119.5 -174.5z" />
<glyph unicode="&#xeb;" horiz-adv-x="1548" d="M264 463q0 132 68 243t186 175.5t258 64.5t257 -65t184 -176.5t67 -243.5v-78h-842q28 -105 120.5 -172.5t213.5 -67.5t219 78q36 30 89.5 33t88.5 -9l35 -12l11 -6l-7 -10q-67 -109 -183 -174.5t-253 -65.5q-213 0 -362.5 142.5t-149.5 343.5zM410 1184q0 57 41 96 t98 39q59 0 100 -39t41 -96t-41 -96t-100 -39q-57 0 -98 39t-41 96zM442 537h664q-25 107 -116.5 175t-213.5 68t-214.5 -68.5t-119.5 -174.5zM864 1184q0 57 41.5 96t100.5 39q57 0 98 -39t41 -96t-41 -96t-98 -39q-59 0 -100.5 39t-41.5 96z" />
<glyph unicode="&#xec;" horiz-adv-x="1015" d="M264 1376h268l154 -334l-219 70zM584 0v924h170v-924h-170z" />
<glyph unicode="&#xed;" horiz-adv-x="1009" d="M262 0v924h170v-924h-170zM328 1042l155 334h267l-201 -264z" />
<glyph unicode="&#xee;" horiz-adv-x="1300" d="M246 1049l405 477l404 -477h-174l-230 241l-231 -241h-174zM561 924h182l5 -924h-170z" />
<glyph unicode="&#xef;" horiz-adv-x="1239" d="M252 1184q0 57 40 96t97 39t98 -39t41 -96t-41 -96t-98 -39t-97 39t-40 96zM526 924h187l2 -924h-170zM711 1184q0 57 41 96t98 39t97 -39t40 -96t-40 -96t-97 -39t-98 39t-41 96z" />
<glyph unicode="&#xf1;" horiz-adv-x="1439" d="M252 1198l6 6q59 50 117 76.5t133 26.5q80 0 168 -21.5t157 -43t103 -21.5q95 0 162 55l10 6l80 -127l-6 -6q-61 -49 -117 -74.5t-133 -25.5q-65 0 -212.5 43t-215.5 43q-91 0 -162 -58l-10 -6zM309 0v770l172 125v-166q138 178 340 178q152 0 232 -88.5t80 -238.5v-580 h-168v559q0 83 -41 131.5t-121 48.5q-134 0 -223 -100q-99 -106 -99 -256v-383h-172z" />
<glyph unicode="&#xf2;" horiz-adv-x="1550" d="M266 463q0 132 68 243t186 175.5t258 64.5t257 -64.5t184 -175.5t67 -243t-67 -244t-184 -177t-257 -65q-213 0 -362.5 142.5t-149.5 343.5zM365 1376h274l160 -334l-230 70zM434 463q0 -132 101 -226t243 -94t241 94t99 226t-99 224.5t-241 92.5q-143 0 -243.5 -92.5 t-100.5 -224.5z" />
<glyph unicode="&#xf3;" horiz-adv-x="1548" d="M264 463q0 132 68 243t186 175.5t258 64.5t257 -64.5t184 -175.5t67 -243t-67 -244t-184 -177t-257 -65q-213 0 -362.5 142.5t-149.5 343.5zM432 463q0 -132 101 -226t243 -94t241 94t99 226t-99 224.5t-241 92.5q-143 0 -243.5 -92.5t-100.5 -224.5zM756 1042l164 334 h270l-203 -264z" />
<glyph unicode="&#xf4;" horiz-adv-x="1548" d="M264 463q0 132 68 243t186 175.5t258 64.5t257 -64.5t184 -175.5t67 -243t-67 -244t-184 -177t-257 -65q-213 0 -362.5 142.5t-149.5 343.5zM371 1049l405 477l406 -477h-176l-230 241l-229 -241h-176zM432 463q0 -132 101 -226t243 -94t241 94t99 226t-99 224.5 t-241 92.5q-143 0 -243.5 -92.5t-100.5 -224.5z" />
<glyph unicode="&#xf5;" horiz-adv-x="1548" d="M264 463q0 132 68 243t186 175.5t258 64.5t257 -64.5t184 -175.5t67 -243t-67 -244t-184 -177t-257 -65q-213 0 -362.5 142.5t-149.5 343.5zM307 1198l8 6q60 50 117 76.5t133 26.5q80 0 167.5 -21.5t156 -43t102.5 -21.5q97 0 164 55l8 6l82 -127l-8 -6 q-61 -49 -117 -74.5t-133 -25.5q-65 0 -211.5 43t-214.5 43q-93 0 -164 -58l-8 -6zM432 463q0 -132 101 -226t243 -94t241 94t99 226t-99 224.5t-241 92.5q-143 0 -243.5 -92.5t-100.5 -224.5z" />
<glyph unicode="&#xf6;" horiz-adv-x="1548" d="M264 463q0 132 68 243t186 175.5t258 64.5t257 -64.5t184 -175.5t67 -243t-67 -244t-184 -177t-257 -65q-213 0 -362.5 142.5t-149.5 343.5zM410 1184q0 57 41 96t98 39q59 0 100 -39t41 -96t-41 -96t-100 -39q-57 0 -98 39t-41 96zM432 463q0 -132 101 -226t243 -94 t241 94t99 226t-99 224.5t-241 92.5q-143 0 -243.5 -92.5t-100.5 -224.5zM864 1184q0 57 41.5 96t100.5 39q57 0 98 -39t41 -96t-41 -96t-98 -39q-59 0 -100.5 39t-41.5 96z" />
<glyph unicode="&#xf9;" horiz-adv-x="1376" d="M276 1376h273l162 -334l-230 70zM279 305v580h167v-559q0 -83 40 -132t120 -49q133 0 223 101q101 108 101 256v383h172v-885h-172v156q-139 -179 -340 -179q-151 0 -231 88.5t-80 239.5z" />
<glyph unicode="&#xfa;" horiz-adv-x="1376" d="M276 305v580h168v-559q0 -83 40 -132t120 -49q133 0 223 101q101 108 101 256v383h172v-885h-172v156q-139 -179 -340 -179q-151 0 -231.5 89t-80.5 239zM668 1042l163 334h271l-203 -264z" />
<glyph unicode="&#xfb;" horiz-adv-x="1372" d="M274 305v580h168v-559q0 -83 40 -132t120 -49q133 0 223 101q101 108 101 256v383h172v-885h-172v156q-139 -179 -340 -179q-151 0 -231.5 89t-80.5 239zM281 1049l405 477l406 -477h-174l-232 241l-231 -241h-174z" />
<glyph unicode="&#xfc;" horiz-adv-x="1374" d="M276 305v580h168v-559q0 -83 40 -132t120 -49q133 0 223 101q101 108 101 256v383h172v-885h-172v156q-139 -179 -340 -179q-151 0 -231.5 89t-80.5 239zM319 1184q0 57 40.5 96t97.5 39q59 0 101 -39t42 -96t-42 -96t-101 -39q-57 0 -97.5 39t-40.5 96zM774 1184 q0 57 42.5 96t101.5 39q57 0 97 -39t40 -96t-40 -96t-97 -39q-59 0 -101.5 39t-42.5 96z" />
<glyph unicode="&#xfd;" horiz-adv-x="1566" d="M250 924h186l357 -686l340 686h184l-492 -967q-25 -49 -42.5 -81.5t-44.5 -75t-52 -69.5t-61 -56.5t-75 -46.5t-90 -29t-110 -13h-8l-20 172h10q120 6 211.5 80.5t156.5 235.5zM766 1042l160 334h272l-203 -264z" />
<glyph unicode="&#xff;" horiz-adv-x="1566" d="M250 924h186l357 -686l340 686h184l-492 -967q-25 -49 -42.5 -81.5t-44.5 -75t-52 -69.5t-61 -56.5t-75 -46.5t-90 -29t-110 -13h-8l-20 172h10q120 6 211.5 80.5t156.5 235.5zM416 1184q0 57 40 96t99 39t101 -39t42 -96t-42 -96t-101 -39t-99 39t-40 96zM870 1184 q0 57 41.5 96t100.5 39t99 -39t40 -96t-40 -96t-99 -39t-100.5 39t-41.5 96z" />
<glyph unicode="&#x178;" horiz-adv-x="1572" d="M248 1188h196l342 -539l344 539h195l-453 -699v-489h-174v489zM420 1446q0 57 41 96t100 39t100 -39t41 -96t-41 -96t-100 -39t-100 39t-41 96zM872 1446q0 57 41.5 96t100.5 39t100 -39t41 -96t-41 -96t-100 -39t-100.5 39t-41.5 96z" />
<glyph unicode="&#x2dc;" horiz-adv-x="1460" d="M272 262l9 6q60 50 116 76.5t131 26.5q77 0 161 -21.5t150.5 -43t98.5 -21.5q95 0 162 55l8 6l82 -127l-8 -6q-61 -49 -117 -74.5t-131 -25.5q-62 0 -203.5 43t-206.5 43q-91 0 -162 -58l-8 -6z" />
<glyph unicode="&#x2000;" horiz-adv-x="894" />
<glyph unicode="&#x2001;" horiz-adv-x="1788" />
<glyph unicode="&#x2002;" horiz-adv-x="894" />
<glyph unicode="&#x2003;" horiz-adv-x="1788" />
<glyph unicode="&#x2004;" horiz-adv-x="596" />
<glyph unicode="&#x2005;" horiz-adv-x="447" />
<glyph unicode="&#x2006;" horiz-adv-x="298" />
<glyph unicode="&#x2007;" horiz-adv-x="298" />
<glyph unicode="&#x2008;" horiz-adv-x="223" />
<glyph unicode="&#x2009;" horiz-adv-x="357" />
<glyph unicode="&#x200a;" horiz-adv-x="99" />
<glyph unicode="&#x2010;" horiz-adv-x="1466" d="M276 510v168h914v-168h-914z" />
<glyph unicode="&#x2011;" horiz-adv-x="1466" d="M276 510v168h914v-168h-914z" />
<glyph unicode="&#x2012;" horiz-adv-x="1466" d="M276 510v168h914v-168h-914z" />
<glyph unicode="&#x2013;" horiz-adv-x="1576" d="M276 510v168h1024v-168h-1024z" />
<glyph unicode="&#x2014;" horiz-adv-x="2600" d="M276 510v168h2048v-168h-2048z" />
<glyph unicode="&#x202f;" horiz-adv-x="357" />
<glyph unicode="&#x205f;" horiz-adv-x="447" />
<glyph unicode="&#x20ac;" horiz-adv-x="1679" d="M252 393l47 168h795l-47 -168h-383q50 -166 176 -223q71 -33 143 -33q207 0 344 111l8 8l90 -150l-8 -6q-188 -133 -434 -133q-106 0 -193 32.5t-148 91.5t-101.5 134.5t-61.5 167.5h-227zM252 625l47 168h178q32 135 107.5 232t185.5 149q102 45 213 45 q101 0 192.5 -35.5t143.5 -91.5q108 -116 108 -283v-10l-155 4v10q0 115 -77 176.5t-204 61.5q-241 0 -327 -258h430l-47 -168h-795z" />
<glyph unicode="&#x25fc;" horiz-adv-x="921" d="M0 0v922h922v-922h-922z" />
</font>
</defs>
</svg>
